%TF.GenerationSoftware,KiCad,Pcbnew,7.0.5*%
%TF.CreationDate,2023-08-23T03:28:24+02:00*%
%TF.ProjectId,STM32_DevBoard,53544d33-325f-4446-9576-426f6172642e,rev?*%
%TF.SameCoordinates,Original*%
%TF.FileFunction,Paste,Top*%
%TF.FilePolarity,Positive*%
%FSLAX46Y46*%
G04 Gerber Fmt 4.6, Leading zero omitted, Abs format (unit mm)*
G04 Created by KiCad (PCBNEW 7.0.5) date 2023-08-23 03:28:24*
%MOMM*%
%LPD*%
G01*
G04 APERTURE LIST*
G04 Aperture macros list*
%AMRoundRect*
0 Rectangle with rounded corners*
0 $1 Rounding radius*
0 $2 $3 $4 $5 $6 $7 $8 $9 X,Y pos of 4 corners*
0 Add a 4 corners polygon primitive as box body*
4,1,4,$2,$3,$4,$5,$6,$7,$8,$9,$2,$3,0*
0 Add four circle primitives for the rounded corners*
1,1,$1+$1,$2,$3*
1,1,$1+$1,$4,$5*
1,1,$1+$1,$6,$7*
1,1,$1+$1,$8,$9*
0 Add four rect primitives between the rounded corners*
20,1,$1+$1,$2,$3,$4,$5,0*
20,1,$1+$1,$4,$5,$6,$7,0*
20,1,$1+$1,$6,$7,$8,$9,0*
20,1,$1+$1,$8,$9,$2,$3,0*%
G04 Aperture macros list end*
%ADD10RoundRect,0.062500X-0.117500X-0.062500X0.117500X-0.062500X0.117500X0.062500X-0.117500X0.062500X0*%
%ADD11RoundRect,0.250000X0.275000X0.350000X-0.275000X0.350000X-0.275000X-0.350000X0.275000X-0.350000X0*%
%ADD12R,0.850000X1.600000*%
%ADD13RoundRect,0.150000X-0.825000X-0.150000X0.825000X-0.150000X0.825000X0.150000X-0.825000X0.150000X0*%
%ADD14RoundRect,0.062500X0.062500X-0.117500X0.062500X0.117500X-0.062500X0.117500X-0.062500X-0.117500X0*%
%ADD15RoundRect,0.250000X-0.475000X0.337500X-0.475000X-0.337500X0.475000X-0.337500X0.475000X0.337500X0*%
%ADD16RoundRect,0.250000X0.337500X0.475000X-0.337500X0.475000X-0.337500X-0.475000X0.337500X-0.475000X0*%
%ADD17RoundRect,0.225000X0.375000X-0.225000X0.375000X0.225000X-0.375000X0.225000X-0.375000X-0.225000X0*%
%ADD18RoundRect,0.250000X0.450000X-0.350000X0.450000X0.350000X-0.450000X0.350000X-0.450000X-0.350000X0*%
%ADD19RoundRect,0.250000X-0.450000X0.350000X-0.450000X-0.350000X0.450000X-0.350000X0.450000X0.350000X0*%
%ADD20RoundRect,0.250000X0.475000X-0.337500X0.475000X0.337500X-0.475000X0.337500X-0.475000X-0.337500X0*%
%ADD21R,2.000000X1.500000*%
%ADD22R,2.000000X3.800000*%
%ADD23RoundRect,0.250000X-0.337500X-0.475000X0.337500X-0.475000X0.337500X0.475000X-0.337500X0.475000X0*%
%ADD24RoundRect,0.062500X-0.062500X0.117500X-0.062500X-0.117500X0.062500X-0.117500X0.062500X0.117500X0*%
%ADD25RoundRect,0.250000X-0.350000X-0.450000X0.350000X-0.450000X0.350000X0.450000X-0.350000X0.450000X0*%
%ADD26RoundRect,0.075000X-0.700000X-0.075000X0.700000X-0.075000X0.700000X0.075000X-0.700000X0.075000X0*%
%ADD27RoundRect,0.075000X-0.075000X-0.700000X0.075000X-0.700000X0.075000X0.700000X-0.075000X0.700000X0*%
%ADD28RoundRect,0.087500X-0.087500X0.187500X-0.087500X-0.187500X0.087500X-0.187500X0.087500X0.187500X0*%
%ADD29RoundRect,0.125000X-0.575000X0.125000X-0.575000X-0.125000X0.575000X-0.125000X0.575000X0.125000X0*%
%ADD30RoundRect,0.087500X0.087500X-0.187500X0.087500X0.187500X-0.087500X0.187500X-0.087500X-0.187500X0*%
%ADD31RoundRect,0.062500X0.117500X0.062500X-0.117500X0.062500X-0.117500X-0.062500X0.117500X-0.062500X0*%
%ADD32R,1.200000X1.400000*%
%ADD33RoundRect,0.075000X0.075000X-0.350000X0.075000X0.350000X-0.075000X0.350000X-0.075000X-0.350000X0*%
%ADD34RoundRect,0.075000X0.350000X0.075000X-0.350000X0.075000X-0.350000X-0.075000X0.350000X-0.075000X0*%
G04 APERTURE END LIST*
D10*
%TO.C,D20*%
X174670000Y-109050000D03*
X173830000Y-109050000D03*
%TD*%
D11*
%TO.C,FB1*%
X136900000Y-94300000D03*
X134600000Y-94300000D03*
%TD*%
D12*
%TO.C,D1*%
X145375000Y-71550000D03*
X147125000Y-71550000D03*
X147125000Y-68050000D03*
X145375000Y-68050000D03*
%TD*%
D13*
%TO.C,U4*%
X133275000Y-77895000D03*
X133275000Y-79165000D03*
X133275000Y-80435000D03*
X133275000Y-81705000D03*
X138225000Y-81705000D03*
X138225000Y-80435000D03*
X138225000Y-79165000D03*
X138225000Y-77895000D03*
%TD*%
D14*
%TO.C,D18*%
X162050000Y-108380000D03*
X162050000Y-109220000D03*
%TD*%
D11*
%TO.C,FB2*%
X177400000Y-86050000D03*
X175100000Y-86050000D03*
%TD*%
D15*
%TO.C,C28*%
X167250000Y-100262500D03*
X167250000Y-102337500D03*
%TD*%
D16*
%TO.C,C4*%
X145287500Y-98050000D03*
X143212500Y-98050000D03*
%TD*%
D17*
%TO.C,D24*%
X170500000Y-88200000D03*
X170500000Y-84900000D03*
%TD*%
D18*
%TO.C,R7*%
X155250000Y-75800000D03*
X155250000Y-73800000D03*
%TD*%
D19*
%TO.C,R27*%
X148250000Y-98300000D03*
X148250000Y-100300000D03*
%TD*%
D18*
%TO.C,R11*%
X171900000Y-102300000D03*
X171900000Y-100300000D03*
%TD*%
D10*
%TO.C,D4*%
X152670000Y-71800000D03*
X151830000Y-71800000D03*
%TD*%
D14*
%TO.C,D13*%
X149500000Y-108830000D03*
X149500000Y-109670000D03*
%TD*%
D15*
%TO.C,C10*%
X150500000Y-98262500D03*
X150500000Y-100337500D03*
%TD*%
D19*
%TO.C,R16*%
X159500000Y-98300000D03*
X159500000Y-100300000D03*
%TD*%
%TO.C,R9*%
X155000000Y-98300000D03*
X155000000Y-100300000D03*
%TD*%
D15*
%TO.C,C5*%
X152750000Y-98262500D03*
X152750000Y-100337500D03*
%TD*%
D20*
%TO.C,C31*%
X161750000Y-100337500D03*
X161750000Y-98262500D03*
%TD*%
D21*
%TO.C,U8*%
X176900000Y-95100000D03*
X176900000Y-92800000D03*
D22*
X170600000Y-92800000D03*
D21*
X176900000Y-90500000D03*
%TD*%
D23*
%TO.C,C29*%
X164962500Y-104300000D03*
X167037500Y-104300000D03*
%TD*%
D20*
%TO.C,C9*%
X160000000Y-84837500D03*
X160000000Y-82762500D03*
%TD*%
D10*
%TO.C,D10*%
X163170000Y-75800000D03*
X162330000Y-75800000D03*
%TD*%
D20*
%TO.C,C27*%
X155000000Y-105337500D03*
X155000000Y-103262500D03*
%TD*%
D15*
%TO.C,C22*%
X172750000Y-86012500D03*
X172750000Y-88087500D03*
%TD*%
D14*
%TO.C,D7*%
X142000000Y-108380000D03*
X142000000Y-109220000D03*
%TD*%
D19*
%TO.C,R17*%
X146000000Y-103300000D03*
X146000000Y-105300000D03*
%TD*%
D24*
%TO.C,D6*%
X169300000Y-83550000D03*
X169300000Y-82710000D03*
%TD*%
D15*
%TO.C,C30*%
X167250000Y-106262500D03*
X167250000Y-108337500D03*
%TD*%
D19*
%TO.C,R3*%
X139000000Y-96550000D03*
X139000000Y-98550000D03*
%TD*%
D20*
%TO.C,C19*%
X165500000Y-94837500D03*
X165500000Y-92762500D03*
%TD*%
%TO.C,C1*%
X139500000Y-86337500D03*
X139500000Y-84262500D03*
%TD*%
%TO.C,C8*%
X132500000Y-94337500D03*
X132500000Y-92262500D03*
%TD*%
D19*
%TO.C,R24*%
X143000000Y-77800000D03*
X143000000Y-79800000D03*
%TD*%
D16*
%TO.C,C20*%
X162287500Y-89050000D03*
X160212500Y-89050000D03*
%TD*%
D20*
%TO.C,C26*%
X152750000Y-105337500D03*
X152750000Y-103262500D03*
%TD*%
D25*
%TO.C,R8*%
X132850000Y-75800000D03*
X134850000Y-75800000D03*
%TD*%
D18*
%TO.C,R15*%
X165000000Y-108300000D03*
X165000000Y-106300000D03*
%TD*%
D20*
%TO.C,C15*%
X165500000Y-90837500D03*
X165500000Y-88762500D03*
%TD*%
D26*
%TO.C,U3*%
X141575000Y-86300000D03*
X141575000Y-86800000D03*
X141575000Y-87300000D03*
X141575000Y-87800000D03*
X141575000Y-88300000D03*
X141575000Y-88800000D03*
X141575000Y-89300000D03*
X141575000Y-89800000D03*
X141575000Y-90300000D03*
X141575000Y-90800000D03*
X141575000Y-91300000D03*
X141575000Y-91800000D03*
X141575000Y-92300000D03*
X141575000Y-92800000D03*
X141575000Y-93300000D03*
X141575000Y-93800000D03*
D27*
X143500000Y-95725000D03*
X144000000Y-95725000D03*
X144500000Y-95725000D03*
X145000000Y-95725000D03*
X145500000Y-95725000D03*
X146000000Y-95725000D03*
X146500000Y-95725000D03*
X147000000Y-95725000D03*
X147500000Y-95725000D03*
X148000000Y-95725000D03*
X148500000Y-95725000D03*
X149000000Y-95725000D03*
X149500000Y-95725000D03*
X150000000Y-95725000D03*
X150500000Y-95725000D03*
X151000000Y-95725000D03*
D26*
X152925000Y-93800000D03*
X152925000Y-93300000D03*
X152925000Y-92800000D03*
X152925000Y-92300000D03*
X152925000Y-91800000D03*
X152925000Y-91300000D03*
X152925000Y-90800000D03*
X152925000Y-90300000D03*
X152925000Y-89800000D03*
X152925000Y-89300000D03*
X152925000Y-88800000D03*
X152925000Y-88300000D03*
X152925000Y-87800000D03*
X152925000Y-87300000D03*
X152925000Y-86800000D03*
X152925000Y-86300000D03*
D27*
X151000000Y-84375000D03*
X150500000Y-84375000D03*
X150000000Y-84375000D03*
X149500000Y-84375000D03*
X149000000Y-84375000D03*
X148500000Y-84375000D03*
X148000000Y-84375000D03*
X147500000Y-84375000D03*
X147000000Y-84375000D03*
X146500000Y-84375000D03*
X146000000Y-84375000D03*
X145500000Y-84375000D03*
X145000000Y-84375000D03*
X144500000Y-84375000D03*
X144000000Y-84375000D03*
X143500000Y-84375000D03*
%TD*%
D13*
%TO.C,U6*%
X157525000Y-102395000D03*
X157525000Y-103665000D03*
X157525000Y-104935000D03*
X157525000Y-106205000D03*
X162475000Y-106205000D03*
X162475000Y-104935000D03*
X162475000Y-103665000D03*
X162475000Y-102395000D03*
%TD*%
D19*
%TO.C,R14*%
X157250000Y-98300000D03*
X157250000Y-100300000D03*
%TD*%
D25*
%TO.C,R2*%
X140850000Y-75800000D03*
X142850000Y-75800000D03*
%TD*%
D19*
%TO.C,R28*%
X150500000Y-103300000D03*
X150500000Y-105300000D03*
%TD*%
D18*
%TO.C,R19*%
X160250000Y-75800000D03*
X160250000Y-73800000D03*
%TD*%
D28*
%TO.C,U2*%
X165750000Y-96525000D03*
X164750000Y-96525000D03*
D29*
X165250000Y-97550000D03*
D30*
X165750000Y-98575000D03*
X164750000Y-98575000D03*
%TD*%
D31*
%TO.C,D11*%
X160080000Y-71800000D03*
X160920000Y-71800000D03*
%TD*%
D10*
%TO.C,D8*%
X154670000Y-71800000D03*
X153830000Y-71800000D03*
%TD*%
D20*
%TO.C,C7*%
X139000000Y-94337500D03*
X139000000Y-92262500D03*
%TD*%
D19*
%TO.C,R23*%
X140750000Y-77800000D03*
X140750000Y-79800000D03*
%TD*%
D16*
%TO.C,C18*%
X138887500Y-75800000D03*
X136812500Y-75800000D03*
%TD*%
D32*
%TO.C,Y1*%
X131650000Y-86200000D03*
X131650000Y-88400000D03*
X133350000Y-88400000D03*
X133350000Y-86200000D03*
%TD*%
D20*
%TO.C,C11*%
X135500000Y-86837500D03*
X135500000Y-84762500D03*
%TD*%
D18*
%TO.C,R21*%
X152750000Y-75800000D03*
X152750000Y-73800000D03*
%TD*%
D25*
%TO.C,R1*%
X137500000Y-88800000D03*
X139500000Y-88800000D03*
%TD*%
D14*
%TO.C,D5*%
X169300000Y-81050000D03*
X169300000Y-81890000D03*
%TD*%
D18*
%TO.C,R26*%
X155000000Y-95050000D03*
X155000000Y-93050000D03*
%TD*%
%TO.C,R4*%
X145250000Y-75800000D03*
X145250000Y-73800000D03*
%TD*%
D19*
%TO.C,R10*%
X143750000Y-106800000D03*
X143750000Y-108800000D03*
%TD*%
D10*
%TO.C,D9*%
X156670000Y-71800000D03*
X155830000Y-71800000D03*
%TD*%
D15*
%TO.C,C23*%
X140250000Y-106762500D03*
X140250000Y-108837500D03*
%TD*%
D18*
%TO.C,R25*%
X157250000Y-95050000D03*
X157250000Y-93050000D03*
%TD*%
D33*
%TO.C,U1*%
X160000000Y-94750000D03*
X160500000Y-94750000D03*
X161000000Y-94750000D03*
X161500000Y-94750000D03*
X162000000Y-94750000D03*
X162500000Y-94750000D03*
D34*
X163200000Y-94050000D03*
X163200000Y-93550000D03*
X163200000Y-93050000D03*
X163200000Y-92550000D03*
X163200000Y-92050000D03*
X163200000Y-91550000D03*
D33*
X162500000Y-90850000D03*
X162000000Y-90850000D03*
X161500000Y-90850000D03*
X161000000Y-90850000D03*
X160500000Y-90850000D03*
X160000000Y-90850000D03*
D34*
X159300000Y-91550000D03*
X159300000Y-92050000D03*
X159300000Y-92550000D03*
X159300000Y-93050000D03*
X159300000Y-93550000D03*
X159300000Y-94050000D03*
%TD*%
D14*
%TO.C,D17*%
X159250000Y-108380000D03*
X159250000Y-109220000D03*
%TD*%
D20*
%TO.C,C2*%
X157750000Y-84837500D03*
X157750000Y-82762500D03*
%TD*%
D14*
%TO.C,D22*%
X135750000Y-108380000D03*
X135750000Y-109220000D03*
%TD*%
D19*
%TO.C,R22*%
X148250000Y-103300000D03*
X148250000Y-105300000D03*
%TD*%
D10*
%TO.C,D3*%
X150670000Y-71800000D03*
X149830000Y-71800000D03*
%TD*%
D15*
%TO.C,C13*%
X139000000Y-100512500D03*
X139000000Y-102587500D03*
%TD*%
D31*
%TO.C,D15*%
X171080000Y-109050000D03*
X171920000Y-109050000D03*
%TD*%
D18*
%TO.C,R18*%
X157750000Y-75800000D03*
X157750000Y-73800000D03*
%TD*%
D15*
%TO.C,C12*%
X135500000Y-88762500D03*
X135500000Y-90837500D03*
%TD*%
%TO.C,C17*%
X167750000Y-96262500D03*
X167750000Y-98337500D03*
%TD*%
D20*
%TO.C,C16*%
X157250000Y-90837500D03*
X157250000Y-88762500D03*
%TD*%
%TO.C,C3*%
X141750000Y-83837500D03*
X141750000Y-81762500D03*
%TD*%
D18*
%TO.C,R13*%
X165000000Y-102300000D03*
X165000000Y-100300000D03*
%TD*%
D16*
%TO.C,C6*%
X145287500Y-100300000D03*
X143212500Y-100300000D03*
%TD*%
%TO.C,C33*%
X177287500Y-88050000D03*
X175212500Y-88050000D03*
%TD*%
D31*
%TO.C,D12*%
X158080000Y-71800000D03*
X158920000Y-71800000D03*
%TD*%
D15*
%TO.C,C25*%
X134000000Y-106762500D03*
X134000000Y-108837500D03*
%TD*%
D19*
%TO.C,R12*%
X137250000Y-106800000D03*
X137250000Y-108800000D03*
%TD*%
D25*
%TO.C,R20*%
X160250000Y-78350000D03*
X162250000Y-78350000D03*
%TD*%
D18*
%TO.C,R5*%
X147500000Y-75800000D03*
X147500000Y-73800000D03*
%TD*%
%TO.C,R6*%
X149750000Y-75800000D03*
X149750000Y-73800000D03*
%TD*%
M02*
