%TF.GenerationSoftware,KiCad,Pcbnew,7.0.5*%
%TF.CreationDate,2023-08-23T03:28:24+02:00*%
%TF.ProjectId,STM32_DevBoard,53544d33-325f-4446-9576-426f6172642e,rev?*%
%TF.SameCoordinates,Original*%
%TF.FileFunction,Legend,Top*%
%TF.FilePolarity,Positive*%
%FSLAX46Y46*%
G04 Gerber Fmt 4.6, Leading zero omitted, Abs format (unit mm)*
G04 Created by KiCad (PCBNEW 7.0.5) date 2023-08-23 03:28:24*
%MOMM*%
%LPD*%
G01*
G04 APERTURE LIST*
%ADD10C,0.200000*%
%ADD11C,0.186803*%
%ADD12C,0.150000*%
%ADD13C,0.120000*%
G04 APERTURE END LIST*
D10*
G36*
X167920207Y-83690177D02*
G01*
X167920090Y-83706863D01*
X167919738Y-83723259D01*
X167919151Y-83739366D01*
X167918329Y-83755184D01*
X167917273Y-83770713D01*
X167915982Y-83785953D01*
X167914457Y-83800904D01*
X167912697Y-83815566D01*
X167908472Y-83844022D01*
X167903309Y-83871322D01*
X167897206Y-83897465D01*
X167890165Y-83922452D01*
X167882185Y-83946283D01*
X167873267Y-83968958D01*
X167863409Y-83990476D01*
X167852613Y-84010838D01*
X167840878Y-84030043D01*
X167828204Y-84048092D01*
X167814591Y-84064985D01*
X167800040Y-84080722D01*
X167782855Y-84097092D01*
X167764823Y-84112407D01*
X167745944Y-84126665D01*
X167726217Y-84139867D01*
X167705644Y-84152013D01*
X167684223Y-84163102D01*
X167661955Y-84173136D01*
X167638839Y-84182113D01*
X167614877Y-84190034D01*
X167590067Y-84196899D01*
X167564410Y-84202708D01*
X167537906Y-84207461D01*
X167510555Y-84211157D01*
X167482356Y-84213798D01*
X167453310Y-84215382D01*
X167438470Y-84215778D01*
X167423417Y-84215910D01*
X167403918Y-84215688D01*
X167384806Y-84215023D01*
X167366080Y-84213914D01*
X167347740Y-84212361D01*
X167329787Y-84210365D01*
X167312220Y-84207925D01*
X167295039Y-84205041D01*
X167278245Y-84201714D01*
X167261838Y-84197943D01*
X167245816Y-84193728D01*
X167230181Y-84189070D01*
X167214933Y-84183968D01*
X167200071Y-84178422D01*
X167185595Y-84172433D01*
X167171506Y-84166000D01*
X167157803Y-84159124D01*
X167144581Y-84151942D01*
X167125655Y-84140687D01*
X167107817Y-84128853D01*
X167091068Y-84116439D01*
X167075407Y-84103445D01*
X167060834Y-84089872D01*
X167047350Y-84075719D01*
X167034954Y-84060986D01*
X167023646Y-84045674D01*
X167013427Y-84029782D01*
X167004296Y-84013311D01*
X166996178Y-83995662D01*
X166988858Y-83976100D01*
X166984421Y-83961997D01*
X166980340Y-83947043D01*
X166976613Y-83931239D01*
X166973241Y-83914586D01*
X166970225Y-83897082D01*
X166967563Y-83878728D01*
X166965256Y-83859524D01*
X166963304Y-83839469D01*
X166961707Y-83818565D01*
X166960464Y-83796811D01*
X166959577Y-83774207D01*
X166959045Y-83750752D01*
X166958867Y-83726448D01*
X166958867Y-83592358D01*
X167920207Y-83592358D01*
X167920207Y-83690177D01*
G37*
G36*
X168739309Y-85021822D02*
G01*
X166139767Y-85021822D01*
X166139767Y-83304762D01*
X166677500Y-83304762D01*
X166677500Y-83592358D01*
X166677500Y-83652076D01*
X166677536Y-83670337D01*
X166677645Y-83688255D01*
X166677828Y-83705831D01*
X166678083Y-83723064D01*
X166678412Y-83739955D01*
X166678813Y-83756502D01*
X166679288Y-83772707D01*
X166679835Y-83788569D01*
X166680455Y-83804088D01*
X166681149Y-83819265D01*
X166682755Y-83848590D01*
X166684652Y-83876544D01*
X166686842Y-83903127D01*
X166689323Y-83928339D01*
X166692097Y-83952179D01*
X166695162Y-83974649D01*
X166698520Y-83995748D01*
X166702169Y-84015476D01*
X166706110Y-84033833D01*
X166710343Y-84050819D01*
X166714869Y-84066434D01*
X166719773Y-84081297D01*
X166725144Y-84096029D01*
X166730982Y-84110629D01*
X166737286Y-84125098D01*
X166744056Y-84139434D01*
X166751293Y-84153640D01*
X166758997Y-84167713D01*
X166767167Y-84181655D01*
X166775804Y-84195465D01*
X166784907Y-84209144D01*
X166794477Y-84222691D01*
X166804513Y-84236106D01*
X166815016Y-84249390D01*
X166825986Y-84262541D01*
X166837422Y-84275562D01*
X166849324Y-84288450D01*
X166861702Y-84301100D01*
X166874472Y-84313403D01*
X166887634Y-84325360D01*
X166901188Y-84336971D01*
X166915134Y-84348235D01*
X166929472Y-84359153D01*
X166944203Y-84369724D01*
X166959325Y-84379950D01*
X166974840Y-84389829D01*
X166990747Y-84399361D01*
X167007046Y-84408548D01*
X167023737Y-84417388D01*
X167040820Y-84425881D01*
X167058295Y-84434029D01*
X167076163Y-84441830D01*
X167094422Y-84449284D01*
X167112989Y-84456338D01*
X167131780Y-84462937D01*
X167150793Y-84469081D01*
X167170030Y-84474769D01*
X167189491Y-84480003D01*
X167209174Y-84484781D01*
X167229081Y-84489105D01*
X167249211Y-84492973D01*
X167269564Y-84496386D01*
X167290141Y-84499344D01*
X167310940Y-84501847D01*
X167331963Y-84503895D01*
X167353210Y-84505488D01*
X167374679Y-84506626D01*
X167396372Y-84507309D01*
X167418288Y-84507536D01*
X167433706Y-84507435D01*
X167449003Y-84507130D01*
X167464177Y-84506622D01*
X167479230Y-84505910D01*
X167494162Y-84504996D01*
X167508972Y-84503878D01*
X167538227Y-84501033D01*
X167566995Y-84497375D01*
X167595276Y-84492904D01*
X167623071Y-84487621D01*
X167650380Y-84481524D01*
X167677202Y-84474615D01*
X167703537Y-84466893D01*
X167729386Y-84458357D01*
X167754748Y-84449009D01*
X167779623Y-84438849D01*
X167804012Y-84427875D01*
X167827915Y-84416088D01*
X167851331Y-84403489D01*
X167874101Y-84390261D01*
X167896067Y-84376590D01*
X167917229Y-84362474D01*
X167937587Y-84347916D01*
X167957140Y-84332913D01*
X167975889Y-84317467D01*
X167993833Y-84301578D01*
X168010974Y-84285245D01*
X168027310Y-84268468D01*
X168042842Y-84251247D01*
X168057569Y-84233583D01*
X168071493Y-84215475D01*
X168084612Y-84196924D01*
X168096926Y-84177929D01*
X168108437Y-84158490D01*
X168119143Y-84138607D01*
X168124214Y-84128389D01*
X168133874Y-84106957D01*
X168142890Y-84084196D01*
X168151262Y-84060108D01*
X168158990Y-84034692D01*
X168166074Y-84007947D01*
X168172514Y-83979874D01*
X168175493Y-83965340D01*
X168178310Y-83950474D01*
X168180967Y-83935275D01*
X168183462Y-83919745D01*
X168185797Y-83903882D01*
X168187970Y-83887688D01*
X168189983Y-83871161D01*
X168191834Y-83854303D01*
X168193525Y-83837112D01*
X168195054Y-83819590D01*
X168196423Y-83801735D01*
X168197630Y-83783549D01*
X168198677Y-83765030D01*
X168199562Y-83746180D01*
X168200287Y-83726997D01*
X168200850Y-83707482D01*
X168201253Y-83687636D01*
X168201494Y-83667457D01*
X168201575Y-83646946D01*
X168201575Y-83304762D01*
X166677500Y-83304762D01*
X166139767Y-83304762D01*
X166139767Y-82747156D01*
X166677500Y-82747156D01*
X168201575Y-83088241D01*
X168201575Y-82803942D01*
X167228878Y-82587421D01*
X168201575Y-82313381D01*
X168201575Y-82073412D01*
X167228878Y-81802302D01*
X168201575Y-81583949D01*
X168201575Y-81299651D01*
X166677500Y-81642568D01*
X166677500Y-81916608D01*
X167662653Y-82190648D01*
X166677500Y-82470184D01*
X166677500Y-82747156D01*
X166139767Y-82747156D01*
X166139767Y-80679396D01*
X166654052Y-80679396D01*
X166654517Y-80705008D01*
X166655913Y-80730006D01*
X166658238Y-80754387D01*
X166661494Y-80778154D01*
X166665680Y-80801305D01*
X166670796Y-80823841D01*
X166676843Y-80845761D01*
X166683819Y-80867066D01*
X166691726Y-80887756D01*
X166700563Y-80907830D01*
X166710331Y-80927289D01*
X166721028Y-80946132D01*
X166732656Y-80964360D01*
X166745214Y-80981973D01*
X166758702Y-80998970D01*
X166773121Y-81015352D01*
X166788296Y-81030968D01*
X166803964Y-81045577D01*
X166820124Y-81059178D01*
X166836776Y-81071772D01*
X166853921Y-81083358D01*
X166871558Y-81093937D01*
X166889687Y-81103508D01*
X166908309Y-81112072D01*
X166927423Y-81119628D01*
X166947029Y-81126177D01*
X166967128Y-81131718D01*
X166987718Y-81136252D01*
X167008802Y-81139778D01*
X167030377Y-81142297D01*
X167052445Y-81143808D01*
X167075005Y-81144312D01*
X167086716Y-81144169D01*
X167104062Y-81143418D01*
X167121144Y-81142022D01*
X167137962Y-81139983D01*
X167154516Y-81137300D01*
X167170806Y-81133972D01*
X167186832Y-81130001D01*
X167202594Y-81125386D01*
X167218091Y-81120126D01*
X167233325Y-81114223D01*
X167248295Y-81107676D01*
X167253271Y-81105336D01*
X167268285Y-81097721D01*
X167283427Y-81089210D01*
X167298699Y-81079805D01*
X167314099Y-81069504D01*
X167329628Y-81058308D01*
X167345286Y-81046217D01*
X167361072Y-81033231D01*
X167376988Y-81019349D01*
X167393032Y-81004573D01*
X167403799Y-80994224D01*
X167414624Y-80983478D01*
X167416920Y-80981176D01*
X167428057Y-80969427D01*
X167438461Y-80957947D01*
X167450623Y-80944182D01*
X167464543Y-80928130D01*
X167474800Y-80916159D01*
X167485838Y-80903171D01*
X167497657Y-80889168D01*
X167510258Y-80874149D01*
X167523641Y-80858113D01*
X167537804Y-80841061D01*
X167552749Y-80822993D01*
X167568476Y-80803910D01*
X167584984Y-80783810D01*
X167594043Y-80772934D01*
X167611563Y-80752008D01*
X167628284Y-80732184D01*
X167644206Y-80713462D01*
X167659330Y-80695843D01*
X167673656Y-80679325D01*
X167687183Y-80663909D01*
X167699911Y-80649595D01*
X167711841Y-80636383D01*
X167722972Y-80624273D01*
X167738171Y-80608174D01*
X167751574Y-80594554D01*
X167763180Y-80583414D01*
X167775860Y-80572418D01*
X167786376Y-80565029D01*
X167799256Y-80557817D01*
X167814641Y-80551681D01*
X167830412Y-80547999D01*
X167846568Y-80546772D01*
X167860311Y-80548034D01*
X167875661Y-80552698D01*
X167890274Y-80560797D01*
X167902214Y-80570474D01*
X167913613Y-80582676D01*
X167917250Y-80587290D01*
X167925318Y-80599526D01*
X167931919Y-80612763D01*
X167937053Y-80627003D01*
X167940721Y-80642244D01*
X167942921Y-80658487D01*
X167943654Y-80675732D01*
X167943494Y-80682987D01*
X167941090Y-80704709D01*
X167937884Y-80719155D01*
X167933396Y-80733572D01*
X167927626Y-80747960D01*
X167920573Y-80762320D01*
X167912239Y-80776651D01*
X167902622Y-80790954D01*
X167891722Y-80805228D01*
X167879541Y-80819473D01*
X167866077Y-80833690D01*
X167851331Y-80847878D01*
X167835302Y-80862037D01*
X167817991Y-80876168D01*
X167799398Y-80890270D01*
X167779523Y-80904344D01*
X167973696Y-81117568D01*
X167991253Y-81102704D01*
X168008112Y-81087972D01*
X168024272Y-81073372D01*
X168039733Y-81058903D01*
X168054497Y-81044567D01*
X168068562Y-81030361D01*
X168081928Y-81016288D01*
X168094596Y-81002346D01*
X168106566Y-80988536D01*
X168117838Y-80974857D01*
X168128411Y-80961310D01*
X168138285Y-80947895D01*
X168147462Y-80934612D01*
X168155940Y-80921460D01*
X168163719Y-80908439D01*
X168170800Y-80895551D01*
X168177366Y-80882685D01*
X168186421Y-80863226D01*
X168194522Y-80843573D01*
X168201671Y-80823727D01*
X168207866Y-80803688D01*
X168213108Y-80783455D01*
X168217397Y-80763030D01*
X168220733Y-80742411D01*
X168223116Y-80721599D01*
X168224546Y-80700594D01*
X168225022Y-80679396D01*
X168224590Y-80657587D01*
X168223293Y-80636216D01*
X168221132Y-80615284D01*
X168218107Y-80594789D01*
X168214217Y-80574732D01*
X168209463Y-80555113D01*
X168203845Y-80535931D01*
X168197362Y-80517188D01*
X168190014Y-80498883D01*
X168181803Y-80481015D01*
X168172727Y-80463586D01*
X168162786Y-80446594D01*
X168151981Y-80430041D01*
X168140312Y-80413925D01*
X168127778Y-80398247D01*
X168114380Y-80383007D01*
X168100424Y-80368500D01*
X168086124Y-80354929D01*
X168071481Y-80342294D01*
X168056495Y-80330594D01*
X168041165Y-80319831D01*
X168025491Y-80310003D01*
X168009474Y-80301112D01*
X167993114Y-80293156D01*
X167976410Y-80286137D01*
X167959362Y-80280053D01*
X167941971Y-80274905D01*
X167924237Y-80270694D01*
X167906159Y-80267418D01*
X167887738Y-80265078D01*
X167868973Y-80263674D01*
X167849865Y-80263206D01*
X167843179Y-80263277D01*
X167823115Y-80264334D01*
X167803045Y-80266660D01*
X167782968Y-80270254D01*
X167762885Y-80275118D01*
X167742795Y-80281250D01*
X167722699Y-80288650D01*
X167702597Y-80297319D01*
X167689192Y-80303804D01*
X167675783Y-80310852D01*
X167662373Y-80318464D01*
X167648959Y-80326640D01*
X167635542Y-80335380D01*
X167621772Y-80345086D01*
X167607298Y-80356160D01*
X167592119Y-80368602D01*
X167576237Y-80382412D01*
X167559650Y-80397590D01*
X167542360Y-80414137D01*
X167524365Y-80432051D01*
X167505666Y-80451334D01*
X167486263Y-80471985D01*
X167476297Y-80482824D01*
X167466156Y-80494004D01*
X167455838Y-80505527D01*
X167445345Y-80517391D01*
X167434675Y-80529598D01*
X167423829Y-80542147D01*
X167412808Y-80555037D01*
X167401610Y-80568270D01*
X167390236Y-80581845D01*
X167378686Y-80595762D01*
X167366961Y-80610021D01*
X167355059Y-80624622D01*
X167342981Y-80639564D01*
X167330727Y-80654849D01*
X167317930Y-80670748D01*
X167305551Y-80685927D01*
X167293590Y-80700389D01*
X167282046Y-80714132D01*
X167270921Y-80727156D01*
X167260213Y-80739462D01*
X167249924Y-80751050D01*
X167240052Y-80761919D01*
X167226028Y-80776876D01*
X167212944Y-80790217D01*
X167200800Y-80801941D01*
X167189597Y-80812048D01*
X167176121Y-80823011D01*
X167166710Y-80829820D01*
X167154162Y-80837857D01*
X167138477Y-80846229D01*
X167122792Y-80852741D01*
X167107107Y-80857392D01*
X167091422Y-80860182D01*
X167075737Y-80861113D01*
X167062022Y-80860323D01*
X167045457Y-80857113D01*
X167029535Y-80851435D01*
X167014258Y-80843289D01*
X166999625Y-80832674D01*
X166988382Y-80822404D01*
X166977552Y-80810554D01*
X166967677Y-80797548D01*
X166959119Y-80783810D01*
X166951878Y-80769338D01*
X166945953Y-80754134D01*
X166941345Y-80738197D01*
X166938053Y-80721528D01*
X166936078Y-80704125D01*
X166935420Y-80685990D01*
X166935626Y-80677116D01*
X166937275Y-80659562D01*
X166940572Y-80642268D01*
X166945518Y-80625235D01*
X166952112Y-80608463D01*
X166960356Y-80591950D01*
X166970247Y-80575699D01*
X166981788Y-80559707D01*
X166994977Y-80543977D01*
X167009815Y-80528506D01*
X167026301Y-80513297D01*
X167044436Y-80498347D01*
X167064220Y-80483658D01*
X167085652Y-80469230D01*
X167108733Y-80455062D01*
X167133463Y-80441154D01*
X167146446Y-80434298D01*
X166994771Y-80192131D01*
X166973110Y-80202938D01*
X166952181Y-80214016D01*
X166931985Y-80225366D01*
X166912522Y-80236988D01*
X166893792Y-80248882D01*
X166875794Y-80261048D01*
X166858529Y-80273486D01*
X166841997Y-80286195D01*
X166826198Y-80299177D01*
X166811131Y-80312431D01*
X166796797Y-80325956D01*
X166783196Y-80339753D01*
X166770327Y-80353823D01*
X166758191Y-80368164D01*
X166746788Y-80382777D01*
X166736118Y-80397662D01*
X166726180Y-80412844D01*
X166716884Y-80428350D01*
X166708228Y-80444180D01*
X166700214Y-80460333D01*
X166692841Y-80476809D01*
X166686109Y-80493609D01*
X166680018Y-80510732D01*
X166674569Y-80528179D01*
X166669760Y-80545949D01*
X166665593Y-80564043D01*
X166662066Y-80582460D01*
X166659181Y-80601200D01*
X166656937Y-80620264D01*
X166655334Y-80639651D01*
X166654373Y-80659362D01*
X166654052Y-80679396D01*
X166139767Y-80679396D01*
X166139767Y-79677845D01*
X168739309Y-79677845D01*
X168739309Y-85021822D01*
G37*
G36*
X172425296Y-84595050D02*
G01*
X172425296Y-84970207D01*
X172167741Y-84970207D01*
X172167741Y-84595050D01*
X171782326Y-84595050D01*
X171782326Y-84337130D01*
X172167741Y-84337130D01*
X172167741Y-83961973D01*
X172425296Y-83961973D01*
X172425296Y-84337130D01*
X172811810Y-84337130D01*
X172811810Y-84595050D01*
X172425296Y-84595050D01*
G37*
G36*
X178025296Y-96995050D02*
G01*
X178025296Y-97370207D01*
X177767741Y-97370207D01*
X177767741Y-96995050D01*
X177382326Y-96995050D01*
X177382326Y-96737130D01*
X177767741Y-96737130D01*
X177767741Y-96361973D01*
X178025296Y-96361973D01*
X178025296Y-96737130D01*
X178411810Y-96737130D01*
X178411810Y-96995050D01*
X178025296Y-96995050D01*
G37*
G36*
X178025296Y-103195050D02*
G01*
X178025296Y-103570207D01*
X177767741Y-103570207D01*
X177767741Y-103195050D01*
X177382326Y-103195050D01*
X177382326Y-102937130D01*
X177767741Y-102937130D01*
X177767741Y-102561973D01*
X178025296Y-102561973D01*
X178025296Y-102937130D01*
X178411810Y-102937130D01*
X178411810Y-103195050D01*
X178025296Y-103195050D01*
G37*
D11*
X156193401Y-101550000D02*
G75*
G03*
X156193401Y-101550000I-93401J0D01*
G01*
X166393401Y-95950000D02*
G75*
G03*
X166393401Y-95950000I-93401J0D01*
G01*
X158993401Y-95750000D02*
G75*
G03*
X158993401Y-95750000I-93401J0D01*
G01*
X170193401Y-80150000D02*
G75*
G03*
X170193401Y-80150000I-93401J0D01*
G01*
X164793401Y-68350000D02*
G75*
G03*
X164793401Y-68350000I-93401J0D01*
G01*
X149793401Y-70750000D02*
G75*
G03*
X149793401Y-70750000I-93401J0D01*
G01*
X144193401Y-73150000D02*
G75*
G03*
X144193401Y-73150000I-93401J0D01*
G01*
X131793401Y-77750000D02*
G75*
G03*
X131793401Y-77750000I-93401J0D01*
G01*
X140843401Y-85250000D02*
G75*
G03*
X140843401Y-85250000I-93401J0D01*
G01*
D12*
X144250000Y-77250000D02*
X157000000Y-77250000D01*
X157000000Y-80500000D01*
X144250000Y-80500000D01*
X144250000Y-77250000D01*
X138500000Y-69750000D02*
X138250000Y-70000000D01*
X138250000Y-69750000D01*
X138250000Y-69500000D01*
X138500000Y-69750000D01*
G36*
X138500000Y-69750000D02*
G01*
X138250000Y-70000000D01*
X138250000Y-69750000D01*
X138250000Y-69500000D01*
X138500000Y-69750000D01*
G37*
X130500000Y-69750000D02*
X131250000Y-69750000D01*
X137500000Y-69750000D02*
X138250000Y-69750000D01*
X131500000Y-69750000D02*
X131250000Y-70000000D01*
X131250000Y-69750000D01*
X131250000Y-69500000D01*
X131500000Y-69750000D01*
G36*
X131500000Y-69750000D02*
G01*
X131250000Y-70000000D01*
X131250000Y-69750000D01*
X131250000Y-69500000D01*
X131500000Y-69750000D01*
G37*
X143916666Y-89204819D02*
X143916666Y-89919104D01*
X143916666Y-89919104D02*
X143869047Y-90061961D01*
X143869047Y-90061961D02*
X143773809Y-90157200D01*
X143773809Y-90157200D02*
X143630952Y-90204819D01*
X143630952Y-90204819D02*
X143535714Y-90204819D01*
X144869047Y-90204819D02*
X144392857Y-90204819D01*
X144392857Y-90204819D02*
X144392857Y-89204819D01*
X145773809Y-90109580D02*
X145726190Y-90157200D01*
X145726190Y-90157200D02*
X145583333Y-90204819D01*
X145583333Y-90204819D02*
X145488095Y-90204819D01*
X145488095Y-90204819D02*
X145345238Y-90157200D01*
X145345238Y-90157200D02*
X145250000Y-90061961D01*
X145250000Y-90061961D02*
X145202381Y-89966723D01*
X145202381Y-89966723D02*
X145154762Y-89776247D01*
X145154762Y-89776247D02*
X145154762Y-89633390D01*
X145154762Y-89633390D02*
X145202381Y-89442914D01*
X145202381Y-89442914D02*
X145250000Y-89347676D01*
X145250000Y-89347676D02*
X145345238Y-89252438D01*
X145345238Y-89252438D02*
X145488095Y-89204819D01*
X145488095Y-89204819D02*
X145583333Y-89204819D01*
X145583333Y-89204819D02*
X145726190Y-89252438D01*
X145726190Y-89252438D02*
X145773809Y-89300057D01*
X146488095Y-89204819D02*
X146488095Y-89919104D01*
X146488095Y-89919104D02*
X146440476Y-90061961D01*
X146440476Y-90061961D02*
X146345238Y-90157200D01*
X146345238Y-90157200D02*
X146202381Y-90204819D01*
X146202381Y-90204819D02*
X146107143Y-90204819D01*
X147440476Y-90204819D02*
X146964286Y-90204819D01*
X146964286Y-90204819D02*
X146964286Y-89204819D01*
X148345238Y-90109580D02*
X148297619Y-90157200D01*
X148297619Y-90157200D02*
X148154762Y-90204819D01*
X148154762Y-90204819D02*
X148059524Y-90204819D01*
X148059524Y-90204819D02*
X147916667Y-90157200D01*
X147916667Y-90157200D02*
X147821429Y-90061961D01*
X147821429Y-90061961D02*
X147773810Y-89966723D01*
X147773810Y-89966723D02*
X147726191Y-89776247D01*
X147726191Y-89776247D02*
X147726191Y-89633390D01*
X147726191Y-89633390D02*
X147773810Y-89442914D01*
X147773810Y-89442914D02*
X147821429Y-89347676D01*
X147821429Y-89347676D02*
X147916667Y-89252438D01*
X147916667Y-89252438D02*
X148059524Y-89204819D01*
X148059524Y-89204819D02*
X148154762Y-89204819D01*
X148154762Y-89204819D02*
X148297619Y-89252438D01*
X148297619Y-89252438D02*
X148345238Y-89300057D01*
X149059524Y-89204819D02*
X149059524Y-89919104D01*
X149059524Y-89919104D02*
X149011905Y-90061961D01*
X149011905Y-90061961D02*
X148916667Y-90157200D01*
X148916667Y-90157200D02*
X148773810Y-90204819D01*
X148773810Y-90204819D02*
X148678572Y-90204819D01*
X150011905Y-90204819D02*
X149535715Y-90204819D01*
X149535715Y-90204819D02*
X149535715Y-89204819D01*
X150916667Y-90109580D02*
X150869048Y-90157200D01*
X150869048Y-90157200D02*
X150726191Y-90204819D01*
X150726191Y-90204819D02*
X150630953Y-90204819D01*
X150630953Y-90204819D02*
X150488096Y-90157200D01*
X150488096Y-90157200D02*
X150392858Y-90061961D01*
X150392858Y-90061961D02*
X150345239Y-89966723D01*
X150345239Y-89966723D02*
X150297620Y-89776247D01*
X150297620Y-89776247D02*
X150297620Y-89633390D01*
X150297620Y-89633390D02*
X150345239Y-89442914D01*
X150345239Y-89442914D02*
X150392858Y-89347676D01*
X150392858Y-89347676D02*
X150488096Y-89252438D01*
X150488096Y-89252438D02*
X150630953Y-89204819D01*
X150630953Y-89204819D02*
X150726191Y-89204819D01*
X150726191Y-89204819D02*
X150869048Y-89252438D01*
X150869048Y-89252438D02*
X150916667Y-89300057D01*
D10*
G36*
X152668935Y-78379909D02*
G01*
X152685332Y-78380261D01*
X152701439Y-78380848D01*
X152717257Y-78381670D01*
X152732786Y-78382726D01*
X152748026Y-78384017D01*
X152762976Y-78385542D01*
X152777638Y-78387302D01*
X152806094Y-78391527D01*
X152833394Y-78396690D01*
X152859538Y-78402793D01*
X152884525Y-78409834D01*
X152908356Y-78417814D01*
X152931030Y-78426732D01*
X152952549Y-78436590D01*
X152972910Y-78447386D01*
X152992116Y-78459121D01*
X153010165Y-78471795D01*
X153027058Y-78485408D01*
X153042794Y-78499959D01*
X153059165Y-78517144D01*
X153074479Y-78535176D01*
X153088737Y-78554055D01*
X153101939Y-78573782D01*
X153114085Y-78594355D01*
X153125175Y-78615776D01*
X153135208Y-78638044D01*
X153144186Y-78661160D01*
X153152107Y-78685122D01*
X153158972Y-78709932D01*
X153164781Y-78735589D01*
X153169533Y-78762093D01*
X153173230Y-78789444D01*
X153175870Y-78817643D01*
X153177455Y-78846689D01*
X153177851Y-78861529D01*
X153177983Y-78876582D01*
X153177761Y-78896081D01*
X153177095Y-78915193D01*
X153175986Y-78933919D01*
X153174434Y-78952259D01*
X153172437Y-78970212D01*
X153169997Y-78987779D01*
X153167113Y-79004960D01*
X153163786Y-79021754D01*
X153160015Y-79038161D01*
X153155801Y-79054183D01*
X153151142Y-79069818D01*
X153146040Y-79085066D01*
X153140495Y-79099928D01*
X153134506Y-79114404D01*
X153128073Y-79128493D01*
X153121196Y-79142196D01*
X153114015Y-79155418D01*
X153102760Y-79174344D01*
X153090925Y-79192182D01*
X153078511Y-79208931D01*
X153065518Y-79224592D01*
X153051944Y-79239165D01*
X153037791Y-79252649D01*
X153023059Y-79265045D01*
X153007746Y-79276353D01*
X152991855Y-79286572D01*
X152975383Y-79295703D01*
X152957734Y-79303821D01*
X152938173Y-79311141D01*
X152924069Y-79315578D01*
X152909116Y-79319659D01*
X152893312Y-79323386D01*
X152876658Y-79326758D01*
X152859154Y-79329774D01*
X152840800Y-79332436D01*
X152821596Y-79334743D01*
X152801542Y-79336695D01*
X152780638Y-79338292D01*
X152758883Y-79339535D01*
X152736279Y-79340422D01*
X152712825Y-79340954D01*
X152688520Y-79341132D01*
X152554431Y-79341132D01*
X152554431Y-78379792D01*
X152652250Y-78379792D01*
X152668935Y-78379909D01*
G37*
G36*
X156587646Y-80160233D02*
G01*
X144527845Y-80160233D01*
X144527845Y-79305228D01*
X145042131Y-79305228D01*
X145052938Y-79326889D01*
X145064016Y-79347818D01*
X145075366Y-79368014D01*
X145086988Y-79387477D01*
X145098882Y-79406207D01*
X145111048Y-79424205D01*
X145123486Y-79441470D01*
X145136195Y-79458002D01*
X145149177Y-79473801D01*
X145162431Y-79488868D01*
X145175956Y-79503202D01*
X145189753Y-79516803D01*
X145203823Y-79529672D01*
X145218164Y-79541808D01*
X145232777Y-79553211D01*
X145247662Y-79563881D01*
X145262844Y-79573819D01*
X145278350Y-79583115D01*
X145294180Y-79591771D01*
X145310333Y-79599785D01*
X145326809Y-79607158D01*
X145343609Y-79613890D01*
X145360732Y-79619981D01*
X145378179Y-79625430D01*
X145395949Y-79630239D01*
X145414043Y-79634406D01*
X145432460Y-79637933D01*
X145451200Y-79640818D01*
X145470264Y-79643062D01*
X145489651Y-79644665D01*
X145509362Y-79645626D01*
X145529396Y-79645947D01*
X145555008Y-79645482D01*
X145580006Y-79644086D01*
X145604387Y-79641761D01*
X145628154Y-79638505D01*
X145651305Y-79634319D01*
X145673841Y-79629203D01*
X145695761Y-79623156D01*
X145717066Y-79616180D01*
X145737756Y-79608273D01*
X145757830Y-79599436D01*
X145777289Y-79589668D01*
X145796132Y-79578971D01*
X145814360Y-79567343D01*
X145831973Y-79554785D01*
X145848970Y-79541297D01*
X145865352Y-79526878D01*
X145880968Y-79511703D01*
X145895577Y-79496035D01*
X145909178Y-79479875D01*
X145921772Y-79463223D01*
X145933358Y-79446078D01*
X145943937Y-79428441D01*
X145953508Y-79410312D01*
X145962072Y-79391690D01*
X145969628Y-79372576D01*
X145976177Y-79352970D01*
X145981718Y-79332871D01*
X145986252Y-79312281D01*
X145989778Y-79291197D01*
X145992297Y-79269622D01*
X145993808Y-79247554D01*
X145994312Y-79224994D01*
X145994169Y-79213283D01*
X145993418Y-79195937D01*
X145992022Y-79178855D01*
X145989983Y-79162037D01*
X145987300Y-79145483D01*
X145983972Y-79129193D01*
X145980001Y-79113167D01*
X145975386Y-79097405D01*
X145970126Y-79081908D01*
X145964223Y-79066674D01*
X145957676Y-79051704D01*
X145955336Y-79046728D01*
X145947721Y-79031714D01*
X145939210Y-79016572D01*
X145929805Y-79001300D01*
X145919504Y-78985900D01*
X145908308Y-78970371D01*
X145896217Y-78954713D01*
X145883231Y-78938927D01*
X145869349Y-78923011D01*
X145854573Y-78906967D01*
X145844224Y-78896200D01*
X145833478Y-78885375D01*
X145831176Y-78883079D01*
X145819427Y-78871942D01*
X145807947Y-78861538D01*
X145794182Y-78849376D01*
X145778130Y-78835456D01*
X145766159Y-78825199D01*
X145753171Y-78814161D01*
X145739168Y-78802342D01*
X145724149Y-78789741D01*
X145708113Y-78776358D01*
X145691061Y-78762195D01*
X145672993Y-78747250D01*
X145653910Y-78731523D01*
X145633810Y-78715015D01*
X145622934Y-78705956D01*
X145602008Y-78688436D01*
X145582184Y-78671715D01*
X145563462Y-78655793D01*
X145545843Y-78640669D01*
X145529325Y-78626343D01*
X145513909Y-78612816D01*
X145499595Y-78600088D01*
X145486383Y-78588158D01*
X145474273Y-78577027D01*
X145458174Y-78561828D01*
X145444554Y-78548425D01*
X145433414Y-78536819D01*
X145422418Y-78524139D01*
X145415029Y-78513623D01*
X145407817Y-78500743D01*
X145401681Y-78485358D01*
X145397999Y-78469587D01*
X145396772Y-78453431D01*
X145398034Y-78439688D01*
X145402698Y-78424338D01*
X145410797Y-78409725D01*
X145420474Y-78397785D01*
X145432676Y-78386386D01*
X145437290Y-78382749D01*
X145449526Y-78374681D01*
X145462763Y-78368080D01*
X145477003Y-78362946D01*
X145492244Y-78359278D01*
X145508487Y-78357078D01*
X145525732Y-78356345D01*
X145532987Y-78356505D01*
X145554709Y-78358909D01*
X145569155Y-78362115D01*
X145583572Y-78366603D01*
X145597960Y-78372373D01*
X145612320Y-78379426D01*
X145626651Y-78387760D01*
X145640954Y-78397377D01*
X145655228Y-78408277D01*
X145669473Y-78420458D01*
X145683690Y-78433922D01*
X145697878Y-78448668D01*
X145712037Y-78464697D01*
X145726168Y-78482008D01*
X145740270Y-78500601D01*
X145754344Y-78520476D01*
X145967568Y-78326303D01*
X145952704Y-78308746D01*
X145937972Y-78291887D01*
X145923372Y-78275727D01*
X145908903Y-78260266D01*
X145894567Y-78245502D01*
X145880361Y-78231437D01*
X145866288Y-78218071D01*
X145852346Y-78205403D01*
X145838536Y-78193433D01*
X145824857Y-78182161D01*
X145811310Y-78171588D01*
X145797895Y-78161714D01*
X145784612Y-78152537D01*
X145771460Y-78144059D01*
X145758439Y-78136280D01*
X145745551Y-78129199D01*
X145732685Y-78122633D01*
X145713226Y-78113578D01*
X145693573Y-78105477D01*
X145673994Y-78098424D01*
X146115579Y-78098424D01*
X146115579Y-78379792D01*
X146384490Y-78379792D01*
X146384490Y-79622500D01*
X146677215Y-79622500D01*
X147030390Y-79622500D01*
X147311392Y-79622500D01*
X147477355Y-78660061D01*
X147795725Y-79622500D01*
X148050348Y-79622500D01*
X148372749Y-78660061D01*
X148535781Y-79622500D01*
X148813852Y-79622500D01*
X148731234Y-79130106D01*
X148924494Y-79130106D01*
X148925463Y-79144915D01*
X148926677Y-79159530D01*
X148929840Y-79188175D01*
X148933982Y-79216041D01*
X148939102Y-79243129D01*
X148945202Y-79269439D01*
X148952280Y-79294970D01*
X148960337Y-79319722D01*
X148969373Y-79343696D01*
X148979388Y-79366892D01*
X148990382Y-79389309D01*
X149002355Y-79410947D01*
X149015306Y-79431807D01*
X149029237Y-79451888D01*
X149044146Y-79471191D01*
X149060034Y-79489715D01*
X149076901Y-79507461D01*
X149094620Y-79524231D01*
X149112971Y-79539919D01*
X149131954Y-79554525D01*
X149151571Y-79568049D01*
X149171820Y-79580491D01*
X149192701Y-79591851D01*
X149214215Y-79602129D01*
X149236361Y-79611325D01*
X149259140Y-79619440D01*
X149282552Y-79626472D01*
X149306596Y-79632423D01*
X149331272Y-79637291D01*
X149356582Y-79641078D01*
X149382523Y-79643783D01*
X149409098Y-79645406D01*
X149436304Y-79645947D01*
X149465107Y-79645396D01*
X149493263Y-79643743D01*
X149520771Y-79640988D01*
X149547633Y-79637131D01*
X149573848Y-79632172D01*
X149599417Y-79626112D01*
X149611984Y-79622500D01*
X150082205Y-79622500D01*
X151132205Y-79622500D01*
X151132205Y-79364579D01*
X150592184Y-79364579D01*
X150762177Y-79185061D01*
X150774806Y-79171813D01*
X150787187Y-79158677D01*
X150799318Y-79145652D01*
X150811201Y-79132739D01*
X150822834Y-79119938D01*
X150834219Y-79107248D01*
X150845354Y-79094670D01*
X150856241Y-79082204D01*
X150866878Y-79069849D01*
X150877267Y-79057606D01*
X150887406Y-79045474D01*
X150897296Y-79033454D01*
X150906938Y-79021546D01*
X150916330Y-79009750D01*
X150934368Y-78986491D01*
X150951410Y-78963679D01*
X150966585Y-78942527D01*
X151393422Y-78942527D01*
X151393422Y-79200448D01*
X151916957Y-79200448D01*
X151916957Y-78942527D01*
X151393422Y-78942527D01*
X150966585Y-78942527D01*
X150967455Y-78941314D01*
X150982505Y-78919395D01*
X150996558Y-78897923D01*
X151009616Y-78876897D01*
X151021677Y-78856317D01*
X151032742Y-78836184D01*
X151042812Y-78816498D01*
X151052128Y-78797071D01*
X151060844Y-78777807D01*
X151068958Y-78758706D01*
X151076471Y-78739768D01*
X151083384Y-78720993D01*
X151089695Y-78702381D01*
X151095405Y-78683933D01*
X151100514Y-78665648D01*
X151105022Y-78647525D01*
X151108929Y-78629566D01*
X151112235Y-78611771D01*
X151114940Y-78594138D01*
X151117043Y-78576668D01*
X151118546Y-78559362D01*
X151119448Y-78542219D01*
X151119748Y-78525239D01*
X151119191Y-78503976D01*
X151117520Y-78482777D01*
X151114735Y-78461644D01*
X151110835Y-78440574D01*
X151105822Y-78419569D01*
X151099694Y-78398628D01*
X151094990Y-78384703D01*
X151089791Y-78370807D01*
X151084096Y-78356940D01*
X151077907Y-78343101D01*
X151071222Y-78329291D01*
X151064042Y-78315509D01*
X151056367Y-78301756D01*
X151048279Y-78288175D01*
X151039858Y-78275000D01*
X151031105Y-78262232D01*
X151022021Y-78249870D01*
X151012604Y-78237914D01*
X151002855Y-78226365D01*
X150992774Y-78215223D01*
X150982362Y-78204487D01*
X150971617Y-78194157D01*
X150960540Y-78184234D01*
X150949131Y-78174717D01*
X150937390Y-78165606D01*
X150925318Y-78156902D01*
X150912913Y-78148605D01*
X150900176Y-78140713D01*
X150887107Y-78133229D01*
X150873790Y-78126175D01*
X150860219Y-78119576D01*
X150846393Y-78113432D01*
X150832313Y-78107744D01*
X150817977Y-78102510D01*
X150805503Y-78098424D01*
X152266835Y-78098424D01*
X152266835Y-78379792D01*
X152266835Y-79622500D01*
X152614148Y-79622500D01*
X152632409Y-79622463D01*
X152650328Y-79622354D01*
X152667904Y-79622171D01*
X152685137Y-79621916D01*
X152702027Y-79621587D01*
X152718575Y-79621186D01*
X152734780Y-79620711D01*
X152750642Y-79620164D01*
X152766161Y-79619544D01*
X152781338Y-79618850D01*
X152810662Y-79617244D01*
X152838616Y-79615347D01*
X152865199Y-79613157D01*
X152890411Y-79610676D01*
X152914252Y-79607902D01*
X152936722Y-79604837D01*
X152957821Y-79601479D01*
X152977549Y-79597830D01*
X152995905Y-79593889D01*
X153012891Y-79589656D01*
X153028506Y-79585130D01*
X153043370Y-79580226D01*
X153058101Y-79574855D01*
X153072702Y-79569017D01*
X153087170Y-79562713D01*
X153101507Y-79555943D01*
X153115712Y-79548706D01*
X153129786Y-79541002D01*
X153143728Y-79532832D01*
X153157538Y-79524195D01*
X153171216Y-79515092D01*
X153184763Y-79505522D01*
X153198179Y-79495486D01*
X153211462Y-79484983D01*
X153224614Y-79474013D01*
X153237634Y-79462577D01*
X153250523Y-79450675D01*
X153263172Y-79438297D01*
X153275476Y-79425527D01*
X153287433Y-79412365D01*
X153299043Y-79398811D01*
X153310308Y-79384865D01*
X153321225Y-79370527D01*
X153331797Y-79355796D01*
X153342022Y-79340674D01*
X153351901Y-79325159D01*
X153361434Y-79309252D01*
X153370620Y-79292953D01*
X153379460Y-79276262D01*
X153387954Y-79259179D01*
X153396101Y-79241704D01*
X153403902Y-79223836D01*
X153411357Y-79205577D01*
X153418411Y-79187010D01*
X153425010Y-79168219D01*
X153431153Y-79149206D01*
X153436842Y-79129969D01*
X153442076Y-79110508D01*
X153446854Y-79090825D01*
X153451177Y-79070918D01*
X153455046Y-79050788D01*
X153458459Y-79030435D01*
X153461417Y-79009858D01*
X153463920Y-78989059D01*
X153465968Y-78968036D01*
X153467561Y-78946789D01*
X153468699Y-78925320D01*
X153469381Y-78903627D01*
X153469609Y-78881711D01*
X153469507Y-78866293D01*
X153469202Y-78850996D01*
X153468694Y-78835822D01*
X153467983Y-78820769D01*
X153467068Y-78805837D01*
X153465951Y-78791027D01*
X153463106Y-78761772D01*
X153459448Y-78733004D01*
X153454977Y-78704723D01*
X153449693Y-78676928D01*
X153443597Y-78649619D01*
X153436687Y-78622797D01*
X153428965Y-78596462D01*
X153420430Y-78570613D01*
X153411082Y-78545251D01*
X153400921Y-78520376D01*
X153389947Y-78495987D01*
X153378161Y-78472084D01*
X153365561Y-78448668D01*
X153352334Y-78425898D01*
X153338662Y-78403932D01*
X153324547Y-78382770D01*
X153309988Y-78362412D01*
X153294986Y-78342859D01*
X153279540Y-78324110D01*
X153263650Y-78306166D01*
X153247317Y-78289025D01*
X153230540Y-78272689D01*
X153213320Y-78257157D01*
X153195656Y-78242430D01*
X153177548Y-78228506D01*
X153158996Y-78215387D01*
X153140001Y-78203073D01*
X153120562Y-78191562D01*
X153100680Y-78180856D01*
X153090462Y-78175785D01*
X153069029Y-78166125D01*
X153046269Y-78157109D01*
X153022181Y-78148737D01*
X152996764Y-78141009D01*
X152970020Y-78133925D01*
X152941947Y-78127485D01*
X152927412Y-78124506D01*
X152912546Y-78121689D01*
X152897348Y-78119032D01*
X152881817Y-78116537D01*
X152865955Y-78114202D01*
X152849760Y-78112029D01*
X152833234Y-78110016D01*
X152816375Y-78108165D01*
X152799185Y-78106474D01*
X152781662Y-78104945D01*
X152763808Y-78103576D01*
X152745621Y-78102369D01*
X152727103Y-78101322D01*
X152708252Y-78100437D01*
X152689070Y-78099712D01*
X152669555Y-78099149D01*
X152649708Y-78098746D01*
X152629530Y-78098505D01*
X152609019Y-78098424D01*
X153736688Y-78098424D01*
X153736688Y-79622500D01*
X154564305Y-79622500D01*
X154564305Y-79341132D01*
X154023185Y-79341132D01*
X154023185Y-78942527D01*
X154564305Y-78942527D01*
X154564305Y-78661160D01*
X154023185Y-78661160D01*
X154023185Y-78379792D01*
X154564305Y-78379792D01*
X154564305Y-78098424D01*
X154712316Y-78098424D01*
X155249040Y-79622500D01*
X155527110Y-79622500D01*
X156073360Y-78098424D01*
X155776605Y-78098424D01*
X155390090Y-79181031D01*
X155009071Y-78098424D01*
X154712316Y-78098424D01*
X154564305Y-78098424D01*
X153736688Y-78098424D01*
X152609019Y-78098424D01*
X152266835Y-78098424D01*
X150805503Y-78098424D01*
X150803387Y-78097731D01*
X150788542Y-78093408D01*
X150773442Y-78089540D01*
X150758088Y-78086127D01*
X150742479Y-78083168D01*
X150726615Y-78080665D01*
X150710496Y-78078618D01*
X150694123Y-78077025D01*
X150677495Y-78075887D01*
X150660612Y-78075204D01*
X150643475Y-78074977D01*
X150615854Y-78075539D01*
X150588864Y-78077227D01*
X150562502Y-78080039D01*
X150536771Y-78083976D01*
X150511669Y-78089037D01*
X150487197Y-78095224D01*
X150463355Y-78102536D01*
X150440143Y-78110972D01*
X150417560Y-78120533D01*
X150395606Y-78131219D01*
X150374283Y-78143030D01*
X150353589Y-78155966D01*
X150333525Y-78170027D01*
X150314090Y-78185212D01*
X150295286Y-78201523D01*
X150277110Y-78218958D01*
X150259808Y-78237375D01*
X150243531Y-78256631D01*
X150228278Y-78276725D01*
X150214050Y-78297658D01*
X150200847Y-78319429D01*
X150188668Y-78342039D01*
X150177514Y-78365488D01*
X150167384Y-78389775D01*
X150158280Y-78414901D01*
X150150200Y-78440866D01*
X150143144Y-78467669D01*
X150137114Y-78495311D01*
X150132107Y-78523792D01*
X150129989Y-78538346D01*
X150128126Y-78553111D01*
X150126520Y-78568085D01*
X150125169Y-78583269D01*
X150124075Y-78598662D01*
X150123237Y-78614265D01*
X150404605Y-78614265D01*
X150405335Y-78599576D01*
X150407278Y-78578273D01*
X150410238Y-78557845D01*
X150414216Y-78538293D01*
X150419211Y-78519617D01*
X150425224Y-78501817D01*
X150432254Y-78484893D01*
X150440302Y-78468844D01*
X150449367Y-78453672D01*
X150459450Y-78439375D01*
X150470551Y-78425954D01*
X150478410Y-78417525D01*
X150490651Y-78405900D01*
X150503432Y-78395500D01*
X150516754Y-78386323D01*
X150530617Y-78378369D01*
X150545021Y-78371640D01*
X150559967Y-78366133D01*
X150575453Y-78361851D01*
X150591480Y-78358792D01*
X150608048Y-78356956D01*
X150625157Y-78356345D01*
X150636475Y-78356565D01*
X150652965Y-78357722D01*
X150668868Y-78359871D01*
X150684186Y-78363011D01*
X150698917Y-78367144D01*
X150713063Y-78372268D01*
X150726622Y-78378384D01*
X150739596Y-78385491D01*
X150751983Y-78393591D01*
X150763784Y-78402682D01*
X150775000Y-78412765D01*
X150778583Y-78416320D01*
X150788652Y-78427339D01*
X150800485Y-78442852D01*
X150810497Y-78459304D01*
X150818688Y-78476695D01*
X150825060Y-78495025D01*
X150828644Y-78509388D01*
X150831204Y-78524280D01*
X150832739Y-78539699D01*
X150833251Y-78555647D01*
X150833031Y-78566121D01*
X150831874Y-78582128D01*
X150829725Y-78598488D01*
X150826585Y-78615203D01*
X150822452Y-78632273D01*
X150817328Y-78649696D01*
X150811212Y-78667474D01*
X150804105Y-78685606D01*
X150796005Y-78704092D01*
X150786914Y-78722932D01*
X150776831Y-78742126D01*
X150773217Y-78748626D01*
X150765320Y-78762015D01*
X150756533Y-78775925D01*
X150746856Y-78790357D01*
X150736288Y-78805309D01*
X150724831Y-78820782D01*
X150712483Y-78836776D01*
X150699245Y-78853291D01*
X150685118Y-78870327D01*
X150670099Y-78887884D01*
X150654191Y-78905962D01*
X150637393Y-78924561D01*
X150619704Y-78943680D01*
X150601126Y-78963321D01*
X150581657Y-78983482D01*
X150561298Y-79004165D01*
X150550785Y-79014701D01*
X150082205Y-79486212D01*
X150082205Y-79622500D01*
X149611984Y-79622500D01*
X149624338Y-79618949D01*
X149648613Y-79610684D01*
X149672240Y-79601318D01*
X149695221Y-79590849D01*
X149717555Y-79579279D01*
X149739242Y-79566606D01*
X149760282Y-79552832D01*
X149780675Y-79537955D01*
X149800422Y-79521977D01*
X149819521Y-79504897D01*
X149837755Y-79486978D01*
X149854813Y-79468575D01*
X149870694Y-79449689D01*
X149885398Y-79430319D01*
X149898927Y-79410465D01*
X149911279Y-79390127D01*
X149922454Y-79369306D01*
X149932453Y-79348001D01*
X149941276Y-79326212D01*
X149948922Y-79303940D01*
X149955393Y-79281184D01*
X149960686Y-79257944D01*
X149964804Y-79234221D01*
X149967744Y-79210013D01*
X149969509Y-79185322D01*
X149970097Y-79160148D01*
X149969794Y-79142979D01*
X149968884Y-79126093D01*
X149967367Y-79109491D01*
X149965243Y-79093172D01*
X149962512Y-79077136D01*
X149959175Y-79061384D01*
X149955231Y-79045915D01*
X149950680Y-79030730D01*
X149945522Y-79015827D01*
X149939758Y-79001209D01*
X149933386Y-78986873D01*
X149926408Y-78972821D01*
X149918823Y-78959052D01*
X149910632Y-78945567D01*
X149901833Y-78932365D01*
X149892428Y-78919446D01*
X149882483Y-78906909D01*
X149872066Y-78894849D01*
X149861177Y-78883267D01*
X149849815Y-78872163D01*
X149837981Y-78861537D01*
X149825675Y-78851389D01*
X149812897Y-78841719D01*
X149799646Y-78832527D01*
X149785923Y-78823813D01*
X149771728Y-78815576D01*
X149757061Y-78807818D01*
X149741921Y-78800538D01*
X149726309Y-78793736D01*
X149710225Y-78787412D01*
X149693668Y-78781566D01*
X149676639Y-78776198D01*
X149689587Y-78769802D01*
X149708272Y-78759753D01*
X149726076Y-78749156D01*
X149742997Y-78738011D01*
X149759036Y-78726320D01*
X149774192Y-78714080D01*
X149788466Y-78701294D01*
X149801858Y-78687960D01*
X149814368Y-78674078D01*
X149825995Y-78659649D01*
X149836741Y-78644673D01*
X149843440Y-78634439D01*
X149852678Y-78618836D01*
X149860944Y-78602931D01*
X149868237Y-78586722D01*
X149874558Y-78570211D01*
X149879906Y-78553397D01*
X149884282Y-78536281D01*
X149887686Y-78518862D01*
X149890117Y-78501140D01*
X149891575Y-78483116D01*
X149892062Y-78464788D01*
X149891568Y-78445128D01*
X149890087Y-78425805D01*
X149887618Y-78406820D01*
X149884162Y-78388172D01*
X149879718Y-78369863D01*
X149874287Y-78351891D01*
X149867869Y-78334257D01*
X149860463Y-78316960D01*
X149852069Y-78300002D01*
X149842688Y-78283381D01*
X149832320Y-78267098D01*
X149820964Y-78251152D01*
X149808621Y-78235545D01*
X149795290Y-78220275D01*
X149780972Y-78205342D01*
X149765666Y-78190748D01*
X149749676Y-78176729D01*
X149733214Y-78163614D01*
X149716280Y-78151404D01*
X149698873Y-78140098D01*
X149680994Y-78129697D01*
X149662643Y-78120200D01*
X149643820Y-78111608D01*
X149624524Y-78103920D01*
X149604756Y-78097136D01*
X149584516Y-78091257D01*
X149563804Y-78086283D01*
X149542619Y-78082213D01*
X149520962Y-78079047D01*
X149498833Y-78076786D01*
X149476231Y-78075429D01*
X149453157Y-78074977D01*
X149427286Y-78075545D01*
X149401969Y-78077249D01*
X149377208Y-78080090D01*
X149353002Y-78084067D01*
X149329352Y-78089181D01*
X149306257Y-78095430D01*
X149283717Y-78102816D01*
X149261732Y-78111338D01*
X149240302Y-78120997D01*
X149219428Y-78131792D01*
X149199109Y-78143723D01*
X149179346Y-78156791D01*
X149160137Y-78170994D01*
X149141484Y-78186334D01*
X149123386Y-78202811D01*
X149105844Y-78220423D01*
X149093781Y-78233783D01*
X149082322Y-78247666D01*
X149071467Y-78262073D01*
X149061216Y-78277004D01*
X149051569Y-78292458D01*
X149042526Y-78308437D01*
X149034087Y-78324939D01*
X149026251Y-78341965D01*
X149019020Y-78359514D01*
X149012392Y-78377588D01*
X149006369Y-78396185D01*
X149000949Y-78415306D01*
X148996134Y-78434951D01*
X148991922Y-78455120D01*
X148988314Y-78475812D01*
X148985310Y-78497028D01*
X149262281Y-78497028D01*
X149267445Y-78481819D01*
X149273593Y-78467330D01*
X149280726Y-78453563D01*
X149288843Y-78440517D01*
X149297945Y-78428192D01*
X149308031Y-78416589D01*
X149319102Y-78405706D01*
X149331158Y-78395546D01*
X149343975Y-78386358D01*
X149357147Y-78378395D01*
X149370674Y-78371657D01*
X149384556Y-78366145D01*
X149398792Y-78361857D01*
X149413384Y-78358795D01*
X149428330Y-78356957D01*
X149443632Y-78356345D01*
X149448002Y-78356381D01*
X149464952Y-78357257D01*
X149481055Y-78359301D01*
X149496310Y-78362512D01*
X149510719Y-78366891D01*
X149527538Y-78374007D01*
X149543033Y-78382948D01*
X149557205Y-78393714D01*
X149562440Y-78398461D01*
X149574050Y-78410992D01*
X149583549Y-78424471D01*
X149590937Y-78438899D01*
X149596214Y-78454274D01*
X149599380Y-78470598D01*
X149600436Y-78487869D01*
X149600184Y-78496002D01*
X149598175Y-78512016D01*
X149594157Y-78527695D01*
X149588129Y-78543040D01*
X149580092Y-78558049D01*
X149571859Y-78570301D01*
X149568243Y-78575091D01*
X149558413Y-78586503D01*
X149547456Y-78597109D01*
X149535372Y-78606910D01*
X149522161Y-78615907D01*
X149507823Y-78624098D01*
X149492358Y-78631484D01*
X149489124Y-78632844D01*
X149475147Y-78638005D01*
X149459511Y-78642719D01*
X149442215Y-78646986D01*
X149423258Y-78650807D01*
X149407951Y-78653380D01*
X149391711Y-78655702D01*
X149374536Y-78657772D01*
X149356428Y-78659592D01*
X149337386Y-78661160D01*
X149337386Y-78919080D01*
X149358189Y-78919565D01*
X149378373Y-78920563D01*
X149397939Y-78922073D01*
X149416887Y-78924095D01*
X149435217Y-78926629D01*
X149452928Y-78929676D01*
X149470021Y-78933235D01*
X149486496Y-78937307D01*
X149502353Y-78941891D01*
X149517592Y-78946987D01*
X149532212Y-78952595D01*
X149546214Y-78958716D01*
X149559597Y-78965349D01*
X149578514Y-78976260D01*
X149596039Y-78988323D01*
X149606909Y-78996867D01*
X149621898Y-79010122D01*
X149635309Y-79023906D01*
X149647142Y-79038218D01*
X149657398Y-79053058D01*
X149666076Y-79068426D01*
X149673176Y-79084322D01*
X149678698Y-79100746D01*
X149682643Y-79117698D01*
X149685010Y-79135178D01*
X149685799Y-79153187D01*
X149685538Y-79164163D01*
X149684171Y-79180231D01*
X149681631Y-79195823D01*
X149677920Y-79210937D01*
X149673036Y-79225575D01*
X149666980Y-79239737D01*
X149659752Y-79253422D01*
X149651352Y-79266630D01*
X149641780Y-79279362D01*
X149631036Y-79291617D01*
X149619120Y-79303396D01*
X149610697Y-79310805D01*
X149597557Y-79321022D01*
X149583812Y-79330164D01*
X149569461Y-79338230D01*
X149554506Y-79345220D01*
X149538944Y-79351136D01*
X149522778Y-79355975D01*
X149506006Y-79359739D01*
X149488629Y-79362428D01*
X149470646Y-79364041D01*
X149452058Y-79364579D01*
X149440054Y-79364353D01*
X149422541Y-79363166D01*
X149405621Y-79360961D01*
X149389294Y-79357739D01*
X149373559Y-79353499D01*
X149358416Y-79348242D01*
X149343866Y-79341968D01*
X149329909Y-79334675D01*
X149316543Y-79326366D01*
X149303771Y-79317038D01*
X149291591Y-79306693D01*
X149280165Y-79295305D01*
X149269519Y-79282848D01*
X149259651Y-79269322D01*
X149250563Y-79254727D01*
X149242255Y-79239063D01*
X149234725Y-79222330D01*
X149227975Y-79204527D01*
X149222004Y-79185656D01*
X149216813Y-79165716D01*
X149212400Y-79144706D01*
X149209891Y-79130106D01*
X148924494Y-79130106D01*
X148731234Y-79130106D01*
X148558129Y-78098424D01*
X148280059Y-78098424D01*
X147924685Y-79161613D01*
X147574441Y-78098424D01*
X147291974Y-78098424D01*
X147030390Y-79622500D01*
X146677215Y-79622500D01*
X146677215Y-78379792D01*
X146953087Y-78379792D01*
X146953087Y-78098424D01*
X146115579Y-78098424D01*
X145673994Y-78098424D01*
X145673727Y-78098328D01*
X145653688Y-78092133D01*
X145633455Y-78086891D01*
X145613030Y-78082602D01*
X145592411Y-78079266D01*
X145571599Y-78076883D01*
X145550594Y-78075453D01*
X145529396Y-78074977D01*
X145507587Y-78075409D01*
X145486216Y-78076706D01*
X145465284Y-78078867D01*
X145444789Y-78081892D01*
X145424732Y-78085782D01*
X145405113Y-78090536D01*
X145385931Y-78096154D01*
X145367188Y-78102637D01*
X145348883Y-78109985D01*
X145331015Y-78118196D01*
X145313586Y-78127272D01*
X145296594Y-78137213D01*
X145280041Y-78148018D01*
X145263925Y-78159687D01*
X145248247Y-78172221D01*
X145233007Y-78185619D01*
X145218500Y-78199575D01*
X145204929Y-78213875D01*
X145192294Y-78228518D01*
X145180594Y-78243504D01*
X145169831Y-78258834D01*
X145160003Y-78274508D01*
X145151112Y-78290525D01*
X145143156Y-78306885D01*
X145136137Y-78323589D01*
X145130053Y-78340637D01*
X145124905Y-78358028D01*
X145120694Y-78375762D01*
X145117418Y-78393840D01*
X145115078Y-78412261D01*
X145113674Y-78431026D01*
X145113206Y-78450134D01*
X145113277Y-78456820D01*
X145114334Y-78476884D01*
X145116660Y-78496954D01*
X145120254Y-78517031D01*
X145125118Y-78537114D01*
X145131250Y-78557204D01*
X145138650Y-78577300D01*
X145147319Y-78597402D01*
X145153804Y-78610807D01*
X145160852Y-78624216D01*
X145168464Y-78637626D01*
X145176640Y-78651040D01*
X145185380Y-78664457D01*
X145195086Y-78678227D01*
X145206160Y-78692701D01*
X145218602Y-78707880D01*
X145232412Y-78723762D01*
X145247590Y-78740349D01*
X145264137Y-78757639D01*
X145282051Y-78775634D01*
X145301334Y-78794333D01*
X145321985Y-78813736D01*
X145332824Y-78823702D01*
X145344004Y-78833843D01*
X145355527Y-78844161D01*
X145367391Y-78854654D01*
X145379598Y-78865324D01*
X145392147Y-78876170D01*
X145405037Y-78887191D01*
X145418270Y-78898389D01*
X145431845Y-78909763D01*
X145445762Y-78921313D01*
X145460021Y-78933038D01*
X145474622Y-78944940D01*
X145489564Y-78957018D01*
X145504849Y-78969272D01*
X145520748Y-78982069D01*
X145535927Y-78994448D01*
X145550389Y-79006409D01*
X145564132Y-79017953D01*
X145577156Y-79029078D01*
X145589462Y-79039786D01*
X145601050Y-79050075D01*
X145611919Y-79059947D01*
X145626876Y-79073971D01*
X145640217Y-79087055D01*
X145651941Y-79099199D01*
X145662048Y-79110402D01*
X145673011Y-79123878D01*
X145679820Y-79133289D01*
X145687857Y-79145837D01*
X145696229Y-79161522D01*
X145702741Y-79177207D01*
X145707392Y-79192892D01*
X145710182Y-79208577D01*
X145711113Y-79224262D01*
X145710323Y-79237977D01*
X145707113Y-79254542D01*
X145701435Y-79270464D01*
X145693289Y-79285741D01*
X145682674Y-79300374D01*
X145672404Y-79311617D01*
X145660554Y-79322447D01*
X145647548Y-79332322D01*
X145633810Y-79340880D01*
X145619338Y-79348121D01*
X145604134Y-79354046D01*
X145588197Y-79358654D01*
X145571528Y-79361946D01*
X145554125Y-79363921D01*
X145535990Y-79364579D01*
X145527116Y-79364373D01*
X145509562Y-79362724D01*
X145492268Y-79359427D01*
X145475235Y-79354481D01*
X145458463Y-79347887D01*
X145441950Y-79339643D01*
X145425699Y-79329752D01*
X145409707Y-79318211D01*
X145393977Y-79305022D01*
X145378506Y-79290184D01*
X145363297Y-79273698D01*
X145348347Y-79255563D01*
X145333658Y-79235779D01*
X145319230Y-79214347D01*
X145305062Y-79191266D01*
X145291154Y-79166536D01*
X145284298Y-79153553D01*
X145042131Y-79305228D01*
X144527845Y-79305228D01*
X144527845Y-77560691D01*
X156587646Y-77560691D01*
X156587646Y-80160233D01*
G37*
G36*
X169593494Y-104248469D02*
G01*
X169608612Y-104248603D01*
X169623459Y-104248827D01*
X169652338Y-104249542D01*
X169680133Y-104250616D01*
X169706844Y-104252047D01*
X169732469Y-104253836D01*
X169757010Y-104255982D01*
X169780466Y-104258487D01*
X169802837Y-104261349D01*
X169824123Y-104264569D01*
X169844325Y-104268147D01*
X169863441Y-104272082D01*
X169881473Y-104276376D01*
X169898421Y-104281027D01*
X169914283Y-104286036D01*
X169929061Y-104291402D01*
X169936043Y-104294220D01*
X169949600Y-104300119D01*
X169969253Y-104309794D01*
X169988089Y-104320461D01*
X170006107Y-104332119D01*
X170023308Y-104344769D01*
X170039690Y-104358411D01*
X170055254Y-104373045D01*
X170070001Y-104388671D01*
X170083929Y-104405288D01*
X170097040Y-104422897D01*
X170105326Y-104435188D01*
X170109333Y-104441498D01*
X170117008Y-104454342D01*
X170124188Y-104467504D01*
X170130873Y-104480984D01*
X170137062Y-104494781D01*
X170142757Y-104508896D01*
X170147956Y-104523329D01*
X170152660Y-104538079D01*
X170156869Y-104553148D01*
X170160583Y-104568533D01*
X170163801Y-104584237D01*
X170166525Y-104600258D01*
X170168753Y-104616597D01*
X170170486Y-104633254D01*
X170171724Y-104650228D01*
X170172467Y-104667521D01*
X170172714Y-104685130D01*
X170172389Y-104704615D01*
X170171415Y-104723684D01*
X170169790Y-104742339D01*
X170167516Y-104760578D01*
X170164593Y-104778403D01*
X170161019Y-104795812D01*
X170156796Y-104812807D01*
X170151923Y-104829386D01*
X170146400Y-104845551D01*
X170140228Y-104861300D01*
X170133406Y-104876634D01*
X170125934Y-104891554D01*
X170117812Y-104906058D01*
X170109041Y-104920147D01*
X170099620Y-104933822D01*
X170089549Y-104947081D01*
X170078968Y-104959885D01*
X170067922Y-104972194D01*
X170056413Y-104984008D01*
X170044441Y-104995326D01*
X170032004Y-105006150D01*
X170019104Y-105016478D01*
X170005741Y-105026311D01*
X169991913Y-105035649D01*
X169977622Y-105044492D01*
X169962867Y-105052840D01*
X169947649Y-105060692D01*
X169931967Y-105068050D01*
X169915821Y-105074912D01*
X169899212Y-105081279D01*
X169882139Y-105087151D01*
X169864602Y-105092527D01*
X169847735Y-105096718D01*
X169828460Y-105100496D01*
X169806777Y-105103862D01*
X169790983Y-105105877D01*
X169774119Y-105107709D01*
X169756184Y-105109357D01*
X169737179Y-105110823D01*
X169717104Y-105112105D01*
X169695958Y-105113204D01*
X169673741Y-105114120D01*
X169650454Y-105114853D01*
X169626096Y-105115402D01*
X169600668Y-105115769D01*
X169574170Y-105115952D01*
X169560519Y-105115975D01*
X169560519Y-105772500D01*
X169272191Y-105772500D01*
X169272191Y-104529792D01*
X169560519Y-104529792D01*
X169560519Y-104834607D01*
X169652110Y-104834607D01*
X169671861Y-104834475D01*
X169690446Y-104834079D01*
X169707865Y-104833419D01*
X169724118Y-104832495D01*
X169739206Y-104831306D01*
X169757510Y-104829312D01*
X169773742Y-104826847D01*
X169791117Y-104823107D01*
X169802686Y-104819586D01*
X169817979Y-104813133D01*
X169831984Y-104805315D01*
X169844701Y-104796132D01*
X169856130Y-104785583D01*
X169866270Y-104773669D01*
X169869364Y-104769394D01*
X169877582Y-104755703D01*
X169884099Y-104741007D01*
X169888916Y-104725306D01*
X169892033Y-104708601D01*
X169893332Y-104693912D01*
X169893545Y-104684764D01*
X169892946Y-104669030D01*
X169891149Y-104654114D01*
X169886890Y-104635498D01*
X169880501Y-104618336D01*
X169871983Y-104602628D01*
X169861336Y-104588374D01*
X169848559Y-104575575D01*
X169833653Y-104564229D01*
X169825401Y-104559101D01*
X169811714Y-104552232D01*
X169795382Y-104546278D01*
X169776405Y-104541241D01*
X169760437Y-104538064D01*
X169742982Y-104535402D01*
X169724038Y-104533255D01*
X169703608Y-104531624D01*
X169681689Y-104530507D01*
X169666250Y-104530049D01*
X169650150Y-104529821D01*
X169641852Y-104529792D01*
X169560519Y-104529792D01*
X169272191Y-104529792D01*
X169272191Y-104248424D01*
X169578105Y-104248424D01*
X169593494Y-104248469D01*
G37*
G36*
X170333182Y-104248424D02*
G01*
X170617480Y-104248424D01*
X170835833Y-105221121D01*
X171106943Y-104248424D01*
X171346912Y-104248424D01*
X171620952Y-105221121D01*
X171837473Y-104248424D01*
X172121772Y-104248424D01*
X171780687Y-105772500D01*
X171503715Y-105772500D01*
X171224180Y-104787346D01*
X170950139Y-105772500D01*
X170676099Y-105772500D01*
X170333182Y-104248424D01*
G37*
G36*
X172678459Y-104248468D02*
G01*
X172693742Y-104248599D01*
X172708744Y-104248817D01*
X172723462Y-104249123D01*
X172752052Y-104249995D01*
X172779510Y-104251218D01*
X172805838Y-104252789D01*
X172831036Y-104254710D01*
X172855103Y-104256979D01*
X172878039Y-104259598D01*
X172899845Y-104262566D01*
X172920521Y-104265884D01*
X172940065Y-104269550D01*
X172958479Y-104273566D01*
X172975763Y-104277931D01*
X172991916Y-104282645D01*
X173006938Y-104287708D01*
X173020830Y-104293121D01*
X173040518Y-104301951D01*
X173059466Y-104311818D01*
X173077673Y-104322722D01*
X173095139Y-104334663D01*
X173111865Y-104347641D01*
X173127850Y-104361655D01*
X173143094Y-104376706D01*
X173157598Y-104392795D01*
X173171362Y-104409920D01*
X173180126Y-104421912D01*
X173188561Y-104434366D01*
X173192655Y-104440765D01*
X173200507Y-104453827D01*
X173207853Y-104467184D01*
X173214692Y-104480835D01*
X173221025Y-104494781D01*
X173226851Y-104509022D01*
X173232171Y-104523558D01*
X173236983Y-104538389D01*
X173241290Y-104553514D01*
X173245089Y-104568934D01*
X173248382Y-104584649D01*
X173251169Y-104600659D01*
X173253448Y-104616964D01*
X173255221Y-104633563D01*
X173256488Y-104650457D01*
X173257248Y-104667646D01*
X173257501Y-104685130D01*
X173257221Y-104703487D01*
X173256379Y-104721463D01*
X173254977Y-104739059D01*
X173253013Y-104756274D01*
X173250489Y-104773108D01*
X173247403Y-104789561D01*
X173243757Y-104805634D01*
X173239549Y-104821326D01*
X173234781Y-104836638D01*
X173229451Y-104851568D01*
X173223561Y-104866119D01*
X173217110Y-104880288D01*
X173210097Y-104894077D01*
X173202524Y-104907485D01*
X173194389Y-104920512D01*
X173185694Y-104933159D01*
X173176479Y-104945426D01*
X173166694Y-104957316D01*
X173156340Y-104968828D01*
X173145417Y-104979962D01*
X173133923Y-104990718D01*
X173121861Y-105001097D01*
X173109228Y-105011097D01*
X173096026Y-105020720D01*
X173082255Y-105029965D01*
X173067913Y-105038832D01*
X173053003Y-105047321D01*
X173037522Y-105055433D01*
X173021472Y-105063167D01*
X173004853Y-105070523D01*
X172987664Y-105077501D01*
X172969905Y-105084101D01*
X173328576Y-105772500D01*
X173013503Y-105772500D01*
X172672418Y-105115975D01*
X172645307Y-105115975D01*
X172645307Y-105772500D01*
X172356978Y-105772500D01*
X172356978Y-104529792D01*
X172645307Y-104529792D01*
X172645307Y-104834607D01*
X172736165Y-104834607D01*
X172753093Y-104834470D01*
X172769349Y-104834057D01*
X172784933Y-104833370D01*
X172799844Y-104832409D01*
X172820949Y-104830451D01*
X172840540Y-104827875D01*
X172858618Y-104824681D01*
X172875183Y-104820868D01*
X172890234Y-104816438D01*
X172907949Y-104809568D01*
X172922972Y-104801600D01*
X172926308Y-104799436D01*
X172938501Y-104789825D01*
X172949068Y-104778759D01*
X172958010Y-104766240D01*
X172965326Y-104752267D01*
X172971016Y-104736839D01*
X172975080Y-104719958D01*
X172977519Y-104701622D01*
X172978281Y-104686917D01*
X172978332Y-104681833D01*
X172977697Y-104666919D01*
X172975258Y-104649849D01*
X172970990Y-104633680D01*
X172964894Y-104618413D01*
X172956968Y-104604048D01*
X172952320Y-104597203D01*
X172942085Y-104584447D01*
X172930613Y-104573109D01*
X172917904Y-104563187D01*
X172903960Y-104554682D01*
X172888779Y-104547593D01*
X172883443Y-104545546D01*
X172868172Y-104541007D01*
X172853417Y-104537930D01*
X172836407Y-104535346D01*
X172817141Y-104533253D01*
X172801212Y-104532007D01*
X172784014Y-104531038D01*
X172765547Y-104530346D01*
X172745812Y-104529930D01*
X172724808Y-104529792D01*
X172645307Y-104529792D01*
X172356978Y-104529792D01*
X172356978Y-104248424D01*
X172662892Y-104248424D01*
X172678459Y-104248468D01*
G37*
G36*
X137764188Y-66578468D02*
G01*
X137779472Y-66578599D01*
X137794473Y-66578817D01*
X137809192Y-66579123D01*
X137837781Y-66579995D01*
X137865240Y-66581218D01*
X137891568Y-66582789D01*
X137916765Y-66584710D01*
X137940832Y-66586979D01*
X137963769Y-66589598D01*
X137985575Y-66592566D01*
X138006250Y-66595884D01*
X138025794Y-66599550D01*
X138044209Y-66603566D01*
X138061492Y-66607931D01*
X138077645Y-66612645D01*
X138092667Y-66617708D01*
X138106559Y-66623121D01*
X138126247Y-66631951D01*
X138145195Y-66641818D01*
X138163402Y-66652722D01*
X138180868Y-66664663D01*
X138197594Y-66677641D01*
X138213579Y-66691655D01*
X138228824Y-66706706D01*
X138243328Y-66722795D01*
X138257091Y-66739920D01*
X138265855Y-66751912D01*
X138274290Y-66764366D01*
X138278384Y-66770765D01*
X138286237Y-66783827D01*
X138293582Y-66797184D01*
X138300422Y-66810835D01*
X138306754Y-66824781D01*
X138312580Y-66839022D01*
X138317900Y-66853558D01*
X138322713Y-66868389D01*
X138327019Y-66883514D01*
X138330818Y-66898934D01*
X138334111Y-66914649D01*
X138336898Y-66930659D01*
X138339178Y-66946964D01*
X138340951Y-66963563D01*
X138342217Y-66980457D01*
X138342977Y-66997646D01*
X138343230Y-67015130D01*
X138342950Y-67033487D01*
X138342108Y-67051463D01*
X138340706Y-67069059D01*
X138338743Y-67086274D01*
X138336218Y-67103108D01*
X138333133Y-67119561D01*
X138329486Y-67135634D01*
X138325279Y-67151326D01*
X138320510Y-67166638D01*
X138315181Y-67181568D01*
X138309290Y-67196119D01*
X138302839Y-67210288D01*
X138295826Y-67224077D01*
X138288253Y-67237485D01*
X138280119Y-67250512D01*
X138271423Y-67263159D01*
X138262208Y-67275426D01*
X138252424Y-67287316D01*
X138242070Y-67298828D01*
X138231146Y-67309962D01*
X138219653Y-67320718D01*
X138207590Y-67331097D01*
X138194957Y-67341097D01*
X138181755Y-67350720D01*
X138167984Y-67359965D01*
X138153643Y-67368832D01*
X138138732Y-67377321D01*
X138123252Y-67385433D01*
X138107202Y-67393167D01*
X138090582Y-67400523D01*
X138073393Y-67407501D01*
X138055635Y-67414101D01*
X138414305Y-68102500D01*
X138099232Y-68102500D01*
X137758147Y-67445975D01*
X137731036Y-67445975D01*
X137731036Y-68102500D01*
X137442707Y-68102500D01*
X137442707Y-66859792D01*
X137731036Y-66859792D01*
X137731036Y-67164607D01*
X137821894Y-67164607D01*
X137838823Y-67164470D01*
X137855079Y-67164057D01*
X137870662Y-67163370D01*
X137885573Y-67162409D01*
X137906678Y-67160451D01*
X137926269Y-67157875D01*
X137944347Y-67154681D01*
X137960912Y-67150868D01*
X137975964Y-67146438D01*
X137993678Y-67139568D01*
X138008702Y-67131600D01*
X138012037Y-67129436D01*
X138024230Y-67119825D01*
X138034798Y-67108759D01*
X138043739Y-67096240D01*
X138051055Y-67082267D01*
X138056745Y-67066839D01*
X138060809Y-67049958D01*
X138063248Y-67031622D01*
X138064010Y-67016917D01*
X138064061Y-67011833D01*
X138063426Y-66996919D01*
X138060987Y-66979849D01*
X138056720Y-66963680D01*
X138050623Y-66948413D01*
X138042698Y-66934048D01*
X138038049Y-66927203D01*
X138027814Y-66914447D01*
X138016342Y-66903109D01*
X138003634Y-66893187D01*
X137989689Y-66884682D01*
X137974508Y-66877593D01*
X137969173Y-66875546D01*
X137953901Y-66871007D01*
X137939146Y-66867930D01*
X137922136Y-66865346D01*
X137902870Y-66863253D01*
X137886941Y-66862007D01*
X137869743Y-66861038D01*
X137851276Y-66860346D01*
X137831541Y-66859930D01*
X137810537Y-66859792D01*
X137731036Y-66859792D01*
X137442707Y-66859792D01*
X137442707Y-66578424D01*
X137748621Y-66578424D01*
X137764188Y-66578468D01*
G37*
G36*
X137686866Y-71618527D02*
G01*
X137711435Y-71618836D01*
X137735134Y-71619351D01*
X137757964Y-71620073D01*
X137779923Y-71621000D01*
X137801011Y-71622134D01*
X137821230Y-71623473D01*
X137840579Y-71625019D01*
X137859057Y-71626770D01*
X137876666Y-71628728D01*
X137893404Y-71630892D01*
X137909272Y-71633262D01*
X137924270Y-71635838D01*
X137945136Y-71640088D01*
X137964043Y-71644802D01*
X137980816Y-71649528D01*
X137997154Y-71654729D01*
X138013056Y-71660404D01*
X138028524Y-71666555D01*
X138043556Y-71673181D01*
X138058153Y-71680282D01*
X138072316Y-71687859D01*
X138086043Y-71695910D01*
X138099335Y-71704437D01*
X138112192Y-71713438D01*
X138124614Y-71722915D01*
X138136601Y-71732867D01*
X138148153Y-71743294D01*
X138159270Y-71754196D01*
X138169952Y-71765574D01*
X138180198Y-71777426D01*
X138189959Y-71789651D01*
X138199089Y-71802144D01*
X138207590Y-71814907D01*
X138215461Y-71827939D01*
X138222702Y-71841239D01*
X138229314Y-71854809D01*
X138235296Y-71868648D01*
X138240648Y-71882756D01*
X138245371Y-71897133D01*
X138249464Y-71911779D01*
X138252927Y-71926694D01*
X138255761Y-71941878D01*
X138257965Y-71957331D01*
X138259539Y-71973053D01*
X138260484Y-71989045D01*
X138260799Y-72005305D01*
X138260477Y-72021237D01*
X138259511Y-72036887D01*
X138257901Y-72052252D01*
X138255647Y-72067335D01*
X138252749Y-72082134D01*
X138249207Y-72096650D01*
X138245021Y-72110882D01*
X138240191Y-72124831D01*
X138234717Y-72138497D01*
X138228599Y-72151879D01*
X138224162Y-72160643D01*
X138216890Y-72173621D01*
X138208813Y-72186450D01*
X138199932Y-72199132D01*
X138190245Y-72211665D01*
X138179753Y-72224050D01*
X138168456Y-72236287D01*
X138156354Y-72248376D01*
X138143447Y-72260317D01*
X138129736Y-72272110D01*
X138115219Y-72283755D01*
X138105094Y-72291435D01*
X138122068Y-72299853D01*
X138138461Y-72308528D01*
X138154274Y-72317461D01*
X138169505Y-72326652D01*
X138184155Y-72336100D01*
X138198225Y-72345806D01*
X138211713Y-72355769D01*
X138224620Y-72365990D01*
X138236946Y-72376469D01*
X138248691Y-72387205D01*
X138259855Y-72398199D01*
X138270438Y-72409450D01*
X138280441Y-72420959D01*
X138289862Y-72432726D01*
X138298701Y-72444750D01*
X138306960Y-72457032D01*
X138314724Y-72469584D01*
X138321987Y-72482420D01*
X138328749Y-72495539D01*
X138335010Y-72508941D01*
X138340770Y-72522627D01*
X138346030Y-72536596D01*
X138350788Y-72550848D01*
X138355046Y-72565384D01*
X138358802Y-72580203D01*
X138362058Y-72595306D01*
X138364813Y-72610692D01*
X138367067Y-72626361D01*
X138368820Y-72642314D01*
X138370072Y-72658549D01*
X138370824Y-72675069D01*
X138371074Y-72691871D01*
X138370817Y-72708040D01*
X138370044Y-72724031D01*
X138368756Y-72739845D01*
X138366953Y-72755481D01*
X138364634Y-72770940D01*
X138361801Y-72786222D01*
X138358452Y-72801326D01*
X138354588Y-72816252D01*
X138350209Y-72831001D01*
X138345314Y-72845573D01*
X138339905Y-72859967D01*
X138333980Y-72874183D01*
X138327540Y-72888223D01*
X138320585Y-72902084D01*
X138313114Y-72915769D01*
X138305129Y-72929275D01*
X138296737Y-72942437D01*
X138288047Y-72955179D01*
X138279059Y-72967499D01*
X138269774Y-72979399D01*
X138260192Y-72990878D01*
X138250311Y-73001936D01*
X138240133Y-73012573D01*
X138224308Y-73027741D01*
X138207813Y-73041961D01*
X138190648Y-73055235D01*
X138172814Y-73067562D01*
X138154310Y-73078943D01*
X138135136Y-73089377D01*
X138121821Y-73095810D01*
X138107887Y-73101827D01*
X138093336Y-73107430D01*
X138078166Y-73112618D01*
X138062378Y-73117391D01*
X138045972Y-73121748D01*
X138028947Y-73125691D01*
X138011304Y-73129219D01*
X137993043Y-73132331D01*
X137974164Y-73135029D01*
X137954667Y-73137312D01*
X137934551Y-73139179D01*
X137913817Y-73140632D01*
X137892465Y-73141669D01*
X137870495Y-73142292D01*
X137847906Y-73142500D01*
X137423290Y-73142500D01*
X137423290Y-72462527D01*
X137711618Y-72462527D01*
X137711618Y-72861132D01*
X137783792Y-72861132D01*
X137805774Y-72860950D01*
X137826840Y-72860405D01*
X137846990Y-72859496D01*
X137866224Y-72858224D01*
X137884542Y-72856588D01*
X137901945Y-72854589D01*
X137918431Y-72852226D01*
X137934002Y-72849500D01*
X137948656Y-72846410D01*
X137968921Y-72841094D01*
X137987124Y-72834960D01*
X138003267Y-72828008D01*
X138017349Y-72820238D01*
X138025593Y-72814603D01*
X138040190Y-72802313D01*
X138052841Y-72788706D01*
X138063546Y-72773782D01*
X138072304Y-72757542D01*
X138079116Y-72739985D01*
X138083982Y-72721112D01*
X138086354Y-72706093D01*
X138087631Y-72690333D01*
X138087875Y-72679415D01*
X138087231Y-72660901D01*
X138085299Y-72643141D01*
X138082079Y-72626134D01*
X138077571Y-72609880D01*
X138071775Y-72594380D01*
X138064691Y-72579634D01*
X138056319Y-72565641D01*
X138046659Y-72552401D01*
X138035711Y-72539915D01*
X138023475Y-72528182D01*
X138014602Y-72520779D01*
X138000013Y-72510369D01*
X137983724Y-72500983D01*
X137965735Y-72492620D01*
X137946046Y-72485282D01*
X137931975Y-72480959D01*
X137917149Y-72477090D01*
X137901567Y-72473677D01*
X137885229Y-72470719D01*
X137868136Y-72468216D01*
X137850287Y-72466168D01*
X137831683Y-72464575D01*
X137812323Y-72463438D01*
X137792207Y-72462755D01*
X137771336Y-72462527D01*
X137711618Y-72462527D01*
X137423290Y-72462527D01*
X137423290Y-71899792D01*
X137711618Y-71899792D01*
X137711618Y-72204607D01*
X137774633Y-72204607D01*
X137793872Y-72204237D01*
X137812157Y-72203126D01*
X137829489Y-72201274D01*
X137845868Y-72198682D01*
X137861294Y-72195349D01*
X137875767Y-72191276D01*
X137893581Y-72184693D01*
X137909701Y-72176793D01*
X137924127Y-72167577D01*
X137930704Y-72162475D01*
X137942640Y-72151381D01*
X137952984Y-72139348D01*
X137961737Y-72126377D01*
X137968898Y-72112466D01*
X137974468Y-72097617D01*
X137978446Y-72081829D01*
X137980833Y-72065102D01*
X137981629Y-72047437D01*
X137980873Y-72030847D01*
X137978606Y-72015151D01*
X137974828Y-72000347D01*
X137969539Y-71986437D01*
X137962738Y-71973420D01*
X137954426Y-71961295D01*
X137944603Y-71950064D01*
X137933269Y-71939726D01*
X137920389Y-71930366D01*
X137905929Y-71922255D01*
X137889889Y-71915391D01*
X137872269Y-71909775D01*
X137853069Y-71905408D01*
X137837633Y-71902951D01*
X137821307Y-71901196D01*
X137804093Y-71900143D01*
X137785990Y-71899792D01*
X137711618Y-71899792D01*
X137423290Y-71899792D01*
X137423290Y-71618424D01*
X137661427Y-71618424D01*
X137686866Y-71618527D01*
G37*
%TO.C,G\u002A\u002A\u002A*%
G36*
X162032032Y-95501347D02*
G01*
X162053207Y-95502887D01*
X162070723Y-95505361D01*
X162077984Y-95507094D01*
X162121436Y-95523201D01*
X162159852Y-95544214D01*
X162193239Y-95570140D01*
X162221605Y-95600985D01*
X162244959Y-95636756D01*
X162253596Y-95653943D01*
X162257225Y-95661661D01*
X162260477Y-95668527D01*
X162263372Y-95674948D01*
X162265933Y-95681332D01*
X162268181Y-95688086D01*
X162270139Y-95695617D01*
X162271827Y-95704332D01*
X162273268Y-95714638D01*
X162274483Y-95726942D01*
X162275495Y-95741653D01*
X162276324Y-95759176D01*
X162276993Y-95779920D01*
X162277522Y-95804291D01*
X162277935Y-95832696D01*
X162278253Y-95865543D01*
X162278497Y-95903239D01*
X162278690Y-95946192D01*
X162278852Y-95994807D01*
X162279006Y-96049493D01*
X162279173Y-96110657D01*
X162279241Y-96134416D01*
X162280433Y-96543429D01*
X162311111Y-96573923D01*
X162347524Y-96614936D01*
X162378121Y-96659650D01*
X162402651Y-96707583D01*
X162420866Y-96758255D01*
X162431784Y-96806590D01*
X162433996Y-96825611D01*
X162435325Y-96849013D01*
X162435775Y-96874574D01*
X162435349Y-96900071D01*
X162434051Y-96923283D01*
X162431883Y-96941989D01*
X162431584Y-96943716D01*
X162418607Y-96996698D01*
X162399565Y-97046811D01*
X162374873Y-97093626D01*
X162344946Y-97136713D01*
X162310198Y-97175643D01*
X162271044Y-97209988D01*
X162227899Y-97239318D01*
X162181178Y-97263204D01*
X162131294Y-97281217D01*
X162097322Y-97289583D01*
X162073729Y-97293220D01*
X162045889Y-97295720D01*
X162016514Y-97296963D01*
X161988315Y-97296832D01*
X161965470Y-97295365D01*
X161913907Y-97286489D01*
X161864271Y-97271163D01*
X161817093Y-97249833D01*
X161772904Y-97222942D01*
X161732237Y-97190932D01*
X161695623Y-97154249D01*
X161663594Y-97113336D01*
X161636680Y-97068636D01*
X161615414Y-97020594D01*
X161607363Y-96996457D01*
X161599655Y-96968355D01*
X161594488Y-96943065D01*
X161591443Y-96917711D01*
X161590102Y-96889417D01*
X161589949Y-96876911D01*
X161590106Y-96869882D01*
X161738692Y-96869882D01*
X161741101Y-96911654D01*
X161749984Y-96952846D01*
X161756540Y-96972010D01*
X161775308Y-97011143D01*
X161799706Y-97046450D01*
X161829161Y-97077425D01*
X161863105Y-97103560D01*
X161900966Y-97124351D01*
X161942175Y-97139290D01*
X161946204Y-97140376D01*
X161973650Y-97145405D01*
X162004672Y-97147553D01*
X162036429Y-97146816D01*
X162066081Y-97143191D01*
X162078300Y-97140535D01*
X162119935Y-97126500D01*
X162157633Y-97107039D01*
X162191104Y-97082738D01*
X162220058Y-97054183D01*
X162244206Y-97021960D01*
X162263257Y-96986656D01*
X162276922Y-96948856D01*
X162284911Y-96909146D01*
X162286935Y-96868114D01*
X162282703Y-96826343D01*
X162271926Y-96784422D01*
X162264301Y-96764318D01*
X162247201Y-96731174D01*
X162224422Y-96699883D01*
X162195481Y-96669852D01*
X162167910Y-96646606D01*
X162162497Y-96642643D01*
X162157634Y-96639374D01*
X162153290Y-96636423D01*
X162149435Y-96633417D01*
X162146038Y-96629981D01*
X162143069Y-96625741D01*
X162140497Y-96620324D01*
X162138291Y-96613353D01*
X162136422Y-96604457D01*
X162134859Y-96593259D01*
X162133571Y-96579386D01*
X162132528Y-96562463D01*
X162131700Y-96542117D01*
X162131055Y-96517974D01*
X162130564Y-96489658D01*
X162130195Y-96456795D01*
X162129919Y-96419012D01*
X162129706Y-96375934D01*
X162129523Y-96327187D01*
X162129342Y-96272396D01*
X162129131Y-96211188D01*
X162128966Y-96168425D01*
X162127208Y-95735950D01*
X162118038Y-95716612D01*
X162103963Y-95694301D01*
X162084886Y-95674741D01*
X162062910Y-95660034D01*
X162053641Y-95655856D01*
X162044387Y-95653300D01*
X162032963Y-95651997D01*
X162017184Y-95651576D01*
X162012936Y-95651565D01*
X161996008Y-95651832D01*
X161983889Y-95652890D01*
X161974366Y-95655120D01*
X161965229Y-95658905D01*
X161962414Y-95660308D01*
X161939598Y-95675661D01*
X161920380Y-95695977D01*
X161907786Y-95716612D01*
X161898665Y-95735950D01*
X161896907Y-96168425D01*
X161896661Y-96233942D01*
X161896464Y-96292801D01*
X161896286Y-96345377D01*
X161896096Y-96392045D01*
X161895863Y-96433177D01*
X161895557Y-96469149D01*
X161895148Y-96500335D01*
X161894606Y-96527109D01*
X161893898Y-96549845D01*
X161892996Y-96568918D01*
X161891869Y-96584702D01*
X161890485Y-96597570D01*
X161888816Y-96607898D01*
X161886830Y-96616060D01*
X161884496Y-96622429D01*
X161881785Y-96627381D01*
X161878665Y-96631289D01*
X161875107Y-96634527D01*
X161871080Y-96637470D01*
X161866553Y-96640492D01*
X161861496Y-96643967D01*
X161857963Y-96646606D01*
X161844023Y-96657991D01*
X161829394Y-96670784D01*
X161817524Y-96681943D01*
X161790234Y-96713921D01*
X161768527Y-96749550D01*
X161752583Y-96787984D01*
X161742578Y-96828377D01*
X161738692Y-96869882D01*
X161590106Y-96869882D01*
X161590723Y-96842257D01*
X161593689Y-96811494D01*
X161599276Y-96781706D01*
X161607910Y-96749976D01*
X161609161Y-96745933D01*
X161628138Y-96696410D01*
X161653091Y-96650329D01*
X161684243Y-96607330D01*
X161714762Y-96573923D01*
X161745440Y-96543429D01*
X161746632Y-96134416D01*
X161746821Y-96071664D01*
X161747008Y-96015550D01*
X161747199Y-95965681D01*
X161747400Y-95921662D01*
X161747618Y-95883101D01*
X161747859Y-95849603D01*
X161748131Y-95820774D01*
X161748440Y-95796221D01*
X161748792Y-95775550D01*
X161749193Y-95758367D01*
X161749652Y-95744279D01*
X161750173Y-95732891D01*
X161750764Y-95723810D01*
X161751431Y-95716642D01*
X161752180Y-95710994D01*
X161753019Y-95706471D01*
X161753828Y-95703140D01*
X161761084Y-95681012D01*
X161771100Y-95656858D01*
X161782554Y-95633583D01*
X161794122Y-95614093D01*
X161794963Y-95612857D01*
X161818996Y-95583671D01*
X161848528Y-95557351D01*
X161882318Y-95534739D01*
X161919131Y-95516677D01*
X161953163Y-95505183D01*
X161967764Y-95502660D01*
X161987190Y-95501201D01*
X162009320Y-95500775D01*
X162032032Y-95501347D01*
G37*
G36*
X162029850Y-96054900D02*
G01*
X162044595Y-96063898D01*
X162054180Y-96074891D01*
X162062161Y-96086838D01*
X162062161Y-96397489D01*
X162062180Y-96453353D01*
X162062239Y-96502549D01*
X162062343Y-96545442D01*
X162062499Y-96582395D01*
X162062710Y-96613775D01*
X162062983Y-96639944D01*
X162063322Y-96661267D01*
X162063732Y-96678109D01*
X162064219Y-96690833D01*
X162064787Y-96699805D01*
X162065443Y-96705389D01*
X162066190Y-96707948D01*
X162066556Y-96708211D01*
X162074419Y-96710343D01*
X162086006Y-96715865D01*
X162099590Y-96723730D01*
X162113441Y-96732887D01*
X162125832Y-96742288D01*
X162132478Y-96748222D01*
X162155534Y-96774901D01*
X162171936Y-96803394D01*
X162181974Y-96834383D01*
X162185934Y-96868549D01*
X162186024Y-96875153D01*
X162183178Y-96908932D01*
X162174459Y-96939436D01*
X162159512Y-96967498D01*
X162137981Y-96993952D01*
X162133304Y-96998681D01*
X162107739Y-97019458D01*
X162078584Y-97034716D01*
X162051388Y-97043465D01*
X162023283Y-97048257D01*
X161996691Y-97047748D01*
X161970744Y-97042537D01*
X161941324Y-97032309D01*
X161916401Y-97018505D01*
X161893858Y-96999939D01*
X161892553Y-96998666D01*
X161869782Y-96972414D01*
X161853660Y-96944700D01*
X161843833Y-96914693D01*
X161839945Y-96881562D01*
X161839849Y-96875153D01*
X161842736Y-96840336D01*
X161851648Y-96808820D01*
X161866872Y-96779925D01*
X161888697Y-96752967D01*
X161893395Y-96748222D01*
X161903831Y-96739248D01*
X161916890Y-96729811D01*
X161930844Y-96720962D01*
X161943964Y-96713748D01*
X161954522Y-96709220D01*
X161959317Y-96708211D01*
X161960107Y-96706888D01*
X161960804Y-96702704D01*
X161961411Y-96695294D01*
X161961935Y-96684293D01*
X161962379Y-96669337D01*
X161962750Y-96650061D01*
X161963053Y-96626102D01*
X161963292Y-96597093D01*
X161963473Y-96562671D01*
X161963602Y-96522471D01*
X161963682Y-96476129D01*
X161963720Y-96423280D01*
X161963725Y-96397848D01*
X161963731Y-96344023D01*
X161963751Y-96296781D01*
X161963795Y-96255676D01*
X161963872Y-96220258D01*
X161963992Y-96190082D01*
X161964164Y-96164697D01*
X161964398Y-96143657D01*
X161964703Y-96126513D01*
X161965089Y-96112818D01*
X161965565Y-96102123D01*
X161966142Y-96093980D01*
X161966829Y-96087942D01*
X161967634Y-96083561D01*
X161968569Y-96080388D01*
X161969641Y-96077976D01*
X161970589Y-96076320D01*
X161982654Y-96062401D01*
X161997483Y-96054176D01*
X162013681Y-96051668D01*
X162029850Y-96054900D01*
G37*
G36*
X145796091Y-80957093D02*
G01*
X145839299Y-80968363D01*
X145880047Y-80984046D01*
X145918121Y-81003933D01*
X145953305Y-81027811D01*
X145985384Y-81055469D01*
X146014144Y-81086696D01*
X146039370Y-81121279D01*
X146060847Y-81159008D01*
X146078359Y-81199672D01*
X146091692Y-81243058D01*
X146093238Y-81249444D01*
X146098655Y-81272581D01*
X146099477Y-81938431D01*
X146099564Y-82015393D01*
X146099629Y-82087304D01*
X146099672Y-82154255D01*
X146099691Y-82216337D01*
X146099687Y-82273643D01*
X146099660Y-82326261D01*
X146099610Y-82374285D01*
X146099535Y-82417804D01*
X146099437Y-82456910D01*
X146099314Y-82491693D01*
X146099166Y-82522246D01*
X146098993Y-82548658D01*
X146098796Y-82571021D01*
X146098572Y-82589426D01*
X146098323Y-82603965D01*
X146098048Y-82614727D01*
X146097747Y-82621804D01*
X146097491Y-82624848D01*
X146089356Y-82667248D01*
X146076723Y-82707566D01*
X146059366Y-82746424D01*
X146042184Y-82776466D01*
X146016914Y-82811980D01*
X145988022Y-82843939D01*
X145955745Y-82872181D01*
X145920322Y-82896547D01*
X145881990Y-82916878D01*
X145840987Y-82933013D01*
X145797552Y-82944793D01*
X145788988Y-82946537D01*
X145786254Y-82947032D01*
X145783250Y-82947492D01*
X145779782Y-82947918D01*
X145775656Y-82948310D01*
X145770681Y-82948672D01*
X145764661Y-82949003D01*
X145757405Y-82949306D01*
X145748719Y-82949581D01*
X145738410Y-82949831D01*
X145726284Y-82950056D01*
X145712149Y-82950259D01*
X145695810Y-82950440D01*
X145677075Y-82950601D01*
X145655751Y-82950743D01*
X145631645Y-82950868D01*
X145604562Y-82950978D01*
X145574310Y-82951073D01*
X145540696Y-82951155D01*
X145503526Y-82951226D01*
X145462608Y-82951286D01*
X145417747Y-82951338D01*
X145368751Y-82951383D01*
X145315427Y-82951422D01*
X145257581Y-82951457D01*
X145195020Y-82951489D01*
X145127551Y-82951519D01*
X145112854Y-82951525D01*
X145055176Y-82951546D01*
X144998775Y-82951560D01*
X144943872Y-82951566D01*
X144890689Y-82951566D01*
X144839446Y-82951560D01*
X144790365Y-82951546D01*
X144743668Y-82951527D01*
X144699575Y-82951502D01*
X144658309Y-82951471D01*
X144620089Y-82951434D01*
X144585139Y-82951392D01*
X144553679Y-82951344D01*
X144525930Y-82951292D01*
X144502113Y-82951235D01*
X144482451Y-82951173D01*
X144467164Y-82951107D01*
X144456473Y-82951037D01*
X144450601Y-82950962D01*
X144449575Y-82950927D01*
X144412445Y-82946129D01*
X144375073Y-82937530D01*
X144338637Y-82925528D01*
X144304313Y-82910520D01*
X144273278Y-82892906D01*
X144268142Y-82889496D01*
X144232166Y-82862151D01*
X144200384Y-82831903D01*
X144172734Y-82798659D01*
X144149151Y-82762326D01*
X144129572Y-82722812D01*
X144113933Y-82680025D01*
X144106910Y-82654746D01*
X144101385Y-82632561D01*
X144100621Y-81962854D01*
X144100543Y-81893490D01*
X144100472Y-81829075D01*
X144100410Y-81769416D01*
X144100368Y-81725054D01*
X144349339Y-81725054D01*
X144349346Y-81781250D01*
X144349358Y-81842085D01*
X144349369Y-81907752D01*
X144349375Y-81951183D01*
X144349393Y-82030006D01*
X144349431Y-82103703D01*
X144349489Y-82172287D01*
X144349568Y-82235776D01*
X144349667Y-82294183D01*
X144349786Y-82347524D01*
X144349926Y-82395813D01*
X144350086Y-82439067D01*
X144350267Y-82477299D01*
X144350469Y-82510525D01*
X144350691Y-82538760D01*
X144350934Y-82562019D01*
X144351198Y-82580318D01*
X144351482Y-82593670D01*
X144351788Y-82602092D01*
X144352087Y-82605496D01*
X144359393Y-82627002D01*
X144370746Y-82647258D01*
X144385337Y-82665128D01*
X144402353Y-82679472D01*
X144406824Y-82682333D01*
X144416384Y-82687830D01*
X144425326Y-82692249D01*
X144434358Y-82695699D01*
X144444189Y-82698294D01*
X144455527Y-82700144D01*
X144469079Y-82701362D01*
X144485554Y-82702058D01*
X144505660Y-82702345D01*
X144530105Y-82702334D01*
X144533622Y-82702317D01*
X144598387Y-82701974D01*
X144599480Y-82502733D01*
X144599691Y-82465685D01*
X144599782Y-82451316D01*
X145100000Y-82451316D01*
X145100000Y-82577288D01*
X145100000Y-82703259D01*
X145224258Y-82703259D01*
X145249030Y-82703238D01*
X145272201Y-82703176D01*
X145293270Y-82703079D01*
X145311737Y-82702950D01*
X145327099Y-82702794D01*
X145338858Y-82702615D01*
X145346511Y-82702417D01*
X145349559Y-82702205D01*
X145349587Y-82702189D01*
X145349786Y-82699484D01*
X145349945Y-82692136D01*
X145350063Y-82680645D01*
X145350138Y-82665512D01*
X145350169Y-82647234D01*
X145350154Y-82626312D01*
X145350091Y-82603245D01*
X145349980Y-82578532D01*
X145349967Y-82576218D01*
X145349276Y-82451316D01*
X145224638Y-82451316D01*
X145100000Y-82451316D01*
X144599782Y-82451316D01*
X144599896Y-82433422D01*
X144600105Y-82405588D01*
X144600327Y-82381828D01*
X144600571Y-82361784D01*
X144600846Y-82345101D01*
X144601163Y-82331421D01*
X144601529Y-82320390D01*
X144601955Y-82311651D01*
X144602450Y-82304847D01*
X144603023Y-82299622D01*
X144603684Y-82295621D01*
X144604441Y-82292486D01*
X144605026Y-82290638D01*
X144615823Y-82266724D01*
X144630385Y-82245927D01*
X144648306Y-82228633D01*
X144669182Y-82215228D01*
X144692609Y-82206097D01*
X144694144Y-82205678D01*
X144696644Y-82205176D01*
X144700348Y-82204720D01*
X144705493Y-82204309D01*
X144712312Y-82203941D01*
X144721042Y-82203612D01*
X144731918Y-82203322D01*
X144745175Y-82203067D01*
X144761049Y-82202847D01*
X144779775Y-82202658D01*
X144801588Y-82202498D01*
X144826725Y-82202367D01*
X144855419Y-82202260D01*
X144887907Y-82202178D01*
X144924424Y-82202116D01*
X144965205Y-82202073D01*
X145010486Y-82202047D01*
X145060502Y-82202037D01*
X145100000Y-82202037D01*
X145159029Y-82202059D01*
X145213617Y-82202116D01*
X145263703Y-82202206D01*
X145309227Y-82202329D01*
X145350127Y-82202486D01*
X145386343Y-82202675D01*
X145417813Y-82202897D01*
X145444476Y-82203150D01*
X145466272Y-82203434D01*
X145483139Y-82203750D01*
X145495016Y-82204096D01*
X145501843Y-82204472D01*
X145503329Y-82204668D01*
X145524036Y-82211917D01*
X145543886Y-82223537D01*
X145562012Y-82238759D01*
X145577549Y-82256812D01*
X145589631Y-82276926D01*
X145592887Y-82284321D01*
X145593729Y-82286727D01*
X145594467Y-82289685D01*
X145595111Y-82293545D01*
X145595671Y-82298659D01*
X145596155Y-82305379D01*
X145596574Y-82314054D01*
X145596938Y-82325037D01*
X145597255Y-82338678D01*
X145597536Y-82355328D01*
X145597790Y-82375339D01*
X145598026Y-82399062D01*
X145598255Y-82426847D01*
X145598485Y-82459047D01*
X145598727Y-82496012D01*
X145598745Y-82498877D01*
X145600031Y-82701974D01*
X145660446Y-82702799D01*
X145686539Y-82702992D01*
X145708204Y-82702738D01*
X145726139Y-82701953D01*
X145741044Y-82700556D01*
X145753619Y-82698465D01*
X145764564Y-82695596D01*
X145774578Y-82691867D01*
X145781785Y-82688514D01*
X145798691Y-82678030D01*
X145814704Y-82664397D01*
X145828191Y-82649123D01*
X145834129Y-82640247D01*
X145838436Y-82631421D01*
X145842778Y-82620158D01*
X145845881Y-82610086D01*
X145846390Y-82608018D01*
X145846861Y-82605705D01*
X145847297Y-82602953D01*
X145847698Y-82599571D01*
X145848066Y-82595363D01*
X145848403Y-82590138D01*
X145848709Y-82583702D01*
X145848987Y-82575862D01*
X145849237Y-82566425D01*
X145849461Y-82555197D01*
X145849660Y-82541986D01*
X145849836Y-82526598D01*
X145849990Y-82508840D01*
X145850123Y-82488519D01*
X145850237Y-82465441D01*
X145850334Y-82439415D01*
X145850414Y-82410245D01*
X145850479Y-82377740D01*
X145850531Y-82341706D01*
X145850570Y-82301950D01*
X145850599Y-82258279D01*
X145850618Y-82210499D01*
X145850629Y-82158418D01*
X145850633Y-82101841D01*
X145850633Y-82040577D01*
X145850628Y-81974432D01*
X145850626Y-81950174D01*
X145850608Y-81871423D01*
X145850569Y-81797799D01*
X145850511Y-81729287D01*
X145850432Y-81665871D01*
X145850333Y-81607536D01*
X145850213Y-81554269D01*
X145850073Y-81506053D01*
X145849913Y-81462873D01*
X145849732Y-81424716D01*
X145849530Y-81391565D01*
X145849307Y-81363405D01*
X145849063Y-81340222D01*
X145848799Y-81322001D01*
X145848514Y-81308726D01*
X145848208Y-81300383D01*
X145847913Y-81297076D01*
X145839971Y-81273749D01*
X145827633Y-81252566D01*
X145811391Y-81234077D01*
X145791738Y-81218833D01*
X145769167Y-81207385D01*
X145766928Y-81206530D01*
X145762286Y-81204897D01*
X145757700Y-81203611D01*
X145752504Y-81202628D01*
X145746035Y-81201905D01*
X145737626Y-81201401D01*
X145726614Y-81201074D01*
X145712332Y-81200880D01*
X145694116Y-81200779D01*
X145675871Y-81200734D01*
X145600031Y-81200597D01*
X145598728Y-81528381D01*
X145598501Y-81581461D01*
X145598261Y-81629527D01*
X145598006Y-81672710D01*
X145597736Y-81711138D01*
X145597448Y-81744939D01*
X145597140Y-81774243D01*
X145596812Y-81799179D01*
X145596461Y-81819874D01*
X145596087Y-81836459D01*
X145595686Y-81849061D01*
X145595258Y-81857811D01*
X145594801Y-81862836D01*
X145594549Y-81864027D01*
X145583275Y-81887611D01*
X145567940Y-81908328D01*
X145549008Y-81925689D01*
X145526946Y-81939203D01*
X145520363Y-81942192D01*
X145504909Y-81948715D01*
X145107713Y-81949402D01*
X145048093Y-81949491D01*
X144993517Y-81949542D01*
X144943888Y-81949555D01*
X144899107Y-81949529D01*
X144859078Y-81949464D01*
X144823703Y-81949359D01*
X144792883Y-81949214D01*
X144766523Y-81949028D01*
X144744523Y-81948801D01*
X144726787Y-81948533D01*
X144713218Y-81948222D01*
X144703716Y-81947868D01*
X144698186Y-81947471D01*
X144697098Y-81947308D01*
X144675535Y-81940307D01*
X144655474Y-81928922D01*
X144637554Y-81913837D01*
X144622414Y-81895738D01*
X144610691Y-81875308D01*
X144603025Y-81853232D01*
X144601314Y-81844595D01*
X144600884Y-81839189D01*
X144600491Y-81828752D01*
X144600136Y-81813397D01*
X144599819Y-81793236D01*
X144599541Y-81768381D01*
X144599304Y-81738943D01*
X144599108Y-81705033D01*
X144599090Y-81700628D01*
X144848031Y-81700628D01*
X145099479Y-81700628D01*
X145350927Y-81700628D01*
X145349883Y-81450613D01*
X145348839Y-81200597D01*
X145099091Y-81200597D01*
X144849342Y-81200597D01*
X144848687Y-81450613D01*
X144848031Y-81700628D01*
X144599090Y-81700628D01*
X144598953Y-81666765D01*
X144598841Y-81624249D01*
X144598773Y-81577598D01*
X144598749Y-81526923D01*
X144598750Y-81514241D01*
X144598808Y-81200597D01*
X144533832Y-81199857D01*
X144509199Y-81199687D01*
X144488981Y-81199848D01*
X144472458Y-81200423D01*
X144458909Y-81201492D01*
X144447614Y-81203138D01*
X144437851Y-81205440D01*
X144428902Y-81208482D01*
X144420045Y-81212344D01*
X144419016Y-81212836D01*
X144404494Y-81221641D01*
X144389840Y-81233632D01*
X144376586Y-81247352D01*
X144366265Y-81261341D01*
X144364134Y-81265061D01*
X144362585Y-81267846D01*
X144361148Y-81270292D01*
X144359817Y-81272590D01*
X144358590Y-81274932D01*
X144357462Y-81277508D01*
X144356429Y-81280512D01*
X144355486Y-81284133D01*
X144354630Y-81288564D01*
X144353857Y-81293995D01*
X144353161Y-81300620D01*
X144352541Y-81308628D01*
X144351990Y-81318212D01*
X144351505Y-81329563D01*
X144351083Y-81342872D01*
X144350718Y-81358332D01*
X144350406Y-81376133D01*
X144350145Y-81396467D01*
X144349928Y-81419525D01*
X144349753Y-81445500D01*
X144349616Y-81474582D01*
X144349511Y-81506962D01*
X144349435Y-81542834D01*
X144349384Y-81582387D01*
X144349354Y-81625814D01*
X144349340Y-81673306D01*
X144349339Y-81725054D01*
X144100368Y-81725054D01*
X144100358Y-81714322D01*
X144100318Y-81663601D01*
X144100290Y-81617059D01*
X144100275Y-81574505D01*
X144100276Y-81535746D01*
X144100292Y-81500590D01*
X144100326Y-81468844D01*
X144100379Y-81440316D01*
X144100451Y-81414814D01*
X144100544Y-81392145D01*
X144100659Y-81372117D01*
X144100798Y-81354537D01*
X144100961Y-81339214D01*
X144101149Y-81325955D01*
X144101365Y-81314567D01*
X144101609Y-81304858D01*
X144101882Y-81296636D01*
X144102185Y-81289708D01*
X144102521Y-81283882D01*
X144102889Y-81278965D01*
X144103291Y-81274766D01*
X144103729Y-81271092D01*
X144104203Y-81267751D01*
X144104715Y-81264549D01*
X144104993Y-81262900D01*
X144114341Y-81221565D01*
X144128111Y-81182314D01*
X144140520Y-81155608D01*
X144154978Y-81129609D01*
X144170651Y-81106153D01*
X144188686Y-81083681D01*
X144210230Y-81060629D01*
X144210486Y-81060371D01*
X144242845Y-81031417D01*
X144278264Y-81006506D01*
X144316426Y-80985807D01*
X144357014Y-80969486D01*
X144399711Y-80957710D01*
X144408823Y-80955848D01*
X144411508Y-80955367D01*
X144414504Y-80954921D01*
X144418004Y-80954508D01*
X144422197Y-80954127D01*
X144427274Y-80953776D01*
X144433425Y-80953455D01*
X144440842Y-80953161D01*
X144449714Y-80952895D01*
X144460232Y-80952654D01*
X144472587Y-80952437D01*
X144486969Y-80952243D01*
X144503569Y-80952071D01*
X144522577Y-80951919D01*
X144544184Y-80951787D01*
X144568581Y-80951672D01*
X144595957Y-80951574D01*
X144626505Y-80951491D01*
X144660413Y-80951423D01*
X144697873Y-80951367D01*
X144739075Y-80951322D01*
X144784210Y-80951288D01*
X144833469Y-80951262D01*
X144887041Y-80951245D01*
X144945118Y-80951234D01*
X145007890Y-80951227D01*
X145075547Y-80951225D01*
X145100000Y-80951225D01*
X145767136Y-80951225D01*
X145796091Y-80957093D01*
G37*
G36*
X163567232Y-87335602D02*
G01*
X163580343Y-87348848D01*
X163591318Y-87360234D01*
X163599197Y-87368739D01*
X163603018Y-87373346D01*
X163603230Y-87373803D01*
X163600701Y-87376877D01*
X163593523Y-87384556D01*
X163582312Y-87396208D01*
X163567685Y-87411200D01*
X163550256Y-87428898D01*
X163530643Y-87448672D01*
X163517052Y-87462300D01*
X163430875Y-87548537D01*
X163516124Y-87634137D01*
X163536758Y-87654862D01*
X163555694Y-87673894D01*
X163572300Y-87690597D01*
X163585945Y-87704335D01*
X163595997Y-87714473D01*
X163601826Y-87720376D01*
X163603039Y-87721626D01*
X163601234Y-87724777D01*
X163595192Y-87731866D01*
X163586069Y-87741728D01*
X163575021Y-87753195D01*
X163563203Y-87765102D01*
X163551772Y-87776282D01*
X163541884Y-87785570D01*
X163534695Y-87791798D01*
X163531477Y-87793824D01*
X163528163Y-87791297D01*
X163520252Y-87784128D01*
X163508387Y-87772934D01*
X163493212Y-87758332D01*
X163475371Y-87740942D01*
X163455508Y-87721380D01*
X163442388Y-87708361D01*
X163356511Y-87622898D01*
X163269163Y-87710094D01*
X163181815Y-87797289D01*
X163145055Y-87759944D01*
X163108295Y-87722600D01*
X163195063Y-87635772D01*
X163281832Y-87548945D01*
X163268953Y-87535449D01*
X163262943Y-87529287D01*
X163252494Y-87518720D01*
X163238432Y-87504577D01*
X163221585Y-87487689D01*
X163202780Y-87468887D01*
X163182842Y-87448999D01*
X163181893Y-87448054D01*
X163107713Y-87374155D01*
X163144814Y-87337054D01*
X163181915Y-87299953D01*
X163267262Y-87385349D01*
X163287988Y-87405978D01*
X163307121Y-87424814D01*
X163324015Y-87441237D01*
X163338023Y-87454625D01*
X163348495Y-87464357D01*
X163354786Y-87469812D01*
X163356293Y-87470773D01*
X163359717Y-87468246D01*
X163367722Y-87461064D01*
X163379659Y-87449847D01*
X163394884Y-87435214D01*
X163412748Y-87417785D01*
X163432605Y-87398180D01*
X163445605Y-87385231D01*
X163531233Y-87299661D01*
X163567232Y-87335602D01*
G37*
G36*
X161289169Y-86633527D02*
G01*
X161290106Y-87416937D01*
X161800614Y-86906439D01*
X162311121Y-86395942D01*
X162349173Y-86433994D01*
X162387225Y-86472047D01*
X161876720Y-86982563D01*
X161366214Y-87493079D01*
X162202541Y-87493079D01*
X163038868Y-87493079D01*
X163038868Y-87546916D01*
X163038868Y-87600753D01*
X162110634Y-87600753D01*
X161182399Y-87600753D01*
X161183335Y-86725435D01*
X161184271Y-85850117D01*
X161236252Y-85850117D01*
X161288232Y-85850117D01*
X161289169Y-86633527D01*
G37*
G36*
X162471986Y-86059233D02*
G01*
X162492789Y-86079930D01*
X162511970Y-86098838D01*
X162528890Y-86115341D01*
X162542908Y-86128820D01*
X162553384Y-86138659D01*
X162559679Y-86144241D01*
X162561218Y-86145293D01*
X162564501Y-86142759D01*
X162572369Y-86135571D01*
X162584180Y-86124348D01*
X162599292Y-86109711D01*
X162617062Y-86092280D01*
X162636849Y-86072674D01*
X162649767Y-86059780D01*
X162735204Y-85974268D01*
X162750587Y-85988307D01*
X162760773Y-85997998D01*
X162773469Y-86010627D01*
X162786149Y-86023675D01*
X162787753Y-86025365D01*
X162809537Y-86048384D01*
X162712304Y-86145475D01*
X162615071Y-86242567D01*
X162615446Y-86364724D01*
X162615821Y-86486881D01*
X162561872Y-86486881D01*
X162507923Y-86486881D01*
X162507923Y-86365256D01*
X162507923Y-86243632D01*
X162411387Y-86147150D01*
X162389417Y-86125106D01*
X162369201Y-86104659D01*
X162351323Y-86086411D01*
X162336367Y-86070964D01*
X162324914Y-86058921D01*
X162317549Y-86050883D01*
X162314854Y-86047454D01*
X162314851Y-86047428D01*
X162317342Y-86043748D01*
X162324166Y-86035931D01*
X162334354Y-86025035D01*
X162346935Y-86012119D01*
X162350359Y-86008680D01*
X162385867Y-85973172D01*
X162471986Y-86059233D01*
G37*
G36*
X161394050Y-85277346D02*
G01*
X161394050Y-85341407D01*
X161272474Y-85463026D01*
X161150897Y-85584644D01*
X161272474Y-85584644D01*
X161394050Y-85584644D01*
X161394050Y-85638481D01*
X161394050Y-85692318D01*
X161210880Y-85692318D01*
X161174688Y-85692270D01*
X161140770Y-85692130D01*
X161109849Y-85691909D01*
X161082643Y-85691616D01*
X161059874Y-85691261D01*
X161042262Y-85690853D01*
X161030527Y-85690402D01*
X161025391Y-85689917D01*
X161025235Y-85689843D01*
X161024410Y-85685478D01*
X161023701Y-85674974D01*
X161023159Y-85659618D01*
X161022833Y-85640695D01*
X161022760Y-85625774D01*
X161022760Y-85564180D01*
X161143455Y-85443532D01*
X161264149Y-85322884D01*
X161144383Y-85321028D01*
X161024616Y-85319171D01*
X161024616Y-85267191D01*
X161024616Y-85215210D01*
X161209333Y-85214247D01*
X161394050Y-85213284D01*
X161394050Y-85277346D01*
G37*
G36*
X130942628Y-66453895D02*
G01*
X130989416Y-66461177D01*
X131034405Y-66472794D01*
X131077386Y-66488621D01*
X131118149Y-66508532D01*
X131156487Y-66532404D01*
X131192188Y-66560112D01*
X131225044Y-66591530D01*
X131254846Y-66626534D01*
X131271767Y-66650086D01*
X131286184Y-66673163D01*
X131299703Y-66697921D01*
X131311894Y-66723374D01*
X131322326Y-66748536D01*
X131330571Y-66772422D01*
X131336199Y-66794047D01*
X131337420Y-66800592D01*
X131338468Y-66806326D01*
X131340145Y-66814865D01*
X131342020Y-66824029D01*
X131344726Y-66839650D01*
X131345451Y-66852115D01*
X131344132Y-66862661D01*
X131340711Y-66872521D01*
X131339520Y-66875024D01*
X131329519Y-66890182D01*
X131316667Y-66902118D01*
X131301697Y-66910680D01*
X131285343Y-66915719D01*
X131268339Y-66917083D01*
X131251417Y-66914620D01*
X131235313Y-66908180D01*
X131222445Y-66899144D01*
X131212940Y-66889546D01*
X131205782Y-66879114D01*
X131200339Y-66866630D01*
X131195978Y-66850880D01*
X131194997Y-66846355D01*
X131184921Y-66808402D01*
X131171043Y-66773309D01*
X131153271Y-66740906D01*
X131131516Y-66711022D01*
X131112133Y-66689760D01*
X131083949Y-66664781D01*
X131053697Y-66643926D01*
X131021750Y-66627196D01*
X130988479Y-66614590D01*
X130954258Y-66606110D01*
X130919457Y-66601755D01*
X130884450Y-66601525D01*
X130849607Y-66605419D01*
X130815302Y-66613439D01*
X130781907Y-66625583D01*
X130749794Y-66641853D01*
X130719334Y-66662247D01*
X130690901Y-66686766D01*
X130687868Y-66689760D01*
X130663178Y-66717826D01*
X130642141Y-66748842D01*
X130624989Y-66782404D01*
X130611953Y-66818108D01*
X130609428Y-66827079D01*
X130601968Y-66855180D01*
X130601032Y-66952826D01*
X130600097Y-67050472D01*
X130951518Y-67050472D01*
X130999492Y-67050473D01*
X131042921Y-67050480D01*
X131082051Y-67050494D01*
X131117130Y-67050520D01*
X131148406Y-67050560D01*
X131176125Y-67050617D01*
X131200535Y-67050696D01*
X131221882Y-67050798D01*
X131240415Y-67050928D01*
X131256379Y-67051088D01*
X131270024Y-67051281D01*
X131281594Y-67051511D01*
X131291338Y-67051781D01*
X131299503Y-67052095D01*
X131306337Y-67052454D01*
X131312085Y-67052863D01*
X131316996Y-67053324D01*
X131321316Y-67053841D01*
X131325293Y-67054418D01*
X131329175Y-67055056D01*
X131330909Y-67055356D01*
X131371662Y-67064203D01*
X131409037Y-67076049D01*
X131443612Y-67091192D01*
X131475966Y-67109926D01*
X131506677Y-67132549D01*
X131536325Y-67159356D01*
X131538690Y-67161713D01*
X131567347Y-67193694D01*
X131591791Y-67227875D01*
X131611955Y-67264125D01*
X131627773Y-67302309D01*
X131639180Y-67342296D01*
X131645199Y-67376359D01*
X131645667Y-67382018D01*
X131646073Y-67391379D01*
X131646418Y-67404553D01*
X131646701Y-67421647D01*
X131646924Y-67442769D01*
X131647088Y-67468027D01*
X131647192Y-67497531D01*
X131647239Y-67531388D01*
X131647228Y-67569706D01*
X131647160Y-67612595D01*
X131647036Y-67660162D01*
X131647028Y-67662708D01*
X131646899Y-67704102D01*
X131646779Y-67740988D01*
X131646660Y-67773652D01*
X131646537Y-67802378D01*
X131646405Y-67827452D01*
X131646256Y-67849158D01*
X131646085Y-67867782D01*
X131645887Y-67883608D01*
X131645654Y-67896922D01*
X131645382Y-67908009D01*
X131645063Y-67917153D01*
X131644693Y-67924639D01*
X131644264Y-67930754D01*
X131643771Y-67935780D01*
X131643209Y-67940004D01*
X131642570Y-67943711D01*
X131641850Y-67947185D01*
X131641041Y-67950711D01*
X131640951Y-67951092D01*
X131628689Y-67993621D01*
X131612505Y-68033440D01*
X131592427Y-68070504D01*
X131568482Y-68104765D01*
X131540696Y-68136174D01*
X131532329Y-68144359D01*
X131501474Y-68170956D01*
X131469224Y-68193389D01*
X131435025Y-68211944D01*
X131398324Y-68226908D01*
X131358566Y-68238568D01*
X131344020Y-68241881D01*
X131318142Y-68247376D01*
X130909585Y-68247607D01*
X130865557Y-68247627D01*
X130822739Y-68247636D01*
X130781386Y-68247635D01*
X130741751Y-68247624D01*
X130704087Y-68247604D01*
X130668648Y-68247574D01*
X130635687Y-68247536D01*
X130605458Y-68247490D01*
X130578213Y-68247435D01*
X130554207Y-68247374D01*
X130533693Y-68247305D01*
X130516924Y-68247229D01*
X130504154Y-68247147D01*
X130495636Y-68247060D01*
X130491623Y-68246966D01*
X130491444Y-68246954D01*
X130478296Y-68245249D01*
X130462241Y-68242428D01*
X130444936Y-68238844D01*
X130428034Y-68234847D01*
X130413192Y-68230790D01*
X130408446Y-68229308D01*
X130369804Y-68214214D01*
X130333499Y-68195068D01*
X130299754Y-68172117D01*
X130268791Y-68145612D01*
X130240835Y-68115800D01*
X130216107Y-68082930D01*
X130194830Y-68047251D01*
X130177227Y-68009010D01*
X130163521Y-67968458D01*
X130159049Y-67951092D01*
X130158231Y-67947544D01*
X130157502Y-67944078D01*
X130156855Y-67940409D01*
X130156284Y-67936252D01*
X130155785Y-67931322D01*
X130155350Y-67925334D01*
X130154974Y-67918004D01*
X130154650Y-67909045D01*
X130154373Y-67898174D01*
X130154136Y-67885105D01*
X130153935Y-67869553D01*
X130153761Y-67851233D01*
X130153611Y-67829861D01*
X130153477Y-67805150D01*
X130153353Y-67776817D01*
X130153234Y-67744576D01*
X130153114Y-67708142D01*
X130152987Y-67667231D01*
X130152973Y-67662708D01*
X130152846Y-67614900D01*
X130152775Y-67571776D01*
X130152761Y-67533228D01*
X130152778Y-67519703D01*
X130301220Y-67519703D01*
X130301248Y-67547460D01*
X130301306Y-67579114D01*
X130301390Y-67614960D01*
X130301495Y-67655291D01*
X130301501Y-67657383D01*
X130302183Y-67911916D01*
X130307608Y-67931085D01*
X130318826Y-67962308D01*
X130333942Y-67991069D01*
X130352630Y-68017081D01*
X130374563Y-68040060D01*
X130399413Y-68059721D01*
X130426854Y-68075778D01*
X130456557Y-68087945D01*
X130488195Y-68095938D01*
X130498565Y-68097553D01*
X130502519Y-68097761D01*
X130511003Y-68097958D01*
X130523757Y-68098142D01*
X130540518Y-68098314D01*
X130561025Y-68098472D01*
X130585017Y-68098616D01*
X130612231Y-68098743D01*
X130642406Y-68098854D01*
X130675281Y-68098947D01*
X130710593Y-68099021D01*
X130748082Y-68099076D01*
X130787485Y-68099110D01*
X130828541Y-68099122D01*
X130870989Y-68099111D01*
X130909585Y-68099083D01*
X131306161Y-68098692D01*
X131326035Y-68093376D01*
X131358142Y-68082465D01*
X131387685Y-68067720D01*
X131414397Y-68049402D01*
X131438014Y-68027772D01*
X131458270Y-68003090D01*
X131474901Y-67975617D01*
X131487640Y-67945614D01*
X131492450Y-67929812D01*
X131497859Y-67909519D01*
X131497859Y-67649529D01*
X131497858Y-67608643D01*
X131497851Y-67572264D01*
X131497834Y-67540106D01*
X131497801Y-67511883D01*
X131497746Y-67487311D01*
X131497664Y-67466102D01*
X131497550Y-67447972D01*
X131497398Y-67432634D01*
X131497204Y-67419804D01*
X131496961Y-67409195D01*
X131496665Y-67400521D01*
X131496310Y-67393498D01*
X131495891Y-67387839D01*
X131495402Y-67383259D01*
X131494838Y-67379472D01*
X131494195Y-67376192D01*
X131493465Y-67373134D01*
X131492645Y-67370012D01*
X131492634Y-67369974D01*
X131481837Y-67338466D01*
X131467066Y-67309463D01*
X131448581Y-67283218D01*
X131426639Y-67259981D01*
X131401497Y-67240006D01*
X131373413Y-67223546D01*
X131342646Y-67210852D01*
X131324790Y-67205597D01*
X131303765Y-67200236D01*
X130900000Y-67200236D01*
X130496236Y-67200236D01*
X130475211Y-67205597D01*
X130443039Y-67216019D01*
X130413794Y-67230184D01*
X130387252Y-67248222D01*
X130363192Y-67270263D01*
X130361644Y-67271906D01*
X130340968Y-67297179D01*
X130324716Y-67324073D01*
X130312675Y-67352999D01*
X130305459Y-67380134D01*
X130304720Y-67383908D01*
X130304065Y-67387767D01*
X130303491Y-67392004D01*
X130302992Y-67396912D01*
X130302564Y-67402785D01*
X130302204Y-67409916D01*
X130301908Y-67418599D01*
X130301670Y-67429127D01*
X130301487Y-67441792D01*
X130301355Y-67456890D01*
X130301269Y-67474712D01*
X130301225Y-67495552D01*
X130301220Y-67519703D01*
X130152778Y-67519703D01*
X130152805Y-67499147D01*
X130152906Y-67469424D01*
X130153067Y-67443953D01*
X130153287Y-67422623D01*
X130153567Y-67405327D01*
X130153908Y-67391957D01*
X130154311Y-67382403D01*
X130154776Y-67376559D01*
X130154802Y-67376359D01*
X130162474Y-67335672D01*
X130174616Y-67296261D01*
X130190992Y-67258507D01*
X130211366Y-67222792D01*
X130235501Y-67189497D01*
X130263160Y-67159003D01*
X130294107Y-67131692D01*
X130316850Y-67115171D01*
X130345701Y-67097292D01*
X130373624Y-67083042D01*
X130401934Y-67071817D01*
X130428267Y-67063947D01*
X130450708Y-67058136D01*
X130452141Y-66949469D01*
X130452488Y-66923713D01*
X130452809Y-66902222D01*
X130453134Y-66884471D01*
X130453491Y-66869932D01*
X130453912Y-66858081D01*
X130454425Y-66848390D01*
X130455060Y-66840333D01*
X130455847Y-66833383D01*
X130456816Y-66827015D01*
X130457995Y-66820702D01*
X130459415Y-66813917D01*
X130459904Y-66811659D01*
X130472221Y-66765916D01*
X130488843Y-66722042D01*
X130509631Y-66680316D01*
X130534445Y-66641015D01*
X130563145Y-66604421D01*
X130564216Y-66603195D01*
X130595081Y-66571528D01*
X130629042Y-66543189D01*
X130665674Y-66518343D01*
X130704554Y-66497159D01*
X130745256Y-66479805D01*
X130787357Y-66466446D01*
X130830432Y-66457252D01*
X130874057Y-66452390D01*
X130917806Y-66452026D01*
X130942628Y-66453895D01*
G37*
G36*
X130915473Y-67351753D02*
G01*
X130931952Y-67352896D01*
X130945609Y-67354873D01*
X130948494Y-67355519D01*
X130974606Y-67363504D01*
X130999594Y-67374088D01*
X131021510Y-67386408D01*
X131034252Y-67395692D01*
X131047986Y-67407326D01*
X131061492Y-67420140D01*
X131073546Y-67432966D01*
X131082928Y-67444635D01*
X131084068Y-67446270D01*
X131095239Y-67464948D01*
X131105469Y-67486236D01*
X131113770Y-67507953D01*
X131117303Y-67519842D01*
X131121108Y-67539549D01*
X131123177Y-67561664D01*
X131123471Y-67584373D01*
X131121947Y-67605860D01*
X131119570Y-67620157D01*
X131110265Y-67651400D01*
X131096740Y-67680693D01*
X131079305Y-67707653D01*
X131058270Y-67731894D01*
X131033944Y-67753035D01*
X131006638Y-67770689D01*
X130992279Y-67777944D01*
X130974607Y-67786109D01*
X130973846Y-67840625D01*
X130973586Y-67858177D01*
X130973309Y-67871646D01*
X130972938Y-67881745D01*
X130972397Y-67889184D01*
X130971610Y-67894673D01*
X130970501Y-67898923D01*
X130968992Y-67902645D01*
X130967008Y-67906549D01*
X130966703Y-67907123D01*
X130956549Y-67921950D01*
X130943690Y-67934074D01*
X130930615Y-67941834D01*
X130918367Y-67945732D01*
X130904489Y-67947803D01*
X130890929Y-67947896D01*
X130879633Y-67945855D01*
X130879632Y-67945855D01*
X130861710Y-67937736D01*
X130847108Y-67926246D01*
X130835448Y-67911068D01*
X130832561Y-67905925D01*
X130830735Y-67902213D01*
X130829337Y-67898493D01*
X130828300Y-67894061D01*
X130827554Y-67888215D01*
X130827029Y-67880251D01*
X130826658Y-67869466D01*
X130826371Y-67855156D01*
X130826154Y-67840625D01*
X130825393Y-67786109D01*
X130807722Y-67777944D01*
X130779069Y-67762135D01*
X130753245Y-67742653D01*
X130730561Y-67719881D01*
X130711325Y-67694204D01*
X130695848Y-67666005D01*
X130684439Y-67635669D01*
X130680431Y-67620157D01*
X130677491Y-67600652D01*
X130676428Y-67578565D01*
X130676492Y-67576679D01*
X130825343Y-67576679D01*
X130827821Y-67593725D01*
X130834150Y-67609727D01*
X130844049Y-67624008D01*
X130857239Y-67635893D01*
X130873438Y-67644708D01*
X130876038Y-67645698D01*
X130888752Y-67648447D01*
X130903524Y-67648827D01*
X130918315Y-67646953D01*
X130931085Y-67642940D01*
X130931951Y-67642533D01*
X130947243Y-67632660D01*
X130959398Y-67619784D01*
X130968152Y-67604658D01*
X130973243Y-67588034D01*
X130974410Y-67570664D01*
X130971389Y-67553303D01*
X130966942Y-67542151D01*
X130956740Y-67526476D01*
X130944036Y-67514411D01*
X130929481Y-67505955D01*
X130913727Y-67501109D01*
X130897425Y-67499872D01*
X130881224Y-67502245D01*
X130865778Y-67508228D01*
X130851735Y-67517820D01*
X130839749Y-67531021D01*
X130833058Y-67542151D01*
X130826995Y-67559263D01*
X130825343Y-67576679D01*
X130676492Y-67576679D01*
X130677200Y-67555706D01*
X130679765Y-67533887D01*
X130682754Y-67519624D01*
X130693256Y-67488432D01*
X130707762Y-67459678D01*
X130726006Y-67433619D01*
X130747724Y-67410512D01*
X130772652Y-67390614D01*
X130800524Y-67374184D01*
X130831076Y-67361478D01*
X130851507Y-67355519D01*
X130864190Y-67353327D01*
X130880084Y-67351969D01*
X130897682Y-67351444D01*
X130915473Y-67351753D01*
G37*
G36*
X130942628Y-71453895D02*
G01*
X130989540Y-71461190D01*
X131034596Y-71472818D01*
X131077605Y-71488664D01*
X131118374Y-71508613D01*
X131156712Y-71532550D01*
X131192428Y-71560361D01*
X131225329Y-71591931D01*
X131255224Y-71627145D01*
X131272663Y-71651500D01*
X131296510Y-71691437D01*
X131316159Y-71733674D01*
X131331589Y-71778159D01*
X131340097Y-71811659D01*
X131341597Y-71818693D01*
X131342847Y-71825095D01*
X131343877Y-71831391D01*
X131344716Y-71838106D01*
X131345395Y-71845767D01*
X131345942Y-71854900D01*
X131346388Y-71866032D01*
X131346762Y-71879690D01*
X131347094Y-71896399D01*
X131347413Y-71916686D01*
X131347749Y-71941076D01*
X131347860Y-71949469D01*
X131349293Y-72058136D01*
X131370859Y-72063744D01*
X131409700Y-72076173D01*
X131446361Y-72092740D01*
X131481039Y-72113560D01*
X131513932Y-72138747D01*
X131538690Y-72161713D01*
X131567347Y-72193694D01*
X131591791Y-72227875D01*
X131611955Y-72264125D01*
X131627773Y-72302309D01*
X131639180Y-72342296D01*
X131645199Y-72376359D01*
X131645667Y-72382018D01*
X131646073Y-72391379D01*
X131646418Y-72404553D01*
X131646701Y-72421647D01*
X131646924Y-72442769D01*
X131647088Y-72468027D01*
X131647192Y-72497531D01*
X131647239Y-72531388D01*
X131647228Y-72569706D01*
X131647160Y-72612595D01*
X131647036Y-72660162D01*
X131647028Y-72662708D01*
X131646899Y-72704102D01*
X131646779Y-72740988D01*
X131646660Y-72773652D01*
X131646537Y-72802378D01*
X131646405Y-72827452D01*
X131646256Y-72849158D01*
X131646085Y-72867782D01*
X131645887Y-72883608D01*
X131645654Y-72896922D01*
X131645382Y-72908009D01*
X131645063Y-72917153D01*
X131644693Y-72924639D01*
X131644264Y-72930754D01*
X131643771Y-72935780D01*
X131643209Y-72940004D01*
X131642570Y-72943711D01*
X131641850Y-72947185D01*
X131641041Y-72950711D01*
X131640951Y-72951092D01*
X131628689Y-72993621D01*
X131612505Y-73033440D01*
X131592427Y-73070504D01*
X131568482Y-73104765D01*
X131540696Y-73136174D01*
X131532329Y-73144359D01*
X131501474Y-73170956D01*
X131469224Y-73193389D01*
X131435025Y-73211944D01*
X131398324Y-73226908D01*
X131358566Y-73238568D01*
X131344020Y-73241881D01*
X131318142Y-73247376D01*
X130909585Y-73247607D01*
X130865557Y-73247627D01*
X130822739Y-73247636D01*
X130781386Y-73247635D01*
X130741751Y-73247624D01*
X130704087Y-73247604D01*
X130668648Y-73247574D01*
X130635687Y-73247536D01*
X130605458Y-73247490D01*
X130578213Y-73247435D01*
X130554207Y-73247374D01*
X130533693Y-73247305D01*
X130516924Y-73247229D01*
X130504154Y-73247147D01*
X130495636Y-73247060D01*
X130491623Y-73246966D01*
X130491444Y-73246954D01*
X130478296Y-73245249D01*
X130462241Y-73242428D01*
X130444936Y-73238844D01*
X130428034Y-73234847D01*
X130413192Y-73230790D01*
X130408446Y-73229308D01*
X130369804Y-73214214D01*
X130333499Y-73195068D01*
X130299754Y-73172117D01*
X130268791Y-73145612D01*
X130240835Y-73115800D01*
X130216107Y-73082930D01*
X130194830Y-73047251D01*
X130177227Y-73009010D01*
X130163521Y-72968458D01*
X130159049Y-72951092D01*
X130158231Y-72947544D01*
X130157502Y-72944078D01*
X130156855Y-72940409D01*
X130156284Y-72936252D01*
X130155785Y-72931322D01*
X130155350Y-72925334D01*
X130154974Y-72918004D01*
X130154650Y-72909045D01*
X130154373Y-72898174D01*
X130154136Y-72885105D01*
X130153935Y-72869553D01*
X130153761Y-72851233D01*
X130153611Y-72829861D01*
X130153477Y-72805150D01*
X130153353Y-72776817D01*
X130153234Y-72744576D01*
X130153114Y-72708142D01*
X130152987Y-72667231D01*
X130152973Y-72662708D01*
X130152846Y-72614900D01*
X130152775Y-72571776D01*
X130152761Y-72533228D01*
X130152778Y-72519703D01*
X130301220Y-72519703D01*
X130301248Y-72547460D01*
X130301306Y-72579114D01*
X130301390Y-72614960D01*
X130301495Y-72655291D01*
X130301501Y-72657383D01*
X130302183Y-72911916D01*
X130307608Y-72931085D01*
X130318826Y-72962308D01*
X130333942Y-72991069D01*
X130352630Y-73017081D01*
X130374563Y-73040060D01*
X130399413Y-73059721D01*
X130426854Y-73075778D01*
X130456557Y-73087945D01*
X130488195Y-73095938D01*
X130498565Y-73097553D01*
X130502519Y-73097761D01*
X130511003Y-73097958D01*
X130523757Y-73098142D01*
X130540518Y-73098314D01*
X130561025Y-73098472D01*
X130585017Y-73098616D01*
X130612231Y-73098743D01*
X130642406Y-73098854D01*
X130675281Y-73098947D01*
X130710593Y-73099021D01*
X130748082Y-73099076D01*
X130787485Y-73099110D01*
X130828541Y-73099122D01*
X130870989Y-73099111D01*
X130909585Y-73099083D01*
X131306161Y-73098692D01*
X131326035Y-73093376D01*
X131358142Y-73082465D01*
X131387685Y-73067720D01*
X131414397Y-73049402D01*
X131438014Y-73027772D01*
X131458270Y-73003090D01*
X131474901Y-72975617D01*
X131487640Y-72945614D01*
X131492450Y-72929812D01*
X131497859Y-72909519D01*
X131497859Y-72649529D01*
X131497858Y-72608643D01*
X131497851Y-72572264D01*
X131497834Y-72540106D01*
X131497801Y-72511883D01*
X131497746Y-72487311D01*
X131497664Y-72466102D01*
X131497550Y-72447972D01*
X131497398Y-72432634D01*
X131497204Y-72419804D01*
X131496961Y-72409195D01*
X131496665Y-72400521D01*
X131496310Y-72393498D01*
X131495891Y-72387839D01*
X131495402Y-72383259D01*
X131494838Y-72379472D01*
X131494195Y-72376192D01*
X131493465Y-72373134D01*
X131492645Y-72370012D01*
X131492634Y-72369974D01*
X131481837Y-72338466D01*
X131467066Y-72309463D01*
X131448581Y-72283218D01*
X131426639Y-72259981D01*
X131401497Y-72240006D01*
X131373413Y-72223546D01*
X131342646Y-72210852D01*
X131324790Y-72205597D01*
X131303765Y-72200236D01*
X130900000Y-72200236D01*
X130496236Y-72200236D01*
X130475211Y-72205597D01*
X130443039Y-72216019D01*
X130413794Y-72230184D01*
X130387252Y-72248222D01*
X130363192Y-72270263D01*
X130361644Y-72271906D01*
X130340968Y-72297179D01*
X130324716Y-72324073D01*
X130312675Y-72352999D01*
X130305459Y-72380134D01*
X130304720Y-72383908D01*
X130304065Y-72387767D01*
X130303491Y-72392004D01*
X130302992Y-72396912D01*
X130302564Y-72402785D01*
X130302204Y-72409916D01*
X130301908Y-72418599D01*
X130301670Y-72429127D01*
X130301487Y-72441792D01*
X130301355Y-72456890D01*
X130301269Y-72474712D01*
X130301225Y-72495552D01*
X130301220Y-72519703D01*
X130152778Y-72519703D01*
X130152805Y-72499147D01*
X130152906Y-72469424D01*
X130153067Y-72443953D01*
X130153287Y-72422623D01*
X130153567Y-72405327D01*
X130153908Y-72391957D01*
X130154311Y-72382403D01*
X130154776Y-72376559D01*
X130154802Y-72376359D01*
X130162474Y-72335672D01*
X130174616Y-72296261D01*
X130190992Y-72258507D01*
X130211366Y-72222792D01*
X130235501Y-72189497D01*
X130263160Y-72159003D01*
X130294107Y-72131692D01*
X130316850Y-72115171D01*
X130345701Y-72097292D01*
X130373624Y-72083042D01*
X130401934Y-72071817D01*
X130428267Y-72063947D01*
X130450708Y-72058136D01*
X130450809Y-72050472D01*
X130600097Y-72050472D01*
X130899813Y-72050472D01*
X131199529Y-72050472D01*
X131199529Y-71962126D01*
X131199475Y-71935658D01*
X131199277Y-71913363D01*
X131198882Y-71894621D01*
X131198234Y-71878813D01*
X131197279Y-71865319D01*
X131195963Y-71853519D01*
X131194232Y-71842795D01*
X131192031Y-71832527D01*
X131189305Y-71822096D01*
X131186356Y-71812048D01*
X131173769Y-71778708D01*
X131156992Y-71747076D01*
X131136440Y-71717548D01*
X131112528Y-71690519D01*
X131085671Y-71666387D01*
X131056284Y-71645547D01*
X131024781Y-71628395D01*
X130991578Y-71615328D01*
X130975514Y-71610713D01*
X130938083Y-71603609D01*
X130900754Y-71601190D01*
X130863873Y-71603361D01*
X130827789Y-71610025D01*
X130792852Y-71621086D01*
X130759409Y-71636450D01*
X130727808Y-71656020D01*
X130698399Y-71679701D01*
X130687868Y-71689760D01*
X130663178Y-71717826D01*
X130642141Y-71748842D01*
X130624989Y-71782404D01*
X130611953Y-71818108D01*
X130609428Y-71827079D01*
X130601968Y-71855180D01*
X130601032Y-71952826D01*
X130600097Y-72050472D01*
X130450809Y-72050472D01*
X130452141Y-71949469D01*
X130452488Y-71923713D01*
X130452809Y-71902222D01*
X130453134Y-71884471D01*
X130453491Y-71869932D01*
X130453912Y-71858081D01*
X130454425Y-71848390D01*
X130455060Y-71840333D01*
X130455847Y-71833383D01*
X130456816Y-71827015D01*
X130457995Y-71820702D01*
X130459415Y-71813917D01*
X130459904Y-71811659D01*
X130472221Y-71765916D01*
X130488843Y-71722042D01*
X130509631Y-71680316D01*
X130534445Y-71641015D01*
X130563145Y-71604421D01*
X130564216Y-71603195D01*
X130595081Y-71571528D01*
X130629042Y-71543189D01*
X130665674Y-71518343D01*
X130704554Y-71497159D01*
X130745256Y-71479805D01*
X130787357Y-71466446D01*
X130830432Y-71457252D01*
X130874057Y-71452390D01*
X130917806Y-71452026D01*
X130942628Y-71453895D01*
G37*
G36*
X130915473Y-72351753D02*
G01*
X130931952Y-72352896D01*
X130945609Y-72354873D01*
X130948494Y-72355519D01*
X130974606Y-72363504D01*
X130999594Y-72374088D01*
X131021510Y-72386408D01*
X131034252Y-72395692D01*
X131047986Y-72407326D01*
X131061492Y-72420140D01*
X131073546Y-72432966D01*
X131082928Y-72444635D01*
X131084068Y-72446270D01*
X131095239Y-72464948D01*
X131105469Y-72486236D01*
X131113770Y-72507953D01*
X131117303Y-72519842D01*
X131121108Y-72539549D01*
X131123177Y-72561664D01*
X131123471Y-72584373D01*
X131121947Y-72605860D01*
X131119570Y-72620157D01*
X131110265Y-72651400D01*
X131096740Y-72680693D01*
X131079305Y-72707653D01*
X131058270Y-72731894D01*
X131033944Y-72753035D01*
X131006638Y-72770689D01*
X130992279Y-72777944D01*
X130974607Y-72786109D01*
X130973846Y-72840625D01*
X130973586Y-72858177D01*
X130973309Y-72871646D01*
X130972938Y-72881745D01*
X130972397Y-72889184D01*
X130971610Y-72894673D01*
X130970501Y-72898923D01*
X130968992Y-72902645D01*
X130967008Y-72906549D01*
X130966703Y-72907123D01*
X130956549Y-72921950D01*
X130943690Y-72934074D01*
X130930615Y-72941834D01*
X130918367Y-72945732D01*
X130904489Y-72947803D01*
X130890929Y-72947896D01*
X130879633Y-72945855D01*
X130879632Y-72945855D01*
X130861710Y-72937736D01*
X130847108Y-72926246D01*
X130835448Y-72911068D01*
X130832561Y-72905925D01*
X130830735Y-72902213D01*
X130829337Y-72898493D01*
X130828300Y-72894061D01*
X130827554Y-72888215D01*
X130827029Y-72880251D01*
X130826658Y-72869466D01*
X130826371Y-72855156D01*
X130826154Y-72840625D01*
X130825393Y-72786109D01*
X130807722Y-72777944D01*
X130779069Y-72762135D01*
X130753245Y-72742653D01*
X130730561Y-72719881D01*
X130711325Y-72694204D01*
X130695848Y-72666005D01*
X130684439Y-72635669D01*
X130680431Y-72620157D01*
X130677491Y-72600652D01*
X130676428Y-72578565D01*
X130676492Y-72576679D01*
X130825343Y-72576679D01*
X130827821Y-72593725D01*
X130834150Y-72609727D01*
X130844049Y-72624008D01*
X130857239Y-72635893D01*
X130873438Y-72644708D01*
X130876038Y-72645698D01*
X130888752Y-72648447D01*
X130903524Y-72648827D01*
X130918315Y-72646953D01*
X130931085Y-72642940D01*
X130931951Y-72642533D01*
X130947243Y-72632660D01*
X130959398Y-72619784D01*
X130968152Y-72604658D01*
X130973243Y-72588034D01*
X130974410Y-72570664D01*
X130971389Y-72553303D01*
X130966942Y-72542151D01*
X130956740Y-72526476D01*
X130944036Y-72514411D01*
X130929481Y-72505955D01*
X130913727Y-72501109D01*
X130897425Y-72499872D01*
X130881224Y-72502245D01*
X130865778Y-72508228D01*
X130851735Y-72517820D01*
X130839749Y-72531021D01*
X130833058Y-72542151D01*
X130826995Y-72559263D01*
X130825343Y-72576679D01*
X130676492Y-72576679D01*
X130677200Y-72555706D01*
X130679765Y-72533887D01*
X130682754Y-72519624D01*
X130693256Y-72488432D01*
X130707762Y-72459678D01*
X130726006Y-72433619D01*
X130747724Y-72410512D01*
X130772652Y-72390614D01*
X130800524Y-72374184D01*
X130831076Y-72361478D01*
X130851507Y-72355519D01*
X130864190Y-72353327D01*
X130880084Y-72351969D01*
X130897682Y-72351444D01*
X130915473Y-72351753D01*
G37*
%TO.C,J5*%
D11*
X172093401Y-78300000D02*
G75*
G03*
X172093401Y-78300000I-93401J0D01*
G01*
D13*
%TO.C,D20*%
X175110000Y-109450000D02*
X175110000Y-108650000D01*
X173750000Y-109450000D02*
X175110000Y-109450000D01*
X173750000Y-108650000D02*
X175110000Y-108650000D01*
%TO.C,FB1*%
X136160242Y-94860000D02*
X135339758Y-94860000D01*
X136160242Y-93740000D02*
X135339758Y-93740000D01*
%TO.C,D1*%
X144300000Y-72750000D02*
X144300000Y-66850000D01*
X148200000Y-72750000D02*
X148200000Y-66850000D01*
X148200000Y-66850000D02*
X147125000Y-66850000D01*
%TO.C,D2*%
X176985515Y-106614999D02*
G75*
G03*
X176828608Y-103382666I-1235515J1559999D01*
G01*
X176829999Y-106095960D02*
G75*
G03*
X176829836Y-104013871I-1079999J1040960D01*
G01*
X174670164Y-104013871D02*
G75*
G03*
X174670001Y-106095960I1079836J-1041129D01*
G01*
X174671392Y-103382666D02*
G75*
G03*
X174514485Y-106614999I1078608J-1672334D01*
G01*
X176830000Y-106615000D02*
X176986000Y-106615000D01*
X174514000Y-106615000D02*
X174670000Y-106615000D01*
%TO.C,SW3*%
X132200000Y-74450000D02*
X132200000Y-73450000D01*
X133200000Y-74450000D02*
X132200000Y-74450000D01*
X132500000Y-74150000D02*
X132500000Y-73300000D01*
X136200000Y-74150000D02*
X132500000Y-74150000D01*
X136200000Y-73270000D02*
X136200000Y-74150000D01*
X132500000Y-71300000D02*
X132500000Y-70770000D01*
X136200000Y-70770000D02*
X136200000Y-71330000D01*
X132500000Y-68830000D02*
X132500000Y-68270000D01*
X136200000Y-68280000D02*
X136200000Y-68830000D01*
X132500000Y-66330000D02*
X132500000Y-65450000D01*
X132500000Y-65450000D02*
X136200000Y-65450000D01*
X136200000Y-65450000D02*
X136200000Y-66320000D01*
%TO.C,U4*%
X135750000Y-77240000D02*
X132300000Y-77240000D01*
X135750000Y-77240000D02*
X137700000Y-77240000D01*
X135750000Y-82360000D02*
X133800000Y-82360000D01*
X135750000Y-82360000D02*
X137700000Y-82360000D01*
%TO.C,D18*%
X162450000Y-107940000D02*
X161650000Y-107940000D01*
X162450000Y-109300000D02*
X162450000Y-107940000D01*
X161650000Y-109300000D02*
X161650000Y-107940000D01*
%TO.C,FB2*%
X176660242Y-86610000D02*
X175839758Y-86610000D01*
X176660242Y-85490000D02*
X175839758Y-85490000D01*
%TO.C,C28*%
X167985000Y-101038748D02*
X167985000Y-101561252D01*
X166515000Y-101038748D02*
X166515000Y-101561252D01*
%TO.C,C4*%
X144511252Y-98785000D02*
X143988748Y-98785000D01*
X144511252Y-97315000D02*
X143988748Y-97315000D01*
%TO.C,D24*%
X169500000Y-88910000D02*
X171500000Y-88910000D01*
X169500000Y-88910000D02*
X169500000Y-84900000D01*
X171500000Y-88910000D02*
X171500000Y-84900000D01*
%TO.C,R7*%
X154515000Y-75027064D02*
X154515000Y-74572936D01*
X155985000Y-75027064D02*
X155985000Y-74572936D01*
%TO.C,R27*%
X148985000Y-99072936D02*
X148985000Y-99527064D01*
X147515000Y-99072936D02*
X147515000Y-99527064D01*
%TO.C,R11*%
X171165000Y-101527064D02*
X171165000Y-101072936D01*
X172635000Y-101527064D02*
X172635000Y-101072936D01*
%TO.C,D4*%
X153110000Y-72200000D02*
X153110000Y-71400000D01*
X151750000Y-72200000D02*
X153110000Y-72200000D01*
X151750000Y-71400000D02*
X153110000Y-71400000D01*
%TO.C,D13*%
X149900000Y-108390000D02*
X149100000Y-108390000D01*
X149900000Y-109750000D02*
X149900000Y-108390000D01*
X149100000Y-109750000D02*
X149100000Y-108390000D01*
%TO.C,C10*%
X151235000Y-99038748D02*
X151235000Y-99561252D01*
X149765000Y-99038748D02*
X149765000Y-99561252D01*
%TO.C,SW1*%
X143550000Y-65242500D02*
X143550000Y-66242500D01*
X142550000Y-65242500D02*
X143550000Y-65242500D01*
X143250000Y-65542500D02*
X143250000Y-66392500D01*
X139550000Y-65542500D02*
X143250000Y-65542500D01*
X139550000Y-66422500D02*
X139550000Y-65542500D01*
X143250000Y-68392500D02*
X143250000Y-68922500D01*
X139550000Y-68922500D02*
X139550000Y-68362500D01*
X143250000Y-70862500D02*
X143250000Y-71422500D01*
X139550000Y-71412500D02*
X139550000Y-70862500D01*
X143250000Y-73362500D02*
X143250000Y-74242500D01*
X143250000Y-74242500D02*
X139550000Y-74242500D01*
X139550000Y-74242500D02*
X139550000Y-73372500D01*
%TO.C,R16*%
X160235000Y-99072936D02*
X160235000Y-99527064D01*
X158765000Y-99072936D02*
X158765000Y-99527064D01*
%TO.C,R9*%
X155735000Y-99072936D02*
X155735000Y-99527064D01*
X154265000Y-99072936D02*
X154265000Y-99527064D01*
%TO.C,J3*%
X147580000Y-110720000D02*
X147580000Y-112050000D01*
X146250000Y-110720000D02*
X147580000Y-110720000D01*
X144980000Y-110720000D02*
X139840000Y-110720000D01*
X144980000Y-110720000D02*
X144980000Y-113380000D01*
X139840000Y-110720000D02*
X139840000Y-113380000D01*
X144980000Y-113380000D02*
X139840000Y-113380000D01*
%TO.C,C5*%
X153485000Y-99038748D02*
X153485000Y-99561252D01*
X152015000Y-99038748D02*
X152015000Y-99561252D01*
%TO.C,C31*%
X161015000Y-99561252D02*
X161015000Y-99038748D01*
X162485000Y-99561252D02*
X162485000Y-99038748D01*
%TO.C,U8*%
X177850000Y-96210000D02*
X171840000Y-96210000D01*
X175600000Y-89390000D02*
X171840000Y-89390000D01*
X171840000Y-96210000D02*
X171840000Y-94950000D01*
X171840000Y-89390000D02*
X171840000Y-90650000D01*
%TO.C,C29*%
X165738748Y-103565000D02*
X166261252Y-103565000D01*
X165738748Y-105035000D02*
X166261252Y-105035000D01*
%TO.C,C9*%
X159265000Y-84061252D02*
X159265000Y-83538748D01*
X160735000Y-84061252D02*
X160735000Y-83538748D01*
%TO.C,D10*%
X163610000Y-76200000D02*
X163610000Y-75400000D01*
X162250000Y-76200000D02*
X163610000Y-76200000D01*
X162250000Y-75400000D02*
X163610000Y-75400000D01*
%TO.C,C14*%
X178370000Y-99300000D02*
G75*
G03*
X178370000Y-99300000I-2620000J0D01*
G01*
%TO.C,C27*%
X154265000Y-104561252D02*
X154265000Y-104038748D01*
X155735000Y-104561252D02*
X155735000Y-104038748D01*
%TO.C,C22*%
X173485000Y-86788748D02*
X173485000Y-87311252D01*
X172015000Y-86788748D02*
X172015000Y-87311252D01*
%TO.C,D7*%
X142400000Y-107940000D02*
X141600000Y-107940000D01*
X142400000Y-109300000D02*
X142400000Y-107940000D01*
X141600000Y-109300000D02*
X141600000Y-107940000D01*
%TO.C,R17*%
X146735000Y-104072936D02*
X146735000Y-104527064D01*
X145265000Y-104072936D02*
X145265000Y-104527064D01*
%TO.C,D6*%
X168900000Y-83990000D02*
X169700000Y-83990000D01*
X168900000Y-82630000D02*
X168900000Y-83990000D01*
X169700000Y-82630000D02*
X169700000Y-83990000D01*
%TO.C,C30*%
X167985000Y-107038748D02*
X167985000Y-107561252D01*
X166515000Y-107038748D02*
X166515000Y-107561252D01*
%TO.C,R3*%
X139735000Y-97322936D02*
X139735000Y-97777064D01*
X138265000Y-97322936D02*
X138265000Y-97777064D01*
%TO.C,SW2*%
X133250000Y-103800000D02*
X134750000Y-103800000D01*
X137250000Y-102550000D02*
X137250000Y-98050000D01*
X130750000Y-98050000D02*
X130750000Y-102550000D01*
X134750000Y-96800000D02*
X133250000Y-96800000D01*
%TO.C,C19*%
X164765000Y-94061252D02*
X164765000Y-93538748D01*
X166235000Y-94061252D02*
X166235000Y-93538748D01*
%TO.C,C1*%
X138765000Y-85561252D02*
X138765000Y-85038748D01*
X140235000Y-85561252D02*
X140235000Y-85038748D01*
%TO.C,C8*%
X131765000Y-93561252D02*
X131765000Y-93038748D01*
X133235000Y-93561252D02*
X133235000Y-93038748D01*
%TO.C,R24*%
X143735000Y-78572936D02*
X143735000Y-79027064D01*
X142265000Y-78572936D02*
X142265000Y-79027064D01*
%TO.C,C20*%
X161511252Y-89785000D02*
X160988748Y-89785000D01*
X161511252Y-88315000D02*
X160988748Y-88315000D01*
%TO.C,C26*%
X152015000Y-104561252D02*
X152015000Y-104038748D01*
X153485000Y-104561252D02*
X153485000Y-104038748D01*
%TO.C,J6*%
X171330000Y-79705000D02*
X170000000Y-79705000D01*
X171330000Y-78375000D02*
X171330000Y-79705000D01*
X171330000Y-77105000D02*
X171330000Y-66885000D01*
X171330000Y-77105000D02*
X168730000Y-77105000D01*
X171330000Y-66885000D02*
X166130000Y-66885000D01*
X168730000Y-79705000D02*
X166130000Y-79705000D01*
X168730000Y-77105000D02*
X168730000Y-79705000D01*
X166130000Y-79705000D02*
X166130000Y-66885000D01*
%TO.C,R8*%
X133622936Y-75065000D02*
X134077064Y-75065000D01*
X133622936Y-76535000D02*
X134077064Y-76535000D01*
%TO.C,J12*%
X138580000Y-110720000D02*
X138580000Y-112050000D01*
X137250000Y-110720000D02*
X138580000Y-110720000D01*
X135980000Y-110720000D02*
X130840000Y-110720000D01*
X135980000Y-110720000D02*
X135980000Y-113380000D01*
X130840000Y-110720000D02*
X130840000Y-113380000D01*
X135980000Y-113380000D02*
X130840000Y-113380000D01*
%TO.C,R15*%
X164265000Y-107527064D02*
X164265000Y-107072936D01*
X165735000Y-107527064D02*
X165735000Y-107072936D01*
%TO.C,C15*%
X164765000Y-90061252D02*
X164765000Y-89538748D01*
X166235000Y-90061252D02*
X166235000Y-89538748D01*
%TO.C,U3*%
X142140000Y-84940000D02*
X142140000Y-85890000D01*
X142140000Y-85890000D02*
X140800000Y-85890000D01*
X142140000Y-95160000D02*
X142140000Y-94210000D01*
X143090000Y-84940000D02*
X142140000Y-84940000D01*
X143090000Y-95160000D02*
X142140000Y-95160000D01*
X151410000Y-84940000D02*
X152360000Y-84940000D01*
X151410000Y-95160000D02*
X152360000Y-95160000D01*
X152360000Y-84940000D02*
X152360000Y-85890000D01*
X152360000Y-95160000D02*
X152360000Y-94210000D01*
%TO.C,U6*%
X160000000Y-101740000D02*
X156550000Y-101740000D01*
X160000000Y-101740000D02*
X161950000Y-101740000D01*
X160000000Y-106860000D02*
X158050000Y-106860000D01*
X160000000Y-106860000D02*
X161950000Y-106860000D01*
%TO.C,J11*%
X156580000Y-110720000D02*
X156580000Y-112050000D01*
X155250000Y-110720000D02*
X156580000Y-110720000D01*
X153980000Y-110720000D02*
X148840000Y-110720000D01*
X153980000Y-110720000D02*
X153980000Y-113380000D01*
X148840000Y-110720000D02*
X148840000Y-113380000D01*
X153980000Y-113380000D02*
X148840000Y-113380000D01*
%TO.C,R14*%
X157985000Y-99072936D02*
X157985000Y-99527064D01*
X156515000Y-99072936D02*
X156515000Y-99527064D01*
%TO.C,R2*%
X141622936Y-75065000D02*
X142077064Y-75065000D01*
X141622936Y-76535000D02*
X142077064Y-76535000D01*
%TO.C,R28*%
X151235000Y-104072936D02*
X151235000Y-104527064D01*
X149765000Y-104072936D02*
X149765000Y-104527064D01*
%TO.C,R19*%
X159515000Y-75027064D02*
X159515000Y-74572936D01*
X160985000Y-75027064D02*
X160985000Y-74572936D01*
%TO.C,U2*%
X164140000Y-96550000D02*
X164140000Y-98550000D01*
X166360000Y-97550000D02*
X166360000Y-98550000D01*
%TO.C,D11*%
X159640000Y-71400000D02*
X159640000Y-72200000D01*
X161000000Y-71400000D02*
X159640000Y-71400000D01*
X161000000Y-72200000D02*
X159640000Y-72200000D01*
%TO.C,D8*%
X155110000Y-72200000D02*
X155110000Y-71400000D01*
X153750000Y-72200000D02*
X155110000Y-72200000D01*
X153750000Y-71400000D02*
X155110000Y-71400000D01*
%TO.C,C7*%
X138265000Y-93561252D02*
X138265000Y-93038748D01*
X139735000Y-93561252D02*
X139735000Y-93038748D01*
%TO.C,R23*%
X141485000Y-78572936D02*
X141485000Y-79027064D01*
X140015000Y-78572936D02*
X140015000Y-79027064D01*
%TO.C,C18*%
X138111252Y-76535000D02*
X137588748Y-76535000D01*
X138111252Y-75065000D02*
X137588748Y-75065000D01*
%TO.C,Y1*%
X134150000Y-85300000D02*
X130850000Y-85300000D01*
X130850000Y-85300000D02*
X130850000Y-89300000D01*
%TO.C,C11*%
X134765000Y-86061252D02*
X134765000Y-85538748D01*
X136235000Y-86061252D02*
X136235000Y-85538748D01*
%TO.C,R21*%
X152015000Y-75027064D02*
X152015000Y-74572936D01*
X153485000Y-75027064D02*
X153485000Y-74572936D01*
%TO.C,R1*%
X138272936Y-88065000D02*
X138727064Y-88065000D01*
X138272936Y-89535000D02*
X138727064Y-89535000D01*
%TO.C,D5*%
X169700000Y-80610000D02*
X168900000Y-80610000D01*
X169700000Y-81970000D02*
X169700000Y-80610000D01*
X168900000Y-81970000D02*
X168900000Y-80610000D01*
%TO.C,R26*%
X154265000Y-94277064D02*
X154265000Y-93822936D01*
X155735000Y-94277064D02*
X155735000Y-93822936D01*
%TO.C,R4*%
X144515000Y-75027064D02*
X144515000Y-74572936D01*
X145985000Y-75027064D02*
X145985000Y-74572936D01*
%TO.C,R10*%
X144485000Y-107572936D02*
X144485000Y-108027064D01*
X143015000Y-107572936D02*
X143015000Y-108027064D01*
%TO.C,J9*%
X161920000Y-66930000D02*
X163250000Y-66930000D01*
X161920000Y-68260000D02*
X161920000Y-66930000D01*
X161920000Y-69530000D02*
X161920000Y-74670000D01*
X161920000Y-69530000D02*
X164580000Y-69530000D01*
X161920000Y-74670000D02*
X164580000Y-74670000D01*
X164580000Y-69530000D02*
X164580000Y-74670000D01*
%TO.C,D9*%
X157110000Y-72200000D02*
X157110000Y-71400000D01*
X155750000Y-72200000D02*
X157110000Y-72200000D01*
X155750000Y-71400000D02*
X157110000Y-71400000D01*
%TO.C,C23*%
X140985000Y-107538748D02*
X140985000Y-108061252D01*
X139515000Y-107538748D02*
X139515000Y-108061252D01*
%TO.C,R25*%
X156515000Y-94277064D02*
X156515000Y-93822936D01*
X157985000Y-94277064D02*
X157985000Y-93822936D01*
D12*
%TO.C,U1*%
X159100000Y-94950000D02*
X159100000Y-94425000D01*
X163400000Y-94950000D02*
X162875000Y-94950000D01*
X163400000Y-94950000D02*
X163400000Y-94425000D01*
X159100000Y-90650000D02*
X159100000Y-91175000D01*
X159100000Y-90650000D02*
X159625000Y-90650000D01*
X163400000Y-90650000D02*
X163400000Y-91175000D01*
X163400000Y-90650000D02*
X162875000Y-90650000D01*
D13*
%TO.C,D17*%
X159650000Y-107940000D02*
X158850000Y-107940000D01*
X159650000Y-109300000D02*
X159650000Y-107940000D01*
X158850000Y-109300000D02*
X158850000Y-107940000D01*
%TO.C,C2*%
X157015000Y-84061252D02*
X157015000Y-83538748D01*
X158485000Y-84061252D02*
X158485000Y-83538748D01*
%TO.C,D22*%
X136150000Y-107940000D02*
X135350000Y-107940000D01*
X136150000Y-109300000D02*
X136150000Y-107940000D01*
X135350000Y-109300000D02*
X135350000Y-107940000D01*
%TO.C,R22*%
X148985000Y-104072936D02*
X148985000Y-104527064D01*
X147515000Y-104072936D02*
X147515000Y-104527064D01*
%TO.C,D3*%
X151110000Y-72200000D02*
X151110000Y-71400000D01*
X149750000Y-72200000D02*
X151110000Y-72200000D01*
X149750000Y-71400000D02*
X151110000Y-71400000D01*
%TO.C,C13*%
X139735000Y-101288748D02*
X139735000Y-101811252D01*
X138265000Y-101288748D02*
X138265000Y-101811252D01*
%TO.C,D15*%
X170640000Y-108650000D02*
X170640000Y-109450000D01*
X172000000Y-108650000D02*
X170640000Y-108650000D01*
X172000000Y-109450000D02*
X170640000Y-109450000D01*
%TO.C,R18*%
X157015000Y-75027064D02*
X157015000Y-74572936D01*
X158485000Y-75027064D02*
X158485000Y-74572936D01*
%TO.C,C12*%
X136235000Y-89538748D02*
X136235000Y-90061252D01*
X134765000Y-89538748D02*
X134765000Y-90061252D01*
%TO.C,C17*%
X168485000Y-97038748D02*
X168485000Y-97561252D01*
X167015000Y-97038748D02*
X167015000Y-97561252D01*
%TO.C,C16*%
X156515000Y-90061252D02*
X156515000Y-89538748D01*
X157985000Y-90061252D02*
X157985000Y-89538748D01*
%TO.C,C3*%
X141015000Y-83061252D02*
X141015000Y-82538748D01*
X142485000Y-83061252D02*
X142485000Y-82538748D01*
%TO.C,R13*%
X164265000Y-101527064D02*
X164265000Y-101072936D01*
X165735000Y-101527064D02*
X165735000Y-101072936D01*
%TO.C,C6*%
X144511252Y-101035000D02*
X143988748Y-101035000D01*
X144511252Y-99565000D02*
X143988748Y-99565000D01*
%TO.C,C33*%
X176511252Y-88785000D02*
X175988748Y-88785000D01*
X176511252Y-87315000D02*
X175988748Y-87315000D01*
%TO.C,D12*%
X157640000Y-71400000D02*
X157640000Y-72200000D01*
X159000000Y-71400000D02*
X157640000Y-71400000D01*
X159000000Y-72200000D02*
X157640000Y-72200000D01*
%TO.C,C25*%
X134735000Y-107538748D02*
X134735000Y-108061252D01*
X133265000Y-107538748D02*
X133265000Y-108061252D01*
%TO.C,R12*%
X137985000Y-107572936D02*
X137985000Y-108027064D01*
X136515000Y-107572936D02*
X136515000Y-108027064D01*
%TO.C,R20*%
X161022936Y-77615000D02*
X161477064Y-77615000D01*
X161022936Y-79085000D02*
X161477064Y-79085000D01*
%TO.C,R5*%
X146765000Y-75027064D02*
X146765000Y-74572936D01*
X148235000Y-75027064D02*
X148235000Y-74572936D01*
%TO.C,R6*%
X149015000Y-75027064D02*
X149015000Y-74572936D01*
X150485000Y-75027064D02*
X150485000Y-74572936D01*
%TD*%
M02*
