M48
; DRILL file {KiCad 7.0.5} date Wed Aug 23 03:28:21 2023
; FORMAT={-:-/ absolute / inch / decimal}
; #@! TF.CreationDate,2023-08-23T03:28:21+02:00
; #@! TF.GenerationSoftware,Kicad,Pcbnew,7.0.5
; #@! TF.FileFunction,Plated,1,4,PTH
FMAT,2
INCH
; #@! TA.AperFunction,Plated,PTH,ViaDrill
T1C0.0157
; #@! TA.AperFunction,Plated,PTH,ComponentDrill
T2C0.0236
; #@! TA.AperFunction,Plated,PTH,ComponentDrill
T3C0.0315
; #@! TA.AperFunction,Plated,PTH,ComponentDrill
T4C0.0354
; #@! TA.AperFunction,Plated,PTH,ComponentDrill
T5C0.0362
; #@! TA.AperFunction,Plated,PTH,ComponentDrill
T6C0.0394
; #@! TA.AperFunction,Plated,PTH,ComponentDrill
T7C0.0433
; #@! TA.AperFunction,Plated,PTH,ComponentDrill
T8C0.0906
%
G90
G05
T1
X5.1575Y-3.6339
X5.1575Y-3.7126
X5.1673Y-3.2992
X5.1772Y-3.1122
X5.1772Y-3.1614
X5.1772Y-3.2205
X5.187Y-3.5453
X5.1969Y-3.9272
X5.1969Y-4.2028
X5.2264Y-3.3287
X5.2461Y-3.878
X5.2461Y-3.9764
X5.2756Y-3.2992
X5.2756Y-3.5551
X5.2953Y-2.6476
X5.2953Y-2.7461
X5.2953Y-3.6614
X5.2953Y-3.8287
X5.2953Y-3.9272
X5.2953Y-4.0256
X5.2953Y-4.124
X5.3138Y-3.0642
X5.315Y-3.1122
X5.315Y-3.1614
X5.315Y-3.2205
X5.3445Y-3.9764
X5.3445Y-4.2244
X5.374Y-3.1102
X5.374Y-3.189
X5.3937Y-2.9232
X5.3937Y-3.9272
X5.4134Y-3.6339
X5.4331Y-2.7067
X5.4331Y-2.7953
X5.4331Y-3.3189
X5.4331Y-3.3976
X5.4528Y-2.9232
X5.4626Y-4.2815
X5.4724Y-4.0866
X5.502Y-3.5748
X5.5709Y-3.3583
X5.5906Y-4.124
X5.5906Y-4.2244
X5.6398Y-3.25
X5.6398Y-3.5827
X5.6398Y-4.0079
X5.6398Y-4.0748
X5.689Y-3.435
X5.689Y-3.6319
X5.689Y-4.124
X5.6988Y-4.0157
X5.7382Y-3.3858
X5.7382Y-3.4843
X5.7382Y-3.5827
X5.7382Y-3.6811
X5.7382Y-4.2717
X5.7579Y-2.6083
X5.7874Y-3.435
X5.7874Y-3.6319
X5.8071Y-4.3209
X5.8169Y-3.2598
X5.8366Y-3.2205
X5.8366Y-3.4843
X5.8366Y-3.5827
X5.8366Y-3.6811
X5.8661Y-4.0079
X5.8858Y-2.6476
X5.8858Y-3.435
X5.8858Y-3.6319
X5.8957Y-4.2026
X5.9055Y-3.7028
X5.9154Y-4.0079
X5.9252Y-4.2815
X5.935Y-3.5827
X5.935Y-2.7874
X5.9449Y-3.4843
X5.9449Y-4.2047
X5.9626Y-3.2598
X5.9646Y-4.0079
X5.9843Y-2.6476
X5.9843Y-3.811
X5.9941Y-3.2205
X6.0138Y-2.7874
X6.0138Y-4.0079
X6.063Y-4.0079
X6.063Y-4.311
X6.0827Y-4.2028
X6.0925Y-2.7874
X6.1122Y-3.4173
X6.1122Y-4.0079
X6.1319Y-3.5059
X6.1319Y-3.5551
X6.1319Y-4.2028
X6.1516Y-3.2992
X6.1516Y-3.3484
X6.1713Y-2.7874
X6.1909Y-3.8012
X6.2224Y-4.2972
X6.2236Y-4.25
X6.25Y-2.7874
X6.25Y-3.4961
X6.2894Y-3.7717
X6.3287Y-3.8091
X6.3287Y-4.0748
X6.3484Y-2.7874
X6.3583Y-3.2598
X6.378Y-3.3366
X6.4193Y-4.2669
X6.4272Y-3.8406
X6.4272Y-3.8898
X6.437Y-3.5453
X6.4469Y-3.0413
X6.4469Y-3.4862
X6.4469Y-3.7697
X6.4606Y-3.7224
X6.4665Y-2.9843
X6.4764Y-3.2382
X6.4764Y-3.435
X6.5059Y-2.628
X6.5157Y-2.9843
X6.5157Y-3.122
X6.5157Y-3.1713
X6.5256Y-3.3858
X6.5748Y-3.435
X6.5748Y-3.4946
X6.5748Y-3.5728
X6.5748Y-3.6535
X6.5748Y-3.7224
X6.624Y-3.3858
X6.624Y-3.4646
X6.624Y-3.5335
X6.624Y-3.6122
X6.624Y-3.6811
X6.624Y-4.0866
X6.624Y-4.126
X6.6634Y-3.811
X6.6634Y-3.8602
X6.6732Y-3.9272
X6.6929Y-4.2933
X6.7047Y-3.1949
X6.7047Y-3.2766
X6.7126Y-4.0846
X6.7224Y-3.5453
X6.7224Y-3.7618
X6.7224Y-3.878
X6.7717Y-3.8287
X6.7815Y-2.6594
X6.7815Y-2.7382
X6.7815Y-2.8071
X6.7815Y-2.876
X6.8012Y-3.5453
X6.8012Y-3.6142
X6.8012Y-3.6929
X6.8012Y-3.7618
X6.8504Y-2.7382
X6.8701Y-3.3366
X6.8701Y-3.5453
X6.8701Y-3.6142
X6.8701Y-3.6929
X6.8701Y-3.7618
X6.8701Y-4.0256
X6.9094Y-2.7953
X6.9094Y-2.8937
X6.9094Y-2.9921
X6.9193Y-3.9764
X6.9193Y-4.2933
X6.9587Y-2.9429
X6.9587Y-3.0413
X6.9685Y-3.3366
X6.9685Y-4.0256
T2
X6.8799Y-3.9094
X6.9587Y-3.9094
T3
X5.2264Y-2.6496
X5.2264Y-2.748
X5.2264Y-2.8465
X5.3524Y-2.6496
X5.3524Y-2.748
X5.3524Y-2.8465
X5.5039Y-2.6532
X5.5039Y-2.7517
X5.5039Y-2.8501
X5.6299Y-2.6532
X5.6299Y-2.7517
X5.6299Y-2.8501
X5.935Y-2.6988
X6.0138Y-2.6988
X6.0925Y-2.6988
X6.1713Y-2.6988
X6.25Y-2.6988
X6.2992Y-4.3917
X6.378Y-4.3917
X6.4567Y-4.3917
X6.5354Y-4.3917
X6.752Y-4.3917
X6.8307Y-4.3917
X6.9094Y-4.3917
X6.9882Y-4.3917
T4
X6.9193Y-4.086
X6.9193Y-4.186
T5
X6.8504Y-2.8071
X6.8504Y-2.9055
X6.8504Y-2.9843
X6.8504Y-3.0827
T6
X5.2035Y-4.4114
X5.3035Y-4.4114
X5.4035Y-4.4114
X5.5579Y-4.4114
X5.6579Y-4.4114
X5.7579Y-4.4114
X5.9122Y-4.4114
X6.0122Y-4.4114
X6.1122Y-4.4114
X6.4272Y-2.6874
X6.4272Y-2.7874
X6.4272Y-2.8874
X6.5929Y-2.6856
X6.5929Y-2.7856
X6.5929Y-2.8856
X6.5929Y-2.9856
X6.5929Y-3.0856
X6.6929Y-2.6856
X6.6929Y-2.7856
X6.6929Y-2.8856
X6.6929Y-2.9856
X6.6929Y-3.0856
T7
X5.187Y-3.8209
X5.187Y-4.0768
X5.3642Y-3.8209
X5.3642Y-4.0768
T8
X6.9571Y-2.6862
X6.9571Y-3.2035
T0
M30
