%TF.GenerationSoftware,KiCad,Pcbnew,7.0.5*%
%TF.CreationDate,2023-08-23T03:28:24+02:00*%
%TF.ProjectId,STM32_DevBoard,53544d33-325f-4446-9576-426f6172642e,rev?*%
%TF.SameCoordinates,Original*%
%TF.FileFunction,Soldermask,Bot*%
%TF.FilePolarity,Negative*%
%FSLAX46Y46*%
G04 Gerber Fmt 4.6, Leading zero omitted, Abs format (unit mm)*
G04 Created by KiCad (PCBNEW 7.0.5) date 2023-08-23 03:28:24*
%MOMM*%
%LPD*%
G01*
G04 APERTURE LIST*
G04 Aperture macros list*
%AMRoundRect*
0 Rectangle with rounded corners*
0 $1 Rounding radius*
0 $2 $3 $4 $5 $6 $7 $8 $9 X,Y pos of 4 corners*
0 Add a 4 corners polygon primitive as box body*
4,1,4,$2,$3,$4,$5,$6,$7,$8,$9,$2,$3,0*
0 Add four circle primitives for the rounded corners*
1,1,$1+$1,$2,$3*
1,1,$1+$1,$4,$5*
1,1,$1+$1,$6,$7*
1,1,$1+$1,$8,$9*
0 Add four rect primitives between the rounded corners*
20,1,$1+$1,$2,$3,$4,$5,0*
20,1,$1+$1,$4,$5,$6,$7,0*
20,1,$1+$1,$6,$7,$8,$9,0*
20,1,$1+$1,$8,$9,$2,$3,0*%
G04 Aperture macros list end*
%ADD10R,1.524000X1.524000*%
%ADD11C,1.524000*%
%ADD12C,3.500000*%
%ADD13RoundRect,0.250000X-0.350000X-0.650000X0.350000X-0.650000X0.350000X0.650000X-0.350000X0.650000X0*%
%ADD14O,1.200000X1.800000*%
%ADD15RoundRect,0.250000X0.350000X0.650000X-0.350000X0.650000X-0.350000X-0.650000X0.350000X-0.650000X0*%
%ADD16C,1.448000*%
%ADD17C,1.800000*%
%ADD18R,1.800000X1.800000*%
%ADD19R,1.600000X1.600000*%
%ADD20C,1.600000*%
%ADD21R,1.700000X1.700000*%
%ADD22O,1.700000X1.700000*%
%ADD23C,1.200000*%
%ADD24C,2.000000*%
G04 APERTURE END LIST*
D10*
%TO.C,J5*%
X174000000Y-78300000D03*
D11*
X174000000Y-75800000D03*
X174000000Y-73800000D03*
X174000000Y-71300000D03*
D12*
X176710000Y-81370000D03*
X176710000Y-68230000D03*
%TD*%
D13*
%TO.C,J8*%
X150750000Y-68550000D03*
D14*
X152750000Y-68550000D03*
X154750000Y-68550000D03*
X156750000Y-68550000D03*
X158750000Y-68550000D03*
%TD*%
D15*
%TO.C,J1*%
X177500000Y-111550000D03*
D14*
X175500000Y-111550000D03*
X173500000Y-111550000D03*
X171500000Y-111550000D03*
%TD*%
%TO.C,J10*%
X160000000Y-111550000D03*
X162000000Y-111550000D03*
X164000000Y-111550000D03*
D15*
X166000000Y-111550000D03*
%TD*%
D16*
%TO.C,H4*%
X177500000Y-71500000D03*
%TD*%
%TO.C,H4*%
X177500000Y-108750000D03*
%TD*%
%TO.C,H4*%
X132000000Y-108750000D03*
%TD*%
D17*
%TO.C,D2*%
X175750000Y-103785000D03*
D18*
X175750000Y-106325000D03*
%TD*%
D19*
%TO.C,SW3*%
X132750000Y-72300000D03*
D20*
X132750000Y-69800000D03*
X132750000Y-67300000D03*
X135950000Y-72300000D03*
X135950000Y-69800000D03*
X135950000Y-67300000D03*
%TD*%
D19*
%TO.C,SW1*%
X143000000Y-67392500D03*
D20*
X143000000Y-69892500D03*
X143000000Y-72392500D03*
X139800000Y-67392500D03*
X139800000Y-69892500D03*
X139800000Y-72392500D03*
%TD*%
D21*
%TO.C,J3*%
X146250000Y-112050000D03*
D22*
X143710000Y-112050000D03*
X141170000Y-112050000D03*
%TD*%
D23*
%TO.C,C14*%
X174750000Y-99300000D03*
X176750000Y-99300000D03*
%TD*%
D24*
%TO.C,SW2*%
X131750000Y-103550000D03*
X131750000Y-97050000D03*
X136250000Y-103550000D03*
X136250000Y-97050000D03*
%TD*%
D21*
%TO.C,J6*%
X170000000Y-78375000D03*
D22*
X167460000Y-78375000D03*
X170000000Y-75835000D03*
X167460000Y-75835000D03*
X170000000Y-73295000D03*
X167460000Y-73295000D03*
X170000000Y-70755000D03*
X167460000Y-70755000D03*
X170000000Y-68215000D03*
X167460000Y-68215000D03*
%TD*%
D21*
%TO.C,J12*%
X137250000Y-112050000D03*
D22*
X134710000Y-112050000D03*
X132170000Y-112050000D03*
%TD*%
D21*
%TO.C,J11*%
X155250000Y-112050000D03*
D22*
X152710000Y-112050000D03*
X150170000Y-112050000D03*
%TD*%
D21*
%TO.C,J9*%
X163250000Y-68260000D03*
D22*
X163250000Y-70800000D03*
X163250000Y-73340000D03*
%TD*%
M02*
