%TF.GenerationSoftware,KiCad,Pcbnew,7.0.5*%
%TF.CreationDate,2023-08-23T03:28:24+02:00*%
%TF.ProjectId,STM32_DevBoard,53544d33-325f-4446-9576-426f6172642e,rev?*%
%TF.SameCoordinates,Original*%
%TF.FileFunction,Copper,L2,Inr*%
%TF.FilePolarity,Positive*%
%FSLAX46Y46*%
G04 Gerber Fmt 4.6, Leading zero omitted, Abs format (unit mm)*
G04 Created by KiCad (PCBNEW 7.0.5) date 2023-08-23 03:28:24*
%MOMM*%
%LPD*%
G01*
G04 APERTURE LIST*
G04 Aperture macros list*
%AMRoundRect*
0 Rectangle with rounded corners*
0 $1 Rounding radius*
0 $2 $3 $4 $5 $6 $7 $8 $9 X,Y pos of 4 corners*
0 Add a 4 corners polygon primitive as box body*
4,1,4,$2,$3,$4,$5,$6,$7,$8,$9,$2,$3,0*
0 Add four circle primitives for the rounded corners*
1,1,$1+$1,$2,$3*
1,1,$1+$1,$4,$5*
1,1,$1+$1,$6,$7*
1,1,$1+$1,$8,$9*
0 Add four rect primitives between the rounded corners*
20,1,$1+$1,$2,$3,$4,$5,0*
20,1,$1+$1,$4,$5,$6,$7,0*
20,1,$1+$1,$6,$7,$8,$9,0*
20,1,$1+$1,$8,$9,$2,$3,0*%
G04 Aperture macros list end*
%TA.AperFunction,ComponentPad*%
%ADD10R,1.524000X1.524000*%
%TD*%
%TA.AperFunction,ComponentPad*%
%ADD11C,1.524000*%
%TD*%
%TA.AperFunction,ComponentPad*%
%ADD12C,3.500000*%
%TD*%
%TA.AperFunction,ComponentPad*%
%ADD13RoundRect,0.250000X-0.350000X-0.650000X0.350000X-0.650000X0.350000X0.650000X-0.350000X0.650000X0*%
%TD*%
%TA.AperFunction,ComponentPad*%
%ADD14O,1.200000X1.800000*%
%TD*%
%TA.AperFunction,ComponentPad*%
%ADD15RoundRect,0.250000X0.350000X0.650000X-0.350000X0.650000X-0.350000X-0.650000X0.350000X-0.650000X0*%
%TD*%
%TA.AperFunction,ComponentPad*%
%ADD16C,1.800000*%
%TD*%
%TA.AperFunction,ComponentPad*%
%ADD17R,1.800000X1.800000*%
%TD*%
%TA.AperFunction,ComponentPad*%
%ADD18R,1.600000X1.600000*%
%TD*%
%TA.AperFunction,ComponentPad*%
%ADD19C,1.600000*%
%TD*%
%TA.AperFunction,ComponentPad*%
%ADD20R,1.700000X1.700000*%
%TD*%
%TA.AperFunction,ComponentPad*%
%ADD21O,1.700000X1.700000*%
%TD*%
%TA.AperFunction,ComponentPad*%
%ADD22C,1.200000*%
%TD*%
%TA.AperFunction,ComponentPad*%
%ADD23C,2.000000*%
%TD*%
%TA.AperFunction,ViaPad*%
%ADD24C,0.800000*%
%TD*%
%TA.AperFunction,Conductor*%
%ADD25C,0.300000*%
%TD*%
G04 APERTURE END LIST*
D10*
%TO.N,+5V*%
%TO.C,J5*%
X174000000Y-78300000D03*
D11*
%TO.N,/Connectors/USB_D-*%
X174000000Y-75800000D03*
%TO.N,/Connectors/USB_D+*%
X174000000Y-73800000D03*
%TO.N,GND*%
X174000000Y-71300000D03*
D12*
%TO.N,unconnected-(J5-Shield-Pad5)*%
X176710000Y-81370000D03*
X176710000Y-68230000D03*
%TD*%
D13*
%TO.N,+3V3*%
%TO.C,J8*%
X150750000Y-68550000D03*
D14*
%TO.N,/Connectors/SPI_MOSI*%
X152750000Y-68550000D03*
%TO.N,Net-(D8-A2)*%
X154750000Y-68550000D03*
%TO.N,Net-(D9-A2)*%
X156750000Y-68550000D03*
%TO.N,GND*%
X158750000Y-68550000D03*
%TD*%
D15*
%TO.N,+3V3*%
%TO.C,J1*%
X177500000Y-111550000D03*
D14*
%TO.N,/Connectors/CAN+*%
X175500000Y-111550000D03*
%TO.N,/Connectors/CAN-*%
X173500000Y-111550000D03*
%TO.N,GND*%
X171500000Y-111550000D03*
%TD*%
%TO.N,GND*%
%TO.C,J10*%
X160000000Y-111550000D03*
%TO.N,/Connectors/I2C_SDA*%
X162000000Y-111550000D03*
%TO.N,Net-(D18-A2)*%
X164000000Y-111550000D03*
D15*
%TO.N,+3V3*%
X166000000Y-111550000D03*
%TD*%
D16*
%TO.N,Net-(D2-A)*%
%TO.C,D2*%
X175750000Y-103785000D03*
D17*
%TO.N,GND*%
X175750000Y-106325000D03*
%TD*%
D18*
%TO.N,+3V3*%
%TO.C,SW3*%
X132750000Y-72300000D03*
D19*
%TO.N,/MCU/EEPROM_WP_SW*%
X132750000Y-69800000D03*
%TO.N,GND*%
X132750000Y-67300000D03*
%TO.N,N/C*%
X135950000Y-72300000D03*
X135950000Y-69800000D03*
X135950000Y-67300000D03*
%TD*%
D18*
%TO.N,GND*%
%TO.C,SW1*%
X143000000Y-67392500D03*
D19*
%TO.N,Net-(SW1-B)*%
X143000000Y-69892500D03*
%TO.N,+3V3*%
X143000000Y-72392500D03*
%TO.N,N/C*%
X139800000Y-67392500D03*
X139800000Y-69892500D03*
X139800000Y-72392500D03*
%TD*%
D20*
%TO.N,+3V3*%
%TO.C,J3*%
X146250000Y-112050000D03*
D21*
%TO.N,Net-(D7-A2)*%
X143710000Y-112050000D03*
%TO.N,GND*%
X141170000Y-112050000D03*
%TD*%
D22*
%TO.N,+3V3*%
%TO.C,C14*%
X174750000Y-99300000D03*
%TO.N,GND*%
X176750000Y-99300000D03*
%TD*%
D23*
%TO.N,GND*%
%TO.C,SW2*%
X131750000Y-103550000D03*
X131750000Y-97050000D03*
%TO.N,/MCU/NRST*%
X136250000Y-103550000D03*
X136250000Y-97050000D03*
%TD*%
D20*
%TO.N,+3V3*%
%TO.C,J6*%
X170000000Y-78375000D03*
D21*
%TO.N,/MCU/SWDIO*%
X167460000Y-78375000D03*
%TO.N,GND*%
X170000000Y-75835000D03*
%TO.N,/MCU/SWCLK*%
X167460000Y-75835000D03*
%TO.N,GND*%
X170000000Y-73295000D03*
%TO.N,/MCU/SWO*%
X167460000Y-73295000D03*
%TO.N,unconnected-(J6-Pin_7-Pad7)*%
X170000000Y-70755000D03*
%TO.N,unconnected-(J6-Pin_8-Pad8)*%
X167460000Y-70755000D03*
%TO.N,GND*%
X170000000Y-68215000D03*
%TO.N,/MCU/NRST*%
X167460000Y-68215000D03*
%TD*%
D20*
%TO.N,+3V3*%
%TO.C,J12*%
X137250000Y-112050000D03*
D21*
%TO.N,Net-(D22-A2)*%
X134710000Y-112050000D03*
%TO.N,GND*%
X132170000Y-112050000D03*
%TD*%
D20*
%TO.N,+3V3*%
%TO.C,J11*%
X155250000Y-112050000D03*
D21*
%TO.N,Net-(D13-A2)*%
X152710000Y-112050000D03*
%TO.N,GND*%
X150170000Y-112050000D03*
%TD*%
D20*
%TO.N,Net-(D12-A2)*%
%TO.C,J9*%
X163250000Y-68260000D03*
D21*
%TO.N,Net-(D11-A2)*%
X163250000Y-70800000D03*
%TO.N,Net-(D10-A2)*%
X163250000Y-73340000D03*
%TD*%
D24*
%TO.N,GND*%
X163750000Y-77250000D03*
X147500000Y-109750000D03*
X154000000Y-109500000D03*
X170300000Y-81150000D03*
X170300000Y-83224500D03*
%TO.N,+3V3*%
X176750000Y-74750000D03*
X145750000Y-88500000D03*
X143250000Y-103500000D03*
X163750000Y-88550000D03*
X168250000Y-88000000D03*
X152000000Y-96800000D03*
X135750000Y-101000000D03*
X160750000Y-103500000D03*
X169250000Y-96800000D03*
X133250000Y-101000000D03*
X170750000Y-98500000D03*
X176750000Y-77250000D03*
X145750000Y-108500000D03*
X156250000Y-85050000D03*
X145750000Y-86000000D03*
X154500000Y-106750000D03*
X144750000Y-102000000D03*
X133250000Y-98500000D03*
X138000000Y-86300000D03*
X168250000Y-91750000D03*
X170750000Y-95550000D03*
X168250000Y-86000000D03*
X165750000Y-86000000D03*
X157250000Y-96550000D03*
X136500000Y-79000000D03*
X155750000Y-106750000D03*
X148250000Y-91000000D03*
X136500000Y-81000000D03*
X170750000Y-90050000D03*
X138500000Y-74250000D03*
X168250000Y-89750000D03*
X175750000Y-101000000D03*
X131000000Y-94300000D03*
X141500000Y-85300000D03*
X145750000Y-93500000D03*
X167000000Y-94550000D03*
X134500000Y-93000000D03*
X145750000Y-91000000D03*
X148250000Y-88500000D03*
X168250000Y-93500000D03*
X151500000Y-101800000D03*
X148250000Y-93500000D03*
%TO.N,GND*%
X158079977Y-107950000D03*
X156750000Y-70800000D03*
X174500000Y-95550000D03*
X135000000Y-81800000D03*
X131500000Y-79050000D03*
X149500000Y-92250000D03*
X134500000Y-97250000D03*
X147000000Y-92250000D03*
X143250000Y-101800000D03*
X151000000Y-88500000D03*
X134500000Y-67250000D03*
X175500000Y-71000000D03*
X131750000Y-90050000D03*
X158750000Y-88800000D03*
X155750000Y-89050000D03*
X172250000Y-67550000D03*
X149500000Y-87250000D03*
X159750000Y-95800000D03*
X164250000Y-75800000D03*
X174500000Y-93800000D03*
X139000000Y-103800000D03*
X172250000Y-73050000D03*
X158750000Y-70800000D03*
X131000000Y-92300000D03*
X134500000Y-99750000D03*
X150500000Y-108750000D03*
X174500000Y-90050000D03*
X163250000Y-98800000D03*
X131500000Y-81800000D03*
X134500000Y-69750000D03*
X150250000Y-101800000D03*
X168250000Y-104800000D03*
X144500000Y-87250000D03*
X134000000Y-90300000D03*
X132750000Y-84550000D03*
X162000000Y-84750000D03*
X149750000Y-106745023D03*
X147000000Y-87250000D03*
X134500000Y-104750000D03*
X137000000Y-99750000D03*
X172000000Y-97250000D03*
X174500000Y-102250000D03*
X135000000Y-79050000D03*
X169500000Y-99750000D03*
X175500000Y-76000000D03*
X138750000Y-108750000D03*
X170500000Y-103750000D03*
X172750000Y-91800000D03*
X156250000Y-83800000D03*
X174500000Y-84750000D03*
X169250000Y-98050000D03*
X150749999Y-90999999D03*
X172750000Y-93800000D03*
X164100000Y-94550000D03*
X177000000Y-84750000D03*
X138000000Y-84300000D03*
X146250000Y-66250000D03*
X132000000Y-106750000D03*
X152750000Y-101800000D03*
X134969669Y-77830331D03*
X175500000Y-73500000D03*
X174000000Y-69550000D03*
X131250000Y-83800000D03*
X138000000Y-71000000D03*
X131500000Y-80300000D03*
X167000000Y-87250000D03*
X174500000Y-91800000D03*
X134000000Y-83800000D03*
X154750000Y-70800000D03*
X170000000Y-109050000D03*
X168250000Y-103800000D03*
X142000000Y-107300000D03*
X175750000Y-109050000D03*
X161250000Y-70800000D03*
X163050000Y-108380000D03*
X164500000Y-82250000D03*
X137000000Y-74250000D03*
X160750000Y-96750000D03*
X167000000Y-92800000D03*
X172250000Y-69550000D03*
X134500000Y-102250000D03*
X165500000Y-80550000D03*
X144500000Y-104750000D03*
X135000000Y-80300000D03*
X161500000Y-82800000D03*
X142000000Y-104750000D03*
X149500000Y-67250000D03*
X143250000Y-91000000D03*
X144500000Y-92250000D03*
X138000000Y-68750000D03*
X172250000Y-71300000D03*
X172750000Y-90050000D03*
X165250000Y-66750000D03*
X132000000Y-99750000D03*
X152750000Y-70800000D03*
X167000000Y-88762500D03*
X143250000Y-82550000D03*
X172750000Y-95550000D03*
X177000000Y-102250000D03*
X167000000Y-90750000D03*
X164500000Y-87250000D03*
X135750000Y-107300000D03*
X155250000Y-101800000D03*
X150750000Y-70800000D03*
X154000000Y-101800000D03*
X152000000Y-67250000D03*
X137500000Y-92300000D03*
%TO.N,/MCU/NRST*%
X139750000Y-90800000D03*
%TO.N,/Connectors/I2C_SDA*%
X158050000Y-109150000D03*
X149000000Y-101800000D03*
X151000000Y-106800000D03*
X150000000Y-94050000D03*
%TO.N,/MCU/SWDIO*%
X155250000Y-86800000D03*
%TO.N,/MCU/SWO*%
X165499996Y-75800000D03*
X165500000Y-79300000D03*
%TO.N,/Connectors/SPI_NSS1*%
X148250000Y-81800000D03*
X152250000Y-81800000D03*
%TO.N,/Connectors/SPI_NSS2*%
X147750000Y-82800000D03*
X151450000Y-82800000D03*
%TO.N,/MCU/IMU_INT*%
X163500000Y-90050000D03*
X155750000Y-90300000D03*
%TO.N,/Sensors/AUX_SDA*%
X163750000Y-95750000D03*
X163250000Y-97550000D03*
%TD*%
D25*
%TO.N,GND*%
X131950000Y-83750000D02*
X131250000Y-83750000D01*
X132750000Y-84550000D02*
X131950000Y-83750000D01*
%TD*%
%TA.AperFunction,Conductor*%
%TO.N,GND*%
G36*
X170250000Y-75399498D02*
G01*
X170142315Y-75350320D01*
X170035763Y-75335000D01*
X169964237Y-75335000D01*
X169857685Y-75350320D01*
X169750000Y-75399498D01*
X169750000Y-73730501D01*
X169857685Y-73779680D01*
X169964237Y-73795000D01*
X170035763Y-73795000D01*
X170142315Y-73779680D01*
X170250000Y-73730501D01*
X170250000Y-75399498D01*
G37*
%TD.AperFunction*%
%TA.AperFunction,Conductor*%
G36*
X132448559Y-65820185D02*
G01*
X132494314Y-65872989D01*
X132504258Y-65942147D01*
X132475233Y-66005703D01*
X132416455Y-66043477D01*
X132413613Y-66044275D01*
X132303682Y-66073730D01*
X132303673Y-66073734D01*
X132097513Y-66169868D01*
X132024527Y-66220972D01*
X132024526Y-66220973D01*
X132705600Y-66902046D01*
X132624852Y-66914835D01*
X132511955Y-66972359D01*
X132422359Y-67061955D01*
X132364835Y-67174852D01*
X132352046Y-67255599D01*
X131670973Y-66574526D01*
X131670972Y-66574527D01*
X131619868Y-66647513D01*
X131523734Y-66853673D01*
X131523730Y-66853682D01*
X131464860Y-67073389D01*
X131464858Y-67073400D01*
X131445034Y-67299997D01*
X131445034Y-67300002D01*
X131464858Y-67526599D01*
X131464860Y-67526610D01*
X131523730Y-67746317D01*
X131523734Y-67746326D01*
X131619865Y-67952481D01*
X131619866Y-67952483D01*
X131670973Y-68025471D01*
X131670974Y-68025472D01*
X132352046Y-67344399D01*
X132364835Y-67425148D01*
X132422359Y-67538045D01*
X132511955Y-67627641D01*
X132624852Y-67685165D01*
X132705599Y-67697953D01*
X132024526Y-68379025D01*
X132024526Y-68379026D01*
X132097512Y-68430131D01*
X132097516Y-68430133D01*
X132303673Y-68526265D01*
X132303682Y-68526269D01*
X132429240Y-68559912D01*
X132488901Y-68596277D01*
X132519430Y-68659124D01*
X132511135Y-68728499D01*
X132466650Y-68782377D01*
X132433144Y-68798347D01*
X132398828Y-68808757D01*
X132346042Y-68824769D01*
X132212570Y-68896113D01*
X132163550Y-68922315D01*
X132163548Y-68922316D01*
X132163547Y-68922317D01*
X132003589Y-69053589D01*
X131875866Y-69209223D01*
X131872315Y-69213550D01*
X131848221Y-69258627D01*
X131774769Y-69396043D01*
X131714699Y-69594067D01*
X131694417Y-69800000D01*
X131714699Y-70005932D01*
X131742759Y-70098432D01*
X131774768Y-70203954D01*
X131872315Y-70386450D01*
X131906969Y-70428677D01*
X132003589Y-70546410D01*
X132071098Y-70601812D01*
X132163550Y-70677685D01*
X132346046Y-70775232D01*
X132544066Y-70835300D01*
X132544065Y-70835300D01*
X132562529Y-70837118D01*
X132750000Y-70855583D01*
X132955934Y-70835300D01*
X133153954Y-70775232D01*
X133336450Y-70677685D01*
X133496410Y-70546410D01*
X133627685Y-70386450D01*
X133725232Y-70203954D01*
X133785300Y-70005934D01*
X133805583Y-69800000D01*
X134894417Y-69800000D01*
X134914699Y-70005932D01*
X134942759Y-70098432D01*
X134974768Y-70203954D01*
X135072315Y-70386450D01*
X135106969Y-70428677D01*
X135203589Y-70546410D01*
X135271098Y-70601812D01*
X135363550Y-70677685D01*
X135546046Y-70775232D01*
X135744066Y-70835300D01*
X135744065Y-70835300D01*
X135762529Y-70837118D01*
X135950000Y-70855583D01*
X136155934Y-70835300D01*
X136353954Y-70775232D01*
X136536450Y-70677685D01*
X136696410Y-70546410D01*
X136827685Y-70386450D01*
X136925232Y-70203954D01*
X136985300Y-70005934D01*
X136996473Y-69892499D01*
X138744417Y-69892499D01*
X138764699Y-70098432D01*
X138768081Y-70109580D01*
X138824768Y-70296454D01*
X138922315Y-70478950D01*
X138922317Y-70478952D01*
X139053589Y-70638910D01*
X139113483Y-70688063D01*
X139213550Y-70770185D01*
X139396046Y-70867732D01*
X139594066Y-70927800D01*
X139594065Y-70927800D01*
X139612529Y-70929618D01*
X139800000Y-70948083D01*
X140005934Y-70927800D01*
X140203954Y-70867732D01*
X140386450Y-70770185D01*
X140546410Y-70638910D01*
X140677685Y-70478950D01*
X140775232Y-70296454D01*
X140835300Y-70098434D01*
X140855583Y-69892500D01*
X140835300Y-69686566D01*
X140775232Y-69488546D01*
X140677685Y-69306050D01*
X140601770Y-69213547D01*
X140546410Y-69146089D01*
X140428677Y-69049469D01*
X140386450Y-69014815D01*
X140203954Y-68917268D01*
X140005934Y-68857200D01*
X140005932Y-68857199D01*
X140005934Y-68857199D01*
X139800000Y-68836917D01*
X139594067Y-68857199D01*
X139396043Y-68917269D01*
X139285897Y-68976143D01*
X139213550Y-69014815D01*
X139213548Y-69014816D01*
X139213547Y-69014817D01*
X139053589Y-69146089D01*
X138922317Y-69306047D01*
X138922315Y-69306050D01*
X138917264Y-69315500D01*
X138824769Y-69488543D01*
X138764699Y-69686567D01*
X138744417Y-69892499D01*
X136996473Y-69892499D01*
X137005583Y-69800000D01*
X136985300Y-69594066D01*
X136925232Y-69396046D01*
X136827685Y-69213550D01*
X136732019Y-69096980D01*
X136696410Y-69053589D01*
X136536452Y-68922317D01*
X136536453Y-68922317D01*
X136536450Y-68922315D01*
X136353954Y-68824768D01*
X136155934Y-68764700D01*
X136155932Y-68764699D01*
X136155934Y-68764699D01*
X135950000Y-68744417D01*
X135744067Y-68764699D01*
X135546043Y-68824769D01*
X135448524Y-68876895D01*
X135363550Y-68922315D01*
X135363548Y-68922316D01*
X135363547Y-68922317D01*
X135203589Y-69053589D01*
X135075866Y-69209223D01*
X135072315Y-69213550D01*
X135048221Y-69258627D01*
X134974769Y-69396043D01*
X134914699Y-69594067D01*
X134894417Y-69800000D01*
X133805583Y-69800000D01*
X133785300Y-69594066D01*
X133725232Y-69396046D01*
X133627685Y-69213550D01*
X133532019Y-69096980D01*
X133496410Y-69053589D01*
X133336452Y-68922317D01*
X133336453Y-68922317D01*
X133336450Y-68922315D01*
X133153954Y-68824768D01*
X133066856Y-68798347D01*
X133008418Y-68760050D01*
X132979962Y-68696238D01*
X132990522Y-68627171D01*
X133036746Y-68574777D01*
X133070759Y-68559912D01*
X133196317Y-68526269D01*
X133196331Y-68526264D01*
X133402478Y-68430136D01*
X133475472Y-68379025D01*
X132794401Y-67697953D01*
X132875148Y-67685165D01*
X132988045Y-67627641D01*
X133077641Y-67538045D01*
X133135165Y-67425148D01*
X133147953Y-67344400D01*
X133829025Y-68025472D01*
X133880136Y-67952478D01*
X133976264Y-67746331D01*
X133976269Y-67746317D01*
X134035139Y-67526610D01*
X134035141Y-67526599D01*
X134054966Y-67300002D01*
X134054966Y-67299999D01*
X134894417Y-67299999D01*
X134914699Y-67505932D01*
X134925609Y-67541898D01*
X134974768Y-67703954D01*
X135072315Y-67886450D01*
X135075868Y-67890779D01*
X135203589Y-68046410D01*
X135227570Y-68066090D01*
X135363550Y-68177685D01*
X135546046Y-68275232D01*
X135744066Y-68335300D01*
X135744065Y-68335300D01*
X135762529Y-68337118D01*
X135950000Y-68355583D01*
X136155934Y-68335300D01*
X136353954Y-68275232D01*
X136536450Y-68177685D01*
X136696410Y-68046410D01*
X136827685Y-67886450D01*
X136925232Y-67703954D01*
X136985300Y-67505934D01*
X136996472Y-67392500D01*
X138744417Y-67392500D01*
X138764699Y-67598432D01*
X138782669Y-67657671D01*
X138824768Y-67796454D01*
X138922315Y-67978950D01*
X138922317Y-67978952D01*
X139053589Y-68138910D01*
X139132760Y-68203883D01*
X139213550Y-68270185D01*
X139396046Y-68367732D01*
X139594066Y-68427800D01*
X139594065Y-68427800D01*
X139612529Y-68429618D01*
X139800000Y-68448083D01*
X140005934Y-68427800D01*
X140203954Y-68367732D01*
X140386450Y-68270185D01*
X140422812Y-68240344D01*
X141700000Y-68240344D01*
X141706401Y-68299872D01*
X141706403Y-68299879D01*
X141756645Y-68434586D01*
X141756649Y-68434593D01*
X141842809Y-68549687D01*
X141842812Y-68549690D01*
X141957906Y-68635850D01*
X141957913Y-68635854D01*
X142092620Y-68686096D01*
X142092627Y-68686098D01*
X142152155Y-68692499D01*
X142152172Y-68692500D01*
X142521521Y-68692500D01*
X142588560Y-68712185D01*
X142634315Y-68764989D01*
X142644259Y-68834147D01*
X142615234Y-68897703D01*
X142579974Y-68925858D01*
X142413550Y-69014815D01*
X142413548Y-69014816D01*
X142413547Y-69014817D01*
X142253589Y-69146089D01*
X142122317Y-69306047D01*
X142122315Y-69306050D01*
X142117264Y-69315500D01*
X142024769Y-69488543D01*
X141964699Y-69686567D01*
X141944417Y-69892499D01*
X141964699Y-70098432D01*
X141968081Y-70109580D01*
X142024768Y-70296454D01*
X142122315Y-70478950D01*
X142122317Y-70478952D01*
X142253589Y-70638910D01*
X142313483Y-70688063D01*
X142413550Y-70770185D01*
X142596046Y-70867732D01*
X142794066Y-70927800D01*
X142794065Y-70927800D01*
X142812529Y-70929618D01*
X143000000Y-70948083D01*
X143205934Y-70927800D01*
X143403954Y-70867732D01*
X143530671Y-70800000D01*
X162144785Y-70800000D01*
X162163602Y-71003082D01*
X162219417Y-71199247D01*
X162219422Y-71199260D01*
X162310327Y-71381821D01*
X162433237Y-71544581D01*
X162583958Y-71681980D01*
X162583960Y-71681982D01*
X162643952Y-71719127D01*
X162757363Y-71789348D01*
X162947544Y-71863024D01*
X163148024Y-71900500D01*
X163148026Y-71900500D01*
X163351974Y-71900500D01*
X163351976Y-71900500D01*
X163552456Y-71863024D01*
X163742637Y-71789348D01*
X163916041Y-71681981D01*
X164044122Y-71565219D01*
X164066762Y-71544581D01*
X164066764Y-71544579D01*
X164189673Y-71381821D01*
X164280582Y-71199250D01*
X164336397Y-71003083D01*
X164355215Y-70800000D01*
X164351045Y-70755000D01*
X166354785Y-70755000D01*
X166373602Y-70958082D01*
X166429417Y-71154247D01*
X166429422Y-71154260D01*
X166520327Y-71336821D01*
X166643237Y-71499581D01*
X166793958Y-71636980D01*
X166793960Y-71636982D01*
X166866638Y-71681982D01*
X166967363Y-71744348D01*
X167157544Y-71818024D01*
X167358024Y-71855500D01*
X167358026Y-71855500D01*
X167561974Y-71855500D01*
X167561976Y-71855500D01*
X167762456Y-71818024D01*
X167952637Y-71744348D01*
X168126041Y-71636981D01*
X168276764Y-71499579D01*
X168399673Y-71336821D01*
X168490582Y-71154250D01*
X168546397Y-70958083D01*
X168565215Y-70755000D01*
X168564331Y-70745465D01*
X168546397Y-70551917D01*
X168503386Y-70400752D01*
X168490582Y-70355750D01*
X168399673Y-70173179D01*
X168340704Y-70095091D01*
X168276762Y-70010418D01*
X168126041Y-69873019D01*
X168126039Y-69873017D01*
X167952642Y-69765655D01*
X167952635Y-69765651D01*
X167838321Y-69721366D01*
X167762456Y-69691976D01*
X167561976Y-69654500D01*
X167358024Y-69654500D01*
X167157544Y-69691976D01*
X167157541Y-69691976D01*
X167157541Y-69691977D01*
X166967364Y-69765651D01*
X166967357Y-69765655D01*
X166793960Y-69873017D01*
X166793958Y-69873019D01*
X166643237Y-70010418D01*
X166520327Y-70173178D01*
X166429422Y-70355739D01*
X166429417Y-70355752D01*
X166373602Y-70551917D01*
X166354785Y-70754999D01*
X166354785Y-70755000D01*
X164351045Y-70755000D01*
X164336397Y-70596917D01*
X164280582Y-70400750D01*
X164273462Y-70386452D01*
X164204650Y-70248257D01*
X164189673Y-70218179D01*
X164066764Y-70055421D01*
X164066762Y-70055418D01*
X163916041Y-69918019D01*
X163916039Y-69918017D01*
X163742642Y-69810655D01*
X163742635Y-69810651D01*
X163647546Y-69773814D01*
X163552456Y-69736976D01*
X163351976Y-69699500D01*
X163148024Y-69699500D01*
X162947544Y-69736976D01*
X162947541Y-69736976D01*
X162947541Y-69736977D01*
X162757364Y-69810651D01*
X162757357Y-69810655D01*
X162583960Y-69918017D01*
X162583958Y-69918019D01*
X162433237Y-70055418D01*
X162310327Y-70218178D01*
X162219422Y-70400739D01*
X162219417Y-70400752D01*
X162163602Y-70596917D01*
X162144785Y-70799999D01*
X162144785Y-70800000D01*
X143530671Y-70800000D01*
X143586450Y-70770185D01*
X143746410Y-70638910D01*
X143877685Y-70478950D01*
X143975232Y-70296454D01*
X144035300Y-70098434D01*
X144055583Y-69892500D01*
X144035300Y-69686566D01*
X143975232Y-69488546D01*
X143877685Y-69306050D01*
X143829938Y-69247870D01*
X149899500Y-69247870D01*
X149899501Y-69247876D01*
X149905908Y-69307483D01*
X149956202Y-69442328D01*
X149956206Y-69442335D01*
X150042452Y-69557544D01*
X150042455Y-69557547D01*
X150157664Y-69643793D01*
X150157671Y-69643797D01*
X150292517Y-69694091D01*
X150292516Y-69694091D01*
X150293949Y-69694245D01*
X150352127Y-69700500D01*
X151147872Y-69700499D01*
X151207483Y-69694091D01*
X151342331Y-69643796D01*
X151457546Y-69557546D01*
X151543796Y-69442331D01*
X151594091Y-69307483D01*
X151600500Y-69247873D01*
X151600500Y-68896116D01*
X151899500Y-68896116D01*
X151914486Y-69033911D01*
X151932065Y-69086082D01*
X151973055Y-69207735D01*
X151973557Y-69209223D01*
X151973558Y-69209225D01*
X151996818Y-69247883D01*
X152064576Y-69360500D01*
X152068931Y-69367737D01*
X152068932Y-69367738D01*
X152196149Y-69502040D01*
X152206568Y-69509104D01*
X152349270Y-69605858D01*
X152349273Y-69605859D01*
X152349276Y-69605861D01*
X152503950Y-69667488D01*
X152521125Y-69674331D01*
X152703683Y-69704260D01*
X152888407Y-69694245D01*
X152888411Y-69694244D01*
X153066656Y-69644755D01*
X153066656Y-69644754D01*
X153066659Y-69644754D01*
X153230104Y-69558100D01*
X153371100Y-69438337D01*
X153483054Y-69291064D01*
X153560732Y-69123167D01*
X153600500Y-68942497D01*
X153600500Y-68896116D01*
X153899500Y-68896116D01*
X153914486Y-69033911D01*
X153932065Y-69086082D01*
X153973055Y-69207735D01*
X153973557Y-69209223D01*
X153973558Y-69209225D01*
X153996818Y-69247883D01*
X154064576Y-69360500D01*
X154068931Y-69367737D01*
X154068932Y-69367738D01*
X154196149Y-69502040D01*
X154206568Y-69509104D01*
X154349270Y-69605858D01*
X154349273Y-69605859D01*
X154349276Y-69605861D01*
X154503950Y-69667488D01*
X154521125Y-69674331D01*
X154703683Y-69704260D01*
X154888407Y-69694245D01*
X154888411Y-69694244D01*
X155066656Y-69644755D01*
X155066656Y-69644754D01*
X155066659Y-69644754D01*
X155230104Y-69558100D01*
X155371100Y-69438337D01*
X155483054Y-69291064D01*
X155560732Y-69123167D01*
X155600500Y-68942497D01*
X155600500Y-68896116D01*
X155899500Y-68896116D01*
X155914486Y-69033911D01*
X155932065Y-69086082D01*
X155973055Y-69207735D01*
X155973557Y-69209223D01*
X155973558Y-69209225D01*
X155996818Y-69247883D01*
X156064576Y-69360500D01*
X156068931Y-69367737D01*
X156068932Y-69367738D01*
X156196149Y-69502040D01*
X156206568Y-69509104D01*
X156349270Y-69605858D01*
X156349273Y-69605859D01*
X156349276Y-69605861D01*
X156503950Y-69667488D01*
X156521125Y-69674331D01*
X156703683Y-69704260D01*
X156888407Y-69694245D01*
X156888411Y-69694244D01*
X157066656Y-69644755D01*
X157066656Y-69644754D01*
X157066659Y-69644754D01*
X157230104Y-69558100D01*
X157371100Y-69438337D01*
X157483054Y-69291064D01*
X157498062Y-69258624D01*
X157544074Y-69206048D01*
X157611209Y-69186693D01*
X157678151Y-69206707D01*
X157720415Y-69255969D01*
X157721444Y-69255439D01*
X157820413Y-69447414D01*
X157950268Y-69612537D01*
X157950271Y-69612540D01*
X158109030Y-69750105D01*
X158109041Y-69750114D01*
X158290960Y-69855144D01*
X158290967Y-69855147D01*
X158489487Y-69923856D01*
X158500000Y-69925367D01*
X158500000Y-68865686D01*
X158511955Y-68877641D01*
X158624852Y-68935165D01*
X158718519Y-68950000D01*
X158781481Y-68950000D01*
X158875148Y-68935165D01*
X158988045Y-68877641D01*
X159000000Y-68865686D01*
X159000000Y-69921257D01*
X159111409Y-69894229D01*
X159302507Y-69806959D01*
X159473619Y-69685110D01*
X159473625Y-69685104D01*
X159618592Y-69533067D01*
X159732166Y-69356342D01*
X159810244Y-69161314D01*
X159815378Y-69134676D01*
X162149499Y-69134676D01*
X162149500Y-69134678D01*
X162164032Y-69207735D01*
X162164033Y-69207739D01*
X162165025Y-69209223D01*
X162219399Y-69290601D01*
X162256664Y-69315500D01*
X162302260Y-69345966D01*
X162302264Y-69345967D01*
X162375321Y-69360499D01*
X162375324Y-69360500D01*
X162375326Y-69360500D01*
X164124676Y-69360500D01*
X164124677Y-69360499D01*
X164197740Y-69345966D01*
X164280601Y-69290601D01*
X164335966Y-69207740D01*
X164350500Y-69134674D01*
X164350500Y-67385326D01*
X164350500Y-67385323D01*
X164350499Y-67385321D01*
X164335967Y-67312264D01*
X164335966Y-67312260D01*
X164329253Y-67302213D01*
X164280601Y-67229399D01*
X164216496Y-67186566D01*
X164197739Y-67174033D01*
X164197735Y-67174032D01*
X164124677Y-67159500D01*
X164124674Y-67159500D01*
X162375326Y-67159500D01*
X162375323Y-67159500D01*
X162302264Y-67174032D01*
X162302260Y-67174033D01*
X162219399Y-67229399D01*
X162164033Y-67312260D01*
X162164032Y-67312264D01*
X162149500Y-67385321D01*
X162149499Y-67385323D01*
X162149499Y-69134676D01*
X159815378Y-69134676D01*
X159850000Y-68955037D01*
X159850000Y-68800000D01*
X159065686Y-68800000D01*
X159077641Y-68788045D01*
X159135165Y-68675148D01*
X159154986Y-68550000D01*
X159135165Y-68424852D01*
X159077641Y-68311955D01*
X159065686Y-68300000D01*
X159850000Y-68300000D01*
X159850000Y-68197601D01*
X159835034Y-68040877D01*
X159835033Y-68040873D01*
X159775850Y-67839313D01*
X159679586Y-67652585D01*
X159549731Y-67487462D01*
X159549728Y-67487459D01*
X159390969Y-67349894D01*
X159390958Y-67349885D01*
X159209039Y-67244855D01*
X159209032Y-67244852D01*
X159010516Y-67176144D01*
X159000000Y-67174632D01*
X159000000Y-68234314D01*
X158988045Y-68222359D01*
X158875148Y-68164835D01*
X158781481Y-68150000D01*
X158718519Y-68150000D01*
X158624852Y-68164835D01*
X158511955Y-68222359D01*
X158500000Y-68234314D01*
X158500000Y-67178740D01*
X158499999Y-67178740D01*
X158388594Y-67205768D01*
X158388582Y-67205772D01*
X158197497Y-67293037D01*
X158197496Y-67293038D01*
X158026380Y-67414889D01*
X158026374Y-67414895D01*
X157881407Y-67566932D01*
X157767832Y-67743659D01*
X157728756Y-67841266D01*
X157685566Y-67896187D01*
X157619539Y-67919039D01*
X157551638Y-67902566D01*
X157507389Y-67859108D01*
X157476335Y-67807497D01*
X157431070Y-67732264D01*
X157400508Y-67700000D01*
X157303850Y-67597959D01*
X157230947Y-67548530D01*
X157150730Y-67494142D01*
X157150727Y-67494140D01*
X157150723Y-67494138D01*
X156978877Y-67425669D01*
X156905851Y-67413697D01*
X156796317Y-67395740D01*
X156796314Y-67395740D01*
X156611593Y-67405755D01*
X156611588Y-67405755D01*
X156433343Y-67455244D01*
X156433337Y-67455247D01*
X156269897Y-67541898D01*
X156128900Y-67661662D01*
X156016946Y-67808936D01*
X155939268Y-67976832D01*
X155939266Y-67976836D01*
X155899500Y-68157502D01*
X155899500Y-68896116D01*
X155600500Y-68896116D01*
X155600500Y-68203887D01*
X155585514Y-68066090D01*
X155526444Y-67890779D01*
X155431070Y-67732264D01*
X155400508Y-67700000D01*
X155303850Y-67597959D01*
X155230947Y-67548530D01*
X155150730Y-67494142D01*
X155150727Y-67494140D01*
X155150723Y-67494138D01*
X154978877Y-67425669D01*
X154905851Y-67413697D01*
X154796317Y-67395740D01*
X154796314Y-67395740D01*
X154611593Y-67405755D01*
X154611588Y-67405755D01*
X154433343Y-67455244D01*
X154433337Y-67455247D01*
X154269897Y-67541898D01*
X154128900Y-67661662D01*
X154016946Y-67808936D01*
X153939268Y-67976832D01*
X153939266Y-67976836D01*
X153899500Y-68157502D01*
X153899500Y-68896116D01*
X153600500Y-68896116D01*
X153600500Y-68203887D01*
X153585514Y-68066090D01*
X153526444Y-67890779D01*
X153431070Y-67732264D01*
X153400508Y-67700000D01*
X153303850Y-67597959D01*
X153230947Y-67548530D01*
X153150730Y-67494142D01*
X153150727Y-67494140D01*
X153150723Y-67494138D01*
X152978877Y-67425669D01*
X152905851Y-67413697D01*
X152796317Y-67395740D01*
X152796314Y-67395740D01*
X152611593Y-67405755D01*
X152611588Y-67405755D01*
X152433343Y-67455244D01*
X152433337Y-67455247D01*
X152269897Y-67541898D01*
X152128900Y-67661662D01*
X152016946Y-67808936D01*
X151939268Y-67976832D01*
X151939266Y-67976836D01*
X151899500Y-68157502D01*
X151899500Y-68896116D01*
X151600500Y-68896116D01*
X151600499Y-67852128D01*
X151595299Y-67803757D01*
X151594091Y-67792516D01*
X151543797Y-67657671D01*
X151543793Y-67657664D01*
X151457547Y-67542455D01*
X151457544Y-67542452D01*
X151342335Y-67456206D01*
X151342328Y-67456202D01*
X151207482Y-67405908D01*
X151207483Y-67405908D01*
X151147883Y-67399501D01*
X151147881Y-67399500D01*
X151147873Y-67399500D01*
X151147864Y-67399500D01*
X150352129Y-67399500D01*
X150352123Y-67399501D01*
X150292516Y-67405908D01*
X150157671Y-67456202D01*
X150157664Y-67456206D01*
X150042455Y-67542452D01*
X150042452Y-67542455D01*
X149956206Y-67657664D01*
X149956202Y-67657671D01*
X149905908Y-67792517D01*
X149899501Y-67852116D01*
X149899501Y-67852123D01*
X149899500Y-67852135D01*
X149899500Y-69247870D01*
X143829938Y-69247870D01*
X143801770Y-69213547D01*
X143746410Y-69146089D01*
X143628677Y-69049469D01*
X143586450Y-69014815D01*
X143420025Y-68925858D01*
X143370181Y-68876895D01*
X143354721Y-68808757D01*
X143378553Y-68743078D01*
X143434111Y-68700709D01*
X143478479Y-68692500D01*
X143847828Y-68692500D01*
X143847844Y-68692499D01*
X143907372Y-68686098D01*
X143907379Y-68686096D01*
X144042086Y-68635854D01*
X144042093Y-68635850D01*
X144157187Y-68549690D01*
X144157190Y-68549687D01*
X144243350Y-68434593D01*
X144243354Y-68434586D01*
X144293596Y-68299879D01*
X144293598Y-68299872D01*
X144299999Y-68240344D01*
X144300000Y-68240327D01*
X144300000Y-67642500D01*
X143315686Y-67642500D01*
X143327641Y-67630545D01*
X143385165Y-67517648D01*
X143404986Y-67392500D01*
X143385165Y-67267352D01*
X143327641Y-67154455D01*
X143315686Y-67142500D01*
X144300000Y-67142500D01*
X144300000Y-66544672D01*
X144299999Y-66544655D01*
X144293598Y-66485127D01*
X144293596Y-66485120D01*
X144243354Y-66350413D01*
X144243350Y-66350406D01*
X144157190Y-66235312D01*
X144157187Y-66235309D01*
X144042093Y-66149149D01*
X144042086Y-66149145D01*
X143907379Y-66098903D01*
X143907372Y-66098901D01*
X143847844Y-66092500D01*
X143250000Y-66092500D01*
X143250000Y-67076814D01*
X143238045Y-67064859D01*
X143125148Y-67007335D01*
X143031481Y-66992500D01*
X142968519Y-66992500D01*
X142874852Y-67007335D01*
X142761955Y-67064859D01*
X142750000Y-67076814D01*
X142750000Y-66092500D01*
X142152155Y-66092500D01*
X142092627Y-66098901D01*
X142092620Y-66098903D01*
X141957913Y-66149145D01*
X141957906Y-66149149D01*
X141842812Y-66235309D01*
X141842809Y-66235312D01*
X141756649Y-66350406D01*
X141756645Y-66350413D01*
X141706403Y-66485120D01*
X141706401Y-66485127D01*
X141700000Y-66544655D01*
X141700000Y-67142500D01*
X142684314Y-67142500D01*
X142672359Y-67154455D01*
X142614835Y-67267352D01*
X142595014Y-67392500D01*
X142614835Y-67517648D01*
X142672359Y-67630545D01*
X142684314Y-67642500D01*
X141700000Y-67642500D01*
X141700000Y-68240344D01*
X140422812Y-68240344D01*
X140546410Y-68138910D01*
X140677685Y-67978950D01*
X140775232Y-67796454D01*
X140835300Y-67598434D01*
X140855583Y-67392500D01*
X140835300Y-67186566D01*
X140775232Y-66988546D01*
X140677685Y-66806050D01*
X140602356Y-66714261D01*
X140546410Y-66646089D01*
X140422810Y-66544655D01*
X140386450Y-66514815D01*
X140203954Y-66417268D01*
X140005934Y-66357200D01*
X140005932Y-66357199D01*
X140005934Y-66357199D01*
X139800000Y-66336917D01*
X139594067Y-66357199D01*
X139396043Y-66417269D01*
X139337761Y-66448422D01*
X139213550Y-66514815D01*
X139213548Y-66514816D01*
X139213547Y-66514817D01*
X139053589Y-66646089D01*
X138922317Y-66806047D01*
X138824769Y-66988543D01*
X138824768Y-66988545D01*
X138824768Y-66988546D01*
X138817898Y-67011192D01*
X138764699Y-67186567D01*
X138744417Y-67392500D01*
X136996472Y-67392500D01*
X137005583Y-67300000D01*
X136985300Y-67094066D01*
X136925232Y-66896046D01*
X136827685Y-66713550D01*
X136772322Y-66646089D01*
X136696410Y-66553589D01*
X136536452Y-66422317D01*
X136536453Y-66422317D01*
X136536450Y-66422315D01*
X136353954Y-66324768D01*
X136155934Y-66264700D01*
X136155932Y-66264699D01*
X136155934Y-66264699D01*
X135968463Y-66246235D01*
X135950000Y-66244417D01*
X135949999Y-66244417D01*
X135744067Y-66264699D01*
X135546043Y-66324769D01*
X135435898Y-66383643D01*
X135363550Y-66422315D01*
X135363548Y-66422316D01*
X135363547Y-66422317D01*
X135203589Y-66553589D01*
X135072317Y-66713547D01*
X135072315Y-66713550D01*
X135055240Y-66745495D01*
X134974769Y-66896043D01*
X134974768Y-66896045D01*
X134974768Y-66896046D01*
X134968535Y-66916594D01*
X134914699Y-67094067D01*
X134894417Y-67299999D01*
X134054966Y-67299999D01*
X134054966Y-67299997D01*
X134035141Y-67073400D01*
X134035139Y-67073389D01*
X133976269Y-66853682D01*
X133976265Y-66853673D01*
X133880133Y-66647516D01*
X133880131Y-66647512D01*
X133829026Y-66574526D01*
X133829025Y-66574526D01*
X133147953Y-67255598D01*
X133135165Y-67174852D01*
X133077641Y-67061955D01*
X132988045Y-66972359D01*
X132875148Y-66914835D01*
X132794400Y-66902046D01*
X133475472Y-66220974D01*
X133475471Y-66220973D01*
X133402483Y-66169866D01*
X133402481Y-66169865D01*
X133196326Y-66073734D01*
X133196317Y-66073730D01*
X133086387Y-66044275D01*
X133026726Y-66007910D01*
X132996197Y-65945063D01*
X133004492Y-65875688D01*
X133048977Y-65821810D01*
X133115529Y-65800535D01*
X133118480Y-65800500D01*
X176907290Y-65800500D01*
X176997786Y-65800500D01*
X177002208Y-65800657D01*
X177204561Y-65815130D01*
X177222063Y-65817647D01*
X177413797Y-65859355D01*
X177430755Y-65864334D01*
X177614609Y-65932909D01*
X177630701Y-65940259D01*
X177802904Y-66034288D01*
X177817784Y-66043849D01*
X177958447Y-66149149D01*
X177974867Y-66161441D01*
X177988237Y-66173027D01*
X178126972Y-66311762D01*
X178138558Y-66325132D01*
X178256146Y-66482210D01*
X178265711Y-66497095D01*
X178359740Y-66669298D01*
X178367089Y-66685389D01*
X178389508Y-66745495D01*
X178394493Y-66815187D01*
X178361009Y-66876510D01*
X178299686Y-66909996D01*
X178229994Y-66905012D01*
X178185646Y-66876511D01*
X178023405Y-66714270D01*
X178023387Y-66714254D01*
X177794317Y-66542775D01*
X177794309Y-66542770D01*
X177543166Y-66405635D01*
X177543167Y-66405635D01*
X177395092Y-66350406D01*
X177275046Y-66305631D01*
X177275043Y-66305630D01*
X177275037Y-66305628D01*
X176995433Y-66244804D01*
X176710001Y-66224390D01*
X176709999Y-66224390D01*
X176424566Y-66244804D01*
X176144962Y-66305628D01*
X175876833Y-66405635D01*
X175625690Y-66542770D01*
X175625682Y-66542775D01*
X175396612Y-66714254D01*
X175396594Y-66714270D01*
X175194270Y-66916594D01*
X175194254Y-66916612D01*
X175022775Y-67145682D01*
X175022770Y-67145690D01*
X174885635Y-67396833D01*
X174785628Y-67664962D01*
X174724804Y-67944566D01*
X174704390Y-68229998D01*
X174704390Y-68230001D01*
X174724804Y-68515433D01*
X174785628Y-68795037D01*
X174785630Y-68795043D01*
X174785631Y-68795046D01*
X174840628Y-68942497D01*
X174885635Y-69063166D01*
X175022770Y-69314309D01*
X175022775Y-69314317D01*
X175194254Y-69543387D01*
X175194270Y-69543405D01*
X175396594Y-69745729D01*
X175396612Y-69745745D01*
X175625682Y-69917224D01*
X175625690Y-69917229D01*
X175876833Y-70054364D01*
X175876832Y-70054364D01*
X175876836Y-70054365D01*
X175876839Y-70054367D01*
X176144954Y-70154369D01*
X176144960Y-70154370D01*
X176144962Y-70154371D01*
X176424566Y-70215195D01*
X176424568Y-70215195D01*
X176424572Y-70215196D01*
X176678220Y-70233337D01*
X176709999Y-70235610D01*
X176710000Y-70235610D01*
X176710001Y-70235610D01*
X176738595Y-70233564D01*
X176995428Y-70215196D01*
X177051939Y-70202903D01*
X177275037Y-70154371D01*
X177275037Y-70154370D01*
X177275046Y-70154369D01*
X177543161Y-70054367D01*
X177794315Y-69917226D01*
X178023395Y-69745739D01*
X178225739Y-69543395D01*
X178259047Y-69498901D01*
X178276233Y-69475943D01*
X178332166Y-69434071D01*
X178401858Y-69429087D01*
X178463181Y-69462571D01*
X178496666Y-69523894D01*
X178499500Y-69550253D01*
X178499500Y-71122154D01*
X178479815Y-71189193D01*
X178427011Y-71234948D01*
X178357853Y-71244892D01*
X178294297Y-71215867D01*
X178265945Y-71180237D01*
X178188118Y-71033442D01*
X178071735Y-70896426D01*
X178032669Y-70866729D01*
X177928618Y-70787631D01*
X177928616Y-70787630D01*
X177928615Y-70787629D01*
X177765457Y-70712145D01*
X177589887Y-70673500D01*
X177455184Y-70673500D01*
X177455182Y-70673500D01*
X177321278Y-70688063D01*
X177249806Y-70712145D01*
X177150915Y-70745465D01*
X177150913Y-70745465D01*
X177150913Y-70745466D01*
X176996876Y-70838147D01*
X176866356Y-70961781D01*
X176765471Y-71110575D01*
X176765470Y-71110576D01*
X176698929Y-71277583D01*
X176698928Y-71277587D01*
X176669845Y-71454986D01*
X176669844Y-71454989D01*
X176679577Y-71634501D01*
X176679578Y-71634506D01*
X176727670Y-71807718D01*
X176727674Y-71807726D01*
X176811881Y-71966557D01*
X176928264Y-72103573D01*
X176928265Y-72103574D01*
X177071382Y-72212369D01*
X177234541Y-72287854D01*
X177410113Y-72326500D01*
X177410116Y-72326500D01*
X177544810Y-72326500D01*
X177544816Y-72326500D01*
X177678721Y-72311937D01*
X177849085Y-72254535D01*
X178003126Y-72161851D01*
X178133642Y-72038220D01*
X178234529Y-71889423D01*
X178260306Y-71824725D01*
X178303407Y-71769733D01*
X178369396Y-71746772D01*
X178437323Y-71763133D01*
X178485622Y-71813621D01*
X178499500Y-71870622D01*
X178499500Y-80049746D01*
X178479815Y-80116785D01*
X178427011Y-80162540D01*
X178357853Y-80172484D01*
X178294297Y-80143459D01*
X178276233Y-80124057D01*
X178269944Y-80115656D01*
X178225739Y-80056605D01*
X178225734Y-80056600D01*
X178225729Y-80056594D01*
X178023405Y-79854270D01*
X178023387Y-79854254D01*
X177794317Y-79682775D01*
X177794309Y-79682770D01*
X177543166Y-79545635D01*
X177543167Y-79545635D01*
X177435914Y-79505632D01*
X177275046Y-79445631D01*
X177275043Y-79445630D01*
X177275037Y-79445628D01*
X176995433Y-79384804D01*
X176710001Y-79364390D01*
X176709999Y-79364390D01*
X176424566Y-79384804D01*
X176144962Y-79445628D01*
X175876833Y-79545635D01*
X175625690Y-79682770D01*
X175625682Y-79682775D01*
X175396612Y-79854254D01*
X175396594Y-79854270D01*
X175194270Y-80056594D01*
X175194254Y-80056612D01*
X175022775Y-80285682D01*
X175022770Y-80285690D01*
X174885635Y-80536833D01*
X174785628Y-80804962D01*
X174724804Y-81084566D01*
X174704390Y-81369998D01*
X174704390Y-81370001D01*
X174724804Y-81655433D01*
X174785628Y-81935037D01*
X174785630Y-81935043D01*
X174785631Y-81935046D01*
X174879718Y-82187303D01*
X174885635Y-82203166D01*
X175022770Y-82454309D01*
X175022775Y-82454317D01*
X175194254Y-82683387D01*
X175194270Y-82683405D01*
X175396594Y-82885729D01*
X175396612Y-82885745D01*
X175625682Y-83057224D01*
X175625690Y-83057229D01*
X175876833Y-83194364D01*
X175876832Y-83194364D01*
X175876836Y-83194365D01*
X175876839Y-83194367D01*
X176144954Y-83294369D01*
X176144960Y-83294370D01*
X176144962Y-83294371D01*
X176424566Y-83355195D01*
X176424568Y-83355195D01*
X176424572Y-83355196D01*
X176678220Y-83373337D01*
X176709999Y-83375610D01*
X176710000Y-83375610D01*
X176710001Y-83375610D01*
X176738595Y-83373564D01*
X176995428Y-83355196D01*
X177068575Y-83339284D01*
X177275037Y-83294371D01*
X177275037Y-83294370D01*
X177275046Y-83294369D01*
X177543161Y-83194367D01*
X177794315Y-83057226D01*
X178023395Y-82885739D01*
X178225739Y-82683395D01*
X178276232Y-82615943D01*
X178332166Y-82574071D01*
X178401858Y-82569087D01*
X178463181Y-82602571D01*
X178496666Y-82663894D01*
X178499500Y-82690253D01*
X178499500Y-108372154D01*
X178479815Y-108439193D01*
X178427011Y-108484948D01*
X178357853Y-108494892D01*
X178294297Y-108465867D01*
X178265945Y-108430237D01*
X178188118Y-108283442D01*
X178071735Y-108146426D01*
X177995070Y-108088147D01*
X177928618Y-108037631D01*
X177928616Y-108037630D01*
X177928615Y-108037629D01*
X177765457Y-107962145D01*
X177589887Y-107923500D01*
X177455184Y-107923500D01*
X177455182Y-107923500D01*
X177321278Y-107938063D01*
X177254050Y-107960715D01*
X177150915Y-107995465D01*
X177150913Y-107995465D01*
X177150913Y-107995466D01*
X176996876Y-108088147D01*
X176866356Y-108211781D01*
X176765471Y-108360575D01*
X176765470Y-108360576D01*
X176698929Y-108527583D01*
X176698928Y-108527587D01*
X176669845Y-108704986D01*
X176669844Y-108704989D01*
X176679577Y-108884501D01*
X176679578Y-108884506D01*
X176727670Y-109057718D01*
X176727674Y-109057726D01*
X176811881Y-109216557D01*
X176888550Y-109306818D01*
X176928265Y-109353574D01*
X177071382Y-109462369D01*
X177234541Y-109537854D01*
X177410113Y-109576500D01*
X177410116Y-109576500D01*
X177544810Y-109576500D01*
X177544816Y-109576500D01*
X177678721Y-109561937D01*
X177849085Y-109504535D01*
X178003126Y-109411851D01*
X178133642Y-109288220D01*
X178234529Y-109139423D01*
X178260306Y-109074725D01*
X178303407Y-109019733D01*
X178369396Y-108996772D01*
X178437323Y-109013133D01*
X178485622Y-109063621D01*
X178499500Y-109120622D01*
X178499500Y-110559897D01*
X178479815Y-110626936D01*
X178427011Y-110672691D01*
X178357853Y-110682635D01*
X178294297Y-110653610D01*
X178276234Y-110634208D01*
X178207547Y-110542455D01*
X178207544Y-110542452D01*
X178092335Y-110456206D01*
X178092328Y-110456202D01*
X177957482Y-110405908D01*
X177957483Y-110405908D01*
X177897883Y-110399501D01*
X177897881Y-110399500D01*
X177897873Y-110399500D01*
X177897864Y-110399500D01*
X177102129Y-110399500D01*
X177102123Y-110399501D01*
X177042516Y-110405908D01*
X176907671Y-110456202D01*
X176907664Y-110456206D01*
X176792455Y-110542452D01*
X176792452Y-110542455D01*
X176706206Y-110657664D01*
X176706202Y-110657671D01*
X176655908Y-110792517D01*
X176650313Y-110844561D01*
X176649501Y-110852123D01*
X176649500Y-110852135D01*
X176649500Y-112247870D01*
X176649501Y-112247876D01*
X176655908Y-112307483D01*
X176706202Y-112442328D01*
X176706206Y-112442335D01*
X176792452Y-112557544D01*
X176792455Y-112557547D01*
X176907664Y-112643793D01*
X176907671Y-112643797D01*
X177042517Y-112694091D01*
X177042516Y-112694091D01*
X177043949Y-112694245D01*
X177102127Y-112700500D01*
X177897872Y-112700499D01*
X177957483Y-112694091D01*
X178092331Y-112643796D01*
X178207546Y-112557546D01*
X178242443Y-112510928D01*
X178298375Y-112469058D01*
X178368067Y-112464074D01*
X178429390Y-112497558D01*
X178462875Y-112558881D01*
X178462875Y-112611597D01*
X178440646Y-112713786D01*
X178435662Y-112730763D01*
X178367090Y-112914609D01*
X178359740Y-112930701D01*
X178265711Y-113102904D01*
X178256146Y-113117789D01*
X178138558Y-113274867D01*
X178126972Y-113288237D01*
X177988237Y-113426972D01*
X177974867Y-113438558D01*
X177817789Y-113556146D01*
X177802904Y-113565711D01*
X177630701Y-113659740D01*
X177614609Y-113667090D01*
X177430763Y-113735662D01*
X177413787Y-113740646D01*
X177222068Y-113782351D01*
X177204557Y-113784869D01*
X177023733Y-113797802D01*
X177002208Y-113799342D01*
X176997786Y-113799500D01*
X132002214Y-113799500D01*
X131997791Y-113799342D01*
X131973413Y-113797598D01*
X131795442Y-113784869D01*
X131777931Y-113782351D01*
X131586212Y-113740646D01*
X131569236Y-113735662D01*
X131385390Y-113667090D01*
X131369298Y-113659740D01*
X131197095Y-113565711D01*
X131182210Y-113556146D01*
X131025132Y-113438558D01*
X131011762Y-113426972D01*
X130873027Y-113288237D01*
X130861441Y-113274867D01*
X130823063Y-113223600D01*
X130743849Y-113117784D01*
X130734288Y-113102904D01*
X130640259Y-112930701D01*
X130632909Y-112914609D01*
X130610731Y-112855147D01*
X130564334Y-112730755D01*
X130559355Y-112713797D01*
X130517647Y-112522063D01*
X130515130Y-112504556D01*
X130514950Y-112502041D01*
X130500657Y-112302208D01*
X130500579Y-112300000D01*
X130839364Y-112300000D01*
X130896567Y-112513486D01*
X130896570Y-112513492D01*
X130996399Y-112727578D01*
X131131894Y-112921082D01*
X131298917Y-113088105D01*
X131492421Y-113223600D01*
X131706507Y-113323429D01*
X131706516Y-113323433D01*
X131920000Y-113380634D01*
X131920000Y-112485501D01*
X132027685Y-112534680D01*
X132134237Y-112550000D01*
X132205763Y-112550000D01*
X132312315Y-112534680D01*
X132419999Y-112485501D01*
X132419999Y-113380633D01*
X132633483Y-113323433D01*
X132633492Y-113323429D01*
X132847578Y-113223600D01*
X133041082Y-113088105D01*
X133208105Y-112921082D01*
X133343600Y-112727578D01*
X133443429Y-112513492D01*
X133443431Y-112513489D01*
X133452406Y-112479992D01*
X133488770Y-112420331D01*
X133551616Y-112389800D01*
X133620992Y-112398094D01*
X133674871Y-112442578D01*
X133683182Y-112456811D01*
X133770327Y-112631821D01*
X133893237Y-112794581D01*
X134043958Y-112931980D01*
X134043960Y-112931982D01*
X134143141Y-112993392D01*
X134217363Y-113039348D01*
X134407544Y-113113024D01*
X134608024Y-113150500D01*
X134608026Y-113150500D01*
X134811974Y-113150500D01*
X134811976Y-113150500D01*
X135012456Y-113113024D01*
X135202637Y-113039348D01*
X135376041Y-112931981D01*
X135384052Y-112924678D01*
X136149500Y-112924678D01*
X136164032Y-112997735D01*
X136164033Y-112997739D01*
X136164034Y-112997740D01*
X136219399Y-113080601D01*
X136275056Y-113117789D01*
X136302260Y-113135966D01*
X136302264Y-113135967D01*
X136375321Y-113150499D01*
X136375324Y-113150500D01*
X136375326Y-113150500D01*
X138124676Y-113150500D01*
X138124677Y-113150499D01*
X138197740Y-113135966D01*
X138280601Y-113080601D01*
X138335966Y-112997740D01*
X138350500Y-112924674D01*
X138350500Y-112300000D01*
X139839364Y-112300000D01*
X139896567Y-112513486D01*
X139896570Y-112513492D01*
X139996399Y-112727578D01*
X140131894Y-112921082D01*
X140298917Y-113088105D01*
X140492421Y-113223600D01*
X140706507Y-113323429D01*
X140706516Y-113323433D01*
X140920000Y-113380634D01*
X140920000Y-112485501D01*
X141027685Y-112534680D01*
X141134237Y-112550000D01*
X141205763Y-112550000D01*
X141312315Y-112534680D01*
X141420000Y-112485501D01*
X141420000Y-113380633D01*
X141633483Y-113323433D01*
X141633492Y-113323429D01*
X141847578Y-113223600D01*
X142041082Y-113088105D01*
X142208105Y-112921082D01*
X142343600Y-112727578D01*
X142443429Y-112513492D01*
X142443431Y-112513489D01*
X142452406Y-112479992D01*
X142488770Y-112420331D01*
X142551616Y-112389800D01*
X142620992Y-112398094D01*
X142674871Y-112442578D01*
X142683182Y-112456811D01*
X142770327Y-112631821D01*
X142893237Y-112794581D01*
X143043958Y-112931980D01*
X143043960Y-112931982D01*
X143143141Y-112993392D01*
X143217363Y-113039348D01*
X143407544Y-113113024D01*
X143608024Y-113150500D01*
X143608026Y-113150500D01*
X143811974Y-113150500D01*
X143811976Y-113150500D01*
X144012456Y-113113024D01*
X144202637Y-113039348D01*
X144376041Y-112931981D01*
X144384054Y-112924676D01*
X145149499Y-112924676D01*
X145149500Y-112924678D01*
X145164032Y-112997735D01*
X145164033Y-112997739D01*
X145164034Y-112997740D01*
X145219399Y-113080601D01*
X145275056Y-113117789D01*
X145302260Y-113135966D01*
X145302264Y-113135967D01*
X145375321Y-113150499D01*
X145375324Y-113150500D01*
X145375326Y-113150500D01*
X147124676Y-113150500D01*
X147124677Y-113150499D01*
X147197740Y-113135966D01*
X147280601Y-113080601D01*
X147335966Y-112997740D01*
X147350500Y-112924674D01*
X147350500Y-112300000D01*
X148839364Y-112300000D01*
X148896567Y-112513486D01*
X148896570Y-112513492D01*
X148996399Y-112727578D01*
X149131894Y-112921082D01*
X149298917Y-113088105D01*
X149492421Y-113223600D01*
X149706507Y-113323429D01*
X149706516Y-113323433D01*
X149920000Y-113380634D01*
X149920000Y-112485501D01*
X150027685Y-112534680D01*
X150134237Y-112550000D01*
X150205763Y-112550000D01*
X150312315Y-112534680D01*
X150420000Y-112485501D01*
X150420000Y-113380633D01*
X150633483Y-113323433D01*
X150633492Y-113323429D01*
X150847578Y-113223600D01*
X151041082Y-113088105D01*
X151208105Y-112921082D01*
X151343600Y-112727578D01*
X151443429Y-112513492D01*
X151443431Y-112513489D01*
X151452406Y-112479992D01*
X151488770Y-112420331D01*
X151551616Y-112389800D01*
X151620992Y-112398094D01*
X151674871Y-112442578D01*
X151683182Y-112456811D01*
X151770327Y-112631821D01*
X151893237Y-112794581D01*
X152043958Y-112931980D01*
X152043960Y-112931982D01*
X152143141Y-112993392D01*
X152217363Y-113039348D01*
X152407544Y-113113024D01*
X152608024Y-113150500D01*
X152608026Y-113150500D01*
X152811974Y-113150500D01*
X152811976Y-113150500D01*
X153012456Y-113113024D01*
X153202637Y-113039348D01*
X153376041Y-112931981D01*
X153384054Y-112924676D01*
X154149499Y-112924676D01*
X154149500Y-112924678D01*
X154164032Y-112997735D01*
X154164033Y-112997739D01*
X154164034Y-112997740D01*
X154219399Y-113080601D01*
X154275056Y-113117789D01*
X154302260Y-113135966D01*
X154302264Y-113135967D01*
X154375321Y-113150499D01*
X154375324Y-113150500D01*
X154375326Y-113150500D01*
X156124676Y-113150500D01*
X156124677Y-113150499D01*
X156197740Y-113135966D01*
X156280601Y-113080601D01*
X156335966Y-112997740D01*
X156350500Y-112924674D01*
X156350500Y-111902398D01*
X158900000Y-111902398D01*
X158914965Y-112059122D01*
X158914966Y-112059126D01*
X158974149Y-112260686D01*
X159070413Y-112447414D01*
X159200268Y-112612537D01*
X159200271Y-112612540D01*
X159359030Y-112750105D01*
X159359041Y-112750114D01*
X159540960Y-112855144D01*
X159540967Y-112855147D01*
X159739487Y-112923856D01*
X159750000Y-112925367D01*
X159750000Y-111865685D01*
X159761955Y-111877641D01*
X159874852Y-111935165D01*
X159968519Y-111950000D01*
X160031481Y-111950000D01*
X160125148Y-111935165D01*
X160238045Y-111877641D01*
X160250000Y-111865686D01*
X160250000Y-112921257D01*
X160361409Y-112894229D01*
X160552507Y-112806959D01*
X160723619Y-112685110D01*
X160723625Y-112685104D01*
X160868592Y-112533067D01*
X160982167Y-112356341D01*
X161021242Y-112258735D01*
X161064432Y-112203813D01*
X161130459Y-112180960D01*
X161198359Y-112197432D01*
X161242610Y-112240891D01*
X161318931Y-112367737D01*
X161318932Y-112367738D01*
X161446149Y-112502040D01*
X161463040Y-112513492D01*
X161599270Y-112605858D01*
X161599273Y-112605859D01*
X161599276Y-112605861D01*
X161771122Y-112674330D01*
X161771125Y-112674331D01*
X161953683Y-112704260D01*
X162138407Y-112694245D01*
X162138411Y-112694244D01*
X162316656Y-112644755D01*
X162316656Y-112644754D01*
X162316659Y-112644754D01*
X162480104Y-112558100D01*
X162621100Y-112438337D01*
X162733054Y-112291064D01*
X162810732Y-112123167D01*
X162850500Y-111942497D01*
X162850500Y-111896116D01*
X163149500Y-111896116D01*
X163164486Y-112033910D01*
X163222905Y-112207290D01*
X163223557Y-112209223D01*
X163223558Y-112209225D01*
X163253347Y-112258735D01*
X163282677Y-112307483D01*
X163318931Y-112367737D01*
X163318932Y-112367738D01*
X163446149Y-112502040D01*
X163463040Y-112513492D01*
X163599270Y-112605858D01*
X163599273Y-112605859D01*
X163599276Y-112605861D01*
X163771122Y-112674330D01*
X163771125Y-112674331D01*
X163953683Y-112704260D01*
X164138407Y-112694245D01*
X164138411Y-112694244D01*
X164316656Y-112644755D01*
X164316656Y-112644754D01*
X164316659Y-112644754D01*
X164480104Y-112558100D01*
X164621100Y-112438337D01*
X164733054Y-112291064D01*
X164753038Y-112247870D01*
X165149500Y-112247870D01*
X165149501Y-112247876D01*
X165155908Y-112307483D01*
X165206202Y-112442328D01*
X165206206Y-112442335D01*
X165292452Y-112557544D01*
X165292455Y-112557547D01*
X165407664Y-112643793D01*
X165407671Y-112643797D01*
X165542517Y-112694091D01*
X165542516Y-112694091D01*
X165543949Y-112694245D01*
X165602127Y-112700500D01*
X166397872Y-112700499D01*
X166457483Y-112694091D01*
X166592331Y-112643796D01*
X166707546Y-112557546D01*
X166793796Y-112442331D01*
X166844091Y-112307483D01*
X166850500Y-112247873D01*
X166850500Y-111902398D01*
X170400000Y-111902398D01*
X170414965Y-112059122D01*
X170414966Y-112059126D01*
X170474149Y-112260686D01*
X170570413Y-112447414D01*
X170700268Y-112612537D01*
X170700271Y-112612540D01*
X170859030Y-112750105D01*
X170859041Y-112750114D01*
X171040960Y-112855144D01*
X171040967Y-112855147D01*
X171239487Y-112923856D01*
X171250000Y-112925367D01*
X171250000Y-111865685D01*
X171261955Y-111877641D01*
X171374852Y-111935165D01*
X171468519Y-111950000D01*
X171531481Y-111950000D01*
X171625148Y-111935165D01*
X171738045Y-111877641D01*
X171750000Y-111865686D01*
X171750000Y-112921257D01*
X171861409Y-112894229D01*
X172052507Y-112806959D01*
X172223619Y-112685110D01*
X172223625Y-112685104D01*
X172368592Y-112533067D01*
X172482167Y-112356341D01*
X172521242Y-112258735D01*
X172564432Y-112203813D01*
X172630459Y-112180960D01*
X172698359Y-112197432D01*
X172742610Y-112240891D01*
X172818931Y-112367737D01*
X172818932Y-112367738D01*
X172946149Y-112502040D01*
X172963040Y-112513492D01*
X173099270Y-112605858D01*
X173099273Y-112605859D01*
X173099276Y-112605861D01*
X173271122Y-112674330D01*
X173271125Y-112674331D01*
X173453683Y-112704260D01*
X173638407Y-112694245D01*
X173638411Y-112694244D01*
X173816656Y-112644755D01*
X173816656Y-112644754D01*
X173816659Y-112644754D01*
X173980104Y-112558100D01*
X174121100Y-112438337D01*
X174233054Y-112291064D01*
X174310732Y-112123167D01*
X174350500Y-111942497D01*
X174350500Y-111896116D01*
X174649500Y-111896116D01*
X174664486Y-112033910D01*
X174722905Y-112207290D01*
X174723557Y-112209223D01*
X174723558Y-112209225D01*
X174753347Y-112258735D01*
X174782677Y-112307483D01*
X174818931Y-112367737D01*
X174818932Y-112367738D01*
X174946149Y-112502040D01*
X174963040Y-112513492D01*
X175099270Y-112605858D01*
X175099273Y-112605859D01*
X175099276Y-112605861D01*
X175271122Y-112674330D01*
X175271125Y-112674331D01*
X175453683Y-112704260D01*
X175638407Y-112694245D01*
X175638411Y-112694244D01*
X175816656Y-112644755D01*
X175816656Y-112644754D01*
X175816659Y-112644754D01*
X175980104Y-112558100D01*
X176121100Y-112438337D01*
X176233054Y-112291064D01*
X176310732Y-112123167D01*
X176350500Y-111942497D01*
X176350500Y-111203887D01*
X176335514Y-111066090D01*
X176276444Y-110890779D01*
X176181070Y-110732264D01*
X176134059Y-110682635D01*
X176053850Y-110597959D01*
X175980947Y-110548530D01*
X175900730Y-110494142D01*
X175900727Y-110494140D01*
X175900723Y-110494138D01*
X175728877Y-110425669D01*
X175655851Y-110413697D01*
X175546317Y-110395740D01*
X175546314Y-110395740D01*
X175361593Y-110405755D01*
X175361588Y-110405755D01*
X175183343Y-110455244D01*
X175183337Y-110455247D01*
X175019897Y-110541898D01*
X174878900Y-110661662D01*
X174766946Y-110808936D01*
X174689268Y-110976832D01*
X174689266Y-110976836D01*
X174649500Y-111157502D01*
X174649500Y-111896116D01*
X174350500Y-111896116D01*
X174350500Y-111203887D01*
X174335514Y-111066090D01*
X174276444Y-110890779D01*
X174181070Y-110732264D01*
X174134059Y-110682635D01*
X174053850Y-110597959D01*
X173980947Y-110548530D01*
X173900730Y-110494142D01*
X173900727Y-110494140D01*
X173900723Y-110494138D01*
X173728877Y-110425669D01*
X173655851Y-110413697D01*
X173546317Y-110395740D01*
X173546314Y-110395740D01*
X173361593Y-110405755D01*
X173361588Y-110405755D01*
X173183343Y-110455244D01*
X173183337Y-110455247D01*
X173019897Y-110541898D01*
X172878900Y-110661662D01*
X172766945Y-110808936D01*
X172766945Y-110808937D01*
X172751937Y-110841376D01*
X172705922Y-110893953D01*
X172638786Y-110913305D01*
X172571845Y-110893290D01*
X172529585Y-110844030D01*
X172528556Y-110844561D01*
X172429586Y-110652585D01*
X172299731Y-110487462D01*
X172299728Y-110487459D01*
X172140969Y-110349894D01*
X172140958Y-110349885D01*
X171959039Y-110244855D01*
X171959032Y-110244852D01*
X171760516Y-110176144D01*
X171750000Y-110174632D01*
X171750000Y-111234314D01*
X171738045Y-111222359D01*
X171625148Y-111164835D01*
X171531481Y-111150000D01*
X171468519Y-111150000D01*
X171374852Y-111164835D01*
X171261955Y-111222359D01*
X171250000Y-111234314D01*
X171250000Y-110178740D01*
X171249999Y-110178740D01*
X171138594Y-110205768D01*
X171138582Y-110205772D01*
X170947497Y-110293037D01*
X170947496Y-110293038D01*
X170776380Y-110414889D01*
X170776374Y-110414895D01*
X170631407Y-110566932D01*
X170517833Y-110743657D01*
X170439755Y-110938685D01*
X170400000Y-111144962D01*
X170400000Y-111300000D01*
X171184314Y-111300000D01*
X171172359Y-111311955D01*
X171114835Y-111424852D01*
X171095014Y-111550000D01*
X171114835Y-111675148D01*
X171172359Y-111788045D01*
X171184314Y-111800000D01*
X170400000Y-111800000D01*
X170400000Y-111902398D01*
X166850500Y-111902398D01*
X166850499Y-110852128D01*
X166844091Y-110792517D01*
X166838143Y-110776570D01*
X166793797Y-110657671D01*
X166793793Y-110657664D01*
X166707547Y-110542455D01*
X166707544Y-110542452D01*
X166592335Y-110456206D01*
X166592328Y-110456202D01*
X166457482Y-110405908D01*
X166457483Y-110405908D01*
X166397883Y-110399501D01*
X166397881Y-110399500D01*
X166397873Y-110399500D01*
X166397864Y-110399500D01*
X165602129Y-110399500D01*
X165602123Y-110399501D01*
X165542516Y-110405908D01*
X165407671Y-110456202D01*
X165407664Y-110456206D01*
X165292455Y-110542452D01*
X165292452Y-110542455D01*
X165206206Y-110657664D01*
X165206202Y-110657671D01*
X165155908Y-110792517D01*
X165150313Y-110844561D01*
X165149501Y-110852123D01*
X165149500Y-110852135D01*
X165149500Y-112247870D01*
X164753038Y-112247870D01*
X164810732Y-112123167D01*
X164850500Y-111942497D01*
X164850500Y-111203887D01*
X164835514Y-111066090D01*
X164776444Y-110890779D01*
X164681070Y-110732264D01*
X164634059Y-110682635D01*
X164553850Y-110597959D01*
X164480947Y-110548530D01*
X164400730Y-110494142D01*
X164400727Y-110494140D01*
X164400723Y-110494138D01*
X164228877Y-110425669D01*
X164155851Y-110413697D01*
X164046317Y-110395740D01*
X164046314Y-110395740D01*
X163861593Y-110405755D01*
X163861588Y-110405755D01*
X163683343Y-110455244D01*
X163683337Y-110455247D01*
X163519897Y-110541898D01*
X163378900Y-110661662D01*
X163266946Y-110808936D01*
X163189268Y-110976832D01*
X163189266Y-110976836D01*
X163149500Y-111157502D01*
X163149500Y-111896116D01*
X162850500Y-111896116D01*
X162850500Y-111203887D01*
X162835514Y-111066090D01*
X162776444Y-110890779D01*
X162681070Y-110732264D01*
X162634059Y-110682635D01*
X162553850Y-110597959D01*
X162480947Y-110548530D01*
X162400730Y-110494142D01*
X162400727Y-110494140D01*
X162400723Y-110494138D01*
X162228877Y-110425669D01*
X162155851Y-110413697D01*
X162046317Y-110395740D01*
X162046314Y-110395740D01*
X161861593Y-110405755D01*
X161861588Y-110405755D01*
X161683343Y-110455244D01*
X161683337Y-110455247D01*
X161519897Y-110541898D01*
X161378900Y-110661662D01*
X161266945Y-110808936D01*
X161266945Y-110808937D01*
X161251937Y-110841376D01*
X161205922Y-110893953D01*
X161138786Y-110913305D01*
X161071845Y-110893290D01*
X161029585Y-110844030D01*
X161028556Y-110844561D01*
X160929586Y-110652585D01*
X160799731Y-110487462D01*
X160799728Y-110487459D01*
X160640969Y-110349894D01*
X160640958Y-110349885D01*
X160459039Y-110244855D01*
X160459032Y-110244852D01*
X160260516Y-110176144D01*
X160250000Y-110174632D01*
X160250000Y-111234314D01*
X160238045Y-111222359D01*
X160125148Y-111164835D01*
X160031481Y-111150000D01*
X159968519Y-111150000D01*
X159874852Y-111164835D01*
X159761955Y-111222359D01*
X159750000Y-111234313D01*
X159750000Y-110178740D01*
X159749999Y-110178740D01*
X159638594Y-110205768D01*
X159638582Y-110205772D01*
X159447497Y-110293037D01*
X159447496Y-110293038D01*
X159276380Y-110414889D01*
X159276374Y-110414895D01*
X159131407Y-110566932D01*
X159017833Y-110743657D01*
X158939755Y-110938685D01*
X158900000Y-111144962D01*
X158900000Y-111300000D01*
X159684314Y-111300000D01*
X159672359Y-111311955D01*
X159614835Y-111424852D01*
X159595014Y-111550000D01*
X159614835Y-111675148D01*
X159672359Y-111788045D01*
X159684314Y-111800000D01*
X158900000Y-111800000D01*
X158900000Y-111902398D01*
X156350500Y-111902398D01*
X156350500Y-111175326D01*
X156350500Y-111175323D01*
X156350499Y-111175321D01*
X156335967Y-111102264D01*
X156335966Y-111102260D01*
X156311797Y-111066088D01*
X156280601Y-111019399D01*
X156216900Y-110976836D01*
X156197739Y-110964033D01*
X156197735Y-110964032D01*
X156124677Y-110949500D01*
X156124674Y-110949500D01*
X154375326Y-110949500D01*
X154375323Y-110949500D01*
X154302264Y-110964032D01*
X154302260Y-110964033D01*
X154219399Y-111019399D01*
X154164033Y-111102260D01*
X154164032Y-111102264D01*
X154149500Y-111175321D01*
X154149499Y-111175323D01*
X154149499Y-112924676D01*
X153384054Y-112924676D01*
X153526764Y-112794579D01*
X153649673Y-112631821D01*
X153740582Y-112449250D01*
X153796397Y-112253083D01*
X153815215Y-112050000D01*
X153796397Y-111846917D01*
X153740582Y-111650750D01*
X153725274Y-111620008D01*
X153690415Y-111550000D01*
X153649673Y-111468179D01*
X153526764Y-111305421D01*
X153526762Y-111305418D01*
X153376041Y-111168019D01*
X153376039Y-111168017D01*
X153202642Y-111060655D01*
X153202635Y-111060651D01*
X153076769Y-111011891D01*
X153012456Y-110986976D01*
X152811976Y-110949500D01*
X152608024Y-110949500D01*
X152407544Y-110986976D01*
X152407541Y-110986976D01*
X152407541Y-110986977D01*
X152217364Y-111060651D01*
X152217357Y-111060655D01*
X152043960Y-111168017D01*
X152043958Y-111168019D01*
X151893237Y-111305418D01*
X151770327Y-111468178D01*
X151683182Y-111643188D01*
X151635679Y-111694425D01*
X151568016Y-111711846D01*
X151501676Y-111689920D01*
X151457721Y-111635609D01*
X151452407Y-111620008D01*
X151443434Y-111586518D01*
X151443429Y-111586507D01*
X151343600Y-111372422D01*
X151343599Y-111372420D01*
X151208113Y-111178926D01*
X151208108Y-111178920D01*
X151041082Y-111011894D01*
X150847578Y-110876399D01*
X150633492Y-110776570D01*
X150633486Y-110776567D01*
X150420000Y-110719364D01*
X150420000Y-111614498D01*
X150312315Y-111565320D01*
X150205763Y-111550000D01*
X150134237Y-111550000D01*
X150027685Y-111565320D01*
X149920000Y-111614498D01*
X149920000Y-110719364D01*
X149919999Y-110719364D01*
X149706513Y-110776567D01*
X149706507Y-110776570D01*
X149492422Y-110876399D01*
X149492420Y-110876400D01*
X149298926Y-111011886D01*
X149298920Y-111011891D01*
X149131891Y-111178920D01*
X149131886Y-111178926D01*
X148996400Y-111372420D01*
X148996399Y-111372422D01*
X148896570Y-111586507D01*
X148896567Y-111586513D01*
X148839364Y-111799999D01*
X148839364Y-111800000D01*
X149736314Y-111800000D01*
X149710507Y-111840156D01*
X149670000Y-111978111D01*
X149670000Y-112121889D01*
X149710507Y-112259844D01*
X149736314Y-112300000D01*
X148839364Y-112300000D01*
X147350500Y-112300000D01*
X147350500Y-111175326D01*
X147350500Y-111175323D01*
X147350499Y-111175321D01*
X147335967Y-111102264D01*
X147335966Y-111102260D01*
X147311797Y-111066088D01*
X147280601Y-111019399D01*
X147216900Y-110976836D01*
X147197739Y-110964033D01*
X147197735Y-110964032D01*
X147124677Y-110949500D01*
X147124674Y-110949500D01*
X145375326Y-110949500D01*
X145375323Y-110949500D01*
X145302264Y-110964032D01*
X145302260Y-110964033D01*
X145219399Y-111019399D01*
X145164033Y-111102260D01*
X145164032Y-111102264D01*
X145149500Y-111175321D01*
X145149499Y-111175323D01*
X145149499Y-112924676D01*
X144384054Y-112924676D01*
X144526764Y-112794579D01*
X144649673Y-112631821D01*
X144740582Y-112449250D01*
X144796397Y-112253083D01*
X144815215Y-112050000D01*
X144796397Y-111846917D01*
X144740582Y-111650750D01*
X144725274Y-111620008D01*
X144690415Y-111550000D01*
X144649673Y-111468179D01*
X144526764Y-111305421D01*
X144526762Y-111305418D01*
X144376041Y-111168019D01*
X144376039Y-111168017D01*
X144202642Y-111060655D01*
X144202635Y-111060651D01*
X144076769Y-111011891D01*
X144012456Y-110986976D01*
X143811976Y-110949500D01*
X143608024Y-110949500D01*
X143407544Y-110986976D01*
X143407541Y-110986976D01*
X143407541Y-110986977D01*
X143217364Y-111060651D01*
X143217357Y-111060655D01*
X143043960Y-111168017D01*
X143043958Y-111168019D01*
X142893237Y-111305418D01*
X142770327Y-111468178D01*
X142683182Y-111643188D01*
X142635679Y-111694425D01*
X142568016Y-111711846D01*
X142501676Y-111689920D01*
X142457721Y-111635609D01*
X142452407Y-111620008D01*
X142443434Y-111586518D01*
X142443429Y-111586507D01*
X142343600Y-111372422D01*
X142343599Y-111372420D01*
X142208113Y-111178926D01*
X142208108Y-111178920D01*
X142041082Y-111011894D01*
X141847578Y-110876399D01*
X141633492Y-110776570D01*
X141633486Y-110776567D01*
X141420000Y-110719364D01*
X141420000Y-111614498D01*
X141312315Y-111565320D01*
X141205763Y-111550000D01*
X141134237Y-111550000D01*
X141027685Y-111565320D01*
X140920000Y-111614498D01*
X140920000Y-110719364D01*
X140919999Y-110719364D01*
X140706513Y-110776567D01*
X140706507Y-110776570D01*
X140492422Y-110876399D01*
X140492420Y-110876400D01*
X140298926Y-111011886D01*
X140298920Y-111011891D01*
X140131891Y-111178920D01*
X140131886Y-111178926D01*
X139996400Y-111372420D01*
X139996399Y-111372422D01*
X139896570Y-111586507D01*
X139896567Y-111586513D01*
X139839364Y-111799999D01*
X139839364Y-111800000D01*
X140736314Y-111800000D01*
X140710507Y-111840156D01*
X140670000Y-111978111D01*
X140670000Y-112121889D01*
X140710507Y-112259844D01*
X140736314Y-112300000D01*
X139839364Y-112300000D01*
X138350500Y-112300000D01*
X138350500Y-111175326D01*
X138350500Y-111175323D01*
X138350499Y-111175321D01*
X138335967Y-111102264D01*
X138335966Y-111102260D01*
X138311797Y-111066088D01*
X138280601Y-111019399D01*
X138216900Y-110976836D01*
X138197739Y-110964033D01*
X138197735Y-110964032D01*
X138124677Y-110949500D01*
X138124674Y-110949500D01*
X136375326Y-110949500D01*
X136375323Y-110949500D01*
X136302264Y-110964032D01*
X136302260Y-110964033D01*
X136219399Y-111019399D01*
X136164033Y-111102260D01*
X136164032Y-111102264D01*
X136149500Y-111175321D01*
X136149500Y-112924678D01*
X135384052Y-112924678D01*
X135526764Y-112794579D01*
X135649673Y-112631821D01*
X135740582Y-112449250D01*
X135796397Y-112253083D01*
X135815215Y-112050000D01*
X135796397Y-111846917D01*
X135740582Y-111650750D01*
X135725274Y-111620008D01*
X135690415Y-111550000D01*
X135649673Y-111468179D01*
X135526764Y-111305421D01*
X135526762Y-111305418D01*
X135376041Y-111168019D01*
X135376039Y-111168017D01*
X135202642Y-111060655D01*
X135202635Y-111060651D01*
X135076769Y-111011891D01*
X135012456Y-110986976D01*
X134811976Y-110949500D01*
X134608024Y-110949500D01*
X134407544Y-110986976D01*
X134407541Y-110986976D01*
X134407541Y-110986977D01*
X134217364Y-111060651D01*
X134217357Y-111060655D01*
X134043960Y-111168017D01*
X134043958Y-111168019D01*
X133893237Y-111305418D01*
X133770327Y-111468178D01*
X133683182Y-111643188D01*
X133635679Y-111694425D01*
X133568016Y-111711846D01*
X133501676Y-111689920D01*
X133457721Y-111635609D01*
X133452407Y-111620008D01*
X133443434Y-111586518D01*
X133443429Y-111586507D01*
X133343600Y-111372422D01*
X133343599Y-111372420D01*
X133208113Y-111178926D01*
X133208108Y-111178920D01*
X133041082Y-111011894D01*
X132847578Y-110876399D01*
X132633492Y-110776570D01*
X132633486Y-110776567D01*
X132419999Y-110719364D01*
X132419999Y-111614498D01*
X132312315Y-111565320D01*
X132205763Y-111550000D01*
X132134237Y-111550000D01*
X132027685Y-111565320D01*
X131919999Y-111614498D01*
X131920000Y-110719364D01*
X131919999Y-110719364D01*
X131706513Y-110776567D01*
X131706507Y-110776570D01*
X131492422Y-110876399D01*
X131492420Y-110876400D01*
X131298926Y-111011886D01*
X131298920Y-111011891D01*
X131131891Y-111178920D01*
X131131886Y-111178926D01*
X130996400Y-111372420D01*
X130996399Y-111372422D01*
X130896570Y-111586507D01*
X130896567Y-111586513D01*
X130839364Y-111799999D01*
X130839364Y-111800000D01*
X131736314Y-111800000D01*
X131710507Y-111840156D01*
X131670000Y-111978111D01*
X131670000Y-112121889D01*
X131710507Y-112259844D01*
X131736314Y-112300000D01*
X130839364Y-112300000D01*
X130500579Y-112300000D01*
X130500500Y-112297786D01*
X130500500Y-108704989D01*
X131169844Y-108704989D01*
X131179577Y-108884501D01*
X131179578Y-108884506D01*
X131227670Y-109057718D01*
X131227674Y-109057726D01*
X131311881Y-109216557D01*
X131388550Y-109306818D01*
X131428265Y-109353574D01*
X131571382Y-109462369D01*
X131734541Y-109537854D01*
X131910113Y-109576500D01*
X131910116Y-109576500D01*
X132044810Y-109576500D01*
X132044816Y-109576500D01*
X132178721Y-109561937D01*
X132349085Y-109504535D01*
X132503126Y-109411851D01*
X132633642Y-109288220D01*
X132734529Y-109139423D01*
X132801070Y-108972416D01*
X132807282Y-108934530D01*
X132830155Y-108795010D01*
X132820422Y-108615498D01*
X132820421Y-108615493D01*
X132788355Y-108500000D01*
X145094722Y-108500000D01*
X145113762Y-108656818D01*
X145166172Y-108795010D01*
X145169780Y-108804523D01*
X145259517Y-108934530D01*
X145377760Y-109039283D01*
X145377762Y-109039284D01*
X145517634Y-109112696D01*
X145671014Y-109150500D01*
X145671015Y-109150500D01*
X145828985Y-109150500D01*
X145831014Y-109150000D01*
X157394722Y-109150000D01*
X157413762Y-109306818D01*
X157453597Y-109411852D01*
X157469780Y-109454523D01*
X157559517Y-109584530D01*
X157677760Y-109689283D01*
X157677762Y-109689284D01*
X157817634Y-109762696D01*
X157971014Y-109800500D01*
X157971015Y-109800500D01*
X158128985Y-109800500D01*
X158282365Y-109762696D01*
X158282364Y-109762695D01*
X158422240Y-109689283D01*
X158540483Y-109584530D01*
X158630220Y-109454523D01*
X158686237Y-109306818D01*
X158705278Y-109150000D01*
X158688660Y-109013133D01*
X158686237Y-108993181D01*
X158663993Y-108934528D01*
X158630220Y-108845477D01*
X158540483Y-108715470D01*
X158422240Y-108610717D01*
X158422238Y-108610716D01*
X158422237Y-108610715D01*
X158282365Y-108537303D01*
X158128986Y-108499500D01*
X158128985Y-108499500D01*
X157971015Y-108499500D01*
X157971014Y-108499500D01*
X157817634Y-108537303D01*
X157677762Y-108610715D01*
X157559516Y-108715471D01*
X157469781Y-108845475D01*
X157469780Y-108845476D01*
X157413762Y-108993181D01*
X157394722Y-109149999D01*
X157394722Y-109150000D01*
X145831014Y-109150000D01*
X145982365Y-109112696D01*
X146122240Y-109039283D01*
X146240483Y-108934530D01*
X146330220Y-108804523D01*
X146386237Y-108656818D01*
X146405278Y-108500000D01*
X146386237Y-108343182D01*
X146330220Y-108195477D01*
X146240483Y-108065470D01*
X146122240Y-107960717D01*
X146122238Y-107960716D01*
X146122237Y-107960715D01*
X145982365Y-107887303D01*
X145828986Y-107849500D01*
X145828985Y-107849500D01*
X145671015Y-107849500D01*
X145671014Y-107849500D01*
X145517634Y-107887303D01*
X145377762Y-107960715D01*
X145259516Y-108065471D01*
X145169781Y-108195475D01*
X145169780Y-108195476D01*
X145113762Y-108343181D01*
X145094722Y-108499999D01*
X145094722Y-108500000D01*
X132788355Y-108500000D01*
X132772329Y-108442281D01*
X132772325Y-108442273D01*
X132688118Y-108283442D01*
X132571735Y-108146426D01*
X132495070Y-108088147D01*
X132428618Y-108037631D01*
X132428616Y-108037630D01*
X132428615Y-108037629D01*
X132265457Y-107962145D01*
X132089887Y-107923500D01*
X131955184Y-107923500D01*
X131955182Y-107923500D01*
X131821278Y-107938063D01*
X131754050Y-107960715D01*
X131650915Y-107995465D01*
X131650913Y-107995465D01*
X131650913Y-107995466D01*
X131496876Y-108088147D01*
X131366356Y-108211781D01*
X131265471Y-108360575D01*
X131265470Y-108360576D01*
X131198929Y-108527583D01*
X131198928Y-108527587D01*
X131169845Y-108704986D01*
X131169844Y-108704989D01*
X130500500Y-108704989D01*
X130500500Y-106800000D01*
X150344722Y-106800000D01*
X150363762Y-106956818D01*
X150415601Y-107093503D01*
X150419780Y-107104523D01*
X150509517Y-107234530D01*
X150627760Y-107339283D01*
X150627762Y-107339284D01*
X150767634Y-107412696D01*
X150921014Y-107450500D01*
X150921015Y-107450500D01*
X151078985Y-107450500D01*
X151232365Y-107412696D01*
X151255602Y-107400500D01*
X151372240Y-107339283D01*
X151490483Y-107234530D01*
X151580220Y-107104523D01*
X151636237Y-106956818D01*
X151655278Y-106800000D01*
X151652243Y-106775000D01*
X151649207Y-106750000D01*
X153844722Y-106750000D01*
X153863762Y-106906818D01*
X153882725Y-106956818D01*
X153919780Y-107054523D01*
X154009517Y-107184530D01*
X154127760Y-107289283D01*
X154127762Y-107289284D01*
X154267634Y-107362696D01*
X154421014Y-107400500D01*
X154421015Y-107400500D01*
X154578985Y-107400500D01*
X154732365Y-107362696D01*
X154790128Y-107332379D01*
X154872240Y-107289283D01*
X154990483Y-107184530D01*
X155022950Y-107137492D01*
X155077233Y-107093503D01*
X155146681Y-107085843D01*
X155209246Y-107116946D01*
X155227049Y-107137492D01*
X155259517Y-107184530D01*
X155377760Y-107289283D01*
X155377762Y-107289284D01*
X155517634Y-107362696D01*
X155671014Y-107400500D01*
X155671015Y-107400500D01*
X155828985Y-107400500D01*
X155982365Y-107362696D01*
X156040128Y-107332379D01*
X156122240Y-107289283D01*
X156140796Y-107272844D01*
X174350000Y-107272844D01*
X174356401Y-107332372D01*
X174356403Y-107332379D01*
X174406645Y-107467086D01*
X174406649Y-107467093D01*
X174492809Y-107582187D01*
X174492812Y-107582190D01*
X174607906Y-107668350D01*
X174607913Y-107668354D01*
X174742620Y-107718596D01*
X174742627Y-107718598D01*
X174802155Y-107724999D01*
X174802172Y-107725000D01*
X175500000Y-107725000D01*
X175500000Y-106699189D01*
X175552547Y-106735016D01*
X175682173Y-106775000D01*
X175783724Y-106775000D01*
X175884138Y-106759865D01*
X176000000Y-106704068D01*
X176000000Y-107725000D01*
X176697828Y-107725000D01*
X176697844Y-107724999D01*
X176757372Y-107718598D01*
X176757379Y-107718596D01*
X176892086Y-107668354D01*
X176892093Y-107668350D01*
X177007187Y-107582190D01*
X177007190Y-107582187D01*
X177093350Y-107467093D01*
X177093354Y-107467086D01*
X177143596Y-107332379D01*
X177143598Y-107332372D01*
X177149999Y-107272844D01*
X177150000Y-107272827D01*
X177150000Y-106575000D01*
X176125278Y-106575000D01*
X176173625Y-106491260D01*
X176203810Y-106359008D01*
X176193673Y-106223735D01*
X176144113Y-106097459D01*
X176126203Y-106075000D01*
X177150000Y-106075000D01*
X177150000Y-105377172D01*
X177149999Y-105377155D01*
X177143598Y-105317627D01*
X177143596Y-105317620D01*
X177093354Y-105182913D01*
X177093350Y-105182906D01*
X177007190Y-105067812D01*
X177007187Y-105067809D01*
X176892093Y-104981649D01*
X176892086Y-104981645D01*
X176757379Y-104931403D01*
X176757372Y-104931401D01*
X176697844Y-104925000D01*
X176527305Y-104925000D01*
X176460266Y-104905315D01*
X176414511Y-104852511D01*
X176404567Y-104783353D01*
X176433592Y-104719797D01*
X176443767Y-104709363D01*
X176603870Y-104563409D01*
X176603872Y-104563407D01*
X176732366Y-104393255D01*
X176827405Y-104202389D01*
X176885756Y-103997310D01*
X176905429Y-103785000D01*
X176885756Y-103572690D01*
X176827405Y-103367611D01*
X176827403Y-103367606D01*
X176827403Y-103367605D01*
X176732367Y-103176746D01*
X176603872Y-103006593D01*
X176596640Y-103000000D01*
X176446302Y-102862948D01*
X176265019Y-102750702D01*
X176265017Y-102750701D01*
X176109285Y-102690371D01*
X176066198Y-102673679D01*
X175856610Y-102634500D01*
X175643390Y-102634500D01*
X175433802Y-102673679D01*
X175433799Y-102673679D01*
X175433799Y-102673680D01*
X175234982Y-102750701D01*
X175234980Y-102750702D01*
X175053699Y-102862947D01*
X174896127Y-103006593D01*
X174767632Y-103176746D01*
X174672596Y-103367605D01*
X174672596Y-103367607D01*
X174614244Y-103572689D01*
X174594571Y-103784999D01*
X174594571Y-103785000D01*
X174614244Y-103997310D01*
X174672596Y-104202392D01*
X174672596Y-104202394D01*
X174767632Y-104393253D01*
X174896129Y-104563409D01*
X175056233Y-104709363D01*
X175092515Y-104769074D01*
X175090754Y-104838922D01*
X175051510Y-104896729D01*
X174987244Y-104924144D01*
X174972695Y-104925000D01*
X174802155Y-104925000D01*
X174742627Y-104931401D01*
X174742620Y-104931403D01*
X174607913Y-104981645D01*
X174607906Y-104981649D01*
X174492812Y-105067809D01*
X174492809Y-105067812D01*
X174406649Y-105182906D01*
X174406645Y-105182913D01*
X174356403Y-105317620D01*
X174356401Y-105317627D01*
X174350000Y-105377155D01*
X174350000Y-106075000D01*
X175374722Y-106075000D01*
X175326375Y-106158740D01*
X175296190Y-106290992D01*
X175306327Y-106426265D01*
X175355887Y-106552541D01*
X175373797Y-106575000D01*
X174350000Y-106575000D01*
X174350000Y-107272844D01*
X156140796Y-107272844D01*
X156240483Y-107184530D01*
X156330220Y-107054523D01*
X156386237Y-106906818D01*
X156405278Y-106750000D01*
X156386237Y-106593182D01*
X156379341Y-106575000D01*
X156349182Y-106495476D01*
X156330220Y-106445477D01*
X156240483Y-106315470D01*
X156122240Y-106210717D01*
X156122238Y-106210716D01*
X156122237Y-106210715D01*
X155982365Y-106137303D01*
X155828986Y-106099500D01*
X155828985Y-106099500D01*
X155671015Y-106099500D01*
X155671014Y-106099500D01*
X155517634Y-106137303D01*
X155377762Y-106210715D01*
X155259517Y-106315469D01*
X155227050Y-106362507D01*
X155172766Y-106406497D01*
X155103318Y-106414156D01*
X155040753Y-106383052D01*
X155022950Y-106362507D01*
X155020535Y-106359008D01*
X154990483Y-106315470D01*
X154872240Y-106210717D01*
X154872238Y-106210716D01*
X154872237Y-106210715D01*
X154732365Y-106137303D01*
X154578986Y-106099500D01*
X154578985Y-106099500D01*
X154421015Y-106099500D01*
X154421014Y-106099500D01*
X154267634Y-106137303D01*
X154127762Y-106210715D01*
X154009516Y-106315471D01*
X153919781Y-106445475D01*
X153919780Y-106445476D01*
X153863762Y-106593181D01*
X153844722Y-106749999D01*
X153844722Y-106750000D01*
X151649207Y-106750000D01*
X151636237Y-106643181D01*
X151601861Y-106552541D01*
X151580220Y-106495477D01*
X151490483Y-106365470D01*
X151372240Y-106260717D01*
X151372238Y-106260716D01*
X151372237Y-106260715D01*
X151232365Y-106187303D01*
X151078986Y-106149500D01*
X151078985Y-106149500D01*
X150921015Y-106149500D01*
X150921014Y-106149500D01*
X150767634Y-106187303D01*
X150627762Y-106260715D01*
X150509516Y-106365471D01*
X150419781Y-106495475D01*
X150419780Y-106495476D01*
X150363762Y-106643181D01*
X150344722Y-106799999D01*
X150344722Y-106800000D01*
X130500500Y-106800000D01*
X130500500Y-104497308D01*
X130520185Y-104430269D01*
X130536819Y-104409627D01*
X131224070Y-103722376D01*
X131226884Y-103735915D01*
X131296442Y-103870156D01*
X131399638Y-103980652D01*
X131528819Y-104059209D01*
X131580002Y-104073549D01*
X130879942Y-104773609D01*
X130926768Y-104810055D01*
X130926770Y-104810056D01*
X131145385Y-104928364D01*
X131145396Y-104928369D01*
X131380506Y-105009083D01*
X131625707Y-105050000D01*
X131874293Y-105050000D01*
X132119493Y-105009083D01*
X132354603Y-104928369D01*
X132354614Y-104928364D01*
X132573228Y-104810057D01*
X132573231Y-104810055D01*
X132620056Y-104773609D01*
X131921568Y-104075121D01*
X132038458Y-104024349D01*
X132155739Y-103928934D01*
X132242928Y-103805415D01*
X132273354Y-103719802D01*
X132973434Y-104419882D01*
X133073731Y-104266369D01*
X133173587Y-104038717D01*
X133234612Y-103797738D01*
X133234614Y-103797729D01*
X133255141Y-103550005D01*
X133255141Y-103550002D01*
X134994723Y-103550002D01*
X135013793Y-103767975D01*
X135013793Y-103767979D01*
X135070422Y-103979322D01*
X135070424Y-103979326D01*
X135070425Y-103979330D01*
X135091418Y-104024349D01*
X135162897Y-104177638D01*
X135162898Y-104177639D01*
X135288402Y-104356877D01*
X135443123Y-104511598D01*
X135622361Y-104637102D01*
X135820670Y-104729575D01*
X136032023Y-104786207D01*
X136214926Y-104802208D01*
X136249998Y-104805277D01*
X136250000Y-104805277D01*
X136250002Y-104805277D01*
X136278254Y-104802805D01*
X136467977Y-104786207D01*
X136679330Y-104729575D01*
X136877639Y-104637102D01*
X137056877Y-104511598D01*
X137211598Y-104356877D01*
X137337102Y-104177639D01*
X137429575Y-103979330D01*
X137486207Y-103767977D01*
X137505277Y-103550000D01*
X137505276Y-103549994D01*
X137500902Y-103500000D01*
X142594722Y-103500000D01*
X142613762Y-103656818D01*
X142662376Y-103785000D01*
X142669780Y-103804523D01*
X142759517Y-103934530D01*
X142877760Y-104039283D01*
X142877762Y-104039284D01*
X143017634Y-104112696D01*
X143171014Y-104150500D01*
X143171015Y-104150500D01*
X143328985Y-104150500D01*
X143482365Y-104112696D01*
X143535927Y-104084584D01*
X143622240Y-104039283D01*
X143740483Y-103934530D01*
X143830220Y-103804523D01*
X143886237Y-103656818D01*
X143905278Y-103500000D01*
X160094722Y-103500000D01*
X160113762Y-103656818D01*
X160162376Y-103785000D01*
X160169780Y-103804523D01*
X160259517Y-103934530D01*
X160377760Y-104039283D01*
X160377762Y-104039284D01*
X160517634Y-104112696D01*
X160671014Y-104150500D01*
X160671015Y-104150500D01*
X160828985Y-104150500D01*
X160982365Y-104112696D01*
X161035927Y-104084584D01*
X161122240Y-104039283D01*
X161240483Y-103934530D01*
X161330220Y-103804523D01*
X161386237Y-103656818D01*
X161405278Y-103500000D01*
X161389203Y-103367605D01*
X161386237Y-103343181D01*
X161364992Y-103287164D01*
X161330220Y-103195477D01*
X161240483Y-103065470D01*
X161122240Y-102960717D01*
X161122238Y-102960716D01*
X161122237Y-102960715D01*
X160982365Y-102887303D01*
X160828986Y-102849500D01*
X160828985Y-102849500D01*
X160671015Y-102849500D01*
X160671014Y-102849500D01*
X160517634Y-102887303D01*
X160377762Y-102960715D01*
X160259516Y-103065471D01*
X160169781Y-103195475D01*
X160169780Y-103195476D01*
X160113762Y-103343181D01*
X160094722Y-103499999D01*
X160094722Y-103500000D01*
X143905278Y-103500000D01*
X143889203Y-103367605D01*
X143886237Y-103343181D01*
X143864992Y-103287164D01*
X143830220Y-103195477D01*
X143740483Y-103065470D01*
X143622240Y-102960717D01*
X143622238Y-102960716D01*
X143622237Y-102960715D01*
X143482365Y-102887303D01*
X143328986Y-102849500D01*
X143328985Y-102849500D01*
X143171015Y-102849500D01*
X143171014Y-102849500D01*
X143017634Y-102887303D01*
X142877762Y-102960715D01*
X142759516Y-103065471D01*
X142669781Y-103195475D01*
X142669780Y-103195476D01*
X142613762Y-103343181D01*
X142594722Y-103499999D01*
X142594722Y-103500000D01*
X137500902Y-103500000D01*
X137489320Y-103367611D01*
X137486207Y-103332023D01*
X137429575Y-103120670D01*
X137337102Y-102922362D01*
X137337100Y-102922359D01*
X137337099Y-102922357D01*
X137211599Y-102743124D01*
X137142154Y-102673679D01*
X137056877Y-102588402D01*
X136877639Y-102462898D01*
X136877640Y-102462898D01*
X136877638Y-102462897D01*
X136769980Y-102412696D01*
X136679330Y-102370425D01*
X136679326Y-102370424D01*
X136679322Y-102370422D01*
X136467977Y-102313793D01*
X136250002Y-102294723D01*
X136249998Y-102294723D01*
X136137982Y-102304523D01*
X136032023Y-102313793D01*
X136032020Y-102313793D01*
X135820677Y-102370422D01*
X135820668Y-102370426D01*
X135622361Y-102462898D01*
X135622357Y-102462900D01*
X135443121Y-102588402D01*
X135288402Y-102743121D01*
X135162900Y-102922357D01*
X135162898Y-102922361D01*
X135123620Y-103006593D01*
X135071042Y-103119348D01*
X135070426Y-103120668D01*
X135070422Y-103120677D01*
X135013793Y-103332020D01*
X135013793Y-103332024D01*
X134994723Y-103549997D01*
X134994723Y-103550002D01*
X133255141Y-103550002D01*
X133255141Y-103549994D01*
X133234614Y-103302270D01*
X133234612Y-103302261D01*
X133173587Y-103061282D01*
X133073731Y-102833630D01*
X132973434Y-102680116D01*
X132275928Y-103377621D01*
X132273116Y-103364085D01*
X132203558Y-103229844D01*
X132100362Y-103119348D01*
X131971181Y-103040791D01*
X131919997Y-103026450D01*
X132620057Y-102326390D01*
X132620056Y-102326389D01*
X132573229Y-102289943D01*
X132354614Y-102171635D01*
X132354603Y-102171630D01*
X132119493Y-102090916D01*
X131874293Y-102050000D01*
X131625707Y-102050000D01*
X131380506Y-102090916D01*
X131145396Y-102171630D01*
X131145390Y-102171632D01*
X130926761Y-102289949D01*
X130879942Y-102326388D01*
X130879942Y-102326390D01*
X131578431Y-103024878D01*
X131461542Y-103075651D01*
X131344261Y-103171066D01*
X131257072Y-103294585D01*
X131226645Y-103380197D01*
X130536819Y-102690371D01*
X130503334Y-102629048D01*
X130500500Y-102602690D01*
X130500500Y-102000000D01*
X144094722Y-102000000D01*
X144113762Y-102156818D01*
X144164253Y-102289949D01*
X144169780Y-102304523D01*
X144259517Y-102434530D01*
X144377760Y-102539283D01*
X144377762Y-102539284D01*
X144517634Y-102612696D01*
X144671014Y-102650500D01*
X144671015Y-102650500D01*
X144828985Y-102650500D01*
X144982365Y-102612696D01*
X144982364Y-102612695D01*
X145122240Y-102539283D01*
X145240483Y-102434530D01*
X145330220Y-102304523D01*
X145386237Y-102156818D01*
X145405278Y-102000000D01*
X145386237Y-101843182D01*
X145369860Y-101800000D01*
X148344722Y-101800000D01*
X148363762Y-101956818D01*
X148419779Y-102104522D01*
X148419780Y-102104523D01*
X148509517Y-102234530D01*
X148627760Y-102339283D01*
X148627762Y-102339284D01*
X148767634Y-102412696D01*
X148921014Y-102450500D01*
X148921015Y-102450500D01*
X149078985Y-102450500D01*
X149232365Y-102412696D01*
X149232364Y-102412695D01*
X149372240Y-102339283D01*
X149490483Y-102234530D01*
X149580220Y-102104523D01*
X149636237Y-101956818D01*
X149655278Y-101800000D01*
X150844722Y-101800000D01*
X150863762Y-101956818D01*
X150919780Y-102104523D01*
X151009517Y-102234530D01*
X151127760Y-102339283D01*
X151127762Y-102339284D01*
X151267634Y-102412696D01*
X151421014Y-102450500D01*
X151421015Y-102450500D01*
X151578985Y-102450500D01*
X151732365Y-102412696D01*
X151732364Y-102412695D01*
X151872240Y-102339283D01*
X151990483Y-102234530D01*
X152080220Y-102104523D01*
X152136237Y-101956818D01*
X152155278Y-101800000D01*
X152142587Y-101695475D01*
X152136237Y-101643181D01*
X152106765Y-101565470D01*
X152080220Y-101495477D01*
X151990483Y-101365470D01*
X151872240Y-101260717D01*
X151872238Y-101260716D01*
X151872237Y-101260715D01*
X151732365Y-101187303D01*
X151578986Y-101149500D01*
X151578985Y-101149500D01*
X151421015Y-101149500D01*
X151421014Y-101149500D01*
X151267634Y-101187303D01*
X151127762Y-101260715D01*
X151009516Y-101365471D01*
X150919781Y-101495475D01*
X150919780Y-101495476D01*
X150863762Y-101643181D01*
X150844722Y-101799999D01*
X150844722Y-101800000D01*
X149655278Y-101800000D01*
X149642587Y-101695475D01*
X149636237Y-101643181D01*
X149606765Y-101565470D01*
X149580220Y-101495477D01*
X149490483Y-101365470D01*
X149372240Y-101260717D01*
X149372238Y-101260716D01*
X149372237Y-101260715D01*
X149232365Y-101187303D01*
X149078986Y-101149500D01*
X149078985Y-101149500D01*
X148921015Y-101149500D01*
X148921014Y-101149500D01*
X148767634Y-101187303D01*
X148627762Y-101260715D01*
X148509516Y-101365471D01*
X148419781Y-101495475D01*
X148419780Y-101495476D01*
X148363762Y-101643181D01*
X148344722Y-101799999D01*
X148344722Y-101800000D01*
X145369860Y-101800000D01*
X145330220Y-101695477D01*
X145240483Y-101565470D01*
X145122240Y-101460717D01*
X145122238Y-101460716D01*
X145122237Y-101460715D01*
X144982365Y-101387303D01*
X144828986Y-101349500D01*
X144828985Y-101349500D01*
X144671015Y-101349500D01*
X144671014Y-101349500D01*
X144517634Y-101387303D01*
X144377762Y-101460715D01*
X144259516Y-101565471D01*
X144169781Y-101695475D01*
X144169780Y-101695476D01*
X144113762Y-101843181D01*
X144094722Y-101999999D01*
X144094722Y-102000000D01*
X130500500Y-102000000D01*
X130500500Y-101000000D01*
X132594721Y-101000000D01*
X132613762Y-101156818D01*
X132669780Y-101304522D01*
X132669780Y-101304523D01*
X132759517Y-101434530D01*
X132877760Y-101539283D01*
X132877762Y-101539284D01*
X133017634Y-101612696D01*
X133171014Y-101650500D01*
X133171015Y-101650500D01*
X133328985Y-101650500D01*
X133482365Y-101612696D01*
X133482364Y-101612695D01*
X133622240Y-101539283D01*
X133740483Y-101434530D01*
X133830220Y-101304523D01*
X133886237Y-101156818D01*
X133905278Y-101000000D01*
X135094722Y-101000000D01*
X135113762Y-101156818D01*
X135169780Y-101304523D01*
X135259517Y-101434530D01*
X135377760Y-101539283D01*
X135377762Y-101539284D01*
X135517634Y-101612696D01*
X135671014Y-101650500D01*
X135671015Y-101650500D01*
X135828985Y-101650500D01*
X135982365Y-101612696D01*
X135982365Y-101612695D01*
X136122240Y-101539283D01*
X136240483Y-101434530D01*
X136330220Y-101304523D01*
X136386237Y-101156818D01*
X136405278Y-101000000D01*
X175094722Y-101000000D01*
X175113762Y-101156818D01*
X175169780Y-101304523D01*
X175259517Y-101434530D01*
X175377760Y-101539283D01*
X175377762Y-101539284D01*
X175517634Y-101612696D01*
X175671014Y-101650500D01*
X175671015Y-101650500D01*
X175828985Y-101650500D01*
X175982365Y-101612696D01*
X175982365Y-101612695D01*
X176122240Y-101539283D01*
X176240483Y-101434530D01*
X176330220Y-101304523D01*
X176386237Y-101156818D01*
X176405278Y-101000000D01*
X176386237Y-100843182D01*
X176330220Y-100695477D01*
X176240483Y-100565470D01*
X176189235Y-100520069D01*
X176152109Y-100460880D01*
X176152877Y-100391015D01*
X176191294Y-100332655D01*
X176255165Y-100304330D01*
X176316257Y-100311627D01*
X176447678Y-100362539D01*
X176648072Y-100400000D01*
X176851928Y-100400000D01*
X177052321Y-100362539D01*
X177242414Y-100288897D01*
X177330688Y-100234240D01*
X176750001Y-99653553D01*
X176750000Y-99653553D01*
X176169310Y-100234240D01*
X176173289Y-100268531D01*
X176161461Y-100337392D01*
X176114282Y-100388928D01*
X176046730Y-100406775D01*
X175992489Y-100392617D01*
X175982365Y-100387303D01*
X175828986Y-100349500D01*
X175828985Y-100349500D01*
X175671015Y-100349500D01*
X175671014Y-100349500D01*
X175517634Y-100387303D01*
X175377762Y-100460715D01*
X175259516Y-100565471D01*
X175169781Y-100695475D01*
X175169780Y-100695476D01*
X175113762Y-100843181D01*
X175094722Y-100999999D01*
X175094722Y-101000000D01*
X136405278Y-101000000D01*
X136386237Y-100843182D01*
X136330220Y-100695477D01*
X136240483Y-100565470D01*
X136122240Y-100460717D01*
X136122238Y-100460716D01*
X136122237Y-100460715D01*
X135982365Y-100387303D01*
X135828986Y-100349500D01*
X135828985Y-100349500D01*
X135671015Y-100349500D01*
X135671014Y-100349500D01*
X135517634Y-100387303D01*
X135377762Y-100460715D01*
X135259516Y-100565471D01*
X135169781Y-100695475D01*
X135169780Y-100695476D01*
X135113762Y-100843181D01*
X135094722Y-100999999D01*
X135094722Y-101000000D01*
X133905278Y-101000000D01*
X133886237Y-100843182D01*
X133830220Y-100695477D01*
X133740483Y-100565470D01*
X133622240Y-100460717D01*
X133622238Y-100460716D01*
X133622237Y-100460715D01*
X133482365Y-100387303D01*
X133328986Y-100349500D01*
X133328985Y-100349500D01*
X133171015Y-100349500D01*
X133171014Y-100349500D01*
X133017634Y-100387303D01*
X132877762Y-100460715D01*
X132759516Y-100565471D01*
X132669781Y-100695475D01*
X132669780Y-100695476D01*
X132613762Y-100843181D01*
X132594721Y-100999999D01*
X132594721Y-101000000D01*
X130500500Y-101000000D01*
X130500500Y-99299999D01*
X173894815Y-99299999D01*
X173913503Y-99477805D01*
X173913504Y-99477807D01*
X173968747Y-99647829D01*
X173968750Y-99647835D01*
X174058141Y-99802665D01*
X174099812Y-99848946D01*
X174177764Y-99935521D01*
X174177767Y-99935523D01*
X174177770Y-99935526D01*
X174322407Y-100040612D01*
X174485733Y-100113329D01*
X174660609Y-100150500D01*
X174660610Y-100150500D01*
X174839389Y-100150500D01*
X174839391Y-100150500D01*
X175014267Y-100113329D01*
X175177593Y-100040612D01*
X175322230Y-99935526D01*
X175441859Y-99802665D01*
X175503378Y-99696109D01*
X175553942Y-99647897D01*
X175622549Y-99634673D01*
X175687414Y-99660641D01*
X175721763Y-99702840D01*
X175810754Y-99881555D01*
X175810755Y-99881557D01*
X175812533Y-99883912D01*
X176396447Y-99300000D01*
X176396447Y-99299999D01*
X176368288Y-99271840D01*
X176446105Y-99271840D01*
X176456454Y-99383521D01*
X176506448Y-99483922D01*
X176589334Y-99559484D01*
X176693920Y-99600000D01*
X176777802Y-99600000D01*
X176860250Y-99584588D01*
X176955610Y-99525543D01*
X177023201Y-99436038D01*
X177053895Y-99328160D01*
X177051286Y-99300000D01*
X177103553Y-99300000D01*
X177687465Y-99883912D01*
X177689247Y-99881552D01*
X177689249Y-99881550D01*
X177780113Y-99699069D01*
X177780116Y-99699063D01*
X177835902Y-99502992D01*
X177835903Y-99502989D01*
X177854713Y-99300000D01*
X177854713Y-99299999D01*
X177835903Y-99097010D01*
X177835902Y-99097007D01*
X177780116Y-98900936D01*
X177780113Y-98900930D01*
X177689244Y-98718441D01*
X177687466Y-98716086D01*
X177687465Y-98716085D01*
X177103553Y-99299999D01*
X177103553Y-99300000D01*
X177051286Y-99300000D01*
X177043546Y-99216479D01*
X176993552Y-99116078D01*
X176910666Y-99040516D01*
X176806080Y-99000000D01*
X176722198Y-99000000D01*
X176639750Y-99015412D01*
X176544390Y-99074457D01*
X176476799Y-99163962D01*
X176446105Y-99271840D01*
X176368288Y-99271840D01*
X175812533Y-98716085D01*
X175810754Y-98718443D01*
X175721763Y-98897159D01*
X175674260Y-98948396D01*
X175606597Y-98965817D01*
X175540256Y-98943891D01*
X175503378Y-98903889D01*
X175441859Y-98797335D01*
X175433904Y-98788501D01*
X175322235Y-98664478D01*
X175322232Y-98664476D01*
X175322231Y-98664475D01*
X175322230Y-98664474D01*
X175177593Y-98559388D01*
X175014267Y-98486671D01*
X175014265Y-98486670D01*
X174886594Y-98459533D01*
X174839391Y-98449500D01*
X174660609Y-98449500D01*
X174629954Y-98456015D01*
X174485733Y-98486670D01*
X174485728Y-98486672D01*
X174322408Y-98559387D01*
X174177768Y-98664475D01*
X174058140Y-98797336D01*
X173968750Y-98952164D01*
X173968747Y-98952170D01*
X173913504Y-99122192D01*
X173913503Y-99122194D01*
X173894815Y-99299999D01*
X130500500Y-99299999D01*
X130500500Y-97997308D01*
X130520185Y-97930269D01*
X130536819Y-97909627D01*
X131224070Y-97222376D01*
X131226884Y-97235915D01*
X131296442Y-97370156D01*
X131399638Y-97480652D01*
X131528819Y-97559209D01*
X131580002Y-97573549D01*
X130879942Y-98273609D01*
X130926768Y-98310055D01*
X130926770Y-98310056D01*
X131145385Y-98428364D01*
X131145396Y-98428369D01*
X131380506Y-98509083D01*
X131625707Y-98550000D01*
X131874293Y-98550000D01*
X132119493Y-98509083D01*
X132354603Y-98428369D01*
X132354614Y-98428364D01*
X132411705Y-98397469D01*
X132480033Y-98382874D01*
X132545405Y-98407537D01*
X132587066Y-98463627D01*
X132592262Y-98492743D01*
X132593818Y-98492555D01*
X132613762Y-98656818D01*
X132636240Y-98716086D01*
X132669780Y-98804523D01*
X132759517Y-98934530D01*
X132877760Y-99039283D01*
X132877762Y-99039284D01*
X133017634Y-99112696D01*
X133171014Y-99150500D01*
X133171015Y-99150500D01*
X133328985Y-99150500D01*
X133482365Y-99112696D01*
X133512252Y-99097010D01*
X133622240Y-99039283D01*
X133740483Y-98934530D01*
X133830220Y-98804523D01*
X133886237Y-98656818D01*
X133905278Y-98500000D01*
X170094722Y-98500000D01*
X170113762Y-98656818D01*
X170136240Y-98716086D01*
X170169780Y-98804523D01*
X170259517Y-98934530D01*
X170377760Y-99039283D01*
X170377762Y-99039284D01*
X170517634Y-99112696D01*
X170671014Y-99150500D01*
X170671015Y-99150500D01*
X170828985Y-99150500D01*
X170982365Y-99112696D01*
X171012252Y-99097010D01*
X171122240Y-99039283D01*
X171240483Y-98934530D01*
X171330220Y-98804523D01*
X171386237Y-98656818D01*
X171405278Y-98500000D01*
X171403660Y-98486670D01*
X171388978Y-98365758D01*
X176169310Y-98365758D01*
X176750000Y-98946447D01*
X176750001Y-98946447D01*
X177330688Y-98365758D01*
X177330687Y-98365757D01*
X177242418Y-98311104D01*
X177242411Y-98311100D01*
X177052321Y-98237460D01*
X176851928Y-98200000D01*
X176648072Y-98200000D01*
X176447678Y-98237460D01*
X176257588Y-98311100D01*
X176257584Y-98311102D01*
X176169310Y-98365758D01*
X171388978Y-98365758D01*
X171386237Y-98343181D01*
X171343152Y-98229577D01*
X171330220Y-98195477D01*
X171240483Y-98065470D01*
X171122240Y-97960717D01*
X171122238Y-97960716D01*
X171122237Y-97960715D01*
X170982365Y-97887303D01*
X170828986Y-97849500D01*
X170828985Y-97849500D01*
X170671015Y-97849500D01*
X170671014Y-97849500D01*
X170517634Y-97887303D01*
X170377762Y-97960715D01*
X170259516Y-98065471D01*
X170169781Y-98195475D01*
X170169780Y-98195476D01*
X170113762Y-98343181D01*
X170094722Y-98499999D01*
X170094722Y-98500000D01*
X133905278Y-98500000D01*
X133903660Y-98486670D01*
X133886237Y-98343181D01*
X133843152Y-98229577D01*
X133830220Y-98195477D01*
X133740483Y-98065470D01*
X133622240Y-97960717D01*
X133622238Y-97960716D01*
X133622237Y-97960715D01*
X133482365Y-97887303D01*
X133328986Y-97849500D01*
X133328985Y-97849500D01*
X133227063Y-97849500D01*
X133160024Y-97829815D01*
X133114269Y-97777011D01*
X133104325Y-97707853D01*
X133113507Y-97675690D01*
X133173587Y-97538717D01*
X133234612Y-97297738D01*
X133234614Y-97297729D01*
X133255141Y-97050005D01*
X133255141Y-97050002D01*
X134994723Y-97050002D01*
X134998160Y-97089283D01*
X135011824Y-97245476D01*
X135013793Y-97267975D01*
X135013793Y-97267979D01*
X135070422Y-97479322D01*
X135070424Y-97479326D01*
X135070425Y-97479330D01*
X135103379Y-97550000D01*
X135162897Y-97677638D01*
X135162898Y-97677639D01*
X135288402Y-97856877D01*
X135443123Y-98011598D01*
X135622361Y-98137102D01*
X135820670Y-98229575D01*
X136032023Y-98286207D01*
X136214926Y-98302208D01*
X136249998Y-98305277D01*
X136250000Y-98305277D01*
X136250002Y-98305277D01*
X136278254Y-98302805D01*
X136467977Y-98286207D01*
X136679330Y-98229575D01*
X136877639Y-98137102D01*
X137056877Y-98011598D01*
X137211598Y-97856877D01*
X137337102Y-97677639D01*
X137396621Y-97550000D01*
X162594722Y-97550000D01*
X162613762Y-97706818D01*
X162667875Y-97849500D01*
X162669780Y-97854523D01*
X162759517Y-97984530D01*
X162877760Y-98089283D01*
X162877762Y-98089284D01*
X163017634Y-98162696D01*
X163171014Y-98200500D01*
X163171015Y-98200500D01*
X163328985Y-98200500D01*
X163482365Y-98162696D01*
X163482364Y-98162695D01*
X163622240Y-98089283D01*
X163740483Y-97984530D01*
X163830220Y-97854523D01*
X163886237Y-97706818D01*
X163905278Y-97550000D01*
X163902164Y-97524349D01*
X163886237Y-97393181D01*
X163850040Y-97297738D01*
X163830220Y-97245477D01*
X163740483Y-97115470D01*
X163622240Y-97010717D01*
X163622238Y-97010716D01*
X163622237Y-97010715D01*
X163482365Y-96937303D01*
X163328986Y-96899500D01*
X163328985Y-96899500D01*
X163171015Y-96899500D01*
X163171014Y-96899500D01*
X163017634Y-96937303D01*
X162877762Y-97010715D01*
X162759516Y-97115471D01*
X162669781Y-97245475D01*
X162669780Y-97245476D01*
X162613762Y-97393181D01*
X162594722Y-97549999D01*
X162594722Y-97550000D01*
X137396621Y-97550000D01*
X137429575Y-97479330D01*
X137486207Y-97267977D01*
X137505277Y-97050000D01*
X137505276Y-97049994D01*
X137497125Y-96956818D01*
X137486207Y-96832023D01*
X137477626Y-96800000D01*
X151344722Y-96800000D01*
X151363762Y-96956818D01*
X151399102Y-97050000D01*
X151419780Y-97104523D01*
X151509517Y-97234530D01*
X151627760Y-97339283D01*
X151627762Y-97339284D01*
X151767634Y-97412696D01*
X151921014Y-97450500D01*
X151921015Y-97450500D01*
X152078985Y-97450500D01*
X152232365Y-97412696D01*
X152313417Y-97370156D01*
X152372240Y-97339283D01*
X152490483Y-97234530D01*
X152580220Y-97104523D01*
X152636237Y-96956818D01*
X152655278Y-96800000D01*
X152642705Y-96696447D01*
X152636237Y-96643181D01*
X152600898Y-96550000D01*
X156594722Y-96550000D01*
X156613762Y-96706818D01*
X156649963Y-96802270D01*
X156669780Y-96854523D01*
X156759517Y-96984530D01*
X156877760Y-97089283D01*
X156877762Y-97089284D01*
X157017634Y-97162696D01*
X157171014Y-97200500D01*
X157171015Y-97200500D01*
X157328985Y-97200500D01*
X157482365Y-97162696D01*
X157482364Y-97162695D01*
X157622240Y-97089283D01*
X157740483Y-96984530D01*
X157830220Y-96854523D01*
X157850898Y-96800000D01*
X168594722Y-96800000D01*
X168613762Y-96956818D01*
X168649102Y-97050000D01*
X168669780Y-97104523D01*
X168759517Y-97234530D01*
X168877760Y-97339283D01*
X168877762Y-97339284D01*
X169017634Y-97412696D01*
X169171014Y-97450500D01*
X169171015Y-97450500D01*
X169328985Y-97450500D01*
X169482365Y-97412696D01*
X169563417Y-97370156D01*
X169622240Y-97339283D01*
X169740483Y-97234530D01*
X169830220Y-97104523D01*
X169886237Y-96956818D01*
X169905278Y-96800000D01*
X169892705Y-96696447D01*
X169886237Y-96643181D01*
X169847405Y-96540791D01*
X169830220Y-96495477D01*
X169740483Y-96365470D01*
X169622240Y-96260717D01*
X169622238Y-96260716D01*
X169622237Y-96260715D01*
X169482365Y-96187303D01*
X169328986Y-96149500D01*
X169328985Y-96149500D01*
X169171015Y-96149500D01*
X169171014Y-96149500D01*
X169017634Y-96187303D01*
X168877762Y-96260715D01*
X168759516Y-96365471D01*
X168669781Y-96495475D01*
X168669780Y-96495476D01*
X168613762Y-96643181D01*
X168594722Y-96799999D01*
X168594722Y-96800000D01*
X157850898Y-96800000D01*
X157886237Y-96706818D01*
X157905278Y-96550000D01*
X157889780Y-96422357D01*
X157886237Y-96393181D01*
X157863652Y-96333630D01*
X157830220Y-96245477D01*
X157740483Y-96115470D01*
X157622240Y-96010717D01*
X157622238Y-96010716D01*
X157622237Y-96010715D01*
X157482365Y-95937303D01*
X157328986Y-95899500D01*
X157328985Y-95899500D01*
X157171015Y-95899500D01*
X157171014Y-95899500D01*
X157017634Y-95937303D01*
X156877762Y-96010715D01*
X156759516Y-96115471D01*
X156669781Y-96245475D01*
X156669780Y-96245476D01*
X156613762Y-96393181D01*
X156594722Y-96549999D01*
X156594722Y-96550000D01*
X152600898Y-96550000D01*
X152597405Y-96540791D01*
X152580220Y-96495477D01*
X152490483Y-96365470D01*
X152372240Y-96260717D01*
X152372238Y-96260716D01*
X152372237Y-96260715D01*
X152232365Y-96187303D01*
X152078986Y-96149500D01*
X152078985Y-96149500D01*
X151921015Y-96149500D01*
X151921014Y-96149500D01*
X151767634Y-96187303D01*
X151627762Y-96260715D01*
X151509516Y-96365471D01*
X151419781Y-96495475D01*
X151419780Y-96495476D01*
X151363762Y-96643181D01*
X151344722Y-96799999D01*
X151344722Y-96800000D01*
X137477626Y-96800000D01*
X137429575Y-96620670D01*
X137337102Y-96422362D01*
X137337100Y-96422359D01*
X137337099Y-96422357D01*
X137211599Y-96243124D01*
X137148591Y-96180116D01*
X137056877Y-96088402D01*
X136877639Y-95962898D01*
X136877640Y-95962898D01*
X136877638Y-95962897D01*
X136757375Y-95906818D01*
X136679330Y-95870425D01*
X136679326Y-95870424D01*
X136679322Y-95870422D01*
X136467977Y-95813793D01*
X136250002Y-95794723D01*
X136249998Y-95794723D01*
X136104681Y-95807436D01*
X136032023Y-95813793D01*
X136032020Y-95813793D01*
X135820677Y-95870422D01*
X135820668Y-95870426D01*
X135622361Y-95962898D01*
X135622357Y-95962900D01*
X135443121Y-96088402D01*
X135288402Y-96243121D01*
X135162900Y-96422357D01*
X135162898Y-96422361D01*
X135103379Y-96550000D01*
X135071042Y-96619348D01*
X135070426Y-96620668D01*
X135070422Y-96620677D01*
X135013793Y-96832020D01*
X135013793Y-96832023D01*
X135010988Y-96864085D01*
X134994723Y-97049997D01*
X134994723Y-97050002D01*
X133255141Y-97050002D01*
X133255141Y-97049994D01*
X133234614Y-96802270D01*
X133234612Y-96802261D01*
X133173587Y-96561282D01*
X133073731Y-96333630D01*
X132973434Y-96180116D01*
X132275929Y-96877622D01*
X132273116Y-96864085D01*
X132203558Y-96729844D01*
X132100362Y-96619348D01*
X131971181Y-96540791D01*
X131919997Y-96526450D01*
X132620057Y-95826390D01*
X132620056Y-95826389D01*
X132573229Y-95789943D01*
X132499420Y-95750000D01*
X163094722Y-95750000D01*
X163113762Y-95906818D01*
X163169779Y-96054523D01*
X163169780Y-96054523D01*
X163259517Y-96184530D01*
X163377760Y-96289283D01*
X163377762Y-96289284D01*
X163517634Y-96362696D01*
X163671014Y-96400500D01*
X163671015Y-96400500D01*
X163828985Y-96400500D01*
X163982365Y-96362696D01*
X163982365Y-96362695D01*
X164122240Y-96289283D01*
X164240483Y-96184530D01*
X164330220Y-96054523D01*
X164386237Y-95906818D01*
X164405278Y-95750000D01*
X164395763Y-95671632D01*
X164386237Y-95593181D01*
X164369860Y-95550000D01*
X170094722Y-95550000D01*
X170113762Y-95706818D01*
X170169779Y-95854522D01*
X170169780Y-95854523D01*
X170259517Y-95984530D01*
X170377760Y-96089283D01*
X170377762Y-96089284D01*
X170517634Y-96162696D01*
X170671014Y-96200500D01*
X170671015Y-96200500D01*
X170828985Y-96200500D01*
X170982365Y-96162696D01*
X170982364Y-96162695D01*
X171122240Y-96089283D01*
X171240483Y-95984530D01*
X171330220Y-95854523D01*
X171386237Y-95706818D01*
X171405278Y-95550000D01*
X171392587Y-95445475D01*
X171386237Y-95393181D01*
X171356765Y-95315470D01*
X171330220Y-95245477D01*
X171240483Y-95115470D01*
X171122240Y-95010717D01*
X171122238Y-95010716D01*
X171122237Y-95010715D01*
X170982365Y-94937303D01*
X170828986Y-94899500D01*
X170828985Y-94899500D01*
X170671015Y-94899500D01*
X170671014Y-94899500D01*
X170517634Y-94937303D01*
X170377762Y-95010715D01*
X170259516Y-95115471D01*
X170169781Y-95245475D01*
X170169780Y-95245476D01*
X170113762Y-95393181D01*
X170094722Y-95549999D01*
X170094722Y-95550000D01*
X164369860Y-95550000D01*
X164364992Y-95537164D01*
X164330220Y-95445477D01*
X164240483Y-95315470D01*
X164122240Y-95210717D01*
X164122238Y-95210716D01*
X164122237Y-95210715D01*
X163982365Y-95137303D01*
X163828986Y-95099500D01*
X163828985Y-95099500D01*
X163671015Y-95099500D01*
X163671014Y-95099500D01*
X163517634Y-95137303D01*
X163377762Y-95210715D01*
X163259516Y-95315471D01*
X163169781Y-95445475D01*
X163169780Y-95445476D01*
X163113762Y-95593181D01*
X163094722Y-95749999D01*
X163094722Y-95750000D01*
X132499420Y-95750000D01*
X132354614Y-95671635D01*
X132354603Y-95671630D01*
X132119493Y-95590916D01*
X131874293Y-95550000D01*
X131625707Y-95550000D01*
X131380506Y-95590916D01*
X131145396Y-95671630D01*
X131145390Y-95671632D01*
X130926761Y-95789949D01*
X130879942Y-95826388D01*
X130879942Y-95826390D01*
X131578431Y-96524878D01*
X131461542Y-96575651D01*
X131344261Y-96671066D01*
X131257072Y-96794585D01*
X131226645Y-96880197D01*
X130536819Y-96190371D01*
X130503334Y-96129048D01*
X130500500Y-96102690D01*
X130500500Y-94977613D01*
X130520185Y-94910574D01*
X130572989Y-94864819D01*
X130642147Y-94854875D01*
X130682125Y-94867816D01*
X130767635Y-94912696D01*
X130844325Y-94931597D01*
X130921014Y-94950500D01*
X130921015Y-94950500D01*
X131078985Y-94950500D01*
X131232365Y-94912696D01*
X131236408Y-94910574D01*
X131372240Y-94839283D01*
X131490483Y-94734530D01*
X131580220Y-94604523D01*
X131636237Y-94456818D01*
X131655278Y-94300000D01*
X131636237Y-94143182D01*
X131580220Y-93995477D01*
X131490483Y-93865470D01*
X131372240Y-93760717D01*
X131372238Y-93760716D01*
X131372237Y-93760715D01*
X131232365Y-93687303D01*
X131078986Y-93649500D01*
X131078985Y-93649500D01*
X130921015Y-93649500D01*
X130921014Y-93649500D01*
X130767637Y-93687303D01*
X130682126Y-93732183D01*
X130613617Y-93745908D01*
X130548564Y-93720415D01*
X130507620Y-93663799D01*
X130500500Y-93622386D01*
X130500500Y-91174000D01*
X130520185Y-91106961D01*
X130572989Y-91061206D01*
X130624500Y-91050000D01*
X132948638Y-91050000D01*
X133015677Y-91069685D01*
X133036319Y-91086319D01*
X134194162Y-92244162D01*
X134227647Y-92305485D01*
X134222663Y-92375177D01*
X134180791Y-92431110D01*
X134164109Y-92441638D01*
X134127763Y-92460714D01*
X134009516Y-92565471D01*
X133919781Y-92695475D01*
X133919780Y-92695476D01*
X133863762Y-92843181D01*
X133844721Y-92999999D01*
X133844721Y-93000000D01*
X133863762Y-93156818D01*
X133878424Y-93195477D01*
X133919780Y-93304523D01*
X134009517Y-93434530D01*
X134127760Y-93539283D01*
X134127762Y-93539284D01*
X134267634Y-93612696D01*
X134421014Y-93650500D01*
X134421015Y-93650500D01*
X134578985Y-93650500D01*
X134732365Y-93612696D01*
X134732365Y-93612695D01*
X134872240Y-93539283D01*
X134916582Y-93500000D01*
X145094722Y-93500000D01*
X145113762Y-93656818D01*
X145169780Y-93804523D01*
X145259517Y-93934530D01*
X145377760Y-94039283D01*
X145377762Y-94039284D01*
X145517634Y-94112696D01*
X145671014Y-94150500D01*
X145671015Y-94150500D01*
X145828985Y-94150500D01*
X145982365Y-94112696D01*
X146122240Y-94039283D01*
X146240483Y-93934530D01*
X146330220Y-93804523D01*
X146386237Y-93656818D01*
X146405278Y-93500000D01*
X147594722Y-93500000D01*
X147613762Y-93656818D01*
X147669780Y-93804523D01*
X147759517Y-93934530D01*
X147877760Y-94039283D01*
X147877762Y-94039284D01*
X148017634Y-94112696D01*
X148171014Y-94150500D01*
X148171015Y-94150500D01*
X148328985Y-94150500D01*
X148482365Y-94112696D01*
X148482364Y-94112695D01*
X148601820Y-94050000D01*
X149344722Y-94050000D01*
X149363762Y-94206818D01*
X149399102Y-94300000D01*
X149419780Y-94354523D01*
X149509517Y-94484530D01*
X149627760Y-94589283D01*
X149627762Y-94589284D01*
X149767634Y-94662696D01*
X149921014Y-94700500D01*
X149921015Y-94700500D01*
X150078985Y-94700500D01*
X150232365Y-94662696D01*
X150232364Y-94662696D01*
X150372240Y-94589283D01*
X150416582Y-94550000D01*
X166344722Y-94550000D01*
X166363762Y-94706818D01*
X166414000Y-94839283D01*
X166419780Y-94854523D01*
X166509517Y-94984530D01*
X166627760Y-95089283D01*
X166627762Y-95089284D01*
X166767634Y-95162696D01*
X166921014Y-95200500D01*
X166921015Y-95200500D01*
X167078985Y-95200500D01*
X167232365Y-95162696D01*
X167232364Y-95162696D01*
X167372240Y-95089283D01*
X167490483Y-94984530D01*
X167580220Y-94854523D01*
X167636237Y-94706818D01*
X167655278Y-94550000D01*
X167636237Y-94393182D01*
X167580220Y-94245477D01*
X167490483Y-94115470D01*
X167372240Y-94010717D01*
X167372238Y-94010716D01*
X167372237Y-94010715D01*
X167232365Y-93937303D01*
X167078986Y-93899500D01*
X167078985Y-93899500D01*
X166921015Y-93899500D01*
X166921014Y-93899500D01*
X166767634Y-93937303D01*
X166627762Y-94010715D01*
X166509516Y-94115471D01*
X166419781Y-94245475D01*
X166419780Y-94245476D01*
X166363762Y-94393181D01*
X166344722Y-94549999D01*
X166344722Y-94550000D01*
X150416582Y-94550000D01*
X150490483Y-94484530D01*
X150580220Y-94354523D01*
X150636237Y-94206818D01*
X150655278Y-94050000D01*
X150636237Y-93893182D01*
X150630681Y-93878533D01*
X150614992Y-93837163D01*
X150580220Y-93745477D01*
X150490483Y-93615470D01*
X150372240Y-93510717D01*
X150372238Y-93510716D01*
X150372237Y-93510715D01*
X150351822Y-93500000D01*
X167594722Y-93500000D01*
X167613762Y-93656818D01*
X167669780Y-93804522D01*
X167669780Y-93804523D01*
X167759517Y-93934530D01*
X167877760Y-94039283D01*
X167877762Y-94039284D01*
X168017634Y-94112696D01*
X168171014Y-94150500D01*
X168171015Y-94150500D01*
X168328985Y-94150500D01*
X168482365Y-94112696D01*
X168482364Y-94112695D01*
X168622240Y-94039283D01*
X168740483Y-93934530D01*
X168830220Y-93804523D01*
X168886237Y-93656818D01*
X168905278Y-93500000D01*
X168897666Y-93437304D01*
X168886237Y-93343181D01*
X168864992Y-93287164D01*
X168830220Y-93195477D01*
X168740483Y-93065470D01*
X168622240Y-92960717D01*
X168622238Y-92960716D01*
X168622237Y-92960715D01*
X168482365Y-92887303D01*
X168328986Y-92849500D01*
X168328985Y-92849500D01*
X168171015Y-92849500D01*
X168171014Y-92849500D01*
X168017634Y-92887303D01*
X167877762Y-92960715D01*
X167759516Y-93065471D01*
X167669781Y-93195475D01*
X167669780Y-93195476D01*
X167613762Y-93343181D01*
X167594722Y-93499999D01*
X167594722Y-93500000D01*
X150351822Y-93500000D01*
X150232365Y-93437303D01*
X150078986Y-93399500D01*
X150078985Y-93399500D01*
X149921015Y-93399500D01*
X149921014Y-93399500D01*
X149767634Y-93437303D01*
X149627762Y-93510715D01*
X149509516Y-93615471D01*
X149419781Y-93745475D01*
X149419780Y-93745476D01*
X149363762Y-93893181D01*
X149344722Y-94049999D01*
X149344722Y-94050000D01*
X148601820Y-94050000D01*
X148622240Y-94039283D01*
X148740483Y-93934530D01*
X148830220Y-93804523D01*
X148886237Y-93656818D01*
X148905278Y-93500000D01*
X148897666Y-93437304D01*
X148886237Y-93343181D01*
X148864992Y-93287163D01*
X148830220Y-93195477D01*
X148740483Y-93065470D01*
X148622240Y-92960717D01*
X148622238Y-92960716D01*
X148622237Y-92960715D01*
X148482365Y-92887303D01*
X148328986Y-92849500D01*
X148328985Y-92849500D01*
X148171015Y-92849500D01*
X148171014Y-92849500D01*
X148017634Y-92887303D01*
X147877762Y-92960715D01*
X147759516Y-93065471D01*
X147669781Y-93195475D01*
X147669780Y-93195476D01*
X147613762Y-93343181D01*
X147594722Y-93499999D01*
X147594722Y-93500000D01*
X146405278Y-93500000D01*
X146397666Y-93437304D01*
X146386237Y-93343181D01*
X146364992Y-93287163D01*
X146330220Y-93195477D01*
X146240483Y-93065470D01*
X146122240Y-92960717D01*
X146122238Y-92960716D01*
X146122237Y-92960715D01*
X145982365Y-92887303D01*
X145828986Y-92849500D01*
X145828985Y-92849500D01*
X145671015Y-92849500D01*
X145671014Y-92849500D01*
X145517634Y-92887303D01*
X145377762Y-92960715D01*
X145259516Y-93065471D01*
X145169781Y-93195475D01*
X145169780Y-93195476D01*
X145113762Y-93343181D01*
X145094722Y-93499999D01*
X145094722Y-93500000D01*
X134916582Y-93500000D01*
X134990483Y-93434530D01*
X135080220Y-93304523D01*
X135136237Y-93156818D01*
X135155278Y-93000000D01*
X135136237Y-92843182D01*
X135080220Y-92695477D01*
X134990483Y-92565470D01*
X134935562Y-92516815D01*
X134898436Y-92457626D01*
X134899204Y-92387761D01*
X134937621Y-92329401D01*
X135001492Y-92301076D01*
X135017790Y-92300000D01*
X136500000Y-92300000D01*
X137050000Y-91750000D01*
X167594722Y-91750000D01*
X167613762Y-91906818D01*
X167660599Y-92030315D01*
X167669780Y-92054523D01*
X167759517Y-92184530D01*
X167877760Y-92289283D01*
X167877762Y-92289284D01*
X168017634Y-92362696D01*
X168171014Y-92400500D01*
X168171015Y-92400500D01*
X168328985Y-92400500D01*
X168482365Y-92362696D01*
X168482364Y-92362695D01*
X168622240Y-92289283D01*
X168740483Y-92184530D01*
X168830220Y-92054523D01*
X168886237Y-91906818D01*
X168905278Y-91750000D01*
X168888607Y-91612696D01*
X168886237Y-91593181D01*
X168864992Y-91537163D01*
X168830220Y-91445477D01*
X168740483Y-91315470D01*
X168622240Y-91210717D01*
X168622238Y-91210716D01*
X168622237Y-91210715D01*
X168482365Y-91137303D01*
X168328986Y-91099500D01*
X168328985Y-91099500D01*
X168171015Y-91099500D01*
X168171014Y-91099500D01*
X168017634Y-91137303D01*
X167877762Y-91210715D01*
X167759516Y-91315471D01*
X167669781Y-91445475D01*
X167669780Y-91445476D01*
X167613762Y-91593181D01*
X167594722Y-91749999D01*
X167594722Y-91750000D01*
X137050000Y-91750000D01*
X137250000Y-91550000D01*
X137250000Y-90593177D01*
X137269685Y-90526138D01*
X137288051Y-90503796D01*
X137463998Y-90334616D01*
X137525966Y-90302340D01*
X137549944Y-90300000D01*
X139068446Y-90300000D01*
X139135485Y-90319685D01*
X139181240Y-90372489D01*
X139191184Y-90441647D01*
X139172790Y-90488582D01*
X139173267Y-90488833D01*
X139170998Y-90493155D01*
X139170494Y-90494443D01*
X139169780Y-90495476D01*
X139113762Y-90643181D01*
X139094722Y-90799999D01*
X139094722Y-90800000D01*
X139113762Y-90956818D01*
X139162876Y-91086319D01*
X139169780Y-91104523D01*
X139259517Y-91234530D01*
X139377760Y-91339283D01*
X139377762Y-91339284D01*
X139517634Y-91412696D01*
X139671014Y-91450500D01*
X139671015Y-91450500D01*
X139828985Y-91450500D01*
X139982365Y-91412696D01*
X139982365Y-91412695D01*
X140122240Y-91339283D01*
X140240483Y-91234530D01*
X140330220Y-91104523D01*
X140369860Y-91000000D01*
X145094722Y-91000000D01*
X145113762Y-91156818D01*
X145134203Y-91210715D01*
X145169780Y-91304523D01*
X145259517Y-91434530D01*
X145377760Y-91539283D01*
X145377762Y-91539284D01*
X145517634Y-91612696D01*
X145671014Y-91650500D01*
X145671015Y-91650500D01*
X145828985Y-91650500D01*
X145982365Y-91612696D01*
X146019547Y-91593181D01*
X146122240Y-91539283D01*
X146240483Y-91434530D01*
X146330220Y-91304523D01*
X146386237Y-91156818D01*
X146405278Y-91000000D01*
X147594722Y-91000000D01*
X147613762Y-91156818D01*
X147634203Y-91210715D01*
X147669780Y-91304523D01*
X147759517Y-91434530D01*
X147877760Y-91539283D01*
X147877762Y-91539284D01*
X148017634Y-91612696D01*
X148171014Y-91650500D01*
X148171015Y-91650500D01*
X148328985Y-91650500D01*
X148482365Y-91612696D01*
X148519547Y-91593181D01*
X148622240Y-91539283D01*
X148740483Y-91434530D01*
X148830220Y-91304523D01*
X148886237Y-91156818D01*
X148905278Y-91000000D01*
X148894678Y-90912696D01*
X148886237Y-90843181D01*
X148862395Y-90780315D01*
X148830220Y-90695477D01*
X148740483Y-90565470D01*
X148622240Y-90460717D01*
X148622238Y-90460716D01*
X148622237Y-90460715D01*
X148482365Y-90387303D01*
X148328986Y-90349500D01*
X148328985Y-90349500D01*
X148171015Y-90349500D01*
X148171014Y-90349500D01*
X148017634Y-90387303D01*
X147877762Y-90460715D01*
X147759516Y-90565471D01*
X147669781Y-90695475D01*
X147669780Y-90695476D01*
X147613762Y-90843181D01*
X147594722Y-90999999D01*
X147594722Y-91000000D01*
X146405278Y-91000000D01*
X146394678Y-90912696D01*
X146386237Y-90843181D01*
X146362395Y-90780315D01*
X146330220Y-90695477D01*
X146240483Y-90565470D01*
X146122240Y-90460717D01*
X146122238Y-90460716D01*
X146122237Y-90460715D01*
X145982365Y-90387303D01*
X145828986Y-90349500D01*
X145828985Y-90349500D01*
X145671015Y-90349500D01*
X145671014Y-90349500D01*
X145517634Y-90387303D01*
X145377762Y-90460715D01*
X145259516Y-90565471D01*
X145169781Y-90695475D01*
X145169780Y-90695476D01*
X145113762Y-90843181D01*
X145094722Y-90999999D01*
X145094722Y-91000000D01*
X140369860Y-91000000D01*
X140386237Y-90956818D01*
X140405278Y-90800000D01*
X140392587Y-90695475D01*
X140386237Y-90643181D01*
X140333374Y-90503794D01*
X140330220Y-90495477D01*
X140240483Y-90365470D01*
X140176850Y-90309097D01*
X140171144Y-90300000D01*
X155094722Y-90300000D01*
X155113762Y-90456818D01*
X155164000Y-90589283D01*
X155169780Y-90604523D01*
X155259517Y-90734530D01*
X155377760Y-90839283D01*
X155377762Y-90839284D01*
X155517634Y-90912696D01*
X155671014Y-90950500D01*
X155671015Y-90950500D01*
X155828985Y-90950500D01*
X155982365Y-90912696D01*
X156122240Y-90839283D01*
X156240483Y-90734530D01*
X156330220Y-90604523D01*
X156386237Y-90456818D01*
X156405278Y-90300000D01*
X156386237Y-90143182D01*
X156350898Y-90050000D01*
X162844722Y-90050000D01*
X162863762Y-90206818D01*
X162912231Y-90334617D01*
X162919780Y-90354523D01*
X163009517Y-90484530D01*
X163127760Y-90589283D01*
X163127762Y-90589284D01*
X163267634Y-90662696D01*
X163421014Y-90700500D01*
X163421015Y-90700500D01*
X163578985Y-90700500D01*
X163732365Y-90662696D01*
X163769547Y-90643181D01*
X163872240Y-90589283D01*
X163990483Y-90484530D01*
X164080220Y-90354523D01*
X164136237Y-90206818D01*
X164155278Y-90050000D01*
X164136237Y-89893182D01*
X164081935Y-89750000D01*
X167594722Y-89750000D01*
X167613762Y-89906818D01*
X167666990Y-90047166D01*
X167669780Y-90054523D01*
X167759517Y-90184530D01*
X167877760Y-90289283D01*
X167877762Y-90289284D01*
X168017634Y-90362696D01*
X168171014Y-90400500D01*
X168171015Y-90400500D01*
X168328985Y-90400500D01*
X168482365Y-90362696D01*
X168497937Y-90354523D01*
X168622240Y-90289283D01*
X168740483Y-90184530D01*
X168830220Y-90054523D01*
X168831935Y-90050000D01*
X170094722Y-90050000D01*
X170113762Y-90206818D01*
X170162231Y-90334617D01*
X170169780Y-90354523D01*
X170259517Y-90484530D01*
X170377760Y-90589283D01*
X170377762Y-90589284D01*
X170517634Y-90662696D01*
X170671014Y-90700500D01*
X170671015Y-90700500D01*
X170828985Y-90700500D01*
X170982365Y-90662696D01*
X171019547Y-90643181D01*
X171122240Y-90589283D01*
X171240483Y-90484530D01*
X171330220Y-90354523D01*
X171386237Y-90206818D01*
X171405278Y-90050000D01*
X171386237Y-89893182D01*
X171330220Y-89745477D01*
X171240483Y-89615470D01*
X171122240Y-89510717D01*
X171122238Y-89510716D01*
X171122237Y-89510715D01*
X170982365Y-89437303D01*
X170828986Y-89399500D01*
X170828985Y-89399500D01*
X170671015Y-89399500D01*
X170671014Y-89399500D01*
X170517634Y-89437303D01*
X170377762Y-89510715D01*
X170259516Y-89615471D01*
X170169781Y-89745475D01*
X170169780Y-89745476D01*
X170113762Y-89893181D01*
X170094722Y-90049999D01*
X170094722Y-90050000D01*
X168831935Y-90050000D01*
X168886237Y-89906818D01*
X168905278Y-89750000D01*
X168897666Y-89687304D01*
X168886237Y-89593181D01*
X168854961Y-89510714D01*
X168830220Y-89445477D01*
X168740483Y-89315470D01*
X168622240Y-89210717D01*
X168622238Y-89210716D01*
X168622237Y-89210715D01*
X168482365Y-89137303D01*
X168328986Y-89099500D01*
X168328985Y-89099500D01*
X168171015Y-89099500D01*
X168171014Y-89099500D01*
X168017634Y-89137303D01*
X167877762Y-89210715D01*
X167759516Y-89315471D01*
X167669781Y-89445475D01*
X167669780Y-89445476D01*
X167613762Y-89593181D01*
X167594722Y-89749999D01*
X167594722Y-89750000D01*
X164081935Y-89750000D01*
X164080220Y-89745477D01*
X163990483Y-89615470D01*
X163872240Y-89510717D01*
X163872237Y-89510714D01*
X163726635Y-89434296D01*
X163676422Y-89385711D01*
X163660448Y-89317692D01*
X163683783Y-89251835D01*
X163739020Y-89209048D01*
X163784261Y-89200500D01*
X163828985Y-89200500D01*
X163982365Y-89162696D01*
X164005602Y-89150500D01*
X164122240Y-89089283D01*
X164240483Y-88984530D01*
X164330220Y-88854523D01*
X164386237Y-88706818D01*
X164405278Y-88550000D01*
X164386237Y-88393182D01*
X164370376Y-88351361D01*
X164360380Y-88325003D01*
X164330220Y-88245477D01*
X164240483Y-88115470D01*
X164122240Y-88010717D01*
X164122238Y-88010716D01*
X164122237Y-88010715D01*
X164101822Y-88000000D01*
X167594722Y-88000000D01*
X167613762Y-88156818D01*
X167654290Y-88263680D01*
X167669780Y-88304523D01*
X167759517Y-88434530D01*
X167877760Y-88539283D01*
X167877762Y-88539284D01*
X168017634Y-88612696D01*
X168171014Y-88650500D01*
X168171015Y-88650500D01*
X168328985Y-88650500D01*
X168482365Y-88612696D01*
X168482364Y-88612695D01*
X168622240Y-88539283D01*
X168740483Y-88434530D01*
X168830220Y-88304523D01*
X168886237Y-88156818D01*
X168905278Y-88000000D01*
X168897666Y-87937304D01*
X168886237Y-87843181D01*
X168856086Y-87763681D01*
X168830220Y-87695477D01*
X168740483Y-87565470D01*
X168622240Y-87460717D01*
X168622238Y-87460716D01*
X168622237Y-87460715D01*
X168482365Y-87387303D01*
X168328986Y-87349500D01*
X168328985Y-87349500D01*
X168171015Y-87349500D01*
X168171014Y-87349500D01*
X168017634Y-87387303D01*
X167877762Y-87460715D01*
X167759516Y-87565471D01*
X167669781Y-87695475D01*
X167669780Y-87695476D01*
X167613762Y-87843181D01*
X167594722Y-87999999D01*
X167594722Y-88000000D01*
X164101822Y-88000000D01*
X163982365Y-87937303D01*
X163828986Y-87899500D01*
X163828985Y-87899500D01*
X163671015Y-87899500D01*
X163671014Y-87899500D01*
X163517634Y-87937303D01*
X163377762Y-88010715D01*
X163259516Y-88115471D01*
X163169781Y-88245475D01*
X163169780Y-88245476D01*
X163113762Y-88393181D01*
X163094722Y-88549999D01*
X163094722Y-88550000D01*
X163113762Y-88706818D01*
X163162876Y-88836319D01*
X163169780Y-88854523D01*
X163259517Y-88984530D01*
X163333418Y-89050000D01*
X163377762Y-89089285D01*
X163523365Y-89165704D01*
X163573578Y-89214289D01*
X163589552Y-89282308D01*
X163566217Y-89348165D01*
X163510980Y-89390952D01*
X163465739Y-89399500D01*
X163421014Y-89399500D01*
X163267634Y-89437303D01*
X163127762Y-89510715D01*
X163009516Y-89615471D01*
X162919781Y-89745475D01*
X162919780Y-89745476D01*
X162863762Y-89893181D01*
X162844722Y-90049999D01*
X162844722Y-90050000D01*
X156350898Y-90050000D01*
X156330220Y-89995477D01*
X156240483Y-89865470D01*
X156122240Y-89760717D01*
X156122238Y-89760716D01*
X156122237Y-89760715D01*
X155982365Y-89687303D01*
X155828986Y-89649500D01*
X155828985Y-89649500D01*
X155671015Y-89649500D01*
X155671014Y-89649500D01*
X155517634Y-89687303D01*
X155377762Y-89760715D01*
X155259516Y-89865471D01*
X155169781Y-89995475D01*
X155169780Y-89995476D01*
X155113762Y-90143181D01*
X155094722Y-90299999D01*
X155094722Y-90300000D01*
X140171144Y-90300000D01*
X140139724Y-90249908D01*
X140140492Y-90180043D01*
X140171395Y-90128603D01*
X140963680Y-89336319D01*
X141025004Y-89302834D01*
X141051362Y-89300000D01*
X142500000Y-89300000D01*
X143000000Y-88800000D01*
X143000000Y-88500000D01*
X145094722Y-88500000D01*
X145113762Y-88656818D01*
X145168064Y-88799999D01*
X145169780Y-88804523D01*
X145259517Y-88934530D01*
X145377760Y-89039283D01*
X145377762Y-89039284D01*
X145517634Y-89112696D01*
X145671014Y-89150500D01*
X145671015Y-89150500D01*
X145828985Y-89150500D01*
X145982365Y-89112696D01*
X146122240Y-89039283D01*
X146240483Y-88934530D01*
X146330220Y-88804523D01*
X146386237Y-88656818D01*
X146405278Y-88500000D01*
X147594722Y-88500000D01*
X147613762Y-88656818D01*
X147668064Y-88799999D01*
X147669780Y-88804523D01*
X147759517Y-88934530D01*
X147877760Y-89039283D01*
X147877762Y-89039284D01*
X148017634Y-89112696D01*
X148171014Y-89150500D01*
X148171015Y-89150500D01*
X148328985Y-89150500D01*
X148482365Y-89112696D01*
X148482364Y-89112695D01*
X148622240Y-89039283D01*
X148740483Y-88934530D01*
X148830220Y-88804523D01*
X148886237Y-88656818D01*
X148905278Y-88500000D01*
X148886237Y-88343182D01*
X148830220Y-88195477D01*
X148740483Y-88065470D01*
X148622240Y-87960717D01*
X148622238Y-87960716D01*
X148622237Y-87960715D01*
X148482365Y-87887303D01*
X148328986Y-87849500D01*
X148328985Y-87849500D01*
X148171015Y-87849500D01*
X148171014Y-87849500D01*
X148017634Y-87887303D01*
X147877762Y-87960715D01*
X147759516Y-88065471D01*
X147669781Y-88195475D01*
X147669780Y-88195476D01*
X147613762Y-88343181D01*
X147594722Y-88499999D01*
X147594722Y-88500000D01*
X146405278Y-88500000D01*
X146386237Y-88343182D01*
X146330220Y-88195477D01*
X146240483Y-88065470D01*
X146122240Y-87960717D01*
X146122238Y-87960716D01*
X146122237Y-87960715D01*
X145982365Y-87887303D01*
X145828986Y-87849500D01*
X145828985Y-87849500D01*
X145671015Y-87849500D01*
X145671014Y-87849500D01*
X145517634Y-87887303D01*
X145377762Y-87960715D01*
X145259516Y-88065471D01*
X145169781Y-88195475D01*
X145169780Y-88195476D01*
X145113762Y-88343181D01*
X145094722Y-88499999D01*
X145094722Y-88500000D01*
X143000000Y-88500000D01*
X143000000Y-88300000D01*
X142500000Y-87800000D01*
X141301362Y-87800000D01*
X141234323Y-87780315D01*
X141213681Y-87763681D01*
X140500000Y-87050000D01*
X138461351Y-87050000D01*
X138394312Y-87030315D01*
X138348557Y-86977511D01*
X138338613Y-86908353D01*
X138367638Y-86844797D01*
X138379124Y-86833184D01*
X138416582Y-86800000D01*
X154594722Y-86800000D01*
X154613762Y-86956818D01*
X154649102Y-87050000D01*
X154669780Y-87104523D01*
X154759517Y-87234530D01*
X154877760Y-87339283D01*
X154877762Y-87339284D01*
X155017634Y-87412696D01*
X155171014Y-87450500D01*
X155171015Y-87450500D01*
X155328985Y-87450500D01*
X155482365Y-87412696D01*
X155482364Y-87412695D01*
X155622240Y-87339283D01*
X155740483Y-87234530D01*
X155830220Y-87104523D01*
X155886237Y-86956818D01*
X155905278Y-86800000D01*
X155886237Y-86643182D01*
X155830220Y-86495477D01*
X155740483Y-86365470D01*
X155622240Y-86260717D01*
X155622238Y-86260716D01*
X155622237Y-86260715D01*
X155482365Y-86187303D01*
X155328986Y-86149500D01*
X155328985Y-86149500D01*
X155171015Y-86149500D01*
X155171014Y-86149500D01*
X155017634Y-86187303D01*
X154877762Y-86260715D01*
X154759516Y-86365471D01*
X154669781Y-86495475D01*
X154669780Y-86495476D01*
X154613762Y-86643181D01*
X154594722Y-86799999D01*
X154594722Y-86800000D01*
X138416582Y-86800000D01*
X138490483Y-86734530D01*
X138580220Y-86604523D01*
X138636237Y-86456818D01*
X138655278Y-86300000D01*
X138636237Y-86143182D01*
X138581935Y-86000000D01*
X145094722Y-86000000D01*
X145113762Y-86156818D01*
X145168064Y-86299999D01*
X145169780Y-86304523D01*
X145259517Y-86434530D01*
X145377760Y-86539283D01*
X145377762Y-86539284D01*
X145517634Y-86612696D01*
X145671014Y-86650500D01*
X145671015Y-86650500D01*
X145828985Y-86650500D01*
X145982365Y-86612696D01*
X145997937Y-86604523D01*
X146122240Y-86539283D01*
X146240483Y-86434530D01*
X146330220Y-86304523D01*
X146386237Y-86156818D01*
X146405278Y-86000000D01*
X165094722Y-86000000D01*
X165113762Y-86156818D01*
X165168064Y-86299999D01*
X165169780Y-86304523D01*
X165259517Y-86434530D01*
X165377760Y-86539283D01*
X165377762Y-86539284D01*
X165517634Y-86612696D01*
X165671014Y-86650500D01*
X165671015Y-86650500D01*
X165828985Y-86650500D01*
X165982365Y-86612696D01*
X165997937Y-86604523D01*
X166122240Y-86539283D01*
X166240483Y-86434530D01*
X166330220Y-86304523D01*
X166386237Y-86156818D01*
X166405278Y-86000000D01*
X167594722Y-86000000D01*
X167613762Y-86156818D01*
X167668064Y-86299999D01*
X167669780Y-86304523D01*
X167759517Y-86434530D01*
X167877760Y-86539283D01*
X167877762Y-86539284D01*
X168017634Y-86612696D01*
X168171014Y-86650500D01*
X168171015Y-86650500D01*
X168328985Y-86650500D01*
X168482365Y-86612696D01*
X168497937Y-86604523D01*
X168622240Y-86539283D01*
X168740483Y-86434530D01*
X168830220Y-86304523D01*
X168886237Y-86156818D01*
X168905278Y-86000000D01*
X168894678Y-85912696D01*
X168886237Y-85843181D01*
X168854961Y-85760715D01*
X168830220Y-85695477D01*
X168740483Y-85565470D01*
X168622240Y-85460717D01*
X168622238Y-85460716D01*
X168622237Y-85460715D01*
X168482365Y-85387303D01*
X168328986Y-85349500D01*
X168328985Y-85349500D01*
X168171015Y-85349500D01*
X168171014Y-85349500D01*
X168017634Y-85387303D01*
X167877762Y-85460715D01*
X167759516Y-85565471D01*
X167669781Y-85695475D01*
X167669780Y-85695476D01*
X167613762Y-85843181D01*
X167594722Y-85999999D01*
X167594722Y-86000000D01*
X166405278Y-86000000D01*
X166394678Y-85912696D01*
X166386237Y-85843181D01*
X166354961Y-85760715D01*
X166330220Y-85695477D01*
X166240483Y-85565470D01*
X166122240Y-85460717D01*
X166122238Y-85460716D01*
X166122237Y-85460715D01*
X165982365Y-85387303D01*
X165828986Y-85349500D01*
X165828985Y-85349500D01*
X165671015Y-85349500D01*
X165671014Y-85349500D01*
X165517634Y-85387303D01*
X165377762Y-85460715D01*
X165259516Y-85565471D01*
X165169781Y-85695475D01*
X165169780Y-85695476D01*
X165113762Y-85843181D01*
X165094722Y-85999999D01*
X165094722Y-86000000D01*
X146405278Y-86000000D01*
X146394678Y-85912696D01*
X146386237Y-85843181D01*
X146354961Y-85760715D01*
X146330220Y-85695477D01*
X146240483Y-85565470D01*
X146122240Y-85460717D01*
X146122238Y-85460716D01*
X146122237Y-85460715D01*
X145982365Y-85387303D01*
X145828986Y-85349500D01*
X145828985Y-85349500D01*
X145671015Y-85349500D01*
X145671014Y-85349500D01*
X145517634Y-85387303D01*
X145377762Y-85460715D01*
X145259516Y-85565471D01*
X145169781Y-85695475D01*
X145169780Y-85695476D01*
X145113762Y-85843181D01*
X145094722Y-85999999D01*
X145094722Y-86000000D01*
X138581935Y-86000000D01*
X138580220Y-85995477D01*
X138490483Y-85865470D01*
X138372240Y-85760717D01*
X138372238Y-85760716D01*
X138372237Y-85760715D01*
X138232365Y-85687303D01*
X138078986Y-85649500D01*
X138078985Y-85649500D01*
X137921015Y-85649500D01*
X137921014Y-85649500D01*
X137767634Y-85687303D01*
X137627762Y-85760715D01*
X137509516Y-85865471D01*
X137476050Y-85913955D01*
X137421767Y-85957945D01*
X137352318Y-85965605D01*
X137289753Y-85934501D01*
X137253936Y-85874510D01*
X137250000Y-85843515D01*
X137250000Y-85300000D01*
X140844722Y-85300000D01*
X140863762Y-85456818D01*
X140914000Y-85589283D01*
X140919780Y-85604523D01*
X141009517Y-85734530D01*
X141127760Y-85839283D01*
X141127762Y-85839284D01*
X141267634Y-85912696D01*
X141421014Y-85950500D01*
X141421015Y-85950500D01*
X141578985Y-85950500D01*
X141732365Y-85912696D01*
X141805121Y-85874510D01*
X141872240Y-85839283D01*
X141990483Y-85734530D01*
X142080220Y-85604523D01*
X142136237Y-85456818D01*
X142155278Y-85300000D01*
X142136237Y-85143182D01*
X142100898Y-85050000D01*
X155594722Y-85050000D01*
X155613762Y-85206818D01*
X155649102Y-85300000D01*
X155669780Y-85354523D01*
X155759517Y-85484530D01*
X155877760Y-85589283D01*
X155877762Y-85589284D01*
X156017634Y-85662696D01*
X156171014Y-85700500D01*
X156171015Y-85700500D01*
X156328985Y-85700500D01*
X156482365Y-85662696D01*
X156482364Y-85662695D01*
X156622240Y-85589283D01*
X156740483Y-85484530D01*
X156830220Y-85354523D01*
X156886237Y-85206818D01*
X156905278Y-85050000D01*
X156886237Y-84893182D01*
X156830220Y-84745477D01*
X156740483Y-84615470D01*
X156622240Y-84510717D01*
X156622238Y-84510716D01*
X156622237Y-84510715D01*
X156482365Y-84437303D01*
X156328986Y-84399500D01*
X156328985Y-84399500D01*
X156171015Y-84399500D01*
X156171014Y-84399500D01*
X156017634Y-84437303D01*
X155877762Y-84510715D01*
X155759516Y-84615471D01*
X155669781Y-84745475D01*
X155669780Y-84745476D01*
X155613762Y-84893181D01*
X155594722Y-85049999D01*
X155594722Y-85050000D01*
X142100898Y-85050000D01*
X142080220Y-84995477D01*
X141990483Y-84865470D01*
X141872240Y-84760717D01*
X141872238Y-84760716D01*
X141872237Y-84760715D01*
X141732365Y-84687303D01*
X141578986Y-84649500D01*
X141578985Y-84649500D01*
X141421015Y-84649500D01*
X141421014Y-84649500D01*
X141267634Y-84687303D01*
X141127762Y-84760715D01*
X141009516Y-84865471D01*
X140919781Y-84995475D01*
X140919780Y-84995476D01*
X140863762Y-85143181D01*
X140844722Y-85299999D01*
X140844722Y-85300000D01*
X137250000Y-85300000D01*
X137250000Y-83300000D01*
X136750000Y-82800000D01*
X147094722Y-82800000D01*
X147113762Y-82956818D01*
X147162876Y-83086319D01*
X147169780Y-83104523D01*
X147259517Y-83234530D01*
X147377760Y-83339283D01*
X147377762Y-83339284D01*
X147517634Y-83412696D01*
X147671014Y-83450500D01*
X147671015Y-83450500D01*
X147828985Y-83450500D01*
X147982365Y-83412696D01*
X147982365Y-83412695D01*
X148122240Y-83339283D01*
X148240483Y-83234530D01*
X148330220Y-83104523D01*
X148386237Y-82956818D01*
X148405278Y-82800000D01*
X150794722Y-82800000D01*
X150813762Y-82956818D01*
X150862876Y-83086319D01*
X150869780Y-83104523D01*
X150959517Y-83234530D01*
X151077760Y-83339283D01*
X151077762Y-83339284D01*
X151217634Y-83412696D01*
X151371014Y-83450500D01*
X151371015Y-83450500D01*
X151528985Y-83450500D01*
X151682365Y-83412696D01*
X151682364Y-83412695D01*
X151822240Y-83339283D01*
X151940483Y-83234530D01*
X152030220Y-83104523D01*
X152086237Y-82956818D01*
X152105278Y-82800000D01*
X152086237Y-82643182D01*
X152086236Y-82643179D01*
X152086236Y-82643178D01*
X152076866Y-82618470D01*
X152071499Y-82548807D01*
X152104647Y-82487301D01*
X152165786Y-82453480D01*
X152192808Y-82450500D01*
X152328985Y-82450500D01*
X152482365Y-82412696D01*
X152552231Y-82376027D01*
X152622240Y-82339283D01*
X152740483Y-82234530D01*
X152830220Y-82104523D01*
X152886237Y-81956818D01*
X152905278Y-81800000D01*
X152886237Y-81643182D01*
X152830220Y-81495477D01*
X152740483Y-81365470D01*
X152622240Y-81260717D01*
X152622238Y-81260716D01*
X152622237Y-81260715D01*
X152482365Y-81187303D01*
X152328986Y-81149500D01*
X152328985Y-81149500D01*
X152171015Y-81149500D01*
X152171014Y-81149500D01*
X152017634Y-81187303D01*
X151877762Y-81260715D01*
X151759516Y-81365471D01*
X151669781Y-81495475D01*
X151669780Y-81495476D01*
X151613762Y-81643181D01*
X151594722Y-81799999D01*
X151594722Y-81800000D01*
X151613763Y-81956819D01*
X151613763Y-81956821D01*
X151623134Y-81981530D01*
X151628501Y-82051193D01*
X151595353Y-82112699D01*
X151534214Y-82146520D01*
X151507192Y-82149500D01*
X151371014Y-82149500D01*
X151217634Y-82187303D01*
X151077762Y-82260715D01*
X150959516Y-82365471D01*
X150869781Y-82495475D01*
X150869780Y-82495476D01*
X150813762Y-82643181D01*
X150794722Y-82799999D01*
X150794722Y-82800000D01*
X148405278Y-82800000D01*
X148391953Y-82690253D01*
X148386237Y-82643181D01*
X148364148Y-82584938D01*
X148358781Y-82515275D01*
X148391928Y-82453769D01*
X148450414Y-82420570D01*
X148482365Y-82412696D01*
X148622240Y-82339283D01*
X148740483Y-82234530D01*
X148830220Y-82104523D01*
X148886237Y-81956818D01*
X148905278Y-81800000D01*
X148886237Y-81643182D01*
X148830220Y-81495477D01*
X148740483Y-81365470D01*
X148622240Y-81260717D01*
X148622238Y-81260716D01*
X148622237Y-81260715D01*
X148482365Y-81187303D01*
X148328986Y-81149500D01*
X148328985Y-81149500D01*
X148171015Y-81149500D01*
X148171014Y-81149500D01*
X148017634Y-81187303D01*
X147877762Y-81260715D01*
X147759516Y-81365471D01*
X147669781Y-81495475D01*
X147669780Y-81495476D01*
X147613762Y-81643181D01*
X147594722Y-81799999D01*
X147594722Y-81800000D01*
X147613763Y-81956819D01*
X147613763Y-81956821D01*
X147635851Y-82015062D01*
X147641218Y-82084725D01*
X147608070Y-82146231D01*
X147549585Y-82179429D01*
X147517632Y-82187304D01*
X147377762Y-82260715D01*
X147259516Y-82365471D01*
X147169781Y-82495475D01*
X147169780Y-82495476D01*
X147113762Y-82643181D01*
X147094722Y-82799999D01*
X147094722Y-82800000D01*
X136750000Y-82800000D01*
X133000000Y-82800000D01*
X132999999Y-82800000D01*
X131286319Y-84513681D01*
X131224996Y-84547166D01*
X131198638Y-84550000D01*
X130624500Y-84550000D01*
X130557461Y-84530315D01*
X130511706Y-84477511D01*
X130500500Y-84426000D01*
X130500500Y-81000000D01*
X135844722Y-81000000D01*
X135863762Y-81156818D01*
X135919779Y-81304523D01*
X135919780Y-81304523D01*
X136009517Y-81434530D01*
X136127760Y-81539283D01*
X136127762Y-81539284D01*
X136267634Y-81612696D01*
X136421014Y-81650500D01*
X136421015Y-81650500D01*
X136578985Y-81650500D01*
X136732365Y-81612696D01*
X136732365Y-81612695D01*
X136872240Y-81539283D01*
X136990483Y-81434530D01*
X137080220Y-81304523D01*
X137136237Y-81156818D01*
X137155278Y-81000000D01*
X137136237Y-80843182D01*
X137080220Y-80695477D01*
X136990483Y-80565470D01*
X136872240Y-80460717D01*
X136872238Y-80460716D01*
X136872237Y-80460715D01*
X136732365Y-80387303D01*
X136578986Y-80349500D01*
X136578985Y-80349500D01*
X136421015Y-80349500D01*
X136421014Y-80349500D01*
X136267634Y-80387303D01*
X136127762Y-80460715D01*
X136009516Y-80565471D01*
X135919781Y-80695475D01*
X135919780Y-80695476D01*
X135863762Y-80843181D01*
X135844722Y-80999999D01*
X135844722Y-81000000D01*
X130500500Y-81000000D01*
X130500500Y-79000000D01*
X135844722Y-79000000D01*
X135863762Y-79156818D01*
X135901750Y-79256982D01*
X135919780Y-79304523D01*
X136009517Y-79434530D01*
X136127760Y-79539283D01*
X136127762Y-79539284D01*
X136267634Y-79612696D01*
X136421014Y-79650500D01*
X136421015Y-79650500D01*
X136578985Y-79650500D01*
X136732365Y-79612696D01*
X136747937Y-79604523D01*
X136872240Y-79539283D01*
X136990483Y-79434530D01*
X137080220Y-79304523D01*
X137081935Y-79300000D01*
X164844722Y-79300000D01*
X164863762Y-79456818D01*
X164919779Y-79604522D01*
X164919780Y-79604523D01*
X165009517Y-79734530D01*
X165127760Y-79839283D01*
X165127762Y-79839284D01*
X165267634Y-79912696D01*
X165421014Y-79950500D01*
X165421015Y-79950500D01*
X165578985Y-79950500D01*
X165732365Y-79912696D01*
X165732364Y-79912695D01*
X165872240Y-79839283D01*
X165990483Y-79734530D01*
X166080220Y-79604523D01*
X166136237Y-79456818D01*
X166155278Y-79300000D01*
X166150055Y-79256980D01*
X166136237Y-79143181D01*
X166081935Y-79000000D01*
X166080220Y-78995477D01*
X165990483Y-78865470D01*
X165872240Y-78760717D01*
X165872238Y-78760716D01*
X165872237Y-78760715D01*
X165732365Y-78687303D01*
X165578986Y-78649500D01*
X165578985Y-78649500D01*
X165421015Y-78649500D01*
X165421014Y-78649500D01*
X165267634Y-78687303D01*
X165127762Y-78760715D01*
X165009516Y-78865471D01*
X164919781Y-78995475D01*
X164919780Y-78995476D01*
X164863762Y-79143181D01*
X164844722Y-79299999D01*
X164844722Y-79300000D01*
X137081935Y-79300000D01*
X137136237Y-79156818D01*
X137155278Y-79000000D01*
X137136237Y-78843182D01*
X137080220Y-78695477D01*
X136990483Y-78565470D01*
X136872240Y-78460717D01*
X136872238Y-78460716D01*
X136872237Y-78460715D01*
X136732365Y-78387303D01*
X136682448Y-78375000D01*
X166354785Y-78375000D01*
X166373602Y-78578082D01*
X166429417Y-78774247D01*
X166429422Y-78774260D01*
X166520327Y-78956821D01*
X166643237Y-79119581D01*
X166793958Y-79256980D01*
X166793960Y-79256982D01*
X166863437Y-79300000D01*
X166967363Y-79364348D01*
X167157544Y-79438024D01*
X167358024Y-79475500D01*
X167358026Y-79475500D01*
X167561974Y-79475500D01*
X167561976Y-79475500D01*
X167762456Y-79438024D01*
X167952637Y-79364348D01*
X168126041Y-79256981D01*
X168276764Y-79119579D01*
X168399673Y-78956821D01*
X168490582Y-78774250D01*
X168546397Y-78578083D01*
X168565215Y-78375000D01*
X168546397Y-78171917D01*
X168490582Y-77975750D01*
X168399673Y-77793179D01*
X168276764Y-77630421D01*
X168276762Y-77630418D01*
X168126041Y-77493019D01*
X168126039Y-77493017D01*
X167952642Y-77385655D01*
X167952635Y-77385651D01*
X167846150Y-77344399D01*
X167762456Y-77311976D01*
X167561976Y-77274500D01*
X167358024Y-77274500D01*
X167157544Y-77311976D01*
X167157541Y-77311976D01*
X167157541Y-77311977D01*
X166967364Y-77385651D01*
X166967357Y-77385655D01*
X166793960Y-77493017D01*
X166793958Y-77493019D01*
X166643237Y-77630418D01*
X166520327Y-77793178D01*
X166429422Y-77975739D01*
X166429417Y-77975752D01*
X166373602Y-78171917D01*
X166354785Y-78374999D01*
X166354785Y-78375000D01*
X136682448Y-78375000D01*
X136578986Y-78349500D01*
X136578985Y-78349500D01*
X136421015Y-78349500D01*
X136421014Y-78349500D01*
X136267634Y-78387303D01*
X136127762Y-78460715D01*
X136009516Y-78565471D01*
X135919781Y-78695475D01*
X135919780Y-78695476D01*
X135863762Y-78843181D01*
X135844722Y-78999999D01*
X135844722Y-79000000D01*
X130500500Y-79000000D01*
X130500500Y-75800000D01*
X164844718Y-75800000D01*
X164863758Y-75956818D01*
X164904906Y-76065315D01*
X164919776Y-76104523D01*
X165009513Y-76234530D01*
X165127756Y-76339283D01*
X165127758Y-76339284D01*
X165267630Y-76412696D01*
X165421010Y-76450500D01*
X165421011Y-76450500D01*
X165578981Y-76450500D01*
X165732361Y-76412696D01*
X165872236Y-76339283D01*
X165990479Y-76234530D01*
X166080216Y-76104523D01*
X166130961Y-75970717D01*
X166173140Y-75915014D01*
X166238738Y-75890957D01*
X166306928Y-75906184D01*
X166356061Y-75955860D01*
X166370375Y-76003247D01*
X166373602Y-76038082D01*
X166429417Y-76234247D01*
X166429422Y-76234260D01*
X166520327Y-76416821D01*
X166643237Y-76579581D01*
X166793958Y-76716980D01*
X166793960Y-76716982D01*
X166893141Y-76778392D01*
X166967363Y-76824348D01*
X167157544Y-76898024D01*
X167358024Y-76935500D01*
X167358026Y-76935500D01*
X167561974Y-76935500D01*
X167561976Y-76935500D01*
X167762456Y-76898024D01*
X167952637Y-76824348D01*
X168126041Y-76716981D01*
X168276764Y-76579579D01*
X168399673Y-76416821D01*
X168486816Y-76241812D01*
X168534319Y-76190575D01*
X168601982Y-76173153D01*
X168668323Y-76195078D01*
X168712278Y-76249389D01*
X168717592Y-76264989D01*
X168726567Y-76298485D01*
X168726570Y-76298492D01*
X168826399Y-76512578D01*
X168961894Y-76706082D01*
X169128917Y-76873105D01*
X169322421Y-77008600D01*
X169385723Y-77038118D01*
X169438162Y-77084290D01*
X169457314Y-77151484D01*
X169437098Y-77218365D01*
X169383933Y-77263700D01*
X169333318Y-77274500D01*
X169125323Y-77274500D01*
X169052264Y-77289032D01*
X169052260Y-77289033D01*
X168969399Y-77344399D01*
X168914033Y-77427260D01*
X168914032Y-77427264D01*
X168899500Y-77500321D01*
X168899499Y-77500323D01*
X168899499Y-79249676D01*
X168899500Y-79249678D01*
X168914032Y-79322735D01*
X168914033Y-79322739D01*
X168914034Y-79322740D01*
X168969399Y-79405601D01*
X169046052Y-79456818D01*
X169052260Y-79460966D01*
X169052264Y-79460967D01*
X169125321Y-79475499D01*
X169125324Y-79475500D01*
X169125326Y-79475500D01*
X170874676Y-79475500D01*
X170874677Y-79475499D01*
X170947740Y-79460966D01*
X171030601Y-79405601D01*
X171085966Y-79322740D01*
X171100500Y-79249674D01*
X171100500Y-79086676D01*
X172987499Y-79086676D01*
X172987500Y-79086678D01*
X173002032Y-79159735D01*
X173002033Y-79159739D01*
X173002034Y-79159740D01*
X173057399Y-79242601D01*
X173140260Y-79297965D01*
X173140260Y-79297966D01*
X173140264Y-79297967D01*
X173213321Y-79312499D01*
X173213324Y-79312500D01*
X173213326Y-79312500D01*
X174786676Y-79312500D01*
X174786677Y-79312499D01*
X174859740Y-79297966D01*
X174942601Y-79242601D01*
X174997966Y-79159740D01*
X175012500Y-79086674D01*
X175012500Y-77513326D01*
X175012500Y-77513325D01*
X175012500Y-77513323D01*
X175012499Y-77513321D01*
X174997967Y-77440264D01*
X174997966Y-77440260D01*
X174975621Y-77406818D01*
X174942601Y-77357399D01*
X174859740Y-77302034D01*
X174859739Y-77302033D01*
X174859735Y-77302032D01*
X174786677Y-77287500D01*
X174786674Y-77287500D01*
X173213326Y-77287500D01*
X173213323Y-77287500D01*
X173140264Y-77302032D01*
X173140260Y-77302033D01*
X173057399Y-77357399D01*
X173002033Y-77440260D01*
X173002032Y-77440264D01*
X172987500Y-77513321D01*
X172987499Y-77513323D01*
X172987499Y-79086676D01*
X171100500Y-79086676D01*
X171100500Y-77500326D01*
X171100500Y-77500323D01*
X171100499Y-77500321D01*
X171085967Y-77427264D01*
X171085966Y-77427260D01*
X171072307Y-77406818D01*
X171030601Y-77344399D01*
X170947740Y-77289034D01*
X170947739Y-77289033D01*
X170947735Y-77289032D01*
X170874677Y-77274500D01*
X170874674Y-77274500D01*
X170666682Y-77274500D01*
X170599643Y-77254815D01*
X170595471Y-77250000D01*
X176094722Y-77250000D01*
X176113762Y-77406818D01*
X176154154Y-77513321D01*
X176169780Y-77554523D01*
X176259517Y-77684530D01*
X176377760Y-77789283D01*
X176377762Y-77789284D01*
X176517634Y-77862696D01*
X176671014Y-77900500D01*
X176671015Y-77900500D01*
X176828985Y-77900500D01*
X176982365Y-77862696D01*
X176982364Y-77862696D01*
X177122240Y-77789283D01*
X177240483Y-77684530D01*
X177330220Y-77554523D01*
X177386237Y-77406818D01*
X177405278Y-77250000D01*
X177386237Y-77093182D01*
X177330220Y-76945477D01*
X177240483Y-76815470D01*
X177122240Y-76710717D01*
X177122238Y-76710716D01*
X177122237Y-76710715D01*
X176982365Y-76637303D01*
X176828986Y-76599500D01*
X176828985Y-76599500D01*
X176671015Y-76599500D01*
X176671014Y-76599500D01*
X176517634Y-76637303D01*
X176377762Y-76710715D01*
X176259516Y-76815471D01*
X176169781Y-76945475D01*
X176169780Y-76945476D01*
X176113762Y-77093181D01*
X176094722Y-77249999D01*
X176094722Y-77250000D01*
X170595471Y-77250000D01*
X170553888Y-77202011D01*
X170543944Y-77132853D01*
X170572969Y-77069297D01*
X170614277Y-77038118D01*
X170677578Y-77008600D01*
X170871082Y-76873105D01*
X171038105Y-76706082D01*
X171173600Y-76512578D01*
X171273429Y-76298492D01*
X171273432Y-76298486D01*
X171330636Y-76085000D01*
X170433686Y-76085000D01*
X170459493Y-76044844D01*
X170500000Y-75906889D01*
X170500000Y-75763111D01*
X170459493Y-75625156D01*
X170433686Y-75585000D01*
X171330636Y-75585000D01*
X171330635Y-75584999D01*
X171273432Y-75371513D01*
X171273429Y-75371507D01*
X171173600Y-75157422D01*
X171173599Y-75157420D01*
X171038113Y-74963926D01*
X171038108Y-74963920D01*
X170871082Y-74796894D01*
X170684968Y-74666575D01*
X170641344Y-74611998D01*
X170634151Y-74542499D01*
X170665673Y-74480145D01*
X170684968Y-74463425D01*
X170871082Y-74333105D01*
X171038105Y-74166082D01*
X171173600Y-73972578D01*
X171273429Y-73758492D01*
X171273432Y-73758486D01*
X171330636Y-73545000D01*
X170433686Y-73545000D01*
X170459493Y-73504844D01*
X170500000Y-73366889D01*
X170500000Y-73223111D01*
X170459493Y-73085156D01*
X170433686Y-73045000D01*
X171330636Y-73045000D01*
X171330635Y-73044999D01*
X171273432Y-72831513D01*
X171273429Y-72831507D01*
X171173600Y-72617422D01*
X171173599Y-72617420D01*
X171038113Y-72423926D01*
X171038108Y-72423920D01*
X170871082Y-72256894D01*
X170677578Y-72121399D01*
X170463492Y-72021570D01*
X170463477Y-72021564D01*
X170424414Y-72011097D01*
X170364754Y-71974732D01*
X170334226Y-71911885D01*
X170342521Y-71842509D01*
X170387007Y-71788632D01*
X170411710Y-71775698D01*
X170492637Y-71744348D01*
X170666041Y-71636981D01*
X170816764Y-71499579D01*
X170939673Y-71336821D01*
X170958008Y-71300000D01*
X172733179Y-71300000D01*
X172752424Y-71519976D01*
X172752426Y-71519986D01*
X172809575Y-71733270D01*
X172809580Y-71733284D01*
X172902899Y-71933407D01*
X172902900Y-71933409D01*
X172948258Y-71998187D01*
X173546220Y-71400225D01*
X173546467Y-71403516D01*
X173597128Y-71532598D01*
X173683586Y-71641013D01*
X173798159Y-71719127D01*
X173902301Y-71751250D01*
X173301811Y-72351741D01*
X173366582Y-72397094D01*
X173366592Y-72397100D01*
X173566715Y-72490419D01*
X173566729Y-72490424D01*
X173780013Y-72547573D01*
X173780024Y-72547575D01*
X173831790Y-72552104D01*
X173896859Y-72577556D01*
X173937837Y-72634147D01*
X173941716Y-72703909D01*
X173907263Y-72764693D01*
X173845416Y-72797201D01*
X173833138Y-72799035D01*
X173801518Y-72802149D01*
X173610651Y-72860048D01*
X173434768Y-72954060D01*
X173434761Y-72954065D01*
X173280589Y-73080589D01*
X173154065Y-73234761D01*
X173154060Y-73234768D01*
X173060048Y-73410651D01*
X173002149Y-73601518D01*
X172982601Y-73799999D01*
X173002149Y-73998481D01*
X173002149Y-73998483D01*
X173002150Y-73998485D01*
X173056297Y-74176982D01*
X173060048Y-74189348D01*
X173154060Y-74365231D01*
X173154065Y-74365238D01*
X173280589Y-74519410D01*
X173434761Y-74645934D01*
X173434768Y-74645940D01*
X173518400Y-74690642D01*
X173568245Y-74739604D01*
X173583705Y-74807742D01*
X173559873Y-74873422D01*
X173518400Y-74909358D01*
X173434768Y-74954059D01*
X173434761Y-74954065D01*
X173280589Y-75080589D01*
X173154065Y-75234761D01*
X173154060Y-75234768D01*
X173060048Y-75410651D01*
X173002149Y-75601518D01*
X172982601Y-75799999D01*
X173002149Y-75998481D01*
X173002149Y-75998483D01*
X173002150Y-75998485D01*
X173034317Y-76104524D01*
X173060048Y-76189348D01*
X173154060Y-76365231D01*
X173154065Y-76365238D01*
X173280589Y-76519410D01*
X173353906Y-76579579D01*
X173434763Y-76645936D01*
X173434766Y-76645937D01*
X173434768Y-76645939D01*
X173610651Y-76739951D01*
X173610654Y-76739951D01*
X173610658Y-76739954D01*
X173801515Y-76797850D01*
X174000000Y-76817399D01*
X174198485Y-76797850D01*
X174389342Y-76739954D01*
X174432322Y-76716981D01*
X174565231Y-76645939D01*
X174565229Y-76645939D01*
X174565237Y-76645936D01*
X174719410Y-76519410D01*
X174845936Y-76365237D01*
X174911908Y-76241812D01*
X174939951Y-76189348D01*
X174939951Y-76189347D01*
X174939954Y-76189342D01*
X174997850Y-75998485D01*
X175017399Y-75800000D01*
X174997850Y-75601515D01*
X174939954Y-75410658D01*
X174939951Y-75410654D01*
X174939951Y-75410651D01*
X174845939Y-75234768D01*
X174845937Y-75234766D01*
X174845936Y-75234763D01*
X174782464Y-75157422D01*
X174719410Y-75080589D01*
X174565238Y-74954065D01*
X174565231Y-74954060D01*
X174481599Y-74909358D01*
X174431755Y-74860396D01*
X174416294Y-74792259D01*
X174431627Y-74750000D01*
X176094722Y-74750000D01*
X176113762Y-74906818D01*
X176135421Y-74963926D01*
X176169780Y-75054523D01*
X176259517Y-75184530D01*
X176377760Y-75289283D01*
X176377762Y-75289284D01*
X176517634Y-75362696D01*
X176671014Y-75400500D01*
X176671015Y-75400500D01*
X176828985Y-75400500D01*
X176982365Y-75362696D01*
X177005945Y-75350320D01*
X177122240Y-75289283D01*
X177240483Y-75184530D01*
X177330220Y-75054523D01*
X177386237Y-74906818D01*
X177405278Y-74750000D01*
X177395149Y-74666575D01*
X177386237Y-74593181D01*
X177357725Y-74518003D01*
X177330220Y-74445477D01*
X177240483Y-74315470D01*
X177122240Y-74210717D01*
X177122238Y-74210716D01*
X177122237Y-74210715D01*
X176982365Y-74137303D01*
X176828986Y-74099500D01*
X176828985Y-74099500D01*
X176671015Y-74099500D01*
X176671014Y-74099500D01*
X176517634Y-74137303D01*
X176377762Y-74210715D01*
X176259516Y-74315471D01*
X176169781Y-74445475D01*
X176169780Y-74445476D01*
X176113762Y-74593181D01*
X176094722Y-74749999D01*
X176094722Y-74750000D01*
X174431627Y-74750000D01*
X174440125Y-74726579D01*
X174481599Y-74690642D01*
X174557903Y-74649856D01*
X174565237Y-74645936D01*
X174719410Y-74519410D01*
X174845936Y-74365237D01*
X174939954Y-74189342D01*
X174997850Y-73998485D01*
X175017399Y-73800000D01*
X174997850Y-73601515D01*
X174939954Y-73410658D01*
X174939951Y-73410654D01*
X174939951Y-73410651D01*
X174845939Y-73234768D01*
X174845937Y-73234766D01*
X174845936Y-73234763D01*
X174807456Y-73187875D01*
X174719410Y-73080589D01*
X174565238Y-72954065D01*
X174565231Y-72954060D01*
X174389348Y-72860048D01*
X174389342Y-72860046D01*
X174198485Y-72802150D01*
X174198483Y-72802149D01*
X174198481Y-72802149D01*
X174166861Y-72799035D01*
X174102074Y-72772874D01*
X174061715Y-72715839D01*
X174058599Y-72646039D01*
X174093714Y-72585634D01*
X174155912Y-72553803D01*
X174168209Y-72552104D01*
X174219976Y-72547575D01*
X174219986Y-72547573D01*
X174433270Y-72490424D01*
X174433284Y-72490419D01*
X174633408Y-72397100D01*
X174633420Y-72397093D01*
X174698186Y-72351742D01*
X174698187Y-72351740D01*
X174097020Y-71750572D01*
X174137119Y-71744529D01*
X174262054Y-71684363D01*
X174363705Y-71590045D01*
X174433039Y-71469955D01*
X174449850Y-71396297D01*
X175051740Y-71998187D01*
X175051742Y-71998186D01*
X175097093Y-71933420D01*
X175097100Y-71933408D01*
X175190419Y-71733284D01*
X175190424Y-71733270D01*
X175247573Y-71519986D01*
X175247575Y-71519976D01*
X175266821Y-71300000D01*
X175266821Y-71299999D01*
X175247575Y-71080023D01*
X175247573Y-71080013D01*
X175190424Y-70866729D01*
X175190420Y-70866720D01*
X175097098Y-70666590D01*
X175051740Y-70601811D01*
X174453779Y-71199772D01*
X174453533Y-71196484D01*
X174402872Y-71067402D01*
X174316414Y-70958987D01*
X174201841Y-70880873D01*
X174097697Y-70848749D01*
X174698187Y-70248258D01*
X174633409Y-70202900D01*
X174633407Y-70202899D01*
X174433284Y-70109580D01*
X174433270Y-70109575D01*
X174219986Y-70052426D01*
X174219976Y-70052424D01*
X174000001Y-70033179D01*
X173999999Y-70033179D01*
X173780023Y-70052424D01*
X173780013Y-70052426D01*
X173566729Y-70109575D01*
X173566720Y-70109579D01*
X173366586Y-70202903D01*
X173301812Y-70248257D01*
X173301811Y-70248258D01*
X173902980Y-70849427D01*
X173862881Y-70855471D01*
X173737946Y-70915637D01*
X173636295Y-71009955D01*
X173566961Y-71130045D01*
X173550149Y-71203702D01*
X172948258Y-70601811D01*
X172948257Y-70601812D01*
X172902903Y-70666586D01*
X172809579Y-70866720D01*
X172809575Y-70866729D01*
X172752426Y-71080013D01*
X172752424Y-71080023D01*
X172733179Y-71299999D01*
X172733179Y-71300000D01*
X170958008Y-71300000D01*
X171030582Y-71154250D01*
X171086397Y-70958083D01*
X171105215Y-70755000D01*
X171104331Y-70745465D01*
X171086397Y-70551917D01*
X171043386Y-70400752D01*
X171030582Y-70355750D01*
X170939673Y-70173179D01*
X170880704Y-70095091D01*
X170816762Y-70010418D01*
X170666041Y-69873019D01*
X170666039Y-69873017D01*
X170492642Y-69765655D01*
X170492635Y-69765651D01*
X170411715Y-69734303D01*
X170356313Y-69691730D01*
X170332723Y-69625963D01*
X170348434Y-69557883D01*
X170398458Y-69509104D01*
X170424417Y-69498901D01*
X170463481Y-69488434D01*
X170463492Y-69488429D01*
X170677578Y-69388600D01*
X170871082Y-69253105D01*
X171038105Y-69086082D01*
X171173600Y-68892578D01*
X171273429Y-68678492D01*
X171273432Y-68678486D01*
X171330636Y-68465000D01*
X170433686Y-68465000D01*
X170459493Y-68424844D01*
X170500000Y-68286889D01*
X170500000Y-68143111D01*
X170459493Y-68005156D01*
X170433686Y-67965000D01*
X171330636Y-67965000D01*
X171330635Y-67964999D01*
X171273432Y-67751513D01*
X171273429Y-67751507D01*
X171173600Y-67537422D01*
X171173599Y-67537420D01*
X171038113Y-67343926D01*
X171038108Y-67343920D01*
X170871082Y-67176894D01*
X170677578Y-67041399D01*
X170463492Y-66941570D01*
X170463486Y-66941567D01*
X170250000Y-66884364D01*
X170250000Y-67779498D01*
X170142315Y-67730320D01*
X170035763Y-67715000D01*
X169964237Y-67715000D01*
X169857685Y-67730320D01*
X169750000Y-67779498D01*
X169750000Y-66884364D01*
X169749999Y-66884364D01*
X169536513Y-66941567D01*
X169536507Y-66941570D01*
X169322422Y-67041399D01*
X169322420Y-67041400D01*
X169128926Y-67176886D01*
X169128920Y-67176891D01*
X168961891Y-67343920D01*
X168961886Y-67343926D01*
X168826400Y-67537420D01*
X168826399Y-67537422D01*
X168726570Y-67751507D01*
X168726568Y-67751511D01*
X168717592Y-67785011D01*
X168681226Y-67844671D01*
X168618379Y-67875199D01*
X168549003Y-67866904D01*
X168495126Y-67822418D01*
X168486817Y-67808188D01*
X168440415Y-67715000D01*
X168399673Y-67633179D01*
X168340704Y-67555092D01*
X168276762Y-67470418D01*
X168126041Y-67333019D01*
X168126039Y-67333017D01*
X167952642Y-67225655D01*
X167952635Y-67225651D01*
X167826769Y-67176891D01*
X167762456Y-67151976D01*
X167561976Y-67114500D01*
X167358024Y-67114500D01*
X167157544Y-67151976D01*
X167157541Y-67151976D01*
X167157541Y-67151977D01*
X166967364Y-67225651D01*
X166967357Y-67225655D01*
X166793960Y-67333017D01*
X166793958Y-67333019D01*
X166643237Y-67470418D01*
X166520327Y-67633178D01*
X166429422Y-67815739D01*
X166429417Y-67815752D01*
X166373602Y-68011917D01*
X166354785Y-68214999D01*
X166354785Y-68215000D01*
X166373602Y-68418082D01*
X166429417Y-68614247D01*
X166429422Y-68614260D01*
X166520327Y-68796821D01*
X166643237Y-68959581D01*
X166793958Y-69096980D01*
X166793960Y-69096982D01*
X166854842Y-69134678D01*
X166967363Y-69204348D01*
X167157544Y-69278024D01*
X167358024Y-69315500D01*
X167358026Y-69315500D01*
X167561974Y-69315500D01*
X167561976Y-69315500D01*
X167762456Y-69278024D01*
X167952637Y-69204348D01*
X168126041Y-69096981D01*
X168276764Y-68959579D01*
X168399673Y-68796821D01*
X168483044Y-68629389D01*
X168486817Y-68621812D01*
X168534319Y-68570575D01*
X168601982Y-68553153D01*
X168668323Y-68575078D01*
X168712278Y-68629389D01*
X168717592Y-68644989D01*
X168726567Y-68678485D01*
X168726570Y-68678492D01*
X168826399Y-68892578D01*
X168961894Y-69086082D01*
X169128917Y-69253105D01*
X169322421Y-69388600D01*
X169536507Y-69488429D01*
X169536516Y-69488433D01*
X169575583Y-69498901D01*
X169635244Y-69535266D01*
X169665773Y-69598113D01*
X169657479Y-69667488D01*
X169612993Y-69721366D01*
X169588284Y-69734302D01*
X169507373Y-69765647D01*
X169507357Y-69765655D01*
X169333960Y-69873017D01*
X169333958Y-69873019D01*
X169183237Y-70010418D01*
X169060327Y-70173178D01*
X168969422Y-70355739D01*
X168969417Y-70355752D01*
X168913602Y-70551917D01*
X168894785Y-70754999D01*
X168894785Y-70755000D01*
X168913602Y-70958082D01*
X168969417Y-71154247D01*
X168969422Y-71154260D01*
X169060327Y-71336821D01*
X169183237Y-71499581D01*
X169333958Y-71636980D01*
X169333960Y-71636982D01*
X169406638Y-71681982D01*
X169507363Y-71744348D01*
X169588283Y-71775696D01*
X169643685Y-71818269D01*
X169667276Y-71884035D01*
X169651565Y-71952116D01*
X169601542Y-72000895D01*
X169575586Y-72011097D01*
X169536519Y-72021565D01*
X169536507Y-72021570D01*
X169322422Y-72121399D01*
X169322420Y-72121400D01*
X169128926Y-72256886D01*
X169128920Y-72256891D01*
X168961891Y-72423920D01*
X168961886Y-72423926D01*
X168826400Y-72617420D01*
X168826399Y-72617422D01*
X168726570Y-72831507D01*
X168726568Y-72831511D01*
X168717592Y-72865011D01*
X168681226Y-72924671D01*
X168618379Y-72955199D01*
X168549003Y-72946904D01*
X168495126Y-72902418D01*
X168486817Y-72888188D01*
X168443975Y-72802150D01*
X168399673Y-72713179D01*
X168313020Y-72598432D01*
X168276762Y-72550418D01*
X168126041Y-72413019D01*
X168126039Y-72413017D01*
X167952642Y-72305655D01*
X167952635Y-72305651D01*
X167826769Y-72256891D01*
X167762456Y-72231976D01*
X167561976Y-72194500D01*
X167358024Y-72194500D01*
X167157544Y-72231976D01*
X167157541Y-72231976D01*
X167157541Y-72231977D01*
X166967364Y-72305651D01*
X166967357Y-72305655D01*
X166793960Y-72413017D01*
X166793958Y-72413019D01*
X166643237Y-72550418D01*
X166520327Y-72713178D01*
X166429422Y-72895739D01*
X166429417Y-72895752D01*
X166373602Y-73091917D01*
X166354785Y-73294999D01*
X166354785Y-73295000D01*
X166373602Y-73498082D01*
X166429417Y-73694247D01*
X166429422Y-73694260D01*
X166520327Y-73876821D01*
X166643237Y-74039581D01*
X166793958Y-74176980D01*
X166793960Y-74176982D01*
X166866638Y-74221982D01*
X166967363Y-74284348D01*
X167157544Y-74358024D01*
X167358024Y-74395500D01*
X167358026Y-74395500D01*
X167561974Y-74395500D01*
X167561976Y-74395500D01*
X167762456Y-74358024D01*
X167952637Y-74284348D01*
X168126041Y-74176981D01*
X168276764Y-74039579D01*
X168399673Y-73876821D01*
X168477784Y-73719952D01*
X168486817Y-73701812D01*
X168534319Y-73650575D01*
X168601982Y-73633153D01*
X168668323Y-73655078D01*
X168712278Y-73709389D01*
X168717592Y-73724989D01*
X168726567Y-73758485D01*
X168726570Y-73758492D01*
X168826399Y-73972578D01*
X168961894Y-74166082D01*
X169128917Y-74333105D01*
X169315031Y-74463425D01*
X169358656Y-74518003D01*
X169365848Y-74587501D01*
X169334326Y-74649856D01*
X169315031Y-74666575D01*
X169128922Y-74796890D01*
X169128920Y-74796891D01*
X168961891Y-74963920D01*
X168961886Y-74963926D01*
X168826400Y-75157420D01*
X168826399Y-75157422D01*
X168726570Y-75371507D01*
X168726568Y-75371511D01*
X168717592Y-75405011D01*
X168681226Y-75464671D01*
X168618379Y-75495199D01*
X168549003Y-75486904D01*
X168495126Y-75442418D01*
X168486817Y-75428188D01*
X168417651Y-75289284D01*
X168399673Y-75253179D01*
X168276764Y-75090421D01*
X168276762Y-75090418D01*
X168126041Y-74953019D01*
X168126039Y-74953017D01*
X167952642Y-74845655D01*
X167952635Y-74845651D01*
X167807131Y-74789283D01*
X167762456Y-74771976D01*
X167561976Y-74734500D01*
X167358024Y-74734500D01*
X167157544Y-74771976D01*
X167157541Y-74771976D01*
X167157541Y-74771977D01*
X166967364Y-74845651D01*
X166967357Y-74845655D01*
X166793960Y-74953017D01*
X166793958Y-74953019D01*
X166643237Y-75090418D01*
X166520327Y-75253178D01*
X166429422Y-75435739D01*
X166429417Y-75435752D01*
X166372476Y-75635876D01*
X166335196Y-75694969D01*
X166271886Y-75724526D01*
X166202647Y-75715164D01*
X166149461Y-75669854D01*
X166137268Y-75645912D01*
X166136233Y-75643182D01*
X166080216Y-75495477D01*
X165990479Y-75365470D01*
X165872236Y-75260717D01*
X165872234Y-75260716D01*
X165872233Y-75260715D01*
X165732361Y-75187303D01*
X165578982Y-75149500D01*
X165578981Y-75149500D01*
X165421011Y-75149500D01*
X165421010Y-75149500D01*
X165267630Y-75187303D01*
X165127758Y-75260715D01*
X165009512Y-75365471D01*
X164919777Y-75495475D01*
X164919776Y-75495476D01*
X164863758Y-75643181D01*
X164844718Y-75799999D01*
X164844718Y-75800000D01*
X130500500Y-75800000D01*
X130500500Y-74250000D01*
X137844722Y-74250000D01*
X137863762Y-74406818D01*
X137878424Y-74445477D01*
X137919780Y-74554523D01*
X138009517Y-74684530D01*
X138127760Y-74789283D01*
X138127762Y-74789284D01*
X138267634Y-74862696D01*
X138421014Y-74900500D01*
X138421015Y-74900500D01*
X138578985Y-74900500D01*
X138732365Y-74862696D01*
X138764841Y-74845651D01*
X138872240Y-74789283D01*
X138990483Y-74684530D01*
X139080220Y-74554523D01*
X139136237Y-74406818D01*
X139155278Y-74250000D01*
X139136237Y-74093182D01*
X139132974Y-74084579D01*
X139100323Y-73998485D01*
X139080220Y-73945477D01*
X138990483Y-73815470D01*
X138872240Y-73710717D01*
X138872238Y-73710716D01*
X138872237Y-73710715D01*
X138732365Y-73637303D01*
X138578986Y-73599500D01*
X138578985Y-73599500D01*
X138421015Y-73599500D01*
X138421014Y-73599500D01*
X138267634Y-73637303D01*
X138127762Y-73710715D01*
X138009516Y-73815471D01*
X137919781Y-73945475D01*
X137919780Y-73945476D01*
X137863762Y-74093181D01*
X137844722Y-74249999D01*
X137844722Y-74250000D01*
X130500500Y-74250000D01*
X130500500Y-73124678D01*
X131699500Y-73124678D01*
X131714032Y-73197735D01*
X131714033Y-73197739D01*
X131714034Y-73197740D01*
X131769399Y-73280601D01*
X131851263Y-73335300D01*
X131852260Y-73335966D01*
X131852264Y-73335967D01*
X131925321Y-73350499D01*
X131925324Y-73350500D01*
X131925326Y-73350500D01*
X133574676Y-73350500D01*
X133574677Y-73350499D01*
X133647740Y-73335966D01*
X133730601Y-73280601D01*
X133785966Y-73197740D01*
X133800500Y-73124674D01*
X133800500Y-72299999D01*
X134894417Y-72299999D01*
X134914699Y-72505932D01*
X134928194Y-72550418D01*
X134974768Y-72703954D01*
X135072315Y-72886450D01*
X135079949Y-72895752D01*
X135203589Y-73046410D01*
X135271279Y-73101961D01*
X135363550Y-73177685D01*
X135546046Y-73275232D01*
X135744066Y-73335300D01*
X135744065Y-73335300D01*
X135762529Y-73337118D01*
X135950000Y-73355583D01*
X136155934Y-73335300D01*
X136353954Y-73275232D01*
X136536450Y-73177685D01*
X136696410Y-73046410D01*
X136827685Y-72886450D01*
X136925232Y-72703954D01*
X136985300Y-72505934D01*
X136996472Y-72392500D01*
X138744417Y-72392500D01*
X138764699Y-72598432D01*
X138794734Y-72697444D01*
X138824768Y-72796454D01*
X138922315Y-72978950D01*
X138922317Y-72978952D01*
X139053589Y-73138910D01*
X139125269Y-73197735D01*
X139213550Y-73270185D01*
X139396046Y-73367732D01*
X139594066Y-73427800D01*
X139594065Y-73427800D01*
X139612529Y-73429618D01*
X139800000Y-73448083D01*
X140005934Y-73427800D01*
X140203954Y-73367732D01*
X140386450Y-73270185D01*
X140546410Y-73138910D01*
X140677685Y-72978950D01*
X140775232Y-72796454D01*
X140835300Y-72598434D01*
X140855583Y-72392500D01*
X141944417Y-72392500D01*
X141964699Y-72598432D01*
X141994734Y-72697443D01*
X142024768Y-72796454D01*
X142122315Y-72978950D01*
X142122317Y-72978952D01*
X142253589Y-73138910D01*
X142325269Y-73197735D01*
X142413550Y-73270185D01*
X142596046Y-73367732D01*
X142794066Y-73427800D01*
X142794065Y-73427800D01*
X142812529Y-73429618D01*
X143000000Y-73448083D01*
X143205934Y-73427800D01*
X143403954Y-73367732D01*
X143455836Y-73340000D01*
X162144785Y-73340000D01*
X162163602Y-73543082D01*
X162219417Y-73739247D01*
X162219422Y-73739260D01*
X162310327Y-73921821D01*
X162433237Y-74084581D01*
X162583958Y-74221980D01*
X162583960Y-74221982D01*
X162629211Y-74250000D01*
X162757363Y-74329348D01*
X162947544Y-74403024D01*
X163148024Y-74440500D01*
X163148026Y-74440500D01*
X163351974Y-74440500D01*
X163351976Y-74440500D01*
X163552456Y-74403024D01*
X163742637Y-74329348D01*
X163916041Y-74221981D01*
X164066764Y-74084579D01*
X164189673Y-73921821D01*
X164280582Y-73739250D01*
X164336397Y-73543083D01*
X164355215Y-73340000D01*
X164354779Y-73335300D01*
X164336397Y-73136917D01*
X164332914Y-73124676D01*
X164280582Y-72940750D01*
X164258169Y-72895739D01*
X164211567Y-72802149D01*
X164189673Y-72758179D01*
X164104989Y-72646039D01*
X164066762Y-72595418D01*
X163916041Y-72458019D01*
X163916039Y-72458017D01*
X163742642Y-72350655D01*
X163742635Y-72350651D01*
X163642699Y-72311936D01*
X163552456Y-72276976D01*
X163351976Y-72239500D01*
X163148024Y-72239500D01*
X162947544Y-72276976D01*
X162947541Y-72276976D01*
X162947541Y-72276977D01*
X162757364Y-72350651D01*
X162757357Y-72350655D01*
X162583960Y-72458017D01*
X162583958Y-72458019D01*
X162433237Y-72595418D01*
X162310327Y-72758178D01*
X162219422Y-72940739D01*
X162219417Y-72940752D01*
X162163602Y-73136917D01*
X162144785Y-73339999D01*
X162144785Y-73340000D01*
X143455836Y-73340000D01*
X143586450Y-73270185D01*
X143746410Y-73138910D01*
X143877685Y-72978950D01*
X143975232Y-72796454D01*
X144035300Y-72598434D01*
X144055583Y-72392500D01*
X144035300Y-72186566D01*
X143975232Y-71988546D01*
X143877685Y-71806050D01*
X143775865Y-71681981D01*
X143746410Y-71646089D01*
X143592751Y-71519986D01*
X143586450Y-71514815D01*
X143403954Y-71417268D01*
X143205934Y-71357200D01*
X143205932Y-71357199D01*
X143205934Y-71357199D01*
X143000000Y-71336917D01*
X142794067Y-71357199D01*
X142596043Y-71417269D01*
X142497476Y-71469955D01*
X142413550Y-71514815D01*
X142413548Y-71514816D01*
X142413547Y-71514817D01*
X142253589Y-71646089D01*
X142122317Y-71806047D01*
X142122315Y-71806050D01*
X142087800Y-71870622D01*
X142024769Y-71988543D01*
X142024768Y-71988545D01*
X142024768Y-71988546D01*
X142021022Y-72000895D01*
X141964699Y-72186567D01*
X141944417Y-72392500D01*
X140855583Y-72392500D01*
X140835300Y-72186566D01*
X140775232Y-71988546D01*
X140677685Y-71806050D01*
X140575865Y-71681981D01*
X140546410Y-71646089D01*
X140392751Y-71519986D01*
X140386450Y-71514815D01*
X140203954Y-71417268D01*
X140005934Y-71357200D01*
X140005932Y-71357199D01*
X140005934Y-71357199D01*
X139800000Y-71336917D01*
X139594067Y-71357199D01*
X139396043Y-71417269D01*
X139297476Y-71469955D01*
X139213550Y-71514815D01*
X139213548Y-71514816D01*
X139213547Y-71514817D01*
X139053589Y-71646089D01*
X138922317Y-71806047D01*
X138922315Y-71806050D01*
X138887800Y-71870622D01*
X138824769Y-71988543D01*
X138824768Y-71988545D01*
X138824768Y-71988546D01*
X138821022Y-72000895D01*
X138764699Y-72186567D01*
X138744417Y-72392500D01*
X136996472Y-72392500D01*
X137005583Y-72300000D01*
X136985300Y-72094066D01*
X136925232Y-71896046D01*
X136827685Y-71713550D01*
X136726328Y-71590045D01*
X136696410Y-71553589D01*
X136536452Y-71422317D01*
X136536453Y-71422317D01*
X136536450Y-71422315D01*
X136353954Y-71324768D01*
X136155934Y-71264700D01*
X136155932Y-71264699D01*
X136155934Y-71264699D01*
X135950000Y-71244417D01*
X135744067Y-71264699D01*
X135546043Y-71324769D01*
X135469844Y-71365499D01*
X135363550Y-71422315D01*
X135363548Y-71422316D01*
X135363547Y-71422317D01*
X135203589Y-71553589D01*
X135072317Y-71713547D01*
X135072315Y-71713550D01*
X135047487Y-71760000D01*
X134974769Y-71896043D01*
X134914699Y-72094067D01*
X134894417Y-72299999D01*
X133800500Y-72299999D01*
X133800500Y-71475326D01*
X133800500Y-71475323D01*
X133800499Y-71475321D01*
X133785967Y-71402264D01*
X133785966Y-71402260D01*
X133772309Y-71381821D01*
X133730601Y-71319399D01*
X133648737Y-71264700D01*
X133647739Y-71264033D01*
X133647735Y-71264032D01*
X133574677Y-71249500D01*
X133574674Y-71249500D01*
X131925326Y-71249500D01*
X131925323Y-71249500D01*
X131852264Y-71264032D01*
X131852260Y-71264033D01*
X131769399Y-71319399D01*
X131714033Y-71402260D01*
X131714032Y-71402264D01*
X131699500Y-71475321D01*
X131699500Y-73124678D01*
X130500500Y-73124678D01*
X130500500Y-67302213D01*
X130500658Y-67297789D01*
X130504444Y-67244852D01*
X130515130Y-67095436D01*
X130517646Y-67077938D01*
X130559356Y-66886199D01*
X130564333Y-66869248D01*
X130632911Y-66685385D01*
X130640259Y-66669298D01*
X130652932Y-66646089D01*
X130734291Y-66497089D01*
X130743845Y-66482221D01*
X130861448Y-66325123D01*
X130873020Y-66311769D01*
X131011769Y-66173020D01*
X131025123Y-66161448D01*
X131182221Y-66043845D01*
X131197089Y-66034291D01*
X131369298Y-65940258D01*
X131385385Y-65932911D01*
X131569248Y-65864333D01*
X131586199Y-65859356D01*
X131777938Y-65817646D01*
X131795436Y-65815130D01*
X131997791Y-65800657D01*
X132002214Y-65800500D01*
X132092710Y-65800500D01*
X132381520Y-65800500D01*
X132448559Y-65820185D01*
G37*
%TD.AperFunction*%
%TA.AperFunction,Conductor*%
G36*
X131500000Y-84800000D02*
G01*
X133213680Y-83086318D01*
X133213684Y-83086315D01*
X131500000Y-84800000D01*
G37*
%TD.AperFunction*%
%TD*%
%TA.AperFunction,Conductor*%
%TO.N,GND*%
G36*
X136515677Y-83069685D02*
G01*
X136536319Y-83086319D01*
X136963681Y-83513681D01*
X136997166Y-83575004D01*
X137000000Y-83601360D01*
X137000000Y-86550000D01*
X137750000Y-87300000D01*
X140198638Y-87300000D01*
X140265677Y-87319685D01*
X140286319Y-87336319D01*
X141000000Y-88050000D01*
X142198638Y-88050000D01*
X142265677Y-88069685D01*
X142286319Y-88086319D01*
X142463682Y-88263682D01*
X142497166Y-88325003D01*
X142500000Y-88351361D01*
X142500000Y-88748638D01*
X142480315Y-88815677D01*
X142463681Y-88836319D01*
X142286319Y-89013681D01*
X142224996Y-89047166D01*
X142198638Y-89050000D01*
X140749999Y-89050000D01*
X139786319Y-90013681D01*
X139724996Y-90047166D01*
X139698638Y-90050000D01*
X137249999Y-90050000D01*
X137000000Y-90299999D01*
X137000000Y-91248637D01*
X136980315Y-91315676D01*
X136963681Y-91336318D01*
X136286319Y-92013681D01*
X136224996Y-92047166D01*
X136198638Y-92050000D01*
X134551362Y-92050000D01*
X134484323Y-92030315D01*
X134463681Y-92013681D01*
X133250000Y-90800000D01*
X130624500Y-90800000D01*
X130557461Y-90780315D01*
X130511706Y-90727511D01*
X130500500Y-90676000D01*
X130500500Y-84924000D01*
X130520185Y-84856961D01*
X130572989Y-84811206D01*
X130624500Y-84800000D01*
X131500000Y-84800000D01*
X133213684Y-83086315D01*
X133275004Y-83052834D01*
X133301362Y-83050000D01*
X136448638Y-83050000D01*
X136515677Y-83069685D01*
G37*
%TD.AperFunction*%
%TD*%
M02*
